%TF.GenerationSoftware,KiCad,Pcbnew,9.0.4*%
%TF.CreationDate,2025-11-25T12:32:01-05:00*%
%TF.ProjectId,power-breakout,706f7765-722d-4627-9265-616b6f75742e,rev?*%
%TF.SameCoordinates,Original*%
%TF.FileFunction,Legend,Top*%
%TF.FilePolarity,Positive*%
%FSLAX46Y46*%
G04 Gerber Fmt 4.6, Leading zero omitted, Abs format (unit mm)*
G04 Created by KiCad (PCBNEW 9.0.4) date 2025-11-25 12:32:01*
%MOMM*%
%LPD*%
G01*
G04 APERTURE LIST*
%ADD10C,0.150000*%
%ADD11C,0.120000*%
G04 APERTURE END LIST*
D10*
X-11838094Y-3254819D02*
X-11838094Y-2254819D01*
X-11838094Y-2254819D02*
X-11599999Y-2254819D01*
X-11599999Y-2254819D02*
X-11457142Y-2302438D01*
X-11457142Y-2302438D02*
X-11361904Y-2397676D01*
X-11361904Y-2397676D02*
X-11314285Y-2492914D01*
X-11314285Y-2492914D02*
X-11266666Y-2683390D01*
X-11266666Y-2683390D02*
X-11266666Y-2826247D01*
X-11266666Y-2826247D02*
X-11314285Y-3016723D01*
X-11314285Y-3016723D02*
X-11361904Y-3111961D01*
X-11361904Y-3111961D02*
X-11457142Y-3207200D01*
X-11457142Y-3207200D02*
X-11599999Y-3254819D01*
X-11599999Y-3254819D02*
X-11838094Y-3254819D01*
X-10409523Y-2588152D02*
X-10409523Y-3254819D01*
X-10647618Y-2207200D02*
X-10885713Y-2921485D01*
X-10885713Y-2921485D02*
X-10266666Y-2921485D01*
X-4166666Y-24454819D02*
X-4499999Y-23978628D01*
X-4738094Y-24454819D02*
X-4738094Y-23454819D01*
X-4738094Y-23454819D02*
X-4357142Y-23454819D01*
X-4357142Y-23454819D02*
X-4261904Y-23502438D01*
X-4261904Y-23502438D02*
X-4214285Y-23550057D01*
X-4214285Y-23550057D02*
X-4166666Y-23645295D01*
X-4166666Y-23645295D02*
X-4166666Y-23788152D01*
X-4166666Y-23788152D02*
X-4214285Y-23883390D01*
X-4214285Y-23883390D02*
X-4261904Y-23931009D01*
X-4261904Y-23931009D02*
X-4357142Y-23978628D01*
X-4357142Y-23978628D02*
X-4738094Y-23978628D01*
X-3833332Y-23454819D02*
X-3214285Y-23454819D01*
X-3214285Y-23454819D02*
X-3547618Y-23835771D01*
X-3547618Y-23835771D02*
X-3404761Y-23835771D01*
X-3404761Y-23835771D02*
X-3309523Y-23883390D01*
X-3309523Y-23883390D02*
X-3261904Y-23931009D01*
X-3261904Y-23931009D02*
X-3214285Y-24026247D01*
X-3214285Y-24026247D02*
X-3214285Y-24264342D01*
X-3214285Y-24264342D02*
X-3261904Y-24359580D01*
X-3261904Y-24359580D02*
X-3309523Y-24407200D01*
X-3309523Y-24407200D02*
X-3404761Y-24454819D01*
X-3404761Y-24454819D02*
X-3690475Y-24454819D01*
X-3690475Y-24454819D02*
X-3785713Y-24407200D01*
X-3785713Y-24407200D02*
X-3833332Y-24359580D01*
X7283332Y-40089580D02*
X7235713Y-40137200D01*
X7235713Y-40137200D02*
X7092856Y-40184819D01*
X7092856Y-40184819D02*
X6997618Y-40184819D01*
X6997618Y-40184819D02*
X6854761Y-40137200D01*
X6854761Y-40137200D02*
X6759523Y-40041961D01*
X6759523Y-40041961D02*
X6711904Y-39946723D01*
X6711904Y-39946723D02*
X6664285Y-39756247D01*
X6664285Y-39756247D02*
X6664285Y-39613390D01*
X6664285Y-39613390D02*
X6711904Y-39422914D01*
X6711904Y-39422914D02*
X6759523Y-39327676D01*
X6759523Y-39327676D02*
X6854761Y-39232438D01*
X6854761Y-39232438D02*
X6997618Y-39184819D01*
X6997618Y-39184819D02*
X7092856Y-39184819D01*
X7092856Y-39184819D02*
X7235713Y-39232438D01*
X7235713Y-39232438D02*
X7283332Y-39280057D01*
X7616666Y-39184819D02*
X8235713Y-39184819D01*
X8235713Y-39184819D02*
X7902380Y-39565771D01*
X7902380Y-39565771D02*
X8045237Y-39565771D01*
X8045237Y-39565771D02*
X8140475Y-39613390D01*
X8140475Y-39613390D02*
X8188094Y-39661009D01*
X8188094Y-39661009D02*
X8235713Y-39756247D01*
X8235713Y-39756247D02*
X8235713Y-39994342D01*
X8235713Y-39994342D02*
X8188094Y-40089580D01*
X8188094Y-40089580D02*
X8140475Y-40137200D01*
X8140475Y-40137200D02*
X8045237Y-40184819D01*
X8045237Y-40184819D02*
X7759523Y-40184819D01*
X7759523Y-40184819D02*
X7664285Y-40137200D01*
X7664285Y-40137200D02*
X7616666Y-40089580D01*
X-15766666Y-3254819D02*
X-16099999Y-2778628D01*
X-16338094Y-3254819D02*
X-16338094Y-2254819D01*
X-16338094Y-2254819D02*
X-15957142Y-2254819D01*
X-15957142Y-2254819D02*
X-15861904Y-2302438D01*
X-15861904Y-2302438D02*
X-15814285Y-2350057D01*
X-15814285Y-2350057D02*
X-15766666Y-2445295D01*
X-15766666Y-2445295D02*
X-15766666Y-2588152D01*
X-15766666Y-2588152D02*
X-15814285Y-2683390D01*
X-15814285Y-2683390D02*
X-15861904Y-2731009D01*
X-15861904Y-2731009D02*
X-15957142Y-2778628D01*
X-15957142Y-2778628D02*
X-16338094Y-2778628D01*
X-14861904Y-2254819D02*
X-15338094Y-2254819D01*
X-15338094Y-2254819D02*
X-15385713Y-2731009D01*
X-15385713Y-2731009D02*
X-15338094Y-2683390D01*
X-15338094Y-2683390D02*
X-15242856Y-2635771D01*
X-15242856Y-2635771D02*
X-15004761Y-2635771D01*
X-15004761Y-2635771D02*
X-14909523Y-2683390D01*
X-14909523Y-2683390D02*
X-14861904Y-2731009D01*
X-14861904Y-2731009D02*
X-14814285Y-2826247D01*
X-14814285Y-2826247D02*
X-14814285Y-3064342D01*
X-14814285Y-3064342D02*
X-14861904Y-3159580D01*
X-14861904Y-3159580D02*
X-14909523Y-3207200D01*
X-14909523Y-3207200D02*
X-15004761Y-3254819D01*
X-15004761Y-3254819D02*
X-15242856Y-3254819D01*
X-15242856Y-3254819D02*
X-15338094Y-3207200D01*
X-15338094Y-3207200D02*
X-15385713Y-3159580D01*
X14261905Y-24454819D02*
X14261905Y-23454819D01*
X14261905Y-23454819D02*
X14500000Y-23454819D01*
X14500000Y-23454819D02*
X14642857Y-23502438D01*
X14642857Y-23502438D02*
X14738095Y-23597676D01*
X14738095Y-23597676D02*
X14785714Y-23692914D01*
X14785714Y-23692914D02*
X14833333Y-23883390D01*
X14833333Y-23883390D02*
X14833333Y-24026247D01*
X14833333Y-24026247D02*
X14785714Y-24216723D01*
X14785714Y-24216723D02*
X14738095Y-24311961D01*
X14738095Y-24311961D02*
X14642857Y-24407200D01*
X14642857Y-24407200D02*
X14500000Y-24454819D01*
X14500000Y-24454819D02*
X14261905Y-24454819D01*
X15214286Y-23550057D02*
X15261905Y-23502438D01*
X15261905Y-23502438D02*
X15357143Y-23454819D01*
X15357143Y-23454819D02*
X15595238Y-23454819D01*
X15595238Y-23454819D02*
X15690476Y-23502438D01*
X15690476Y-23502438D02*
X15738095Y-23550057D01*
X15738095Y-23550057D02*
X15785714Y-23645295D01*
X15785714Y-23645295D02*
X15785714Y-23740533D01*
X15785714Y-23740533D02*
X15738095Y-23883390D01*
X15738095Y-23883390D02*
X15166667Y-24454819D01*
X15166667Y-24454819D02*
X15785714Y-24454819D01*
X-3166666Y-17359580D02*
X-3214285Y-17407200D01*
X-3214285Y-17407200D02*
X-3357142Y-17454819D01*
X-3357142Y-17454819D02*
X-3452380Y-17454819D01*
X-3452380Y-17454819D02*
X-3595237Y-17407200D01*
X-3595237Y-17407200D02*
X-3690475Y-17311961D01*
X-3690475Y-17311961D02*
X-3738094Y-17216723D01*
X-3738094Y-17216723D02*
X-3785713Y-17026247D01*
X-3785713Y-17026247D02*
X-3785713Y-16883390D01*
X-3785713Y-16883390D02*
X-3738094Y-16692914D01*
X-3738094Y-16692914D02*
X-3690475Y-16597676D01*
X-3690475Y-16597676D02*
X-3595237Y-16502438D01*
X-3595237Y-16502438D02*
X-3452380Y-16454819D01*
X-3452380Y-16454819D02*
X-3357142Y-16454819D01*
X-3357142Y-16454819D02*
X-3214285Y-16502438D01*
X-3214285Y-16502438D02*
X-3166666Y-16550057D01*
X-2214285Y-17454819D02*
X-2785713Y-17454819D01*
X-2499999Y-17454819D02*
X-2499999Y-16454819D01*
X-2499999Y-16454819D02*
X-2595237Y-16597676D01*
X-2595237Y-16597676D02*
X-2690475Y-16692914D01*
X-2690475Y-16692914D02*
X-2785713Y-16740533D01*
X833333Y-40054820D02*
X357143Y-40054820D01*
X357143Y-40054820D02*
X357143Y-39054820D01*
X1690476Y-40054820D02*
X1119048Y-40054820D01*
X1404762Y-40054820D02*
X1404762Y-39054820D01*
X1404762Y-39054820D02*
X1309524Y-39197677D01*
X1309524Y-39197677D02*
X1214286Y-39292915D01*
X1214286Y-39292915D02*
X1119048Y-39340534D01*
X-7266666Y-24359580D02*
X-7314285Y-24407200D01*
X-7314285Y-24407200D02*
X-7457142Y-24454819D01*
X-7457142Y-24454819D02*
X-7552380Y-24454819D01*
X-7552380Y-24454819D02*
X-7695237Y-24407200D01*
X-7695237Y-24407200D02*
X-7790475Y-24311961D01*
X-7790475Y-24311961D02*
X-7838094Y-24216723D01*
X-7838094Y-24216723D02*
X-7885713Y-24026247D01*
X-7885713Y-24026247D02*
X-7885713Y-23883390D01*
X-7885713Y-23883390D02*
X-7838094Y-23692914D01*
X-7838094Y-23692914D02*
X-7790475Y-23597676D01*
X-7790475Y-23597676D02*
X-7695237Y-23502438D01*
X-7695237Y-23502438D02*
X-7552380Y-23454819D01*
X-7552380Y-23454819D02*
X-7457142Y-23454819D01*
X-7457142Y-23454819D02*
X-7314285Y-23502438D01*
X-7314285Y-23502438D02*
X-7266666Y-23550057D01*
X-6885713Y-23550057D02*
X-6838094Y-23502438D01*
X-6838094Y-23502438D02*
X-6742856Y-23454819D01*
X-6742856Y-23454819D02*
X-6504761Y-23454819D01*
X-6504761Y-23454819D02*
X-6409523Y-23502438D01*
X-6409523Y-23502438D02*
X-6361904Y-23550057D01*
X-6361904Y-23550057D02*
X-6314285Y-23645295D01*
X-6314285Y-23645295D02*
X-6314285Y-23740533D01*
X-6314285Y-23740533D02*
X-6361904Y-23883390D01*
X-6361904Y-23883390D02*
X-6933332Y-24454819D01*
X-6933332Y-24454819D02*
X-6314285Y-24454819D01*
X1661905Y-13254819D02*
X1661905Y-12254819D01*
X1661905Y-12254819D02*
X1900000Y-12254819D01*
X1900000Y-12254819D02*
X2042857Y-12302438D01*
X2042857Y-12302438D02*
X2138095Y-12397676D01*
X2138095Y-12397676D02*
X2185714Y-12492914D01*
X2185714Y-12492914D02*
X2233333Y-12683390D01*
X2233333Y-12683390D02*
X2233333Y-12826247D01*
X2233333Y-12826247D02*
X2185714Y-13016723D01*
X2185714Y-13016723D02*
X2138095Y-13111961D01*
X2138095Y-13111961D02*
X2042857Y-13207200D01*
X2042857Y-13207200D02*
X1900000Y-13254819D01*
X1900000Y-13254819D02*
X1661905Y-13254819D01*
X3185714Y-13254819D02*
X2614286Y-13254819D01*
X2900000Y-13254819D02*
X2900000Y-12254819D01*
X2900000Y-12254819D02*
X2804762Y-12397676D01*
X2804762Y-12397676D02*
X2709524Y-12492914D01*
X2709524Y-12492914D02*
X2614286Y-12540533D01*
X7538095Y-29854819D02*
X7538095Y-30664342D01*
X7538095Y-30664342D02*
X7585714Y-30759580D01*
X7585714Y-30759580D02*
X7633333Y-30807200D01*
X7633333Y-30807200D02*
X7728571Y-30854819D01*
X7728571Y-30854819D02*
X7919047Y-30854819D01*
X7919047Y-30854819D02*
X8014285Y-30807200D01*
X8014285Y-30807200D02*
X8061904Y-30759580D01*
X8061904Y-30759580D02*
X8109523Y-30664342D01*
X8109523Y-30664342D02*
X8109523Y-29854819D01*
X8538095Y-29950057D02*
X8585714Y-29902438D01*
X8585714Y-29902438D02*
X8680952Y-29854819D01*
X8680952Y-29854819D02*
X8919047Y-29854819D01*
X8919047Y-29854819D02*
X9014285Y-29902438D01*
X9014285Y-29902438D02*
X9061904Y-29950057D01*
X9061904Y-29950057D02*
X9109523Y-30045295D01*
X9109523Y-30045295D02*
X9109523Y-30140533D01*
X9109523Y-30140533D02*
X9061904Y-30283390D01*
X9061904Y-30283390D02*
X8490476Y-30854819D01*
X8490476Y-30854819D02*
X9109523Y-30854819D01*
X14133333Y-28154819D02*
X13800000Y-27678628D01*
X13561905Y-28154819D02*
X13561905Y-27154819D01*
X13561905Y-27154819D02*
X13942857Y-27154819D01*
X13942857Y-27154819D02*
X14038095Y-27202438D01*
X14038095Y-27202438D02*
X14085714Y-27250057D01*
X14085714Y-27250057D02*
X14133333Y-27345295D01*
X14133333Y-27345295D02*
X14133333Y-27488152D01*
X14133333Y-27488152D02*
X14085714Y-27583390D01*
X14085714Y-27583390D02*
X14038095Y-27631009D01*
X14038095Y-27631009D02*
X13942857Y-27678628D01*
X13942857Y-27678628D02*
X13561905Y-27678628D01*
X14514286Y-27250057D02*
X14561905Y-27202438D01*
X14561905Y-27202438D02*
X14657143Y-27154819D01*
X14657143Y-27154819D02*
X14895238Y-27154819D01*
X14895238Y-27154819D02*
X14990476Y-27202438D01*
X14990476Y-27202438D02*
X15038095Y-27250057D01*
X15038095Y-27250057D02*
X15085714Y-27345295D01*
X15085714Y-27345295D02*
X15085714Y-27440533D01*
X15085714Y-27440533D02*
X15038095Y-27583390D01*
X15038095Y-27583390D02*
X14466667Y-28154819D01*
X14466667Y-28154819D02*
X15085714Y-28154819D01*
X-6966666Y-30959580D02*
X-7014285Y-31007200D01*
X-7014285Y-31007200D02*
X-7157142Y-31054819D01*
X-7157142Y-31054819D02*
X-7252380Y-31054819D01*
X-7252380Y-31054819D02*
X-7395237Y-31007200D01*
X-7395237Y-31007200D02*
X-7490475Y-30911961D01*
X-7490475Y-30911961D02*
X-7538094Y-30816723D01*
X-7538094Y-30816723D02*
X-7585713Y-30626247D01*
X-7585713Y-30626247D02*
X-7585713Y-30483390D01*
X-7585713Y-30483390D02*
X-7538094Y-30292914D01*
X-7538094Y-30292914D02*
X-7490475Y-30197676D01*
X-7490475Y-30197676D02*
X-7395237Y-30102438D01*
X-7395237Y-30102438D02*
X-7252380Y-30054819D01*
X-7252380Y-30054819D02*
X-7157142Y-30054819D01*
X-7157142Y-30054819D02*
X-7014285Y-30102438D01*
X-7014285Y-30102438D02*
X-6966666Y-30150057D01*
X-6109523Y-30054819D02*
X-6299999Y-30054819D01*
X-6299999Y-30054819D02*
X-6395237Y-30102438D01*
X-6395237Y-30102438D02*
X-6442856Y-30150057D01*
X-6442856Y-30150057D02*
X-6538094Y-30292914D01*
X-6538094Y-30292914D02*
X-6585713Y-30483390D01*
X-6585713Y-30483390D02*
X-6585713Y-30864342D01*
X-6585713Y-30864342D02*
X-6538094Y-30959580D01*
X-6538094Y-30959580D02*
X-6490475Y-31007200D01*
X-6490475Y-31007200D02*
X-6395237Y-31054819D01*
X-6395237Y-31054819D02*
X-6204761Y-31054819D01*
X-6204761Y-31054819D02*
X-6109523Y-31007200D01*
X-6109523Y-31007200D02*
X-6061904Y-30959580D01*
X-6061904Y-30959580D02*
X-6014285Y-30864342D01*
X-6014285Y-30864342D02*
X-6014285Y-30626247D01*
X-6014285Y-30626247D02*
X-6061904Y-30531009D01*
X-6061904Y-30531009D02*
X-6109523Y-30483390D01*
X-6109523Y-30483390D02*
X-6204761Y-30435771D01*
X-6204761Y-30435771D02*
X-6395237Y-30435771D01*
X-6395237Y-30435771D02*
X-6490475Y-30483390D01*
X-6490475Y-30483390D02*
X-6538094Y-30531009D01*
X-6538094Y-30531009D02*
X-6585713Y-30626247D01*
X10133333Y-35359580D02*
X10085714Y-35407200D01*
X10085714Y-35407200D02*
X9942857Y-35454819D01*
X9942857Y-35454819D02*
X9847619Y-35454819D01*
X9847619Y-35454819D02*
X9704762Y-35407200D01*
X9704762Y-35407200D02*
X9609524Y-35311961D01*
X9609524Y-35311961D02*
X9561905Y-35216723D01*
X9561905Y-35216723D02*
X9514286Y-35026247D01*
X9514286Y-35026247D02*
X9514286Y-34883390D01*
X9514286Y-34883390D02*
X9561905Y-34692914D01*
X9561905Y-34692914D02*
X9609524Y-34597676D01*
X9609524Y-34597676D02*
X9704762Y-34502438D01*
X9704762Y-34502438D02*
X9847619Y-34454819D01*
X9847619Y-34454819D02*
X9942857Y-34454819D01*
X9942857Y-34454819D02*
X10085714Y-34502438D01*
X10085714Y-34502438D02*
X10133333Y-34550057D01*
X10990476Y-34788152D02*
X10990476Y-35454819D01*
X10752381Y-34407200D02*
X10514286Y-35121485D01*
X10514286Y-35121485D02*
X11133333Y-35121485D01*
X-1138094Y-20754819D02*
X-1138094Y-19754819D01*
X-1138094Y-19754819D02*
X-899999Y-19754819D01*
X-899999Y-19754819D02*
X-757142Y-19802438D01*
X-757142Y-19802438D02*
X-661904Y-19897676D01*
X-661904Y-19897676D02*
X-614285Y-19992914D01*
X-614285Y-19992914D02*
X-566666Y-20183390D01*
X-566666Y-20183390D02*
X-566666Y-20326247D01*
X-566666Y-20326247D02*
X-614285Y-20516723D01*
X-614285Y-20516723D02*
X-661904Y-20611961D01*
X-661904Y-20611961D02*
X-757142Y-20707200D01*
X-757142Y-20707200D02*
X-899999Y-20754819D01*
X-899999Y-20754819D02*
X-1138094Y-20754819D01*
X-233332Y-19754819D02*
X385714Y-19754819D01*
X385714Y-19754819D02*
X52381Y-20135771D01*
X52381Y-20135771D02*
X195238Y-20135771D01*
X195238Y-20135771D02*
X290476Y-20183390D01*
X290476Y-20183390D02*
X338095Y-20231009D01*
X338095Y-20231009D02*
X385714Y-20326247D01*
X385714Y-20326247D02*
X385714Y-20564342D01*
X385714Y-20564342D02*
X338095Y-20659580D01*
X338095Y-20659580D02*
X290476Y-20707200D01*
X290476Y-20707200D02*
X195238Y-20754819D01*
X195238Y-20754819D02*
X-90475Y-20754819D01*
X-90475Y-20754819D02*
X-185713Y-20707200D01*
X-185713Y-20707200D02*
X-233332Y-20659580D01*
X2938095Y-19254819D02*
X2938095Y-20064342D01*
X2938095Y-20064342D02*
X2985714Y-20159580D01*
X2985714Y-20159580D02*
X3033333Y-20207200D01*
X3033333Y-20207200D02*
X3128571Y-20254819D01*
X3128571Y-20254819D02*
X3319047Y-20254819D01*
X3319047Y-20254819D02*
X3414285Y-20207200D01*
X3414285Y-20207200D02*
X3461904Y-20159580D01*
X3461904Y-20159580D02*
X3509523Y-20064342D01*
X3509523Y-20064342D02*
X3509523Y-19254819D01*
X4509523Y-20254819D02*
X3938095Y-20254819D01*
X4223809Y-20254819D02*
X4223809Y-19254819D01*
X4223809Y-19254819D02*
X4128571Y-19397676D01*
X4128571Y-19397676D02*
X4033333Y-19492914D01*
X4033333Y-19492914D02*
X3938095Y-19540533D01*
X14033333Y-21454819D02*
X13700000Y-20978628D01*
X13461905Y-21454819D02*
X13461905Y-20454819D01*
X13461905Y-20454819D02*
X13842857Y-20454819D01*
X13842857Y-20454819D02*
X13938095Y-20502438D01*
X13938095Y-20502438D02*
X13985714Y-20550057D01*
X13985714Y-20550057D02*
X14033333Y-20645295D01*
X14033333Y-20645295D02*
X14033333Y-20788152D01*
X14033333Y-20788152D02*
X13985714Y-20883390D01*
X13985714Y-20883390D02*
X13938095Y-20931009D01*
X13938095Y-20931009D02*
X13842857Y-20978628D01*
X13842857Y-20978628D02*
X13461905Y-20978628D01*
X14985714Y-21454819D02*
X14414286Y-21454819D01*
X14700000Y-21454819D02*
X14700000Y-20454819D01*
X14700000Y-20454819D02*
X14604762Y-20597676D01*
X14604762Y-20597676D02*
X14509524Y-20692914D01*
X14509524Y-20692914D02*
X14414286Y-20740533D01*
X-2666666Y-27654819D02*
X-2999999Y-27178628D01*
X-3238094Y-27654819D02*
X-3238094Y-26654819D01*
X-3238094Y-26654819D02*
X-2857142Y-26654819D01*
X-2857142Y-26654819D02*
X-2761904Y-26702438D01*
X-2761904Y-26702438D02*
X-2714285Y-26750057D01*
X-2714285Y-26750057D02*
X-2666666Y-26845295D01*
X-2666666Y-26845295D02*
X-2666666Y-26988152D01*
X-2666666Y-26988152D02*
X-2714285Y-27083390D01*
X-2714285Y-27083390D02*
X-2761904Y-27131009D01*
X-2761904Y-27131009D02*
X-2857142Y-27178628D01*
X-2857142Y-27178628D02*
X-3238094Y-27178628D01*
X-1809523Y-26988152D02*
X-1809523Y-27654819D01*
X-2047618Y-26607200D02*
X-2285713Y-27321485D01*
X-2285713Y-27321485D02*
X-1666666Y-27321485D01*
X-7733333Y-11254819D02*
X-7733333Y-11969104D01*
X-7733333Y-11969104D02*
X-7780952Y-12111961D01*
X-7780952Y-12111961D02*
X-7876190Y-12207200D01*
X-7876190Y-12207200D02*
X-8019047Y-12254819D01*
X-8019047Y-12254819D02*
X-8114285Y-12254819D01*
X-6733333Y-12254819D02*
X-7304761Y-12254819D01*
X-7019047Y-12254819D02*
X-7019047Y-11254819D01*
X-7019047Y-11254819D02*
X-7114285Y-11397676D01*
X-7114285Y-11397676D02*
X-7209523Y-11492914D01*
X-7209523Y-11492914D02*
X-7304761Y-11540533D01*
X-21033333Y-26454819D02*
X-21033333Y-27169104D01*
X-21033333Y-27169104D02*
X-21080952Y-27311961D01*
X-21080952Y-27311961D02*
X-21176190Y-27407200D01*
X-21176190Y-27407200D02*
X-21319047Y-27454819D01*
X-21319047Y-27454819D02*
X-21414285Y-27454819D01*
X-20604761Y-26550057D02*
X-20557142Y-26502438D01*
X-20557142Y-26502438D02*
X-20461904Y-26454819D01*
X-20461904Y-26454819D02*
X-20223809Y-26454819D01*
X-20223809Y-26454819D02*
X-20128571Y-26502438D01*
X-20128571Y-26502438D02*
X-20080952Y-26550057D01*
X-20080952Y-26550057D02*
X-20033333Y-26645295D01*
X-20033333Y-26645295D02*
X-20033333Y-26740533D01*
X-20033333Y-26740533D02*
X-20080952Y-26883390D01*
X-20080952Y-26883390D02*
X-20652380Y-27454819D01*
X-20652380Y-27454819D02*
X-20033333Y-27454819D01*
X-4066666Y-30859580D02*
X-4114285Y-30907200D01*
X-4114285Y-30907200D02*
X-4257142Y-30954819D01*
X-4257142Y-30954819D02*
X-4352380Y-30954819D01*
X-4352380Y-30954819D02*
X-4495237Y-30907200D01*
X-4495237Y-30907200D02*
X-4590475Y-30811961D01*
X-4590475Y-30811961D02*
X-4638094Y-30716723D01*
X-4638094Y-30716723D02*
X-4685713Y-30526247D01*
X-4685713Y-30526247D02*
X-4685713Y-30383390D01*
X-4685713Y-30383390D02*
X-4638094Y-30192914D01*
X-4638094Y-30192914D02*
X-4590475Y-30097676D01*
X-4590475Y-30097676D02*
X-4495237Y-30002438D01*
X-4495237Y-30002438D02*
X-4352380Y-29954819D01*
X-4352380Y-29954819D02*
X-4257142Y-29954819D01*
X-4257142Y-29954819D02*
X-4114285Y-30002438D01*
X-4114285Y-30002438D02*
X-4066666Y-30050057D01*
X-3161904Y-29954819D02*
X-3638094Y-29954819D01*
X-3638094Y-29954819D02*
X-3685713Y-30431009D01*
X-3685713Y-30431009D02*
X-3638094Y-30383390D01*
X-3638094Y-30383390D02*
X-3542856Y-30335771D01*
X-3542856Y-30335771D02*
X-3304761Y-30335771D01*
X-3304761Y-30335771D02*
X-3209523Y-30383390D01*
X-3209523Y-30383390D02*
X-3161904Y-30431009D01*
X-3161904Y-30431009D02*
X-3114285Y-30526247D01*
X-3114285Y-30526247D02*
X-3114285Y-30764342D01*
X-3114285Y-30764342D02*
X-3161904Y-30859580D01*
X-3161904Y-30859580D02*
X-3209523Y-30907200D01*
X-3209523Y-30907200D02*
X-3304761Y-30954819D01*
X-3304761Y-30954819D02*
X-3542856Y-30954819D01*
X-3542856Y-30954819D02*
X-3638094Y-30907200D01*
X-3638094Y-30907200D02*
X-3685713Y-30859580D01*
X10866666Y-6431009D02*
X10533333Y-6431009D01*
X10533333Y-6954819D02*
X10533333Y-5954819D01*
X10533333Y-5954819D02*
X11009523Y-5954819D01*
X11914285Y-6954819D02*
X11342857Y-6954819D01*
X11628571Y-6954819D02*
X11628571Y-5954819D01*
X11628571Y-5954819D02*
X11533333Y-6097676D01*
X11533333Y-6097676D02*
X11438095Y-6192914D01*
X11438095Y-6192914D02*
X11342857Y-6240533D01*
D11*
%TO.C,D4*%
X-12087500Y-1960000D02*
X-9402501Y-1960000D01*
X-9402501Y-40000D02*
X-12087500Y-40000D01*
X-9402501Y-1960000D02*
X-9402501Y-40000D01*
%TO.C,R3*%
X-4735000Y-21072937D02*
X-4735000Y-21527065D01*
X-3265000Y-21072937D02*
X-3265000Y-21527065D01*
%TO.C,C3*%
X7711252Y-37315001D02*
X7188746Y-37315001D01*
X7711252Y-38785001D02*
X7188746Y-38785001D01*
%TO.C,R5*%
X-15814564Y-265000D02*
X-15360436Y-265000D01*
X-15814564Y-1735000D02*
X-15360436Y-1735000D01*
%TO.C,D2*%
X9140000Y-23050001D02*
X9140000Y-25050001D01*
X9140000Y-23050001D02*
X13150000Y-23050001D01*
X9140000Y-25050001D02*
X13150000Y-25050001D01*
%TO.C,C1*%
X-1735000Y-16311254D02*
X-1735000Y-15788748D01*
X-265000Y-16311254D02*
X-265000Y-15788748D01*
%TO.C,L1*%
X-1310000Y-34340001D02*
X3310000Y-34340001D01*
X-1310000Y-35040001D02*
X-1310000Y-34340001D01*
X-1310000Y-38760001D02*
X-1310000Y-38060001D01*
X3310000Y-34340001D02*
X3310000Y-35040001D01*
X3310000Y-38060001D02*
X3310000Y-38760001D01*
X3310000Y-38760001D02*
X-1310000Y-38760001D01*
%TO.C,C2*%
X-7235000Y-21561254D02*
X-7235000Y-21038748D01*
X-5765000Y-21561254D02*
X-5765000Y-21038748D01*
%TO.C,D1*%
X1490000Y-13690001D02*
X1490000Y-17450001D01*
X3510000Y-13690001D02*
X1490000Y-13690001D01*
X3510000Y-13690001D02*
X3510000Y-17450001D01*
%TO.C,U2*%
X1940001Y-28137501D02*
X1940000Y-26187501D01*
X1940001Y-28137501D02*
X1940000Y-30087501D01*
X7059999Y-28137501D02*
X7060000Y-26187501D01*
X7059999Y-28137501D02*
X7060000Y-30087501D01*
X7295000Y-25677501D02*
X6965000Y-25437501D01*
X7295000Y-25197502D01*
X7295000Y-25677501D01*
G36*
X7295000Y-25677501D02*
G01*
X6965000Y-25437501D01*
X7295000Y-25197502D01*
X7295000Y-25677501D01*
G37*
%TO.C,R2*%
X11272936Y-26815001D02*
X11727064Y-26815001D01*
X11272936Y-28285001D02*
X11727064Y-28285001D01*
%TO.C,C6*%
X-6735000Y-32738747D02*
X-6735000Y-33261253D01*
X-5265000Y-32738747D02*
X-5265000Y-33261253D01*
%TO.C,C4*%
X7711252Y-34305002D02*
X7188746Y-34305002D01*
X7711252Y-35775002D02*
X7188746Y-35775002D01*
%TO.C,D3*%
X2710000Y-21137501D02*
X-1300000Y-21137501D01*
X2710000Y-23137501D02*
X-1300000Y-23137501D01*
X2710000Y-23137501D02*
X2710000Y-21137501D01*
%TO.C,U1*%
X4765001Y-18150003D02*
X4765000Y-16200003D01*
X4765001Y-18150003D02*
X4765000Y-20100003D01*
X9884999Y-18150003D02*
X9885000Y-16200003D01*
X9884999Y-18150003D02*
X9885000Y-20100003D01*
X4860000Y-20850003D02*
X4530000Y-21090002D01*
X4530000Y-20610003D01*
X4860000Y-20850003D01*
G36*
X4860000Y-20850003D02*
G01*
X4530000Y-21090002D01*
X4530000Y-20610003D01*
X4860000Y-20850003D01*
G37*
%TO.C,R1*%
X11265000Y-20277065D02*
X11265000Y-19822937D01*
X12735000Y-20277065D02*
X12735000Y-19822937D01*
%TO.C,R4*%
X-1235000Y-25910437D02*
X-1235000Y-26364565D01*
X235000Y-25910437D02*
X235000Y-26364565D01*
%TO.C,J1*%
X-8100000Y3800000D02*
X1100000Y3800000D01*
X-8100000Y-5000000D02*
X-8100000Y3800000D01*
X-8100000Y-10900000D02*
X-8100000Y-9000000D01*
X-5400000Y-10900000D02*
X-8100000Y-10900000D01*
X250000Y-11100000D02*
X1300000Y-11100000D01*
X1100000Y3800000D02*
X1100000Y-10900000D01*
X1100000Y-10900000D02*
X-1500000Y-10900001D01*
X1300000Y-10050000D02*
X1300000Y-11100000D01*
%TO.C,J2*%
X-21060001Y-17690000D02*
X-20040000Y-17690000D01*
X-21060000Y-21939999D02*
X-21060001Y-17690000D01*
X-20040000Y-17690000D02*
X-20040000Y-19290000D01*
X-20040000Y-19290000D02*
X-18760000Y-19290000D01*
X-19340000Y-25510000D02*
X-10660000Y-25510000D01*
X-18760000Y-19290000D02*
X-18760000Y-16400000D01*
X-9960000Y-17690000D02*
X-9960000Y-19290000D01*
X-9960000Y-19290000D02*
X-11240000Y-19290000D01*
X-8940000Y-21939999D02*
X-8939999Y-17690000D01*
X-8939999Y-17690000D02*
X-9960000Y-17690000D01*
%TO.C,C5*%
X-4235000Y-32788748D02*
X-4235000Y-33311254D01*
X-2765000Y-32788748D02*
X-2765000Y-33311254D01*
%TO.C,F1*%
X4875000Y-1525000D02*
X4875000Y-11475000D01*
X4875000Y-11475000D02*
X5335000Y-11475000D01*
X5335000Y-1525000D02*
X4875000Y-1525000D01*
X10125000Y-1525000D02*
X9665000Y-1525000D01*
X10125000Y-1525000D02*
X10125000Y-11475000D01*
X10125000Y-11475000D02*
X9665000Y-11475000D01*
%TD*%
M02*
