  0
SECTION
  2
HEADER
  9
$ANGBASE
  50
0.0
  9
$ANGDIR
  70
1
  9
$MEASUREMENT
  70
1
  0
ENDSEC
  0
SECTION
  2
TABLES
  0
TABLE
  2
LTYPE
  70
4
  0
LTYPE
  5
40F
  2
CONTINUOUS
  70
0
  3
Solid line
  72
65
  73
0
  40
0.0
  0
LTYPE
  5
410
  2
DASHDOT
 70
0
  3
Dash Dot ____ _ ____ _
 72
65
 73
4
 40
2.0
 49
1.25
 49
-0.25
 49
0.25
 49
-0.25
  0
LTYPE
  5
411
  2
DASHED
 70
0
  3
Dashed __ __ __ __ __
 72
65
 73
2
 40
0.75
 49
0.5
 49
-0.25
  0
LTYPE
  5
43B
  2
DOTTED
 70
0
  3
Dotted .  .  .  .
 72
65
 73
2
 40
0.2
 49
0.0
 49
-0.2
  0
ENDTAB
  0
TABLE
  2
STYLE
  70
4
  0
STYLE
  2
KICAD
  70
0
  40
0
  41
1
  42
1
  50
0
  71
0
  3
isocp.shx
  0
STYLE
  2
KICADB
  70
0
  40
0
  41
1
  42
1
  50
0
  71
0
  3
isocp.shx
  0
STYLE
  2
KICADI
  70
0
  40
0
  41
1
  42
1
  50
15
  71
0
  3
isocp.shx
  0
STYLE
  2
KICADBI
  70
0
  40
0
  41
1
  42
1
  50
15
  71
0
  3
isocp.shx
  0
ENDTAB
  0
TABLE
  2
LAYER
  70
1
  0
LAYER
  2
BLACK
  70
0
  62
7
  6
CONTINUOUS
  0
ENDTAB
  0
ENDSEC
  0
SECTION
  2
ENTITIES
0
LINE
8
BLACK
6
CONTINUOUS
10
-18.9172370000000001
20
0.
11
-18.5
21
1.
0
ARC
8
BLACK
10
-24.999998999999999
20
0.
40
6.0827619999999998
50
-80.53768708
51
-0.00000000
0
ARC
8
BLACK
10
25.
20
-50.
40
6.0827625302982193
50
99.46232221
51
170.53767779
0
LINE
8
BLACK
6
CONTINUOUS
10
24.
20
-44.
11
24.
21
-6.
0
LINE
8
BLACK
6
CONTINUOUS
10
-24.
20
-6.
11
-24.0000040000000006
21
-44.
0
LINE
8
BLACK
6
CONTINUOUS
10
-19.
20
-49.
11
19.
21
-49.000003999999997
0
LINE
8
BLACK
6
CONTINUOUS
10
18.5
20
1.
11
18.9172370000000001
21
0.
0
ARC
8
BLACK
10
-24.9999979999999979
20
-49.9999979999999979
40
6.082760228712619
50
9.46230672
51
80.53769328
0
LINE
8
BLACK
6
CONTINUOUS
10
-18.5
20
1.
11
18.5
21
1.
0
ARC
8
BLACK
10
25.
20
0.
40
6.0827625302982193
50
-180.00000000
51
-99.46232221
0
LINE
8
BLACK
6
CONTINUOUS
10
-1.6499999999999999
20
-33.3500000000000014
11
-1.3499999999999999
21
-33.6499999999999986
0
LINE
8
BLACK
6
CONTINUOUS
10
-1.3499999999999999
20
-33.3500000000000014
11
-1.6499999999999999
21
-33.6499999999999986
0
LINE
8
BLACK
6
CONTINUOUS
10
10.8499999999999996
20
-15.3499999999999996
11
11.1500000000000004
21
-15.6499999999999986
0
LINE
8
BLACK
6
CONTINUOUS
10
11.1500000000000004
20
-15.3499999999999996
11
10.8499999999999996
21
-15.6499999999999986
0
CIRCLE
8
BLACK
10
-8.1999999999999993
20
-7.0999999999999996
40
0.5
0
LINE
8
BLACK
6
CONTINUOUS
10
-8.6999999999999993
20
-6.0999999999999996
11
-8.6999999999999993
21
-8.0999999999999996
0
ARC
8
BLACK
10
-8.1999999999999993
20
-8.0999999999999996
40
0.5
50
180.00000000
51
360.00000000
0
LINE
8
BLACK
6
CONTINUOUS
10
-7.6999999999999993
20
-8.0999999999999996
11
-7.6999999999999993
21
-6.0999999999999996
0
ARC
8
BLACK
10
-8.1999999999999993
20
-6.0999999999999996
40
0.5
50
360.00000000
51
540.00000000
0
CIRCLE
8
BLACK
10
-3.5
20
-4.
40
0.5
0
LINE
8
BLACK
6
CONTINUOUS
10
-2.5
20
-3.5
11
-4.5
21
-3.5
0
ARC
8
BLACK
10
-4.5
20
-4.
40
0.5
50
90.00000000
51
270.00000000
0
LINE
8
BLACK
6
CONTINUOUS
10
-4.5
20
-4.5
11
-2.5
21
-4.5
0
ARC
8
BLACK
10
-2.5
20
-4.
40
0.5
50
270.00000000
51
450.00000000
0
CIRCLE
8
BLACK
10
-3.5
20
-9.9000000000000004
40
0.5
0
LINE
8
BLACK
6
CONTINUOUS
10
-2.5
20
-9.4000000000000004
11
-4.5
21
-9.4000000000000004
0
ARC
8
BLACK
10
-4.5
20
-9.9000000000000004
40
0.5
50
90.00000000
51
270.00000000
0
LINE
8
BLACK
6
CONTINUOUS
10
-4.5
20
-10.4000000000000004
11
-2.5
21
-10.4000000000000004
0
ARC
8
BLACK
10
-2.5
20
-9.9000000000000004
40
0.5
50
270.00000000
51
450.00000000
0
LINE
8
BLACK
6
CONTINUOUS
10
-3.5
20
-3.3999999999999999
11
-3.5
21
-4.5999999999999996
0
LINE
8
BLACK
6
CONTINUOUS
10
-4.0999999999999996
20
-4.
11
-2.8999999999999999
21
-4.
0
LINE
8
BLACK
6
CONTINUOUS
10
1.5
20
-3.3999999999999999
11
1.5
21
-4.5999999999999996
0
LINE
8
BLACK
6
CONTINUOUS
10
0.8999999999999999
20
-4.
11
2.1000000000000001
21
-4.
0
LINE
8
BLACK
6
CONTINUOUS
10
-13.8686179999999997
20
-11.1313820000000003
11
-13.8686179999999997
21
-8.8686179999999997
0
LINE
8
BLACK
6
CONTINUOUS
10
-13.8686179999999997
20
-8.8686179999999997
11
-16.1313819999999986
21
-8.8686179999999997
0
LINE
8
BLACK
6
CONTINUOUS
10
-16.1313819999999986
20
-8.8686179999999997
11
-16.1313819999999986
21
-11.1313820000000003
0
LINE
8
BLACK
6
CONTINUOUS
10
-16.1313819999999986
20
-11.1313820000000003
11
-13.8686179999999997
21
-11.1313820000000003
0
LINE
8
BLACK
6
CONTINUOUS
10
-13.8686179999999997
20
-41.131381999999995
11
-13.8686179999999997
21
-38.8686179999999979
0
LINE
8
BLACK
6
CONTINUOUS
10
-13.8686179999999997
20
-38.8686179999999979
11
-16.1313819999999986
21
-38.8686179999999979
0
LINE
8
BLACK
6
CONTINUOUS
10
-16.1313819999999986
20
-38.8686179999999979
11
-16.1313819999999986
21
-41.131381999999995
0
LINE
8
BLACK
6
CONTINUOUS
10
-16.1313819999999986
20
-41.131381999999995
11
-13.8686179999999997
21
-41.131381999999995
0
LINE
8
BLACK
6
CONTINUOUS
10
16.1313819999999986
20
-11.1313820000000003
11
16.1313819999999986
21
-8.8686179999999997
0
LINE
8
BLACK
6
CONTINUOUS
10
16.1313819999999986
20
-8.8686179999999997
11
13.8686179999999997
21
-8.8686179999999997
0
LINE
8
BLACK
6
CONTINUOUS
10
13.8686179999999997
20
-8.8686179999999997
11
13.8686179999999997
21
-11.1313820000000003
0
LINE
8
BLACK
6
CONTINUOUS
10
13.8686179999999997
20
-11.1313820000000003
11
16.1313819999999986
21
-11.1313820000000003
0
LINE
8
BLACK
6
CONTINUOUS
10
16.1313819999999986
20
-41.131381999999995
11
16.1313819999999986
21
-38.8686179999999979
0
LINE
8
BLACK
6
CONTINUOUS
10
16.1313819999999986
20
-38.8686179999999979
11
13.8686179999999997
21
-38.8686179999999979
0
LINE
8
BLACK
6
CONTINUOUS
10
13.8686179999999997
20
-38.8686179999999979
11
13.8686179999999997
21
-41.131381999999995
0
LINE
8
BLACK
6
CONTINUOUS
10
13.8686179999999997
20
-41.131381999999995
11
16.1313819999999986
21
-41.131381999999995
0
LINE
8
BLACK
6
CONTINUOUS
10
-21.417234999999998
20
-52.1398419999999945
11
-21.417234999999998
21
-50.1398419999999945
0
LINE
8
BLACK
6
CONTINUOUS
10
-21.417234999999998
20
-50.1398419999999945
11
-20.941044999999999
21
-50.1398419999999945
0
LINE
8
BLACK
6
CONTINUOUS
10
-20.941044999999999
20
-50.1398419999999945
11
-20.6553299999999993
21
-50.2350799999999964
0
LINE
8
BLACK
6
CONTINUOUS
10
-20.6553299999999993
20
-50.2350799999999964
11
-20.464853999999999
21
-50.4255560000000003
0
LINE
8
BLACK
6
CONTINUOUS
10
-20.464853999999999
20
-50.4255560000000003
11
-20.3696160000000006
21
-50.616031999999997
0
LINE
8
BLACK
6
CONTINUOUS
10
-20.3696160000000006
20
-50.616031999999997
11
-20.2743779999999987
21
-50.9969839999999976
0
LINE
8
BLACK
6
CONTINUOUS
10
-20.2743779999999987
20
-50.9969839999999976
11
-20.2743779999999987
21
-51.2826990000000009
0
LINE
8
BLACK
6
CONTINUOUS
10
-20.2743779999999987
20
-51.2826990000000009
11
-20.3696160000000006
21
-51.6636509999999944
0
LINE
8
BLACK
6
CONTINUOUS
10
-20.3696160000000006
20
-51.6636509999999944
11
-20.464853999999999
21
-51.8541269999999983
0
LINE
8
BLACK
6
CONTINUOUS
10
-20.464853999999999
20
-51.8541269999999983
11
-20.6553299999999993
21
-52.0446039999999996
0
LINE
8
BLACK
6
CONTINUOUS
10
-20.6553299999999993
20
-52.0446039999999996
11
-20.941044999999999
21
-52.1398419999999945
0
LINE
8
BLACK
6
CONTINUOUS
10
-20.941044999999999
20
-52.1398419999999945
11
-21.417234999999998
21
-52.1398419999999945
0
LINE
8
BLACK
6
CONTINUOUS
10
-19.417234999999998
20
-52.1398419999999945
11
-19.417234999999998
21
-50.8065080000000009
0
LINE
8
BLACK
6
CONTINUOUS
10
-19.417234999999998
20
-51.187460999999999
11
-19.3219969999999996
21
-50.9969839999999976
0
LINE
8
BLACK
6
CONTINUOUS
10
-19.3219969999999996
20
-50.9969839999999976
11
-19.2267589999999977
21
-50.9017459999999957
0
LINE
8
BLACK
6
CONTINUOUS
10
-19.2267589999999977
20
-50.9017459999999957
11
-19.0362829999999974
21
-50.8065080000000009
0
LINE
8
BLACK
6
CONTINUOUS
10
-19.0362829999999974
20
-50.8065080000000009
11
-18.8458059999999996
21
-50.8065080000000009
0
LINE
8
BLACK
6
CONTINUOUS
10
-18.1791400000000003
20
-52.1398419999999945
11
-18.1791400000000003
21
-50.8065080000000009
0
LINE
8
BLACK
6
CONTINUOUS
10
-18.1791400000000003
20
-50.1398419999999945
11
-18.2743779999999987
21
-50.2350799999999964
0
LINE
8
BLACK
6
CONTINUOUS
10
-18.2743779999999987
20
-50.2350799999999964
11
-18.1791400000000003
21
-50.3303179999999983
0
LINE
8
BLACK
6
CONTINUOUS
10
-18.1791400000000003
20
-50.3303179999999983
11
-18.0839019999999984
21
-50.2350799999999964
0
LINE
8
BLACK
6
CONTINUOUS
10
-18.0839019999999984
20
-50.2350799999999964
11
-18.1791400000000003
21
-50.1398419999999945
0
LINE
8
BLACK
6
CONTINUOUS
10
-18.1791400000000003
20
-50.1398419999999945
11
-18.1791400000000003
21
-50.3303179999999983
0
LINE
8
BLACK
6
CONTINUOUS
10
-16.941044999999999
20
-52.1398419999999945
11
-17.1315209999999993
21
-52.0446039999999996
0
LINE
8
BLACK
6
CONTINUOUS
10
-17.1315209999999993
20
-52.0446039999999996
11
-17.2267589999999977
21
-51.8541269999999983
0
LINE
8
BLACK
6
CONTINUOUS
10
-17.2267589999999977
20
-51.8541269999999983
11
-17.2267589999999977
21
-50.1398419999999945
0
LINE
8
BLACK
6
CONTINUOUS
10
-15.8934259999999998
20
-52.1398419999999945
11
-16.0839019999999984
21
-52.0446039999999996
0
LINE
8
BLACK
6
CONTINUOUS
10
-16.0839019999999984
20
-52.0446039999999996
11
-16.1791400000000003
21
-51.8541269999999983
0
LINE
8
BLACK
6
CONTINUOUS
10
-16.1791400000000003
20
-51.8541269999999983
11
-16.1791400000000003
21
-50.1398419999999945
0
LINE
8
BLACK
6
CONTINUOUS
10
-13.6077110000000001
20
-52.1398419999999945
11
-13.6077110000000001
21
-50.1398419999999945
0
LINE
8
BLACK
6
CONTINUOUS
10
-13.6077110000000001
20
-50.1398419999999945
11
-12.9410439999999998
21
-51.5684129999999996
0
LINE
8
BLACK
6
CONTINUOUS
10
-12.9410439999999998
20
-51.5684129999999996
11
-12.2743779999999987
21
-50.1398419999999945
0
LINE
8
BLACK
6
CONTINUOUS
10
-12.2743779999999987
20
-50.1398419999999945
11
-12.2743779999999987
21
-52.1398419999999945
0
LINE
8
BLACK
6
CONTINUOUS
10
-10.464853999999999
20
-52.1398419999999945
11
-10.464853999999999
21
-51.0922229999999971
0
LINE
8
BLACK
6
CONTINUOUS
10
-10.464853999999999
20
-51.0922229999999971
11
-10.5600919999999991
21
-50.9017459999999957
0
LINE
8
BLACK
6
CONTINUOUS
10
-10.5600919999999991
20
-50.9017459999999957
11
-10.7505679999999995
21
-50.8065080000000009
0
LINE
8
BLACK
6
CONTINUOUS
10
-10.7505679999999995
20
-50.8065080000000009
11
-11.1315209999999993
21
-50.8065080000000009
0
LINE
8
BLACK
6
CONTINUOUS
10
-11.1315209999999993
20
-50.8065080000000009
11
-11.3219969999999996
21
-50.9017459999999957
0
LINE
8
BLACK
6
CONTINUOUS
10
-10.464853999999999
20
-52.0446039999999996
11
-10.6553299999999993
21
-52.1398419999999945
0
LINE
8
BLACK
6
CONTINUOUS
10
-10.6553299999999993
20
-52.1398419999999945
11
-11.1315209999999993
21
-52.1398419999999945
0
LINE
8
BLACK
6
CONTINUOUS
10
-11.1315209999999993
20
-52.1398419999999945
11
-11.3219969999999996
21
-52.0446039999999996
0
LINE
8
BLACK
6
CONTINUOUS
10
-11.3219969999999996
20
-52.0446039999999996
11
-11.4172349999999998
21
-51.8541269999999983
0
LINE
8
BLACK
6
CONTINUOUS
10
-11.4172349999999998
20
-51.8541269999999983
11
-11.4172349999999998
21
-51.6636509999999944
0
LINE
8
BLACK
6
CONTINUOUS
10
-11.4172349999999998
20
-51.6636509999999944
11
-11.3219969999999996
21
-51.4731749999999977
0
LINE
8
BLACK
6
CONTINUOUS
10
-11.3219969999999996
20
-51.4731749999999977
11
-11.1315209999999993
21
-51.3779369999999957
0
LINE
8
BLACK
6
CONTINUOUS
10
-11.1315209999999993
20
-51.3779369999999957
11
-10.6553299999999993
21
-51.3779369999999957
0
LINE
8
BLACK
6
CONTINUOUS
10
-10.6553299999999993
20
-51.3779369999999957
11
-10.464853999999999
21
-51.2826990000000009
0
LINE
8
BLACK
6
CONTINUOUS
10
-9.512473
20
-50.8065080000000009
11
-9.512473
21
-52.8065080000000009
0
LINE
8
BLACK
6
CONTINUOUS
10
-9.512473
20
-50.9017459999999957
11
-9.3219969999999996
21
-50.8065080000000009
0
LINE
8
BLACK
6
CONTINUOUS
10
-9.3219969999999996
20
-50.8065080000000009
11
-8.9410439999999998
21
-50.8065080000000009
0
LINE
8
BLACK
6
CONTINUOUS
10
-8.9410439999999998
20
-50.8065080000000009
11
-8.7505679999999995
21
-50.9017459999999957
0
LINE
8
BLACK
6
CONTINUOUS
10
-8.7505679999999995
20
-50.9017459999999957
11
-8.6553299999999993
21
-50.9969839999999976
0
LINE
8
BLACK
6
CONTINUOUS
10
-8.6553299999999993
20
-50.9969839999999976
11
-8.5600919999999991
21
-51.187460999999999
0
LINE
8
BLACK
6
CONTINUOUS
10
-8.5600919999999991
20
-51.187460999999999
11
-8.5600919999999991
21
-51.7588889999999964
0
LINE
8
BLACK
6
CONTINUOUS
10
-8.5600919999999991
20
-51.7588889999999964
11
-8.6553299999999993
21
-51.9493650000000002
0
LINE
8
BLACK
6
CONTINUOUS
10
-8.6553299999999993
20
-51.9493650000000002
11
-8.7505679999999995
21
-52.0446039999999996
0
LINE
8
BLACK
6
CONTINUOUS
10
-8.7505679999999995
20
-52.0446039999999996
11
-8.9410439999999998
21
-52.1398419999999945
0
LINE
8
BLACK
6
CONTINUOUS
10
-8.9410439999999998
20
-52.1398419999999945
11
-9.3219969999999996
21
-52.1398419999999945
0
LINE
8
BLACK
6
CONTINUOUS
10
-9.3219969999999996
20
-52.1398419999999945
11
-9.512473
21
-52.0446039999999996
0
LINE
8
BLACK
6
CONTINUOUS
10
-7.7029489999999994
20
-51.9493650000000002
11
-7.6077109999999992
21
-52.0446039999999996
0
LINE
8
BLACK
6
CONTINUOUS
10
-7.6077109999999992
20
-52.0446039999999996
11
-7.7029489999999994
21
-52.1398419999999945
0
LINE
8
BLACK
6
CONTINUOUS
10
-7.7029489999999994
20
-52.1398419999999945
11
-7.7981869999999995
21
-52.0446039999999996
0
LINE
8
BLACK
6
CONTINUOUS
10
-7.7981869999999995
20
-52.0446039999999996
11
-7.7029489999999994
21
-51.9493650000000002
0
LINE
8
BLACK
6
CONTINUOUS
10
-7.7029489999999994
20
-51.9493650000000002
11
-7.7029489999999994
21
-52.1398419999999945
0
LINE
8
BLACK
6
CONTINUOUS
10
-7.7029489999999994
20
-50.9017459999999957
11
-7.6077109999999992
21
-50.9969839999999976
0
LINE
8
BLACK
6
CONTINUOUS
10
-7.6077109999999992
20
-50.9969839999999976
11
-7.7029489999999994
21
-51.0922229999999971
0
LINE
8
BLACK
6
CONTINUOUS
10
-7.7029489999999994
20
-51.0922229999999971
11
-7.7981869999999995
21
-50.9969839999999976
0
LINE
8
BLACK
6
CONTINUOUS
10
-7.7981869999999995
20
-50.9969839999999976
11
-7.7029489999999994
21
-50.9017459999999957
0
LINE
8
BLACK
6
CONTINUOUS
10
-7.7029489999999994
20
-50.9017459999999957
11
-7.7029489999999994
21
-51.0922229999999971
0
LINE
8
BLACK
6
CONTINUOUS
10
-24.3250039999999998
20
-55.2750039999999956
11
-24.0250039999999991
21
-55.5750039999999998
0
LINE
8
BLACK
6
CONTINUOUS
10
-24.0250039999999991
20
-55.2750039999999956
11
-24.3250039999999998
21
-55.5750039999999998
0
LINE
8
BLACK
6
CONTINUOUS
10
-21.0362829999999974
20
-54.3398419999999973
11
-20.8458059999999996
21
-54.3398419999999973
0
LINE
8
BLACK
6
CONTINUOUS
10
-20.8458059999999996
20
-54.3398419999999973
11
-20.6553299999999993
21
-54.4350799999999992
0
LINE
8
BLACK
6
CONTINUOUS
10
-20.6553299999999993
20
-54.4350799999999992
11
-20.5600919999999974
21
-54.5303179999999941
0
LINE
8
BLACK
6
CONTINUOUS
10
-20.5600919999999974
20
-54.5303179999999941
11
-20.464853999999999
21
-54.7207939999999979
0
LINE
8
BLACK
6
CONTINUOUS
10
-20.464853999999999
20
-54.7207939999999979
11
-20.3696160000000006
21
-55.1017459999999986
0
LINE
8
BLACK
6
CONTINUOUS
10
-20.3696160000000006
20
-55.1017459999999986
11
-20.3696160000000006
21
-55.5779369999999986
0
LINE
8
BLACK
6
CONTINUOUS
10
-20.3696160000000006
20
-55.5779369999999986
11
-20.464853999999999
21
-55.9588889999999992
0
LINE
8
BLACK
6
CONTINUOUS
10
-20.464853999999999
20
-55.9588889999999992
11
-20.5600919999999974
21
-56.149364999999996
0
LINE
8
BLACK
6
CONTINUOUS
10
-20.5600919999999974
20
-56.149364999999996
11
-20.6553299999999993
21
-56.2446039999999954
0
LINE
8
BLACK
6
CONTINUOUS
10
-20.6553299999999993
20
-56.2446039999999954
11
-20.8458059999999996
21
-56.3398419999999973
0
LINE
8
BLACK
6
CONTINUOUS
10
-20.8458059999999996
20
-56.3398419999999973
11
-21.0362829999999974
21
-56.3398419999999973
0
LINE
8
BLACK
6
CONTINUOUS
10
-21.0362829999999974
20
-56.3398419999999973
11
-21.2267589999999977
21
-56.2446039999999954
0
LINE
8
BLACK
6
CONTINUOUS
10
-21.2267589999999977
20
-56.2446039999999954
11
-21.3219969999999996
21
-56.149364999999996
0
LINE
8
BLACK
6
CONTINUOUS
10
-21.3219969999999996
20
-56.149364999999996
11
-21.417234999999998
21
-55.9588889999999992
0
LINE
8
BLACK
6
CONTINUOUS
10
-21.417234999999998
20
-55.9588889999999992
11
-21.512473
21
-55.5779369999999986
0
LINE
8
BLACK
6
CONTINUOUS
10
-21.512473
20
-55.5779369999999986
11
-21.512473
21
-55.1017459999999986
0
LINE
8
BLACK
6
CONTINUOUS
10
-21.512473
20
-55.1017459999999986
11
-21.417234999999998
21
-54.7207939999999979
0
LINE
8
BLACK
6
CONTINUOUS
10
-21.417234999999998
20
-54.7207939999999979
11
-21.3219969999999996
21
-54.5303179999999941
0
LINE
8
BLACK
6
CONTINUOUS
10
-21.3219969999999996
20
-54.5303179999999941
11
-21.2267589999999977
21
-54.4350799999999992
0
LINE
8
BLACK
6
CONTINUOUS
10
-21.2267589999999977
20
-54.4350799999999992
11
-21.0362829999999974
21
-54.3398419999999973
0
LINE
8
BLACK
6
CONTINUOUS
10
-19.512473
20
-56.149364999999996
11
-19.417234999999998
21
-56.2446039999999954
0
LINE
8
BLACK
6
CONTINUOUS
10
-19.417234999999998
20
-56.2446039999999954
11
-19.512473
21
-56.3398419999999973
0
LINE
8
BLACK
6
CONTINUOUS
10
-19.512473
20
-56.3398419999999973
11
-19.6077109999999983
21
-56.2446039999999954
0
LINE
8
BLACK
6
CONTINUOUS
10
-19.6077109999999983
20
-56.2446039999999954
11
-19.512473
21
-56.149364999999996
0
LINE
8
BLACK
6
CONTINUOUS
10
-19.512473
20
-56.149364999999996
11
-19.512473
21
-56.3398419999999973
0
LINE
8
BLACK
6
CONTINUOUS
10
-18.7505679999999977
20
-54.3398419999999973
11
-17.512473
21
-54.3398419999999973
0
LINE
8
BLACK
6
CONTINUOUS
10
-17.512473
20
-54.3398419999999973
11
-18.1791400000000003
21
-55.1017459999999986
0
LINE
8
BLACK
6
CONTINUOUS
10
-18.1791400000000003
20
-55.1017459999999986
11
-17.8934250000000006
21
-55.1017459999999986
0
LINE
8
BLACK
6
CONTINUOUS
10
-17.8934250000000006
20
-55.1017459999999986
11
-17.7029490000000003
21
-55.1969840000000005
0
LINE
8
BLACK
6
CONTINUOUS
10
-17.7029490000000003
20
-55.1969840000000005
11
-17.6077109999999983
21
-55.2922229999999999
0
LINE
8
BLACK
6
CONTINUOUS
10
-17.6077109999999983
20
-55.2922229999999999
11
-17.512473
21
-55.4826989999999967
0
LINE
8
BLACK
6
CONTINUOUS
10
-17.512473
20
-55.4826989999999967
11
-17.512473
21
-55.9588889999999992
0
LINE
8
BLACK
6
CONTINUOUS
10
-17.512473
20
-55.9588889999999992
11
-17.6077109999999983
21
-56.149364999999996
0
LINE
8
BLACK
6
CONTINUOUS
10
-17.6077109999999983
20
-56.149364999999996
11
-17.7029490000000003
21
-56.2446039999999954
0
LINE
8
BLACK
6
CONTINUOUS
10
-17.7029490000000003
20
-56.2446039999999954
11
-17.8934250000000006
21
-56.3398419999999973
0
LINE
8
BLACK
6
CONTINUOUS
10
-17.8934250000000006
20
-56.3398419999999973
11
-18.464853999999999
21
-56.3398419999999973
0
LINE
8
BLACK
6
CONTINUOUS
10
-18.464853999999999
20
-56.3398419999999973
11
-18.6553299999999993
21
-56.2446039999999954
0
LINE
8
BLACK
6
CONTINUOUS
10
-18.6553299999999993
20
-56.2446039999999954
11
-18.7505679999999977
21
-56.149364999999996
0
LINE
8
BLACK
6
CONTINUOUS
10
-16.2743779999999987
20
-54.3398419999999973
11
-16.0839010000000009
21
-54.3398419999999973
0
LINE
8
BLACK
6
CONTINUOUS
10
-16.0839010000000009
20
-54.3398419999999973
11
-15.8934249999999988
21
-54.4350799999999992
0
LINE
8
BLACK
6
CONTINUOUS
10
-15.8934249999999988
20
-54.4350799999999992
11
-15.7981869999999986
21
-54.5303179999999941
0
LINE
8
BLACK
6
CONTINUOUS
10
-15.7981869999999986
20
-54.5303179999999941
11
-15.7029489999999985
21
-54.7207939999999979
0
LINE
8
BLACK
6
CONTINUOUS
10
-15.7029489999999985
20
-54.7207939999999979
11
-15.6077110000000001
21
-55.1017459999999986
0
LINE
8
BLACK
6
CONTINUOUS
10
-15.6077110000000001
20
-55.1017459999999986
11
-15.6077110000000001
21
-55.5779369999999986
0
LINE
8
BLACK
6
CONTINUOUS
10
-15.6077110000000001
20
-55.5779369999999986
11
-15.7029489999999985
21
-55.9588889999999992
0
LINE
8
BLACK
6
CONTINUOUS
10
-15.7029489999999985
20
-55.9588889999999992
11
-15.7981869999999986
21
-56.149364999999996
0
LINE
8
BLACK
6
CONTINUOUS
10
-15.7981869999999986
20
-56.149364999999996
11
-15.8934249999999988
21
-56.2446039999999954
0
LINE
8
BLACK
6
CONTINUOUS
10
-15.8934249999999988
20
-56.2446039999999954
11
-16.0839010000000009
21
-56.3398419999999973
0
LINE
8
BLACK
6
CONTINUOUS
10
-16.0839010000000009
20
-56.3398419999999973
11
-16.2743779999999987
21
-56.3398419999999973
0
LINE
8
BLACK
6
CONTINUOUS
10
-16.2743779999999987
20
-56.3398419999999973
11
-16.464853999999999
21
-56.2446039999999954
0
LINE
8
BLACK
6
CONTINUOUS
10
-16.464853999999999
20
-56.2446039999999954
11
-16.5600920000000009
21
-56.149364999999996
0
LINE
8
BLACK
6
CONTINUOUS
10
-16.5600920000000009
20
-56.149364999999996
11
-16.6553299999999993
21
-55.9588889999999992
0
LINE
8
BLACK
6
CONTINUOUS
10
-16.6553299999999993
20
-55.9588889999999992
11
-16.7505679999999977
21
-55.5779369999999986
0
LINE
8
BLACK
6
CONTINUOUS
10
-16.7505679999999977
20
-55.5779369999999986
11
-16.7505679999999977
21
-55.1017459999999986
0
LINE
8
BLACK
6
CONTINUOUS
10
-16.7505679999999977
20
-55.1017459999999986
11
-16.6553299999999993
21
-54.7207939999999979
0
LINE
8
BLACK
6
CONTINUOUS
10
-16.6553299999999993
20
-54.7207939999999979
11
-16.5600920000000009
21
-54.5303179999999941
0
LINE
8
BLACK
6
CONTINUOUS
10
-16.5600920000000009
20
-54.5303179999999941
11
-16.464853999999999
21
-54.4350799999999992
0
LINE
8
BLACK
6
CONTINUOUS
10
-16.464853999999999
20
-54.4350799999999992
11
-16.2743779999999987
21
-54.3398419999999973
0
LINE
8
BLACK
6
CONTINUOUS
10
-14.3696159999999988
20
-54.3398419999999973
11
-14.1791389999999993
21
-54.3398419999999973
0
LINE
8
BLACK
6
CONTINUOUS
10
-14.1791389999999993
20
-54.3398419999999973
11
-13.988662999999999
21
-54.4350799999999992
0
LINE
8
BLACK
6
CONTINUOUS
10
-13.988662999999999
20
-54.4350799999999992
11
-13.8934249999999988
21
-54.5303179999999941
0
LINE
8
BLACK
6
CONTINUOUS
10
-13.8934249999999988
20
-54.5303179999999941
11
-13.7981869999999986
21
-54.7207939999999979
0
LINE
8
BLACK
6
CONTINUOUS
10
-13.7981869999999986
20
-54.7207939999999979
11
-13.7029490000000003
21
-55.1017459999999986
0
LINE
8
BLACK
6
CONTINUOUS
10
-13.7029490000000003
20
-55.1017459999999986
11
-13.7029490000000003
21
-55.5779369999999986
0
LINE
8
BLACK
6
CONTINUOUS
10
-13.7029490000000003
20
-55.5779369999999986
11
-13.7981869999999986
21
-55.9588889999999992
0
LINE
8
BLACK
6
CONTINUOUS
10
-13.7981869999999986
20
-55.9588889999999992
11
-13.8934249999999988
21
-56.149364999999996
0
LINE
8
BLACK
6
CONTINUOUS
10
-13.8934249999999988
20
-56.149364999999996
11
-13.988662999999999
21
-56.2446039999999954
0
LINE
8
BLACK
6
CONTINUOUS
10
-13.988662999999999
20
-56.2446039999999954
11
-14.1791389999999993
21
-56.3398419999999973
0
LINE
8
BLACK
6
CONTINUOUS
10
-14.1791389999999993
20
-56.3398419999999973
11
-14.3696159999999988
21
-56.3398419999999973
0
LINE
8
BLACK
6
CONTINUOUS
10
-14.3696159999999988
20
-56.3398419999999973
11
-14.5600919999999991
21
-56.2446039999999954
0
LINE
8
BLACK
6
CONTINUOUS
10
-14.5600919999999991
20
-56.2446039999999954
11
-14.6553299999999993
21
-56.149364999999996
0
LINE
8
BLACK
6
CONTINUOUS
10
-14.6553299999999993
20
-56.149364999999996
11
-14.7505679999999995
21
-55.9588889999999992
0
LINE
8
BLACK
6
CONTINUOUS
10
-14.7505679999999995
20
-55.9588889999999992
11
-14.8458059999999996
21
-55.5779369999999986
0
LINE
8
BLACK
6
CONTINUOUS
10
-14.8458059999999996
20
-55.5779369999999986
11
-14.8458059999999996
21
-55.1017459999999986
0
LINE
8
BLACK
6
CONTINUOUS
10
-14.8458059999999996
20
-55.1017459999999986
11
-14.7505679999999995
21
-54.7207939999999979
0
LINE
8
BLACK
6
CONTINUOUS
10
-14.7505679999999995
20
-54.7207939999999979
11
-14.6553299999999993
21
-54.5303179999999941
0
LINE
8
BLACK
6
CONTINUOUS
10
-14.6553299999999993
20
-54.5303179999999941
11
-14.5600919999999991
21
-54.4350799999999992
0
LINE
8
BLACK
6
CONTINUOUS
10
-14.5600919999999991
20
-54.4350799999999992
11
-14.3696159999999988
21
-54.3398419999999973
0
LINE
8
BLACK
6
CONTINUOUS
10
-12.8458059999999996
20
-56.3398419999999973
11
-12.8458059999999996
21
-55.0065079999999966
0
LINE
8
BLACK
6
CONTINUOUS
10
-12.8458059999999996
20
-55.1969840000000005
11
-12.7505679999999995
21
-55.1017459999999986
0
LINE
8
BLACK
6
CONTINUOUS
10
-12.7505679999999995
20
-55.1017459999999986
11
-12.5600919999999991
21
-55.0065079999999966
0
LINE
8
BLACK
6
CONTINUOUS
10
-12.5600919999999991
20
-55.0065079999999966
11
-12.2743769999999994
21
-55.0065079999999966
0
LINE
8
BLACK
6
CONTINUOUS
10
-12.2743769999999994
20
-55.0065079999999966
11
-12.0839009999999991
21
-55.1017459999999986
0
LINE
8
BLACK
6
CONTINUOUS
10
-12.0839009999999991
20
-55.1017459999999986
11
-11.988662999999999
21
-55.2922229999999999
0
LINE
8
BLACK
6
CONTINUOUS
10
-11.988662999999999
20
-55.2922229999999999
11
-11.988662999999999
21
-56.3398419999999973
0
LINE
8
BLACK
6
CONTINUOUS
10
-11.988662999999999
20
-55.2922229999999999
11
-11.8934249999999988
21
-55.1017459999999986
0
LINE
8
BLACK
6
CONTINUOUS
10
-11.8934249999999988
20
-55.1017459999999986
11
-11.7029490000000003
21
-55.0065079999999966
0
LINE
8
BLACK
6
CONTINUOUS
10
-11.7029490000000003
20
-55.0065079999999966
11
-11.4172349999999998
21
-55.0065079999999966
0
LINE
8
BLACK
6
CONTINUOUS
10
-11.4172349999999998
20
-55.0065079999999966
11
-11.2267580000000002
21
-55.1017459999999986
0
LINE
8
BLACK
6
CONTINUOUS
10
-11.2267580000000002
20
-55.1017459999999986
11
-11.1315200000000001
21
-55.2922229999999999
0
LINE
8
BLACK
6
CONTINUOUS
10
-11.1315200000000001
20
-55.2922229999999999
11
-11.1315200000000001
21
-56.3398419999999973
0
LINE
8
BLACK
6
CONTINUOUS
10
-10.1791389999999993
20
-56.3398419999999973
11
-10.1791389999999993
21
-55.0065079999999966
0
LINE
8
BLACK
6
CONTINUOUS
10
-10.1791389999999993
20
-55.1969840000000005
11
-10.0839009999999991
21
-55.1017459999999986
0
LINE
8
BLACK
6
CONTINUOUS
10
-10.0839009999999991
20
-55.1017459999999986
11
-9.8934249999999988
21
-55.0065079999999966
0
LINE
8
BLACK
6
CONTINUOUS
10
-9.8934249999999988
20
-55.0065079999999966
11
-9.6077099999999991
21
-55.0065079999999966
0
LINE
8
BLACK
6
CONTINUOUS
10
-9.6077099999999991
20
-55.0065079999999966
11
-9.4172339999999988
21
-55.1017459999999986
0
LINE
8
BLACK
6
CONTINUOUS
10
-9.4172339999999988
20
-55.1017459999999986
11
-9.3219960000000004
21
-55.2922229999999999
0
LINE
8
BLACK
6
CONTINUOUS
10
-9.3219960000000004
20
-55.2922229999999999
11
-9.3219960000000004
21
-56.3398419999999973
0
LINE
8
BLACK
6
CONTINUOUS
10
-9.3219960000000004
20
-55.2922229999999999
11
-9.2267580000000002
21
-55.1017459999999986
0
LINE
8
BLACK
6
CONTINUOUS
10
-9.2267580000000002
20
-55.1017459999999986
11
-9.0362819999999999
21
-55.0065079999999966
0
LINE
8
BLACK
6
CONTINUOUS
10
-9.0362819999999999
20
-55.0065079999999966
11
-8.7505679999999995
21
-55.0065079999999966
0
LINE
8
BLACK
6
CONTINUOUS
10
-8.7505679999999995
20
-55.0065079999999966
11
-8.5600909999999999
21
-55.1017459999999986
0
LINE
8
BLACK
6
CONTINUOUS
10
-8.5600909999999999
20
-55.1017459999999986
11
-8.4648529999999997
21
-55.2922229999999999
0
LINE
8
BLACK
6
CONTINUOUS
10
-8.4648529999999997
20
-55.2922229999999999
11
-8.4648529999999997
21
-56.3398419999999973
0
LINE
8
BLACK
6
CONTINUOUS
10
-4.5600909999999999
20
-54.2446039999999954
11
-6.2743759999999993
21
-56.8160319999999999
0
LINE
8
BLACK
6
CONTINUOUS
10
-1.9886619999999999
20
-54.3398419999999973
11
-1.7981849999999999
21
-54.3398419999999973
0
LINE
8
BLACK
6
CONTINUOUS
10
-1.7981849999999999
20
-54.3398419999999973
11
-1.6077089999999998
21
-54.4350799999999992
0
LINE
8
BLACK
6
CONTINUOUS
10
-1.6077089999999998
20
-54.4350799999999992
11
-1.5124709999999999
21
-54.5303179999999941
0
LINE
8
BLACK
6
CONTINUOUS
10
-1.5124709999999999
20
-54.5303179999999941
11
-1.417233
21
-54.7207939999999979
0
LINE
8
BLACK
6
CONTINUOUS
10
-1.417233
20
-54.7207939999999979
11
-1.321995
21
-55.1017459999999986
0
LINE
8
BLACK
6
CONTINUOUS
10
-1.321995
20
-55.1017459999999986
11
-1.321995
21
-55.5779369999999986
0
LINE
8
BLACK
6
CONTINUOUS
10
-1.321995
20
-55.5779369999999986
11
-1.417233
21
-55.9588889999999992
0
LINE
8
BLACK
6
CONTINUOUS
10
-1.417233
20
-55.9588889999999992
11
-1.5124709999999999
21
-56.149364999999996
0
LINE
8
BLACK
6
CONTINUOUS
10
-1.5124709999999999
20
-56.149364999999996
11
-1.6077089999999998
21
-56.2446039999999954
0
LINE
8
BLACK
6
CONTINUOUS
10
-1.6077089999999998
20
-56.2446039999999954
11
-1.7981849999999999
21
-56.3398419999999973
0
LINE
8
BLACK
6
CONTINUOUS
10
-1.7981849999999999
20
-56.3398419999999973
11
-1.9886619999999999
21
-56.3398419999999973
0
LINE
8
BLACK
6
CONTINUOUS
10
-1.9886619999999999
20
-56.3398419999999973
11
-2.179138
21
-56.2446039999999954
0
LINE
8
BLACK
6
CONTINUOUS
10
-2.179138
20
-56.2446039999999954
11
-2.2743759999999997
21
-56.149364999999996
0
LINE
8
BLACK
6
CONTINUOUS
10
-2.2743759999999997
20
-56.149364999999996
11
-2.3696139999999999
21
-55.9588889999999992
0
LINE
8
BLACK
6
CONTINUOUS
10
-2.3696139999999999
20
-55.9588889999999992
11
-2.464852
21
-55.5779369999999986
0
LINE
8
BLACK
6
CONTINUOUS
10
-2.464852
20
-55.5779369999999986
11
-2.464852
21
-55.1017459999999986
0
LINE
8
BLACK
6
CONTINUOUS
10
-2.464852
20
-55.1017459999999986
11
-2.3696139999999999
21
-54.7207939999999979
0
LINE
8
BLACK
6
CONTINUOUS
10
-2.3696139999999999
20
-54.7207939999999979
11
-2.2743759999999997
21
-54.5303179999999941
0
LINE
8
BLACK
6
CONTINUOUS
10
-2.2743759999999997
20
-54.5303179999999941
11
-2.179138
21
-54.4350799999999992
0
LINE
8
BLACK
6
CONTINUOUS
10
-2.179138
20
-54.4350799999999992
11
-1.9886619999999999
21
-54.3398419999999973
0
LINE
8
BLACK
6
CONTINUOUS
10
-0.464852
20
-56.149364999999996
11
-0.369614
21
-56.2446039999999954
0
LINE
8
BLACK
6
CONTINUOUS
10
-0.369614
20
-56.2446039999999954
11
-0.464852
21
-56.3398419999999973
0
LINE
8
BLACK
6
CONTINUOUS
10
-0.464852
20
-56.3398419999999973
11
-0.56009
21
-56.2446039999999954
0
LINE
8
BLACK
6
CONTINUOUS
10
-0.56009
20
-56.2446039999999954
11
-0.464852
21
-56.149364999999996
0
LINE
8
BLACK
6
CONTINUOUS
10
-0.464852
20
-56.149364999999996
11
-0.464852
21
-56.3398419999999973
0
LINE
8
BLACK
6
CONTINUOUS
10
0.8684799999999999
20
-54.3398419999999973
11
1.0589569999999999
21
-54.3398419999999973
0
LINE
8
BLACK
6
CONTINUOUS
10
1.0589569999999999
20
-54.3398419999999973
11
1.249433
21
-54.4350799999999992
0
LINE
8
BLACK
6
CONTINUOUS
10
1.249433
20
-54.4350799999999992
11
1.3446709999999999
21
-54.5303179999999941
0
LINE
8
BLACK
6
CONTINUOUS
10
1.3446709999999999
20
-54.5303179999999941
11
1.4399089999999999
21
-54.7207939999999979
0
LINE
8
BLACK
6
CONTINUOUS
10
1.4399089999999999
20
-54.7207939999999979
11
1.535147
21
-55.1017459999999986
0
LINE
8
BLACK
6
CONTINUOUS
10
1.535147
20
-55.1017459999999986
11
1.535147
21
-55.5779369999999986
0
LINE
8
BLACK
6
CONTINUOUS
10
1.535147
20
-55.5779369999999986
11
1.4399089999999999
21
-55.9588889999999992
0
LINE
8
BLACK
6
CONTINUOUS
10
1.4399089999999999
20
-55.9588889999999992
11
1.3446709999999999
21
-56.149364999999996
0
LINE
8
BLACK
6
CONTINUOUS
10
1.3446709999999999
20
-56.149364999999996
11
1.249433
21
-56.2446039999999954
0
LINE
8
BLACK
6
CONTINUOUS
10
1.249433
20
-56.2446039999999954
11
1.0589569999999999
21
-56.3398419999999973
0
LINE
8
BLACK
6
CONTINUOUS
10
1.0589569999999999
20
-56.3398419999999973
11
0.8684799999999999
21
-56.3398419999999973
0
LINE
8
BLACK
6
CONTINUOUS
10
0.8684799999999999
20
-56.3398419999999973
11
0.6780039999999999
21
-56.2446039999999954
0
LINE
8
BLACK
6
CONTINUOUS
10
0.6780039999999999
20
-56.2446039999999954
11
0.582766
21
-56.149364999999996
0
LINE
8
BLACK
6
CONTINUOUS
10
0.582766
20
-56.149364999999996
11
0.487528
21
-55.9588889999999992
0
LINE
8
BLACK
6
CONTINUOUS
10
0.487528
20
-55.9588889999999992
11
0.39229
21
-55.5779369999999986
0
LINE
8
BLACK
6
CONTINUOUS
10
0.39229
20
-55.5779369999999986
11
0.39229
21
-55.1017459999999986
0
LINE
8
BLACK
6
CONTINUOUS
10
0.39229
20
-55.1017459999999986
11
0.487528
21
-54.7207939999999979
0
LINE
8
BLACK
6
CONTINUOUS
10
0.487528
20
-54.7207939999999979
11
0.582766
21
-54.5303179999999941
0
LINE
8
BLACK
6
CONTINUOUS
10
0.582766
20
-54.5303179999999941
11
0.6780039999999999
21
-54.4350799999999992
0
LINE
8
BLACK
6
CONTINUOUS
10
0.6780039999999999
20
-54.4350799999999992
11
0.8684799999999999
21
-54.3398419999999973
0
LINE
8
BLACK
6
CONTINUOUS
10
3.4399089999999997
20
-56.3398419999999973
11
2.2970519999999999
21
-56.3398419999999973
0
LINE
8
BLACK
6
CONTINUOUS
10
2.8684799999999999
20
-56.3398419999999973
11
2.8684799999999999
21
-54.3398419999999973
0
LINE
8
BLACK
6
CONTINUOUS
10
2.8684799999999999
20
-54.3398419999999973
11
2.6780040000000001
21
-54.625555999999996
0
LINE
8
BLACK
6
CONTINUOUS
10
2.6780040000000001
20
-54.625555999999996
11
2.4875279999999997
21
-54.8160319999999999
0
LINE
8
BLACK
6
CONTINUOUS
10
2.4875279999999997
20
-54.8160319999999999
11
2.2970519999999999
21
-54.9112699999999947
0
LINE
8
BLACK
6
CONTINUOUS
10
5.3446709999999999
20
-56.3398419999999973
11
4.2018139999999997
21
-56.3398419999999973
0
LINE
8
BLACK
6
CONTINUOUS
10
4.7732419999999998
20
-56.3398419999999973
11
4.7732419999999998
21
-54.3398419999999973
0
LINE
8
BLACK
6
CONTINUOUS
10
4.7732419999999998
20
-54.3398419999999973
11
4.5827659999999995
21
-54.625555999999996
0
LINE
8
BLACK
6
CONTINUOUS
10
4.5827659999999995
20
-54.625555999999996
11
4.39229
21
-54.8160319999999999
0
LINE
8
BLACK
6
CONTINUOUS
10
4.39229
20
-54.8160319999999999
11
4.2018139999999997
21
-54.9112699999999947
0
LINE
8
BLACK
6
CONTINUOUS
10
6.4875279999999993
20
-55.1969840000000005
11
6.2970519999999999
21
-55.1017459999999986
0
LINE
8
BLACK
6
CONTINUOUS
10
6.2970519999999999
20
-55.1017459999999986
11
6.2018139999999997
21
-55.0065079999999966
0
LINE
8
BLACK
6
CONTINUOUS
10
6.2018139999999997
20
-55.0065079999999966
11
6.1065759999999996
21
-54.8160319999999999
0
LINE
8
BLACK
6
CONTINUOUS
10
6.1065759999999996
20
-54.8160319999999999
11
6.1065759999999996
21
-54.7207939999999979
0
LINE
8
BLACK
6
CONTINUOUS
10
6.1065759999999996
20
-54.7207939999999979
11
6.2018139999999997
21
-54.5303179999999941
0
LINE
8
BLACK
6
CONTINUOUS
10
6.2018139999999997
20
-54.5303179999999941
11
6.2970519999999999
21
-54.4350799999999992
0
LINE
8
BLACK
6
CONTINUOUS
10
6.2970519999999999
20
-54.4350799999999992
11
6.4875279999999993
21
-54.3398419999999973
0
LINE
8
BLACK
6
CONTINUOUS
10
6.4875279999999993
20
-54.3398419999999973
11
6.8684810000000001
21
-54.3398419999999973
0
LINE
8
BLACK
6
CONTINUOUS
10
6.8684810000000001
20
-54.3398419999999973
11
7.0589569999999995
21
-54.4350799999999992
0
LINE
8
BLACK
6
CONTINUOUS
10
7.0589569999999995
20
-54.4350799999999992
11
7.1541949999999996
21
-54.5303179999999941
0
LINE
8
BLACK
6
CONTINUOUS
10
7.1541949999999996
20
-54.5303179999999941
11
7.2494329999999998
21
-54.7207939999999979
0
LINE
8
BLACK
6
CONTINUOUS
10
7.2494329999999998
20
-54.7207939999999979
11
7.2494329999999998
21
-54.8160319999999999
0
LINE
8
BLACK
6
CONTINUOUS
10
7.2494329999999998
20
-54.8160319999999999
11
7.1541949999999996
21
-55.0065079999999966
0
LINE
8
BLACK
6
CONTINUOUS
10
7.1541949999999996
20
-55.0065079999999966
11
7.0589569999999995
21
-55.1017459999999986
0
LINE
8
BLACK
6
CONTINUOUS
10
7.0589569999999995
20
-55.1017459999999986
11
6.8684810000000001
21
-55.1969840000000005
0
LINE
8
BLACK
6
CONTINUOUS
10
6.8684810000000001
20
-55.1969840000000005
11
6.4875279999999993
21
-55.1969840000000005
0
LINE
8
BLACK
6
CONTINUOUS
10
6.4875279999999993
20
-55.1969840000000005
11
6.2970519999999999
21
-55.2922229999999999
0
LINE
8
BLACK
6
CONTINUOUS
10
6.2970519999999999
20
-55.2922229999999999
11
6.2018139999999997
21
-55.3874609999999947
0
LINE
8
BLACK
6
CONTINUOUS
10
6.2018139999999997
20
-55.3874609999999947
11
6.1065759999999996
21
-55.5779369999999986
0
LINE
8
BLACK
6
CONTINUOUS
10
6.1065759999999996
20
-55.5779369999999986
11
6.1065759999999996
21
-55.9588889999999992
0
LINE
8
BLACK
6
CONTINUOUS
10
6.1065759999999996
20
-55.9588889999999992
11
6.2018139999999997
21
-56.149364999999996
0
LINE
8
BLACK
6
CONTINUOUS
10
6.2018139999999997
20
-56.149364999999996
11
6.2970519999999999
21
-56.2446039999999954
0
LINE
8
BLACK
6
CONTINUOUS
10
6.2970519999999999
20
-56.2446039999999954
11
6.4875279999999993
21
-56.3398419999999973
0
LINE
8
BLACK
6
CONTINUOUS
10
6.4875279999999993
20
-56.3398419999999973
11
6.8684810000000001
21
-56.3398419999999973
0
LINE
8
BLACK
6
CONTINUOUS
10
6.8684810000000001
20
-56.3398419999999973
11
7.0589569999999995
21
-56.2446039999999954
0
LINE
8
BLACK
6
CONTINUOUS
10
7.0589569999999995
20
-56.2446039999999954
11
7.1541949999999996
21
-56.149364999999996
0
LINE
8
BLACK
6
CONTINUOUS
10
7.1541949999999996
20
-56.149364999999996
11
7.2494329999999998
21
-55.9588889999999992
0
LINE
8
BLACK
6
CONTINUOUS
10
7.2494329999999998
20
-55.9588889999999992
11
7.2494329999999998
21
-55.5779369999999986
0
LINE
8
BLACK
6
CONTINUOUS
10
7.2494329999999998
20
-55.5779369999999986
11
7.1541949999999996
21
-55.3874609999999947
0
LINE
8
BLACK
6
CONTINUOUS
10
7.1541949999999996
20
-55.3874609999999947
11
7.0589569999999995
21
-55.2922229999999999
0
LINE
8
BLACK
6
CONTINUOUS
10
7.0589569999999995
20
-55.2922229999999999
11
6.8684810000000001
21
-55.1969840000000005
0
LINE
8
BLACK
6
CONTINUOUS
10
8.0113380000000003
20
-54.3398419999999973
11
8.0113380000000003
21
-54.7207939999999979
0
LINE
8
BLACK
6
CONTINUOUS
10
8.773242999999999
20
-54.3398419999999973
11
8.773242999999999
21
-54.7207939999999979
0
LINE
8
BLACK
6
CONTINUOUS
10
11.7256249999999991
20
-57.1017459999999986
11
11.6303859999999997
21
-57.0065079999999966
0
LINE
8
BLACK
6
CONTINUOUS
10
11.6303859999999997
20
-57.0065079999999966
11
11.4399099999999994
21
-56.7207939999999979
0
LINE
8
BLACK
6
CONTINUOUS
10
11.4399099999999994
20
-56.7207939999999979
11
11.3446719999999992
21
-56.5303179999999941
0
LINE
8
BLACK
6
CONTINUOUS
10
11.3446719999999992
20
-56.5303179999999941
11
11.249433999999999
21
-56.2446039999999954
0
LINE
8
BLACK
6
CONTINUOUS
10
11.249433999999999
20
-56.2446039999999954
11
11.1541959999999989
21
-55.7684129999999953
0
LINE
8
BLACK
6
CONTINUOUS
10
11.1541959999999989
20
-55.7684129999999953
11
11.1541959999999989
21
-55.3874609999999947
0
LINE
8
BLACK
6
CONTINUOUS
10
11.1541959999999989
20
-55.3874609999999947
11
11.249433999999999
21
-54.9112699999999947
0
LINE
8
BLACK
6
CONTINUOUS
10
11.249433999999999
20
-54.9112699999999947
11
11.3446719999999992
21
-54.625555999999996
0
LINE
8
BLACK
6
CONTINUOUS
10
11.3446719999999992
20
-54.625555999999996
11
11.4399099999999994
21
-54.4350799999999992
0
LINE
8
BLACK
6
CONTINUOUS
10
11.4399099999999994
20
-54.4350799999999992
11
11.6303859999999997
21
-54.149364999999996
0
LINE
8
BLACK
6
CONTINUOUS
10
11.6303859999999997
20
-54.149364999999996
11
11.7256249999999991
21
-54.054126999999994
0
LINE
8
BLACK
6
CONTINUOUS
10
12.3922910000000002
20
-54.5303179999999941
11
12.4875289999999985
21
-54.4350799999999992
0
LINE
8
BLACK
6
CONTINUOUS
10
12.4875289999999985
20
-54.4350799999999992
11
12.6780049999999989
21
-54.3398419999999973
0
LINE
8
BLACK
6
CONTINUOUS
10
12.6780049999999989
20
-54.3398419999999973
11
13.1541959999999989
21
-54.3398419999999973
0
LINE
8
BLACK
6
CONTINUOUS
10
13.1541959999999989
20
-54.3398419999999973
11
13.3446719999999992
21
-54.4350799999999992
0
LINE
8
BLACK
6
CONTINUOUS
10
13.3446719999999992
20
-54.4350799999999992
11
13.4399099999999994
21
-54.5303179999999941
0
LINE
8
BLACK
6
CONTINUOUS
10
13.4399099999999994
20
-54.5303179999999941
11
13.5351479999999995
21
-54.7207939999999979
0
LINE
8
BLACK
6
CONTINUOUS
10
13.5351479999999995
20
-54.7207939999999979
11
13.5351479999999995
21
-54.9112699999999947
0
LINE
8
BLACK
6
CONTINUOUS
10
13.5351479999999995
20
-54.9112699999999947
11
13.4399099999999994
21
-55.1969840000000005
0
LINE
8
BLACK
6
CONTINUOUS
10
13.4399099999999994
20
-55.1969840000000005
11
12.297053
21
-56.3398419999999973
0
LINE
8
BLACK
6
CONTINUOUS
10
12.297053
20
-56.3398419999999973
11
13.5351479999999995
21
-56.3398419999999973
0
LINE
8
BLACK
6
CONTINUOUS
10
15.9161009999999994
20
-56.3398419999999973
11
15.9161009999999994
21
-54.3398419999999973
0
LINE
8
BLACK
6
CONTINUOUS
10
16.7732439999999983
20
-56.3398419999999973
11
16.7732439999999983
21
-55.2922229999999999
0
LINE
8
BLACK
6
CONTINUOUS
10
16.7732439999999983
20
-55.2922229999999999
11
16.6780059999999999
21
-55.1017459999999986
0
LINE
8
BLACK
6
CONTINUOUS
10
16.6780059999999999
20
-55.1017459999999986
11
16.4875299999999996
21
-55.0065079999999966
0
LINE
8
BLACK
6
CONTINUOUS
10
16.4875299999999996
20
-55.0065079999999966
11
16.2018149999999999
21
-55.0065079999999966
0
LINE
8
BLACK
6
CONTINUOUS
10
16.2018149999999999
20
-55.0065079999999966
11
16.0113389999999995
21
-55.1017459999999986
0
LINE
8
BLACK
6
CONTINUOUS
10
16.0113389999999995
20
-55.1017459999999986
11
15.9161009999999994
21
-55.1969840000000005
0
LINE
8
BLACK
6
CONTINUOUS
10
18.0113389999999995
20
-56.3398419999999973
11
17.8208629999999992
21
-56.2446039999999954
0
LINE
8
BLACK
6
CONTINUOUS
10
17.8208629999999992
20
-56.2446039999999954
11
17.7256250000000009
21
-56.149364999999996
0
LINE
8
BLACK
6
CONTINUOUS
10
17.7256250000000009
20
-56.149364999999996
11
17.6303869999999989
21
-55.9588889999999992
0
LINE
8
BLACK
6
CONTINUOUS
10
17.6303869999999989
20
-55.9588889999999992
11
17.6303869999999989
21
-55.3874609999999947
0
LINE
8
BLACK
6
CONTINUOUS
10
17.6303869999999989
20
-55.3874609999999947
11
17.7256250000000009
21
-55.1969840000000005
0
LINE
8
BLACK
6
CONTINUOUS
10
17.7256250000000009
20
-55.1969840000000005
11
17.8208629999999992
21
-55.1017459999999986
0
LINE
8
BLACK
6
CONTINUOUS
10
17.8208629999999992
20
-55.1017459999999986
11
18.0113389999999995
21
-55.0065079999999966
0
LINE
8
BLACK
6
CONTINUOUS
10
18.0113389999999995
20
-55.0065079999999966
11
18.2970539999999993
21
-55.0065079999999966
0
LINE
8
BLACK
6
CONTINUOUS
10
18.2970539999999993
20
-55.0065079999999966
11
18.4875299999999996
21
-55.1017459999999986
0
LINE
8
BLACK
6
CONTINUOUS
10
18.4875299999999996
20
-55.1017459999999986
11
18.582767999999998
21
-55.1969840000000005
0
LINE
8
BLACK
6
CONTINUOUS
10
18.582767999999998
20
-55.1969840000000005
11
18.6780059999999999
21
-55.3874609999999947
0
LINE
8
BLACK
6
CONTINUOUS
10
18.6780059999999999
20
-55.3874609999999947
11
18.6780059999999999
21
-55.9588889999999992
0
LINE
8
BLACK
6
CONTINUOUS
10
18.6780059999999999
20
-55.9588889999999992
11
18.582767999999998
21
-56.149364999999996
0
LINE
8
BLACK
6
CONTINUOUS
10
18.582767999999998
20
-56.149364999999996
11
18.4875299999999996
21
-56.2446039999999954
0
LINE
8
BLACK
6
CONTINUOUS
10
18.4875299999999996
20
-56.2446039999999954
11
18.2970539999999993
21
-56.3398419999999973
0
LINE
8
BLACK
6
CONTINUOUS
10
18.2970539999999993
20
-56.3398419999999973
11
18.0113389999999995
21
-56.3398419999999973
0
LINE
8
BLACK
6
CONTINUOUS
10
19.8208629999999992
20
-56.3398419999999973
11
19.6303869999999989
21
-56.2446039999999954
0
LINE
8
BLACK
6
CONTINUOUS
10
19.6303869999999989
20
-56.2446039999999954
11
19.5351490000000005
21
-56.054126999999994
0
LINE
8
BLACK
6
CONTINUOUS
10
19.5351490000000005
20
-56.054126999999994
11
19.5351490000000005
21
-54.3398419999999973
0
LINE
8
BLACK
6
CONTINUOUS
10
21.3446730000000002
20
-56.2446039999999954
11
21.1541969999999999
21
-56.3398419999999973
0
LINE
8
BLACK
6
CONTINUOUS
10
21.1541969999999999
20
-56.3398419999999973
11
20.7732439999999983
21
-56.3398419999999973
0
LINE
8
BLACK
6
CONTINUOUS
10
20.7732439999999983
20
-56.3398419999999973
11
20.582767999999998
21
-56.2446039999999954
0
LINE
8
BLACK
6
CONTINUOUS
10
20.582767999999998
20
-56.2446039999999954
11
20.4875299999999996
21
-56.054126999999994
0
LINE
8
BLACK
6
CONTINUOUS
10
20.4875299999999996
20
-56.054126999999994
11
20.4875299999999996
21
-55.2922229999999999
0
LINE
8
BLACK
6
CONTINUOUS
10
20.4875299999999996
20
-55.2922229999999999
11
20.582767999999998
21
-55.1017459999999986
0
LINE
8
BLACK
6
CONTINUOUS
10
20.582767999999998
20
-55.1017459999999986
11
20.7732439999999983
21
-55.0065079999999966
0
LINE
8
BLACK
6
CONTINUOUS
10
20.7732439999999983
20
-55.0065079999999966
11
21.1541969999999999
21
-55.0065079999999966
0
LINE
8
BLACK
6
CONTINUOUS
10
21.1541969999999999
20
-55.0065079999999966
11
21.3446730000000002
21
-55.1017459999999986
0
LINE
8
BLACK
6
CONTINUOUS
10
21.3446730000000002
20
-55.1017459999999986
11
21.4399109999999986
21
-55.2922229999999999
0
LINE
8
BLACK
6
CONTINUOUS
10
21.4399109999999986
20
-55.2922229999999999
11
21.4399109999999986
21
-55.4826989999999967
0
LINE
8
BLACK
6
CONTINUOUS
10
21.4399109999999986
20
-55.4826989999999967
11
20.4875299999999996
21
-55.6731750000000005
0
LINE
8
BLACK
6
CONTINUOUS
10
22.2018159999999973
20
-56.2446039999999954
11
22.3922919999999976
21
-56.3398419999999973
0
LINE
8
BLACK
6
CONTINUOUS
10
22.3922919999999976
20
-56.3398419999999973
11
22.7732439999999983
21
-56.3398419999999973
0
LINE
8
BLACK
6
CONTINUOUS
10
22.7732439999999983
20
-56.3398419999999973
11
22.9637209999999996
21
-56.2446039999999954
0
LINE
8
BLACK
6
CONTINUOUS
10
22.9637209999999996
20
-56.2446039999999954
11
23.058958999999998
21
-56.054126999999994
0
LINE
8
BLACK
6
CONTINUOUS
10
23.058958999999998
20
-56.054126999999994
11
23.058958999999998
21
-55.9588889999999992
0
LINE
8
BLACK
6
CONTINUOUS
10
23.058958999999998
20
-55.9588889999999992
11
22.9637209999999996
21
-55.7684129999999953
0
LINE
8
BLACK
6
CONTINUOUS
10
22.9637209999999996
20
-55.7684129999999953
11
22.7732439999999983
21
-55.6731750000000005
0
LINE
8
BLACK
6
CONTINUOUS
10
22.7732439999999983
20
-55.6731750000000005
11
22.4875299999999996
21
-55.6731750000000005
0
LINE
8
BLACK
6
CONTINUOUS
10
22.4875299999999996
20
-55.6731750000000005
11
22.2970539999999993
21
-55.5779369999999986
0
LINE
8
BLACK
6
CONTINUOUS
10
22.2970539999999993
20
-55.5779369999999986
11
22.2018159999999973
21
-55.3874609999999947
0
LINE
8
BLACK
6
CONTINUOUS
10
22.2018159999999973
20
-55.3874609999999947
11
22.2018159999999973
21
-55.2922229999999999
0
LINE
8
BLACK
6
CONTINUOUS
10
22.2018159999999973
20
-55.2922229999999999
11
22.2970539999999993
21
-55.1017459999999986
0
LINE
8
BLACK
6
CONTINUOUS
10
22.2970539999999993
20
-55.1017459999999986
11
22.4875299999999996
21
-55.0065079999999966
0
LINE
8
BLACK
6
CONTINUOUS
10
22.4875299999999996
20
-55.0065079999999966
11
22.7732439999999983
21
-55.0065079999999966
0
LINE
8
BLACK
6
CONTINUOUS
10
22.7732439999999983
20
-55.0065079999999966
11
22.9637209999999996
21
-55.1017459999999986
0
LINE
8
BLACK
6
CONTINUOUS
10
23.7256259999999983
20
-57.1017459999999986
11
23.8208640000000003
21
-57.0065079999999966
0
LINE
8
BLACK
6
CONTINUOUS
10
23.8208640000000003
20
-57.0065079999999966
11
24.0113400000000006
21
-56.7207939999999979
0
LINE
8
BLACK
6
CONTINUOUS
10
24.0113400000000006
20
-56.7207939999999979
11
24.106577999999999
21
-56.5303179999999941
0
LINE
8
BLACK
6
CONTINUOUS
10
24.106577999999999
20
-56.5303179999999941
11
24.2018159999999973
21
-56.2446039999999954
0
LINE
8
BLACK
6
CONTINUOUS
10
24.2018159999999973
20
-56.2446039999999954
11
24.2970539999999993
21
-55.7684129999999953
0
LINE
8
BLACK
6
CONTINUOUS
10
24.2970539999999993
20
-55.7684129999999953
11
24.2970539999999993
21
-55.3874609999999947
0
LINE
8
BLACK
6
CONTINUOUS
10
24.2970539999999993
20
-55.3874609999999947
11
24.2018159999999973
21
-54.9112699999999947
0
LINE
8
BLACK
6
CONTINUOUS
10
24.2018159999999973
20
-54.9112699999999947
11
24.106577999999999
21
-54.625555999999996
0
LINE
8
BLACK
6
CONTINUOUS
10
24.106577999999999
20
-54.625555999999996
11
24.0113400000000006
21
-54.4350799999999992
0
LINE
8
BLACK
6
CONTINUOUS
10
24.0113400000000006
20
-54.4350799999999992
11
23.8208640000000003
21
-54.149364999999996
0
LINE
8
BLACK
6
CONTINUOUS
10
23.8208640000000003
20
-54.149364999999996
11
23.7256259999999983
21
-54.054126999999994
0
CIRCLE
8
BLACK
10
-24.5250039999999991
20
-58.0650039999999947
40
0.5
0
LINE
8
BLACK
6
CONTINUOUS
10
-20.3696160000000006
20
-58.9798419999999979
11
-21.512473
21
-58.9798419999999979
0
LINE
8
BLACK
6
CONTINUOUS
10
-20.941044999999999
20
-58.9798419999999979
11
-20.941044999999999
21
-56.9798419999999979
0
LINE
8
BLACK
6
CONTINUOUS
10
-20.941044999999999
20
-56.9798419999999979
11
-21.1315209999999993
21
-57.2655559999999966
0
LINE
8
BLACK
6
CONTINUOUS
10
-21.1315209999999993
20
-57.2655559999999966
11
-21.3219969999999996
21
-57.4560320000000004
0
LINE
8
BLACK
6
CONTINUOUS
10
-21.3219969999999996
20
-57.4560320000000004
11
-21.512473
21
-57.5512699999999953
0
LINE
8
BLACK
6
CONTINUOUS
10
-19.512473
20
-58.7893649999999965
11
-19.417234999999998
21
-58.8846039999999959
0
LINE
8
BLACK
6
CONTINUOUS
10
-19.417234999999998
20
-58.8846039999999959
11
-19.512473
21
-58.9798419999999979
0
LINE
8
BLACK
6
CONTINUOUS
10
-19.512473
20
-58.9798419999999979
11
-19.6077109999999983
21
-58.8846039999999959
0
LINE
8
BLACK
6
CONTINUOUS
10
-19.6077109999999983
20
-58.8846039999999959
11
-19.512473
21
-58.7893649999999965
0
LINE
8
BLACK
6
CONTINUOUS
10
-19.512473
20
-58.7893649999999965
11
-19.512473
21
-58.9798419999999979
0
LINE
8
BLACK
6
CONTINUOUS
10
-18.1791400000000003
20
-56.9798419999999979
11
-17.988662999999999
21
-56.9798419999999979
0
LINE
8
BLACK
6
CONTINUOUS
10
-17.988662999999999
20
-56.9798419999999979
11
-17.7981869999999986
21
-57.0750799999999998
0
LINE
8
BLACK
6
CONTINUOUS
10
-17.7981869999999986
20
-57.0750799999999998
11
-17.7029490000000003
21
-57.1703179999999946
0
LINE
8
BLACK
6
CONTINUOUS
10
-17.7029490000000003
20
-57.1703179999999946
11
-17.6077109999999983
21
-57.3607939999999985
0
LINE
8
BLACK
6
CONTINUOUS
10
-17.6077109999999983
20
-57.3607939999999985
11
-17.512473
21
-57.7417459999999991
0
LINE
8
BLACK
6
CONTINUOUS
10
-17.512473
20
-57.7417459999999991
11
-17.512473
21
-58.2179369999999992
0
LINE
8
BLACK
6
CONTINUOUS
10
-17.512473
20
-58.2179369999999992
11
-17.6077109999999983
21
-58.5988889999999998
0
LINE
8
BLACK
6
CONTINUOUS
10
-17.6077109999999983
20
-58.5988889999999998
11
-17.7029490000000003
21
-58.7893649999999965
0
LINE
8
BLACK
6
CONTINUOUS
10
-17.7029490000000003
20
-58.7893649999999965
11
-17.7981869999999986
21
-58.8846039999999959
0
LINE
8
BLACK
6
CONTINUOUS
10
-17.7981869999999986
20
-58.8846039999999959
11
-17.988662999999999
21
-58.9798419999999979
0
LINE
8
BLACK
6
CONTINUOUS
10
-17.988662999999999
20
-58.9798419999999979
11
-18.1791400000000003
21
-58.9798419999999979
0
LINE
8
BLACK
6
CONTINUOUS
10
-18.1791400000000003
20
-58.9798419999999979
11
-18.3696160000000006
21
-58.8846039999999959
0
LINE
8
BLACK
6
CONTINUOUS
10
-18.3696160000000006
20
-58.8846039999999959
11
-18.464853999999999
21
-58.7893649999999965
0
LINE
8
BLACK
6
CONTINUOUS
10
-18.464853999999999
20
-58.7893649999999965
11
-18.5600920000000009
21
-58.5988889999999998
0
LINE
8
BLACK
6
CONTINUOUS
10
-18.5600920000000009
20
-58.5988889999999998
11
-18.6553299999999993
21
-58.2179369999999992
0
LINE
8
BLACK
6
CONTINUOUS
10
-18.6553299999999993
20
-58.2179369999999992
11
-18.6553299999999993
21
-57.7417459999999991
0
LINE
8
BLACK
6
CONTINUOUS
10
-18.6553299999999993
20
-57.7417459999999991
11
-18.5600920000000009
21
-57.3607939999999985
0
LINE
8
BLACK
6
CONTINUOUS
10
-18.5600920000000009
20
-57.3607939999999985
11
-18.464853999999999
21
-57.1703179999999946
0
LINE
8
BLACK
6
CONTINUOUS
10
-18.464853999999999
20
-57.1703179999999946
11
-18.3696160000000006
21
-57.0750799999999998
0
LINE
8
BLACK
6
CONTINUOUS
10
-18.3696160000000006
20
-57.0750799999999998
11
-18.1791400000000003
21
-56.9798419999999979
0
LINE
8
BLACK
6
CONTINUOUS
10
-16.2743779999999987
20
-56.9798419999999979
11
-16.0839010000000009
21
-56.9798419999999979
0
LINE
8
BLACK
6
CONTINUOUS
10
-16.0839010000000009
20
-56.9798419999999979
11
-15.8934249999999988
21
-57.0750799999999998
0
LINE
8
BLACK
6
CONTINUOUS
10
-15.8934249999999988
20
-57.0750799999999998
11
-15.7981869999999986
21
-57.1703179999999946
0
LINE
8
BLACK
6
CONTINUOUS
10
-15.7981869999999986
20
-57.1703179999999946
11
-15.7029489999999985
21
-57.3607939999999985
0
LINE
8
BLACK
6
CONTINUOUS
10
-15.7029489999999985
20
-57.3607939999999985
11
-15.6077110000000001
21
-57.7417459999999991
0
LINE
8
BLACK
6
CONTINUOUS
10
-15.6077110000000001
20
-57.7417459999999991
11
-15.6077110000000001
21
-58.2179369999999992
0
LINE
8
BLACK
6
CONTINUOUS
10
-15.6077110000000001
20
-58.2179369999999992
11
-15.7029489999999985
21
-58.5988889999999998
0
LINE
8
BLACK
6
CONTINUOUS
10
-15.7029489999999985
20
-58.5988889999999998
11
-15.7981869999999986
21
-58.7893649999999965
0
LINE
8
BLACK
6
CONTINUOUS
10
-15.7981869999999986
20
-58.7893649999999965
11
-15.8934249999999988
21
-58.8846039999999959
0
LINE
8
BLACK
6
CONTINUOUS
10
-15.8934249999999988
20
-58.8846039999999959
11
-16.0839010000000009
21
-58.9798419999999979
0
LINE
8
BLACK
6
CONTINUOUS
10
-16.0839010000000009
20
-58.9798419999999979
11
-16.2743779999999987
21
-58.9798419999999979
0
LINE
8
BLACK
6
CONTINUOUS
10
-16.2743779999999987
20
-58.9798419999999979
11
-16.464853999999999
21
-58.8846039999999959
0
LINE
8
BLACK
6
CONTINUOUS
10
-16.464853999999999
20
-58.8846039999999959
11
-16.5600920000000009
21
-58.7893649999999965
0
LINE
8
BLACK
6
CONTINUOUS
10
-16.5600920000000009
20
-58.7893649999999965
11
-16.6553299999999993
21
-58.5988889999999998
0
LINE
8
BLACK
6
CONTINUOUS
10
-16.6553299999999993
20
-58.5988889999999998
11
-16.7505679999999977
21
-58.2179369999999992
0
LINE
8
BLACK
6
CONTINUOUS
10
-16.7505679999999977
20
-58.2179369999999992
11
-16.7505679999999977
21
-57.7417459999999991
0
LINE
8
BLACK
6
CONTINUOUS
10
-16.7505679999999977
20
-57.7417459999999991
11
-16.6553299999999993
21
-57.3607939999999985
0
LINE
8
BLACK
6
CONTINUOUS
10
-16.6553299999999993
20
-57.3607939999999985
11
-16.5600920000000009
21
-57.1703179999999946
0
LINE
8
BLACK
6
CONTINUOUS
10
-16.5600920000000009
20
-57.1703179999999946
11
-16.464853999999999
21
-57.0750799999999998
0
LINE
8
BLACK
6
CONTINUOUS
10
-16.464853999999999
20
-57.0750799999999998
11
-16.2743779999999987
21
-56.9798419999999979
0
LINE
8
BLACK
6
CONTINUOUS
10
-14.3696159999999988
20
-56.9798419999999979
11
-14.1791389999999993
21
-56.9798419999999979
0
LINE
8
BLACK
6
CONTINUOUS
10
-14.1791389999999993
20
-56.9798419999999979
11
-13.988662999999999
21
-57.0750799999999998
0
LINE
8
BLACK
6
CONTINUOUS
10
-13.988662999999999
20
-57.0750799999999998
11
-13.8934249999999988
21
-57.1703179999999946
0
LINE
8
BLACK
6
CONTINUOUS
10
-13.8934249999999988
20
-57.1703179999999946
11
-13.7981869999999986
21
-57.3607939999999985
0
LINE
8
BLACK
6
CONTINUOUS
10
-13.7981869999999986
20
-57.3607939999999985
11
-13.7029490000000003
21
-57.7417459999999991
0
LINE
8
BLACK
6
CONTINUOUS
10
-13.7029490000000003
20
-57.7417459999999991
11
-13.7029490000000003
21
-58.2179369999999992
0
LINE
8
BLACK
6
CONTINUOUS
10
-13.7029490000000003
20
-58.2179369999999992
11
-13.7981869999999986
21
-58.5988889999999998
0
LINE
8
BLACK
6
CONTINUOUS
10
-13.7981869999999986
20
-58.5988889999999998
11
-13.8934249999999988
21
-58.7893649999999965
0
LINE
8
BLACK
6
CONTINUOUS
10
-13.8934249999999988
20
-58.7893649999999965
11
-13.988662999999999
21
-58.8846039999999959
0
LINE
8
BLACK
6
CONTINUOUS
10
-13.988662999999999
20
-58.8846039999999959
11
-14.1791389999999993
21
-58.9798419999999979
0
LINE
8
BLACK
6
CONTINUOUS
10
-14.1791389999999993
20
-58.9798419999999979
11
-14.3696159999999988
21
-58.9798419999999979
0
LINE
8
BLACK
6
CONTINUOUS
10
-14.3696159999999988
20
-58.9798419999999979
11
-14.5600919999999991
21
-58.8846039999999959
0
LINE
8
BLACK
6
CONTINUOUS
10
-14.5600919999999991
20
-58.8846039999999959
11
-14.6553299999999993
21
-58.7893649999999965
0
LINE
8
BLACK
6
CONTINUOUS
10
-14.6553299999999993
20
-58.7893649999999965
11
-14.7505679999999995
21
-58.5988889999999998
0
LINE
8
BLACK
6
CONTINUOUS
10
-14.7505679999999995
20
-58.5988889999999998
11
-14.8458059999999996
21
-58.2179369999999992
0
LINE
8
BLACK
6
CONTINUOUS
10
-14.8458059999999996
20
-58.2179369999999992
11
-14.8458059999999996
21
-57.7417459999999991
0
LINE
8
BLACK
6
CONTINUOUS
10
-14.8458059999999996
20
-57.7417459999999991
11
-14.7505679999999995
21
-57.3607939999999985
0
LINE
8
BLACK
6
CONTINUOUS
10
-14.7505679999999995
20
-57.3607939999999985
11
-14.6553299999999993
21
-57.1703179999999946
0
LINE
8
BLACK
6
CONTINUOUS
10
-14.6553299999999993
20
-57.1703179999999946
11
-14.5600919999999991
21
-57.0750799999999998
0
LINE
8
BLACK
6
CONTINUOUS
10
-14.5600919999999991
20
-57.0750799999999998
11
-14.3696159999999988
21
-56.9798419999999979
0
LINE
8
BLACK
6
CONTINUOUS
10
-12.8458059999999996
20
-58.9798419999999979
11
-12.8458059999999996
21
-57.6465079999999972
0
LINE
8
BLACK
6
CONTINUOUS
10
-12.8458059999999996
20
-57.836983999999994
11
-12.7505679999999995
21
-57.7417459999999991
0
LINE
8
BLACK
6
CONTINUOUS
10
-12.7505679999999995
20
-57.7417459999999991
11
-12.5600919999999991
21
-57.6465079999999972
0
LINE
8
BLACK
6
CONTINUOUS
10
-12.5600919999999991
20
-57.6465079999999972
11
-12.2743769999999994
21
-57.6465079999999972
0
LINE
8
BLACK
6
CONTINUOUS
10
-12.2743769999999994
20
-57.6465079999999972
11
-12.0839009999999991
21
-57.7417459999999991
0
LINE
8
BLACK
6
CONTINUOUS
10
-12.0839009999999991
20
-57.7417459999999991
11
-11.988662999999999
21
-57.9322230000000005
0
LINE
8
BLACK
6
CONTINUOUS
10
-11.988662999999999
20
-57.9322230000000005
11
-11.988662999999999
21
-58.9798419999999979
0
LINE
8
BLACK
6
CONTINUOUS
10
-11.988662999999999
20
-57.9322230000000005
11
-11.8934249999999988
21
-57.7417459999999991
0
LINE
8
BLACK
6
CONTINUOUS
10
-11.8934249999999988
20
-57.7417459999999991
11
-11.7029490000000003
21
-57.6465079999999972
0
LINE
8
BLACK
6
CONTINUOUS
10
-11.7029490000000003
20
-57.6465079999999972
11
-11.4172349999999998
21
-57.6465079999999972
0
LINE
8
BLACK
6
CONTINUOUS
10
-11.4172349999999998
20
-57.6465079999999972
11
-11.2267580000000002
21
-57.7417459999999991
0
LINE
8
BLACK
6
CONTINUOUS
10
-11.2267580000000002
20
-57.7417459999999991
11
-11.1315200000000001
21
-57.9322230000000005
0
LINE
8
BLACK
6
CONTINUOUS
10
-11.1315200000000001
20
-57.9322230000000005
11
-11.1315200000000001
21
-58.9798419999999979
0
LINE
8
BLACK
6
CONTINUOUS
10
-10.1791389999999993
20
-58.9798419999999979
11
-10.1791389999999993
21
-57.6465079999999972
0
LINE
8
BLACK
6
CONTINUOUS
10
-10.1791389999999993
20
-57.836983999999994
11
-10.0839009999999991
21
-57.7417459999999991
0
LINE
8
BLACK
6
CONTINUOUS
10
-10.0839009999999991
20
-57.7417459999999991
11
-9.8934249999999988
21
-57.6465079999999972
0
LINE
8
BLACK
6
CONTINUOUS
10
-9.8934249999999988
20
-57.6465079999999972
11
-9.6077099999999991
21
-57.6465079999999972
0
LINE
8
BLACK
6
CONTINUOUS
10
-9.6077099999999991
20
-57.6465079999999972
11
-9.4172339999999988
21
-57.7417459999999991
0
LINE
8
BLACK
6
CONTINUOUS
10
-9.4172339999999988
20
-57.7417459999999991
11
-9.3219960000000004
21
-57.9322230000000005
0
LINE
8
BLACK
6
CONTINUOUS
10
-9.3219960000000004
20
-57.9322230000000005
11
-9.3219960000000004
21
-58.9798419999999979
0
LINE
8
BLACK
6
CONTINUOUS
10
-9.3219960000000004
20
-57.9322230000000005
11
-9.2267580000000002
21
-57.7417459999999991
0
LINE
8
BLACK
6
CONTINUOUS
10
-9.2267580000000002
20
-57.7417459999999991
11
-9.0362819999999999
21
-57.6465079999999972
0
LINE
8
BLACK
6
CONTINUOUS
10
-9.0362819999999999
20
-57.6465079999999972
11
-8.7505679999999995
21
-57.6465079999999972
0
LINE
8
BLACK
6
CONTINUOUS
10
-8.7505679999999995
20
-57.6465079999999972
11
-8.5600909999999999
21
-57.7417459999999991
0
LINE
8
BLACK
6
CONTINUOUS
10
-8.5600909999999999
20
-57.7417459999999991
11
-8.4648529999999997
21
-57.9322230000000005
0
LINE
8
BLACK
6
CONTINUOUS
10
-8.4648529999999997
20
-57.9322230000000005
11
-8.4648529999999997
21
-58.9798419999999979
0
LINE
8
BLACK
6
CONTINUOUS
10
-4.5600909999999999
20
-56.8846039999999959
11
-6.2743759999999993
21
-59.4560320000000004
0
LINE
8
BLACK
6
CONTINUOUS
10
-1.9886619999999999
20
-56.9798419999999979
11
-1.7981849999999999
21
-56.9798419999999979
0
LINE
8
BLACK
6
CONTINUOUS
10
-1.7981849999999999
20
-56.9798419999999979
11
-1.6077089999999998
21
-57.0750799999999998
0
LINE
8
BLACK
6
CONTINUOUS
10
-1.6077089999999998
20
-57.0750799999999998
11
-1.5124709999999999
21
-57.1703179999999946
0
LINE
8
BLACK
6
CONTINUOUS
10
-1.5124709999999999
20
-57.1703179999999946
11
-1.417233
21
-57.3607939999999985
0
LINE
8
BLACK
6
CONTINUOUS
10
-1.417233
20
-57.3607939999999985
11
-1.321995
21
-57.7417459999999991
0
LINE
8
BLACK
6
CONTINUOUS
10
-1.321995
20
-57.7417459999999991
11
-1.321995
21
-58.2179369999999992
0
LINE
8
BLACK
6
CONTINUOUS
10
-1.321995
20
-58.2179369999999992
11
-1.417233
21
-58.5988889999999998
0
LINE
8
BLACK
6
CONTINUOUS
10
-1.417233
20
-58.5988889999999998
11
-1.5124709999999999
21
-58.7893649999999965
0
LINE
8
BLACK
6
CONTINUOUS
10
-1.5124709999999999
20
-58.7893649999999965
11
-1.6077089999999998
21
-58.8846039999999959
0
LINE
8
BLACK
6
CONTINUOUS
10
-1.6077089999999998
20
-58.8846039999999959
11
-1.7981849999999999
21
-58.9798419999999979
0
LINE
8
BLACK
6
CONTINUOUS
10
-1.7981849999999999
20
-58.9798419999999979
11
-1.9886619999999999
21
-58.9798419999999979
0
LINE
8
BLACK
6
CONTINUOUS
10
-1.9886619999999999
20
-58.9798419999999979
11
-2.179138
21
-58.8846039999999959
0
LINE
8
BLACK
6
CONTINUOUS
10
-2.179138
20
-58.8846039999999959
11
-2.2743759999999997
21
-58.7893649999999965
0
LINE
8
BLACK
6
CONTINUOUS
10
-2.2743759999999997
20
-58.7893649999999965
11
-2.3696139999999999
21
-58.5988889999999998
0
LINE
8
BLACK
6
CONTINUOUS
10
-2.3696139999999999
20
-58.5988889999999998
11
-2.464852
21
-58.2179369999999992
0
LINE
8
BLACK
6
CONTINUOUS
10
-2.464852
20
-58.2179369999999992
11
-2.464852
21
-57.7417459999999991
0
LINE
8
BLACK
6
CONTINUOUS
10
-2.464852
20
-57.7417459999999991
11
-2.3696139999999999
21
-57.3607939999999985
0
LINE
8
BLACK
6
CONTINUOUS
10
-2.3696139999999999
20
-57.3607939999999985
11
-2.2743759999999997
21
-57.1703179999999946
0
LINE
8
BLACK
6
CONTINUOUS
10
-2.2743759999999997
20
-57.1703179999999946
11
-2.179138
21
-57.0750799999999998
0
LINE
8
BLACK
6
CONTINUOUS
10
-2.179138
20
-57.0750799999999998
11
-1.9886619999999999
21
-56.9798419999999979
0
LINE
8
BLACK
6
CONTINUOUS
10
-0.464852
20
-58.7893649999999965
11
-0.369614
21
-58.8846039999999959
0
LINE
8
BLACK
6
CONTINUOUS
10
-0.369614
20
-58.8846039999999959
11
-0.464852
21
-58.9798419999999979
0
LINE
8
BLACK
6
CONTINUOUS
10
-0.464852
20
-58.9798419999999979
11
-0.56009
21
-58.8846039999999959
0
LINE
8
BLACK
6
CONTINUOUS
10
-0.56009
20
-58.8846039999999959
11
-0.464852
21
-58.7893649999999965
0
LINE
8
BLACK
6
CONTINUOUS
10
-0.464852
20
-58.7893649999999965
11
-0.464852
21
-58.9798419999999979
0
LINE
8
BLACK
6
CONTINUOUS
10
0.8684799999999999
20
-56.9798419999999979
11
1.0589569999999999
21
-56.9798419999999979
0
LINE
8
BLACK
6
CONTINUOUS
10
1.0589569999999999
20
-56.9798419999999979
11
1.249433
21
-57.0750799999999998
0
LINE
8
BLACK
6
CONTINUOUS
10
1.249433
20
-57.0750799999999998
11
1.3446709999999999
21
-57.1703179999999946
0
LINE
8
BLACK
6
CONTINUOUS
10
1.3446709999999999
20
-57.1703179999999946
11
1.4399089999999999
21
-57.3607939999999985
0
LINE
8
BLACK
6
CONTINUOUS
10
1.4399089999999999
20
-57.3607939999999985
11
1.535147
21
-57.7417459999999991
0
LINE
8
BLACK
6
CONTINUOUS
10
1.535147
20
-57.7417459999999991
11
1.535147
21
-58.2179369999999992
0
LINE
8
BLACK
6
CONTINUOUS
10
1.535147
20
-58.2179369999999992
11
1.4399089999999999
21
-58.5988889999999998
0
LINE
8
BLACK
6
CONTINUOUS
10
1.4399089999999999
20
-58.5988889999999998
11
1.3446709999999999
21
-58.7893649999999965
0
LINE
8
BLACK
6
CONTINUOUS
10
1.3446709999999999
20
-58.7893649999999965
11
1.249433
21
-58.8846039999999959
0
LINE
8
BLACK
6
CONTINUOUS
10
1.249433
20
-58.8846039999999959
11
1.0589569999999999
21
-58.9798419999999979
0
LINE
8
BLACK
6
CONTINUOUS
10
1.0589569999999999
20
-58.9798419999999979
11
0.8684799999999999
21
-58.9798419999999979
0
LINE
8
BLACK
6
CONTINUOUS
10
0.8684799999999999
20
-58.9798419999999979
11
0.6780039999999999
21
-58.8846039999999959
0
LINE
8
BLACK
6
CONTINUOUS
10
0.6780039999999999
20
-58.8846039999999959
11
0.582766
21
-58.7893649999999965
0
LINE
8
BLACK
6
CONTINUOUS
10
0.582766
20
-58.7893649999999965
11
0.487528
21
-58.5988889999999998
0
LINE
8
BLACK
6
CONTINUOUS
10
0.487528
20
-58.5988889999999998
11
0.39229
21
-58.2179369999999992
0
LINE
8
BLACK
6
CONTINUOUS
10
0.39229
20
-58.2179369999999992
11
0.39229
21
-57.7417459999999991
0
LINE
8
BLACK
6
CONTINUOUS
10
0.39229
20
-57.7417459999999991
11
0.487528
21
-57.3607939999999985
0
LINE
8
BLACK
6
CONTINUOUS
10
0.487528
20
-57.3607939999999985
11
0.582766
21
-57.1703179999999946
0
LINE
8
BLACK
6
CONTINUOUS
10
0.582766
20
-57.1703179999999946
11
0.6780039999999999
21
-57.0750799999999998
0
LINE
8
BLACK
6
CONTINUOUS
10
0.6780039999999999
20
-57.0750799999999998
11
0.8684799999999999
21
-56.9798419999999979
0
LINE
8
BLACK
6
CONTINUOUS
10
2.2018139999999997
20
-56.9798419999999979
11
3.4399089999999997
21
-56.9798419999999979
0
LINE
8
BLACK
6
CONTINUOUS
10
3.4399089999999997
20
-56.9798419999999979
11
2.7732419999999998
21
-57.7417459999999991
0
LINE
8
BLACK
6
CONTINUOUS
10
2.7732419999999998
20
-57.7417459999999991
11
3.0589569999999999
21
-57.7417459999999991
0
LINE
8
BLACK
6
CONTINUOUS
10
3.0589569999999999
20
-57.7417459999999991
11
3.2494329999999998
21
-57.836983999999994
0
LINE
8
BLACK
6
CONTINUOUS
10
3.2494329999999998
20
-57.836983999999994
11
3.3446709999999999
21
-57.9322230000000005
0
LINE
8
BLACK
6
CONTINUOUS
10
3.3446709999999999
20
-57.9322230000000005
11
3.4399089999999997
21
-58.1226989999999972
0
LINE
8
BLACK
6
CONTINUOUS
10
3.4399089999999997
20
-58.1226989999999972
11
3.4399089999999997
21
-58.5988889999999998
0
LINE
8
BLACK
6
CONTINUOUS
10
3.4399089999999997
20
-58.5988889999999998
11
3.3446709999999999
21
-58.7893649999999965
0
LINE
8
BLACK
6
CONTINUOUS
10
3.3446709999999999
20
-58.7893649999999965
11
3.2494329999999998
21
-58.8846039999999959
0
LINE
8
BLACK
6
CONTINUOUS
10
3.2494329999999998
20
-58.8846039999999959
11
3.0589569999999999
21
-58.9798419999999979
0
LINE
8
BLACK
6
CONTINUOUS
10
3.0589569999999999
20
-58.9798419999999979
11
2.4875279999999997
21
-58.9798419999999979
0
LINE
8
BLACK
6
CONTINUOUS
10
2.4875279999999997
20
-58.9798419999999979
11
2.2970519999999999
21
-58.8846039999999959
0
LINE
8
BLACK
6
CONTINUOUS
10
2.2970519999999999
20
-58.8846039999999959
11
2.2018139999999997
21
-58.7893649999999965
0
LINE
8
BLACK
6
CONTINUOUS
10
4.39229
20
-58.9798419999999979
11
4.7732419999999998
21
-58.9798419999999979
0
LINE
8
BLACK
6
CONTINUOUS
10
4.7732419999999998
20
-58.9798419999999979
11
4.9637190000000002
21
-58.8846039999999959
0
LINE
8
BLACK
6
CONTINUOUS
10
4.9637190000000002
20
-58.8846039999999959
11
5.0589569999999995
21
-58.7893649999999965
0
LINE
8
BLACK
6
CONTINUOUS
10
5.0589569999999995
20
-58.7893649999999965
11
5.2494329999999998
21
-58.5036509999999979
0
LINE
8
BLACK
6
CONTINUOUS
10
5.2494329999999998
20
-58.5036509999999979
11
5.3446709999999999
21
-58.1226989999999972
0
LINE
8
BLACK
6
CONTINUOUS
10
5.3446709999999999
20
-58.1226989999999972
11
5.3446709999999999
21
-57.3607939999999985
0
LINE
8
BLACK
6
CONTINUOUS
10
5.3446709999999999
20
-57.3607939999999985
11
5.2494329999999998
21
-57.1703179999999946
0
LINE
8
BLACK
6
CONTINUOUS
10
5.2494329999999998
20
-57.1703179999999946
11
5.1541949999999996
21
-57.0750799999999998
0
LINE
8
BLACK
6
CONTINUOUS
10
5.1541949999999996
20
-57.0750799999999998
11
4.9637190000000002
21
-56.9798419999999979
0
LINE
8
BLACK
6
CONTINUOUS
10
4.9637190000000002
20
-56.9798419999999979
11
4.5827659999999995
21
-56.9798419999999979
0
LINE
8
BLACK
6
CONTINUOUS
10
4.5827659999999995
20
-56.9798419999999979
11
4.39229
21
-57.0750799999999998
0
LINE
8
BLACK
6
CONTINUOUS
10
4.39229
20
-57.0750799999999998
11
4.2970519999999999
21
-57.1703179999999946
0
LINE
8
BLACK
6
CONTINUOUS
10
4.2970519999999999
20
-57.1703179999999946
11
4.2018139999999997
21
-57.3607939999999985
0
LINE
8
BLACK
6
CONTINUOUS
10
4.2018139999999997
20
-57.3607939999999985
11
4.2018139999999997
21
-57.836983999999994
0
LINE
8
BLACK
6
CONTINUOUS
10
4.2018139999999997
20
-57.836983999999994
11
4.2970519999999999
21
-58.0274609999999953
0
LINE
8
BLACK
6
CONTINUOUS
10
4.2970519999999999
20
-58.0274609999999953
11
4.39229
21
-58.1226989999999972
0
LINE
8
BLACK
6
CONTINUOUS
10
4.39229
20
-58.1226989999999972
11
4.5827659999999995
21
-58.2179369999999992
0
LINE
8
BLACK
6
CONTINUOUS
10
4.5827659999999995
20
-58.2179369999999992
11
4.9637190000000002
21
-58.2179369999999992
0
LINE
8
BLACK
6
CONTINUOUS
10
4.9637190000000002
20
-58.2179369999999992
11
5.1541949999999996
21
-58.1226989999999972
0
LINE
8
BLACK
6
CONTINUOUS
10
5.1541949999999996
20
-58.1226989999999972
11
5.2494329999999998
21
-58.0274609999999953
0
LINE
8
BLACK
6
CONTINUOUS
10
5.2494329999999998
20
-58.0274609999999953
11
5.3446709999999999
21
-57.836983999999994
0
LINE
8
BLACK
6
CONTINUOUS
10
7.0589569999999995
20
-57.6465079999999972
11
7.0589569999999995
21
-58.9798419999999979
0
LINE
8
BLACK
6
CONTINUOUS
10
6.5827659999999995
20
-56.8846039999999959
11
6.1065759999999996
21
-58.313174999999994
0
LINE
8
BLACK
6
CONTINUOUS
10
6.1065759999999996
20
-58.313174999999994
11
7.3446709999999999
21
-58.313174999999994
0
LINE
8
BLACK
6
CONTINUOUS
10
8.0113380000000003
20
-56.9798419999999979
11
8.0113380000000003
21
-57.3607939999999985
0
LINE
8
BLACK
6
CONTINUOUS
10
8.773242999999999
20
-56.9798419999999979
11
8.773242999999999
21
-57.3607939999999985
0
LINE
8
BLACK
6
CONTINUOUS
10
11.7256249999999991
20
-59.7417459999999991
11
11.6303859999999997
21
-59.6465079999999972
0
LINE
8
BLACK
6
CONTINUOUS
10
11.6303859999999997
20
-59.6465079999999972
11
11.4399099999999994
21
-59.3607939999999985
0
LINE
8
BLACK
6
CONTINUOUS
10
11.4399099999999994
20
-59.3607939999999985
11
11.3446719999999992
21
-59.1703179999999946
0
LINE
8
BLACK
6
CONTINUOUS
10
11.3446719999999992
20
-59.1703179999999946
11
11.249433999999999
21
-58.8846039999999959
0
LINE
8
BLACK
6
CONTINUOUS
10
11.249433999999999
20
-58.8846039999999959
11
11.1541959999999989
21
-58.4084129999999959
0
LINE
8
BLACK
6
CONTINUOUS
10
11.1541959999999989
20
-58.4084129999999959
11
11.1541959999999989
21
-58.0274609999999953
0
LINE
8
BLACK
6
CONTINUOUS
10
11.1541959999999989
20
-58.0274609999999953
11
11.249433999999999
21
-57.5512699999999953
0
LINE
8
BLACK
6
CONTINUOUS
10
11.249433999999999
20
-57.5512699999999953
11
11.3446719999999992
21
-57.2655559999999966
0
LINE
8
BLACK
6
CONTINUOUS
10
11.3446719999999992
20
-57.2655559999999966
11
11.4399099999999994
21
-57.0750799999999998
0
LINE
8
BLACK
6
CONTINUOUS
10
11.4399099999999994
20
-57.0750799999999998
11
11.6303859999999997
21
-56.7893649999999965
0
LINE
8
BLACK
6
CONTINUOUS
10
11.6303859999999997
20
-56.7893649999999965
11
11.7256249999999991
21
-56.6941269999999946
0
LINE
8
BLACK
6
CONTINUOUS
10
12.8684809999999992
20
-56.9798419999999979
11
13.0589579999999987
21
-56.9798419999999979
0
LINE
8
BLACK
6
CONTINUOUS
10
13.0589579999999987
20
-56.9798419999999979
11
13.249433999999999
21
-57.0750799999999998
0
LINE
8
BLACK
6
CONTINUOUS
10
13.249433999999999
20
-57.0750799999999998
11
13.3446719999999992
21
-57.1703179999999946
0
LINE
8
BLACK
6
CONTINUOUS
10
13.3446719999999992
20
-57.1703179999999946
11
13.4399099999999994
21
-57.3607939999999985
0
LINE
8
BLACK
6
CONTINUOUS
10
13.4399099999999994
20
-57.3607939999999985
11
13.5351479999999995
21
-57.7417459999999991
0
LINE
8
BLACK
6
CONTINUOUS
10
13.5351479999999995
20
-57.7417459999999991
11
13.5351479999999995
21
-58.2179369999999992
0
LINE
8
BLACK
6
CONTINUOUS
10
13.5351479999999995
20
-58.2179369999999992
11
13.4399099999999994
21
-58.5988889999999998
0
LINE
8
BLACK
6
CONTINUOUS
10
13.4399099999999994
20
-58.5988889999999998
11
13.3446719999999992
21
-58.7893649999999965
0
LINE
8
BLACK
6
CONTINUOUS
10
13.3446719999999992
20
-58.7893649999999965
11
13.249433999999999
21
-58.8846039999999959
0
LINE
8
BLACK
6
CONTINUOUS
10
13.249433999999999
20
-58.8846039999999959
11
13.0589579999999987
21
-58.9798419999999979
0
LINE
8
BLACK
6
CONTINUOUS
10
13.0589579999999987
20
-58.9798419999999979
11
12.8684809999999992
21
-58.9798419999999979
0
LINE
8
BLACK
6
CONTINUOUS
10
12.8684809999999992
20
-58.9798419999999979
11
12.6780049999999989
21
-58.8846039999999959
0
LINE
8
BLACK
6
CONTINUOUS
10
12.6780049999999989
20
-58.8846039999999959
11
12.5827669999999987
21
-58.7893649999999965
0
LINE
8
BLACK
6
CONTINUOUS
10
12.5827669999999987
20
-58.7893649999999965
11
12.4875289999999985
21
-58.5988889999999998
0
LINE
8
BLACK
6
CONTINUOUS
10
12.4875289999999985
20
-58.5988889999999998
11
12.3922910000000002
21
-58.2179369999999992
0
LINE
8
BLACK
6
CONTINUOUS
10
12.3922910000000002
20
-58.2179369999999992
11
12.3922910000000002
21
-57.7417459999999991
0
LINE
8
BLACK
6
CONTINUOUS
10
12.3922910000000002
20
-57.7417459999999991
11
12.4875289999999985
21
-57.3607939999999985
0
LINE
8
BLACK
6
CONTINUOUS
10
12.4875289999999985
20
-57.3607939999999985
11
12.5827669999999987
21
-57.1703179999999946
0
LINE
8
BLACK
6
CONTINUOUS
10
12.5827669999999987
20
-57.1703179999999946
11
12.6780049999999989
21
-57.0750799999999998
0
LINE
8
BLACK
6
CONTINUOUS
10
12.6780049999999989
20
-57.0750799999999998
11
12.8684809999999992
21
-56.9798419999999979
0
LINE
8
BLACK
6
CONTINUOUS
10
15.9161009999999994
20
-58.9798419999999979
11
15.9161009999999994
21
-56.9798419999999979
0
LINE
8
BLACK
6
CONTINUOUS
10
16.7732439999999983
20
-58.9798419999999979
11
16.7732439999999983
21
-57.9322230000000005
0
LINE
8
BLACK
6
CONTINUOUS
10
16.7732439999999983
20
-57.9322230000000005
11
16.6780059999999999
21
-57.7417459999999991
0
LINE
8
BLACK
6
CONTINUOUS
10
16.6780059999999999
20
-57.7417459999999991
11
16.4875299999999996
21
-57.6465079999999972
0
LINE
8
BLACK
6
CONTINUOUS
10
16.4875299999999996
20
-57.6465079999999972
11
16.2018149999999999
21
-57.6465079999999972
0
LINE
8
BLACK
6
CONTINUOUS
10
16.2018149999999999
20
-57.6465079999999972
11
16.0113389999999995
21
-57.7417459999999991
0
LINE
8
BLACK
6
CONTINUOUS
10
16.0113389999999995
20
-57.7417459999999991
11
15.9161009999999994
21
-57.836983999999994
0
LINE
8
BLACK
6
CONTINUOUS
10
18.0113389999999995
20
-58.9798419999999979
11
17.8208629999999992
21
-58.8846039999999959
0
LINE
8
BLACK
6
CONTINUOUS
10
17.8208629999999992
20
-58.8846039999999959
11
17.7256250000000009
21
-58.7893649999999965
0
LINE
8
BLACK
6
CONTINUOUS
10
17.7256250000000009
20
-58.7893649999999965
11
17.6303869999999989
21
-58.5988889999999998
0
LINE
8
BLACK
6
CONTINUOUS
10
17.6303869999999989
20
-58.5988889999999998
11
17.6303869999999989
21
-58.0274609999999953
0
LINE
8
BLACK
6
CONTINUOUS
10
17.6303869999999989
20
-58.0274609999999953
11
17.7256250000000009
21
-57.836983999999994
0
LINE
8
BLACK
6
CONTINUOUS
10
17.7256250000000009
20
-57.836983999999994
11
17.8208629999999992
21
-57.7417459999999991
0
LINE
8
BLACK
6
CONTINUOUS
10
17.8208629999999992
20
-57.7417459999999991
11
18.0113389999999995
21
-57.6465079999999972
0
LINE
8
BLACK
6
CONTINUOUS
10
18.0113389999999995
20
-57.6465079999999972
11
18.2970539999999993
21
-57.6465079999999972
0
LINE
8
BLACK
6
CONTINUOUS
10
18.2970539999999993
20
-57.6465079999999972
11
18.4875299999999996
21
-57.7417459999999991
0
LINE
8
BLACK
6
CONTINUOUS
10
18.4875299999999996
20
-57.7417459999999991
11
18.582767999999998
21
-57.836983999999994
0
LINE
8
BLACK
6
CONTINUOUS
10
18.582767999999998
20
-57.836983999999994
11
18.6780059999999999
21
-58.0274609999999953
0
LINE
8
BLACK
6
CONTINUOUS
10
18.6780059999999999
20
-58.0274609999999953
11
18.6780059999999999
21
-58.5988889999999998
0
LINE
8
BLACK
6
CONTINUOUS
10
18.6780059999999999
20
-58.5988889999999998
11
18.582767999999998
21
-58.7893649999999965
0
LINE
8
BLACK
6
CONTINUOUS
10
18.582767999999998
20
-58.7893649999999965
11
18.4875299999999996
21
-58.8846039999999959
0
LINE
8
BLACK
6
CONTINUOUS
10
18.4875299999999996
20
-58.8846039999999959
11
18.2970539999999993
21
-58.9798419999999979
0
LINE
8
BLACK
6
CONTINUOUS
10
18.2970539999999993
20
-58.9798419999999979
11
18.0113389999999995
21
-58.9798419999999979
0
LINE
8
BLACK
6
CONTINUOUS
10
19.8208629999999992
20
-58.9798419999999979
11
19.6303869999999989
21
-58.8846039999999959
0
LINE
8
BLACK
6
CONTINUOUS
10
19.6303869999999989
20
-58.8846039999999959
11
19.5351490000000005
21
-58.6941269999999946
0
LINE
8
BLACK
6
CONTINUOUS
10
19.5351490000000005
20
-58.6941269999999946
11
19.5351490000000005
21
-56.9798419999999979
0
LINE
8
BLACK
6
CONTINUOUS
10
21.3446730000000002
20
-58.8846039999999959
11
21.1541969999999999
21
-58.9798419999999979
0
LINE
8
BLACK
6
CONTINUOUS
10
21.1541969999999999
20
-58.9798419999999979
11
20.7732439999999983
21
-58.9798419999999979
0
LINE
8
BLACK
6
CONTINUOUS
10
20.7732439999999983
20
-58.9798419999999979
11
20.582767999999998
21
-58.8846039999999959
0
LINE
8
BLACK
6
CONTINUOUS
10
20.582767999999998
20
-58.8846039999999959
11
20.4875299999999996
21
-58.6941269999999946
0
LINE
8
BLACK
6
CONTINUOUS
10
20.4875299999999996
20
-58.6941269999999946
11
20.4875299999999996
21
-57.9322230000000005
0
LINE
8
BLACK
6
CONTINUOUS
10
20.4875299999999996
20
-57.9322230000000005
11
20.582767999999998
21
-57.7417459999999991
0
LINE
8
BLACK
6
CONTINUOUS
10
20.582767999999998
20
-57.7417459999999991
11
20.7732439999999983
21
-57.6465079999999972
0
LINE
8
BLACK
6
CONTINUOUS
10
20.7732439999999983
20
-57.6465079999999972
11
21.1541969999999999
21
-57.6465079999999972
0
LINE
8
BLACK
6
CONTINUOUS
10
21.1541969999999999
20
-57.6465079999999972
11
21.3446730000000002
21
-57.7417459999999991
0
LINE
8
BLACK
6
CONTINUOUS
10
21.3446730000000002
20
-57.7417459999999991
11
21.4399109999999986
21
-57.9322230000000005
0
LINE
8
BLACK
6
CONTINUOUS
10
21.4399109999999986
20
-57.9322230000000005
11
21.4399109999999986
21
-58.1226989999999972
0
LINE
8
BLACK
6
CONTINUOUS
10
21.4399109999999986
20
-58.1226989999999972
11
20.4875299999999996
21
-58.313174999999994
0
LINE
8
BLACK
6
CONTINUOUS
10
22.2018159999999973
20
-58.8846039999999959
11
22.3922919999999976
21
-58.9798419999999979
0
LINE
8
BLACK
6
CONTINUOUS
10
22.3922919999999976
20
-58.9798419999999979
11
22.7732439999999983
21
-58.9798419999999979
0
LINE
8
BLACK
6
CONTINUOUS
10
22.7732439999999983
20
-58.9798419999999979
11
22.9637209999999996
21
-58.8846039999999959
0
LINE
8
BLACK
6
CONTINUOUS
10
22.9637209999999996
20
-58.8846039999999959
11
23.058958999999998
21
-58.6941269999999946
0
LINE
8
BLACK
6
CONTINUOUS
10
23.058958999999998
20
-58.6941269999999946
11
23.058958999999998
21
-58.5988889999999998
0
LINE
8
BLACK
6
CONTINUOUS
10
23.058958999999998
20
-58.5988889999999998
11
22.9637209999999996
21
-58.4084129999999959
0
LINE
8
BLACK
6
CONTINUOUS
10
22.9637209999999996
20
-58.4084129999999959
11
22.7732439999999983
21
-58.313174999999994
0
LINE
8
BLACK
6
CONTINUOUS
10
22.7732439999999983
20
-58.313174999999994
11
22.4875299999999996
21
-58.313174999999994
0
LINE
8
BLACK
6
CONTINUOUS
10
22.4875299999999996
20
-58.313174999999994
11
22.2970539999999993
21
-58.2179369999999992
0
LINE
8
BLACK
6
CONTINUOUS
10
22.2970539999999993
20
-58.2179369999999992
11
22.2018159999999973
21
-58.0274609999999953
0
LINE
8
BLACK
6
CONTINUOUS
10
22.2018159999999973
20
-58.0274609999999953
11
22.2018159999999973
21
-57.9322230000000005
0
LINE
8
BLACK
6
CONTINUOUS
10
22.2018159999999973
20
-57.9322230000000005
11
22.2970539999999993
21
-57.7417459999999991
0
LINE
8
BLACK
6
CONTINUOUS
10
22.2970539999999993
20
-57.7417459999999991
11
22.4875299999999996
21
-57.6465079999999972
0
LINE
8
BLACK
6
CONTINUOUS
10
22.4875299999999996
20
-57.6465079999999972
11
22.7732439999999983
21
-57.6465079999999972
0
LINE
8
BLACK
6
CONTINUOUS
10
22.7732439999999983
20
-57.6465079999999972
11
22.9637209999999996
21
-57.7417459999999991
0
LINE
8
BLACK
6
CONTINUOUS
10
25.4399119999999996
20
-58.2179369999999992
11
26.9637219999999971
21
-58.2179369999999992
0
LINE
8
BLACK
6
CONTINUOUS
10
26.2018169999999984
20
-58.9798419999999979
11
26.2018169999999984
21
-57.4560320000000004
0
LINE
8
BLACK
6
CONTINUOUS
10
29.2494359999999993
20
-56.9798419999999979
11
30.4875309999999971
21
-56.9798419999999979
0
LINE
8
BLACK
6
CONTINUOUS
10
30.4875309999999971
20
-56.9798419999999979
11
29.8208640000000003
21
-57.7417459999999991
0
LINE
8
BLACK
6
CONTINUOUS
10
29.8208640000000003
20
-57.7417459999999991
11
30.106579
21
-57.7417459999999991
0
LINE
8
BLACK
6
CONTINUOUS
10
30.106579
20
-57.7417459999999991
11
30.2970550000000003
21
-57.836983999999994
0
LINE
8
BLACK
6
CONTINUOUS
10
30.2970550000000003
20
-57.836983999999994
11
30.3922929999999987
21
-57.9322230000000005
0
LINE
8
BLACK
6
CONTINUOUS
10
30.3922929999999987
20
-57.9322230000000005
11
30.4875309999999971
21
-58.1226989999999972
0
LINE
8
BLACK
6
CONTINUOUS
10
30.4875309999999971
20
-58.1226989999999972
11
30.4875309999999971
21
-58.5988889999999998
0
LINE
8
BLACK
6
CONTINUOUS
10
30.4875309999999971
20
-58.5988889999999998
11
30.3922929999999987
21
-58.7893649999999965
0
LINE
8
BLACK
6
CONTINUOUS
10
30.3922929999999987
20
-58.7893649999999965
11
30.2970550000000003
21
-58.8846039999999959
0
LINE
8
BLACK
6
CONTINUOUS
10
30.2970550000000003
20
-58.8846039999999959
11
30.106579
21
-58.9798419999999979
0
LINE
8
BLACK
6
CONTINUOUS
10
30.106579
20
-58.9798419999999979
11
29.535149999999998
21
-58.9798419999999979
0
LINE
8
BLACK
6
CONTINUOUS
10
29.535149999999998
20
-58.9798419999999979
11
29.3446739999999977
21
-58.8846039999999959
0
LINE
8
BLACK
6
CONTINUOUS
10
29.3446739999999977
20
-58.8846039999999959
11
29.2494359999999993
21
-58.7893649999999965
0
LINE
8
BLACK
6
CONTINUOUS
10
32.7732460000000003
20
-58.8846039999999959
11
32.9637219999999971
21
-58.9798419999999979
0
LINE
8
BLACK
6
CONTINUOUS
10
32.9637219999999971
20
-58.9798419999999979
11
33.3446739999999977
21
-58.9798419999999979
0
LINE
8
BLACK
6
CONTINUOUS
10
33.3446739999999977
20
-58.9798419999999979
11
33.535150999999999
21
-58.8846039999999959
0
LINE
8
BLACK
6
CONTINUOUS
10
33.535150999999999
20
-58.8846039999999959
11
33.630389000000001
21
-58.6941269999999946
0
LINE
8
BLACK
6
CONTINUOUS
10
33.630389000000001
20
-58.6941269999999946
11
33.630389000000001
21
-58.5988889999999998
0
LINE
8
BLACK
6
CONTINUOUS
10
33.630389000000001
20
-58.5988889999999998
11
33.535150999999999
21
-58.4084129999999959
0
LINE
8
BLACK
6
CONTINUOUS
10
33.535150999999999
20
-58.4084129999999959
11
33.3446739999999977
21
-58.313174999999994
0
LINE
8
BLACK
6
CONTINUOUS
10
33.3446739999999977
20
-58.313174999999994
11
33.058959999999999
21
-58.313174999999994
0
LINE
8
BLACK
6
CONTINUOUS
10
33.058959999999999
20
-58.313174999999994
11
32.8684839999999951
21
-58.2179369999999992
0
LINE
8
BLACK
6
CONTINUOUS
10
32.8684839999999951
20
-58.2179369999999992
11
32.7732460000000003
21
-58.0274609999999953
0
LINE
8
BLACK
6
CONTINUOUS
10
32.7732460000000003
20
-58.0274609999999953
11
32.7732460000000003
21
-57.9322230000000005
0
LINE
8
BLACK
6
CONTINUOUS
10
32.7732460000000003
20
-57.9322230000000005
11
32.8684839999999951
21
-57.7417459999999991
0
LINE
8
BLACK
6
CONTINUOUS
10
32.8684839999999951
20
-57.7417459999999991
11
33.058959999999999
21
-57.6465079999999972
0
LINE
8
BLACK
6
CONTINUOUS
10
33.058959999999999
20
-57.6465079999999972
11
33.3446739999999977
21
-57.6465079999999972
0
LINE
8
BLACK
6
CONTINUOUS
10
33.3446739999999977
20
-57.6465079999999972
11
33.535150999999999
21
-57.7417459999999991
0
LINE
8
BLACK
6
CONTINUOUS
10
34.7732460000000003
20
-58.9798419999999979
11
34.5827699999999965
21
-58.8846039999999959
0
LINE
8
BLACK
6
CONTINUOUS
10
34.5827699999999965
20
-58.8846039999999959
11
34.4875320000000016
21
-58.6941269999999946
0
LINE
8
BLACK
6
CONTINUOUS
10
34.4875320000000016
20
-58.6941269999999946
11
34.4875320000000016
21
-56.9798419999999979
0
LINE
8
BLACK
6
CONTINUOUS
10
35.8208649999999977
20
-58.9798419999999979
11
35.630389000000001
21
-58.8846039999999959
0
LINE
8
BLACK
6
CONTINUOUS
10
35.630389000000001
20
-58.8846039999999959
11
35.535150999999999
21
-58.7893649999999965
0
LINE
8
BLACK
6
CONTINUOUS
10
35.535150999999999
20
-58.7893649999999965
11
35.4399129999999971
21
-58.5988889999999998
0
LINE
8
BLACK
6
CONTINUOUS
10
35.4399129999999971
20
-58.5988889999999998
11
35.4399129999999971
21
-58.0274609999999953
0
LINE
8
BLACK
6
CONTINUOUS
10
35.4399129999999971
20
-58.0274609999999953
11
35.535150999999999
21
-57.836983999999994
0
LINE
8
BLACK
6
CONTINUOUS
10
35.535150999999999
20
-57.836983999999994
11
35.630389000000001
21
-57.7417459999999991
0
LINE
8
BLACK
6
CONTINUOUS
10
35.630389000000001
20
-57.7417459999999991
11
35.8208649999999977
21
-57.6465079999999972
0
LINE
8
BLACK
6
CONTINUOUS
10
35.8208649999999977
20
-57.6465079999999972
11
36.106580000000001
21
-57.6465079999999972
0
LINE
8
BLACK
6
CONTINUOUS
10
36.106580000000001
20
-57.6465079999999972
11
36.2970559999999978
21
-57.7417459999999991
0
LINE
8
BLACK
6
CONTINUOUS
10
36.2970559999999978
20
-57.7417459999999991
11
36.3922939999999997
21
-57.836983999999994
0
LINE
8
BLACK
6
CONTINUOUS
10
36.3922939999999997
20
-57.836983999999994
11
36.4875320000000016
21
-58.0274609999999953
0
LINE
8
BLACK
6
CONTINUOUS
10
36.4875320000000016
20
-58.0274609999999953
11
36.4875320000000016
21
-58.5988889999999998
0
LINE
8
BLACK
6
CONTINUOUS
10
36.4875320000000016
20
-58.5988889999999998
11
36.3922939999999997
21
-58.7893649999999965
0
LINE
8
BLACK
6
CONTINUOUS
10
36.3922939999999997
20
-58.7893649999999965
11
36.2970559999999978
21
-58.8846039999999959
0
LINE
8
BLACK
6
CONTINUOUS
10
36.2970559999999978
20
-58.8846039999999959
11
36.106580000000001
21
-58.9798419999999979
0
LINE
8
BLACK
6
CONTINUOUS
10
36.106580000000001
20
-58.9798419999999979
11
35.8208649999999977
21
-58.9798419999999979
0
LINE
8
BLACK
6
CONTINUOUS
10
37.0589609999999965
20
-57.6465079999999972
11
37.8208649999999977
21
-57.6465079999999972
0
LINE
8
BLACK
6
CONTINUOUS
10
37.3446749999999952
20
-56.9798419999999979
11
37.3446749999999952
21
-58.6941269999999946
0
LINE
8
BLACK
6
CONTINUOUS
10
37.3446749999999952
20
-58.6941269999999946
11
37.4399129999999971
21
-58.8846039999999959
0
LINE
8
BLACK
6
CONTINUOUS
10
37.4399129999999971
20
-58.8846039999999959
11
37.630389000000001
21
-58.9798419999999979
0
LINE
8
BLACK
6
CONTINUOUS
10
37.630389000000001
20
-58.9798419999999979
11
37.8208649999999977
21
-58.9798419999999979
0
LINE
8
BLACK
6
CONTINUOUS
10
38.3922939999999997
20
-58.8846039999999959
11
38.5827699999999965
21
-58.9798419999999979
0
LINE
8
BLACK
6
CONTINUOUS
10
38.5827699999999965
20
-58.9798419999999979
11
38.9637219999999971
21
-58.9798419999999979
0
LINE
8
BLACK
6
CONTINUOUS
10
38.9637219999999971
20
-58.9798419999999979
11
39.1541989999999984
21
-58.8846039999999959
0
LINE
8
BLACK
6
CONTINUOUS
10
39.1541989999999984
20
-58.8846039999999959
11
39.2494370000000004
21
-58.6941269999999946
0
LINE
8
BLACK
6
CONTINUOUS
10
39.2494370000000004
20
-58.6941269999999946
11
39.2494370000000004
21
-58.5988889999999998
0
LINE
8
BLACK
6
CONTINUOUS
10
39.2494370000000004
20
-58.5988889999999998
11
39.1541989999999984
21
-58.4084129999999959
0
LINE
8
BLACK
6
CONTINUOUS
10
39.1541989999999984
20
-58.4084129999999959
11
38.9637219999999971
21
-58.313174999999994
0
LINE
8
BLACK
6
CONTINUOUS
10
38.9637219999999971
20
-58.313174999999994
11
38.6780079999999984
21
-58.313174999999994
0
LINE
8
BLACK
6
CONTINUOUS
10
38.6780079999999984
20
-58.313174999999994
11
38.4875320000000016
21
-58.2179369999999992
0
LINE
8
BLACK
6
CONTINUOUS
10
38.4875320000000016
20
-58.2179369999999992
11
38.3922939999999997
21
-58.0274609999999953
0
LINE
8
BLACK
6
CONTINUOUS
10
38.3922939999999997
20
-58.0274609999999953
11
38.3922939999999997
21
-57.9322230000000005
0
LINE
8
BLACK
6
CONTINUOUS
10
38.3922939999999997
20
-57.9322230000000005
11
38.4875320000000016
21
-57.7417459999999991
0
LINE
8
BLACK
6
CONTINUOUS
10
38.4875320000000016
20
-57.7417459999999991
11
38.6780079999999984
21
-57.6465079999999972
0
LINE
8
BLACK
6
CONTINUOUS
10
38.6780079999999984
20
-57.6465079999999972
11
38.9637219999999971
21
-57.6465079999999972
0
LINE
8
BLACK
6
CONTINUOUS
10
38.9637219999999971
20
-57.6465079999999972
11
39.1541989999999984
21
-57.7417459999999991
0
LINE
8
BLACK
6
CONTINUOUS
10
39.9161039999999971
20
-59.7417459999999991
11
40.0113419999999991
21
-59.6465079999999972
0
LINE
8
BLACK
6
CONTINUOUS
10
40.0113419999999991
20
-59.6465079999999972
11
40.2018179999999958
21
-59.3607939999999985
0
LINE
8
BLACK
6
CONTINUOUS
10
40.2018179999999958
20
-59.3607939999999985
11
40.2970559999999978
21
-59.1703179999999946
0
LINE
8
BLACK
6
CONTINUOUS
10
40.2970559999999978
20
-59.1703179999999946
11
40.3922939999999997
21
-58.8846039999999959
0
LINE
8
BLACK
6
CONTINUOUS
10
40.3922939999999997
20
-58.8846039999999959
11
40.4875320000000016
21
-58.4084129999999959
0
LINE
8
BLACK
6
CONTINUOUS
10
40.4875320000000016
20
-58.4084129999999959
11
40.4875320000000016
21
-58.0274609999999953
0
LINE
8
BLACK
6
CONTINUOUS
10
40.4875320000000016
20
-58.0274609999999953
11
40.3922939999999997
21
-57.5512699999999953
0
LINE
8
BLACK
6
CONTINUOUS
10
40.3922939999999997
20
-57.5512699999999953
11
40.2970559999999978
21
-57.2655559999999966
0
LINE
8
BLACK
6
CONTINUOUS
10
40.2970559999999978
20
-57.2655559999999966
11
40.2018179999999958
21
-57.0750799999999998
0
LINE
8
BLACK
6
CONTINUOUS
10
40.2018179999999958
20
-57.0750799999999998
11
40.0113419999999991
21
-56.7893649999999965
0
LINE
8
BLACK
6
CONTINUOUS
10
40.0113419999999991
20
-56.7893649999999965
11
39.9161039999999971
21
-56.6941269999999946
0
LINE
8
BLACK
6
CONTINUOUS
10
-24.6250040000000006
20
-60.1050039999999939
11
-24.6250040000000006
21
-61.3050039999999967
0
LINE
8
BLACK
6
CONTINUOUS
10
-25.2250039999999984
20
-60.7050039999999953
11
-24.0250039999999991
21
-60.7050039999999953
0
LINE
8
BLACK
6
CONTINUOUS
10
-20.3696160000000006
20
-61.6198419999999984
11
-21.512473
21
-61.6198419999999984
0
LINE
8
BLACK
6
CONTINUOUS
10
-20.941044999999999
20
-61.6198419999999984
11
-20.941044999999999
21
-59.6198419999999984
0
LINE
8
BLACK
6
CONTINUOUS
10
-20.941044999999999
20
-59.6198419999999984
11
-21.1315209999999993
21
-59.9055559999999971
0
LINE
8
BLACK
6
CONTINUOUS
10
-21.1315209999999993
20
-59.9055559999999971
11
-21.3219969999999996
21
-60.0960319999999939
0
LINE
8
BLACK
6
CONTINUOUS
10
-21.3219969999999996
20
-60.0960319999999939
11
-21.512473
21
-60.1912699999999958
0
LINE
8
BLACK
6
CONTINUOUS
10
-19.512473
20
-61.4293649999999971
11
-19.417234999999998
21
-61.5246039999999965
0
LINE
8
BLACK
6
CONTINUOUS
10
-19.417234999999998
20
-61.5246039999999965
11
-19.512473
21
-61.6198419999999984
0
LINE
8
BLACK
6
CONTINUOUS
10
-19.512473
20
-61.6198419999999984
11
-19.6077109999999983
21
-61.5246039999999965
0
LINE
8
BLACK
6
CONTINUOUS
10
-19.6077109999999983
20
-61.5246039999999965
11
-19.512473
21
-61.4293649999999971
0
LINE
8
BLACK
6
CONTINUOUS
10
-19.512473
20
-61.4293649999999971
11
-19.512473
21
-61.6198419999999984
0
LINE
8
BLACK
6
CONTINUOUS
10
-18.6553299999999993
20
-59.8103179999999952
11
-18.5600920000000009
21
-59.7150800000000004
0
LINE
8
BLACK
6
CONTINUOUS
10
-18.5600920000000009
20
-59.7150800000000004
11
-18.3696160000000006
21
-59.6198419999999984
0
LINE
8
BLACK
6
CONTINUOUS
10
-18.3696160000000006
20
-59.6198419999999984
11
-17.8934250000000006
21
-59.6198419999999984
0
LINE
8
BLACK
6
CONTINUOUS
10
-17.8934250000000006
20
-59.6198419999999984
11
-17.7029490000000003
21
-59.7150800000000004
0
LINE
8
BLACK
6
CONTINUOUS
10
-17.7029490000000003
20
-59.7150800000000004
11
-17.6077109999999983
21
-59.8103179999999952
0
LINE
8
BLACK
6
CONTINUOUS
10
-17.6077109999999983
20
-59.8103179999999952
11
-17.512473
21
-60.0007939999999991
0
LINE
8
BLACK
6
CONTINUOUS
10
-17.512473
20
-60.0007939999999991
11
-17.512473
21
-60.1912699999999958
0
LINE
8
BLACK
6
CONTINUOUS
10
-17.512473
20
-60.1912699999999958
11
-17.6077109999999983
21
-60.4769839999999945
0
LINE
8
BLACK
6
CONTINUOUS
10
-17.6077109999999983
20
-60.4769839999999945
11
-18.7505679999999977
21
-61.6198419999999984
0
LINE
8
BLACK
6
CONTINUOUS
10
-18.7505679999999977
20
-61.6198419999999984
11
-17.512473
21
-61.6198419999999984
0
LINE
8
BLACK
6
CONTINUOUS
10
-16.2743779999999987
20
-59.6198419999999984
11
-16.0839010000000009
21
-59.6198419999999984
0
LINE
8
BLACK
6
CONTINUOUS
10
-16.0839010000000009
20
-59.6198419999999984
11
-15.8934249999999988
21
-59.7150800000000004
0
LINE
8
BLACK
6
CONTINUOUS
10
-15.8934249999999988
20
-59.7150800000000004
11
-15.7981869999999986
21
-59.8103179999999952
0
LINE
8
BLACK
6
CONTINUOUS
10
-15.7981869999999986
20
-59.8103179999999952
11
-15.7029489999999985
21
-60.0007939999999991
0
LINE
8
BLACK
6
CONTINUOUS
10
-15.7029489999999985
20
-60.0007939999999991
11
-15.6077110000000001
21
-60.3817459999999997
0
LINE
8
BLACK
6
CONTINUOUS
10
-15.6077110000000001
20
-60.3817459999999997
11
-15.6077110000000001
21
-60.8579369999999997
0
LINE
8
BLACK
6
CONTINUOUS
10
-15.6077110000000001
20
-60.8579369999999997
11
-15.7029489999999985
21
-61.2388890000000004
0
LINE
8
BLACK
6
CONTINUOUS
10
-15.7029489999999985
20
-61.2388890000000004
11
-15.7981869999999986
21
-61.4293649999999971
0
LINE
8
BLACK
6
CONTINUOUS
10
-15.7981869999999986
20
-61.4293649999999971
11
-15.8934249999999988
21
-61.5246039999999965
0
LINE
8
BLACK
6
CONTINUOUS
10
-15.8934249999999988
20
-61.5246039999999965
11
-16.0839010000000009
21
-61.6198419999999984
0
LINE
8
BLACK
6
CONTINUOUS
10
-16.0839010000000009
20
-61.6198419999999984
11
-16.2743779999999987
21
-61.6198419999999984
0
LINE
8
BLACK
6
CONTINUOUS
10
-16.2743779999999987
20
-61.6198419999999984
11
-16.464853999999999
21
-61.5246039999999965
0
LINE
8
BLACK
6
CONTINUOUS
10
-16.464853999999999
20
-61.5246039999999965
11
-16.5600920000000009
21
-61.4293649999999971
0
LINE
8
BLACK
6
CONTINUOUS
10
-16.5600920000000009
20
-61.4293649999999971
11
-16.6553299999999993
21
-61.2388890000000004
0
LINE
8
BLACK
6
CONTINUOUS
10
-16.6553299999999993
20
-61.2388890000000004
11
-16.7505679999999977
21
-60.8579369999999997
0
LINE
8
BLACK
6
CONTINUOUS
10
-16.7505679999999977
20
-60.8579369999999997
11
-16.7505679999999977
21
-60.3817459999999997
0
LINE
8
BLACK
6
CONTINUOUS
10
-16.7505679999999977
20
-60.3817459999999997
11
-16.6553299999999993
21
-60.0007939999999991
0
LINE
8
BLACK
6
CONTINUOUS
10
-16.6553299999999993
20
-60.0007939999999991
11
-16.5600920000000009
21
-59.8103179999999952
0
LINE
8
BLACK
6
CONTINUOUS
10
-16.5600920000000009
20
-59.8103179999999952
11
-16.464853999999999
21
-59.7150800000000004
0
LINE
8
BLACK
6
CONTINUOUS
10
-16.464853999999999
20
-59.7150800000000004
11
-16.2743779999999987
21
-59.6198419999999984
0
LINE
8
BLACK
6
CONTINUOUS
10
-14.3696159999999988
20
-59.6198419999999984
11
-14.1791389999999993
21
-59.6198419999999984
0
LINE
8
BLACK
6
CONTINUOUS
10
-14.1791389999999993
20
-59.6198419999999984
11
-13.988662999999999
21
-59.7150800000000004
0
LINE
8
BLACK
6
CONTINUOUS
10
-13.988662999999999
20
-59.7150800000000004
11
-13.8934249999999988
21
-59.8103179999999952
0
LINE
8
BLACK
6
CONTINUOUS
10
-13.8934249999999988
20
-59.8103179999999952
11
-13.7981869999999986
21
-60.0007939999999991
0
LINE
8
BLACK
6
CONTINUOUS
10
-13.7981869999999986
20
-60.0007939999999991
11
-13.7029490000000003
21
-60.3817459999999997
0
LINE
8
BLACK
6
CONTINUOUS
10
-13.7029490000000003
20
-60.3817459999999997
11
-13.7029490000000003
21
-60.8579369999999997
0
LINE
8
BLACK
6
CONTINUOUS
10
-13.7029490000000003
20
-60.8579369999999997
11
-13.7981869999999986
21
-61.2388890000000004
0
LINE
8
BLACK
6
CONTINUOUS
10
-13.7981869999999986
20
-61.2388890000000004
11
-13.8934249999999988
21
-61.4293649999999971
0
LINE
8
BLACK
6
CONTINUOUS
10
-13.8934249999999988
20
-61.4293649999999971
11
-13.988662999999999
21
-61.5246039999999965
0
LINE
8
BLACK
6
CONTINUOUS
10
-13.988662999999999
20
-61.5246039999999965
11
-14.1791389999999993
21
-61.6198419999999984
0
LINE
8
BLACK
6
CONTINUOUS
10
-14.1791389999999993
20
-61.6198419999999984
11
-14.3696159999999988
21
-61.6198419999999984
0
LINE
8
BLACK
6
CONTINUOUS
10
-14.3696159999999988
20
-61.6198419999999984
11
-14.5600919999999991
21
-61.5246039999999965
0
LINE
8
BLACK
6
CONTINUOUS
10
-14.5600919999999991
20
-61.5246039999999965
11
-14.6553299999999993
21
-61.4293649999999971
0
LINE
8
BLACK
6
CONTINUOUS
10
-14.6553299999999993
20
-61.4293649999999971
11
-14.7505679999999995
21
-61.2388890000000004
0
LINE
8
BLACK
6
CONTINUOUS
10
-14.7505679999999995
20
-61.2388890000000004
11
-14.8458059999999996
21
-60.8579369999999997
0
LINE
8
BLACK
6
CONTINUOUS
10
-14.8458059999999996
20
-60.8579369999999997
11
-14.8458059999999996
21
-60.3817459999999997
0
LINE
8
BLACK
6
CONTINUOUS
10
-14.8458059999999996
20
-60.3817459999999997
11
-14.7505679999999995
21
-60.0007939999999991
0
LINE
8
BLACK
6
CONTINUOUS
10
-14.7505679999999995
20
-60.0007939999999991
11
-14.6553299999999993
21
-59.8103179999999952
0
LINE
8
BLACK
6
CONTINUOUS
10
-14.6553299999999993
20
-59.8103179999999952
11
-14.5600919999999991
21
-59.7150800000000004
0
LINE
8
BLACK
6
CONTINUOUS
10
-14.5600919999999991
20
-59.7150800000000004
11
-14.3696159999999988
21
-59.6198419999999984
0
LINE
8
BLACK
6
CONTINUOUS
10
-12.8458059999999996
20
-61.6198419999999984
11
-12.8458059999999996
21
-60.2865079999999978
0
LINE
8
BLACK
6
CONTINUOUS
10
-12.8458059999999996
20
-60.4769839999999945
11
-12.7505679999999995
21
-60.3817459999999997
0
LINE
8
BLACK
6
CONTINUOUS
10
-12.7505679999999995
20
-60.3817459999999997
11
-12.5600919999999991
21
-60.2865079999999978
0
LINE
8
BLACK
6
CONTINUOUS
10
-12.5600919999999991
20
-60.2865079999999978
11
-12.2743769999999994
21
-60.2865079999999978
0
LINE
8
BLACK
6
CONTINUOUS
10
-12.2743769999999994
20
-60.2865079999999978
11
-12.0839009999999991
21
-60.3817459999999997
0
LINE
8
BLACK
6
CONTINUOUS
10
-12.0839009999999991
20
-60.3817459999999997
11
-11.988662999999999
21
-60.5722229999999939
0
LINE
8
BLACK
6
CONTINUOUS
10
-11.988662999999999
20
-60.5722229999999939
11
-11.988662999999999
21
-61.6198419999999984
0
LINE
8
BLACK
6
CONTINUOUS
10
-11.988662999999999
20
-60.5722229999999939
11
-11.8934249999999988
21
-60.3817459999999997
0
LINE
8
BLACK
6
CONTINUOUS
10
-11.8934249999999988
20
-60.3817459999999997
11
-11.7029490000000003
21
-60.2865079999999978
0
LINE
8
BLACK
6
CONTINUOUS
10
-11.7029490000000003
20
-60.2865079999999978
11
-11.4172349999999998
21
-60.2865079999999978
0
LINE
8
BLACK
6
CONTINUOUS
10
-11.4172349999999998
20
-60.2865079999999978
11
-11.2267580000000002
21
-60.3817459999999997
0
LINE
8
BLACK
6
CONTINUOUS
10
-11.2267580000000002
20
-60.3817459999999997
11
-11.1315200000000001
21
-60.5722229999999939
0
LINE
8
BLACK
6
CONTINUOUS
10
-11.1315200000000001
20
-60.5722229999999939
11
-11.1315200000000001
21
-61.6198419999999984
0
LINE
8
BLACK
6
CONTINUOUS
10
-10.1791389999999993
20
-61.6198419999999984
11
-10.1791389999999993
21
-60.2865079999999978
0
LINE
8
BLACK
6
CONTINUOUS
10
-10.1791389999999993
20
-60.4769839999999945
11
-10.0839009999999991
21
-60.3817459999999997
0
LINE
8
BLACK
6
CONTINUOUS
10
-10.0839009999999991
20
-60.3817459999999997
11
-9.8934249999999988
21
-60.2865079999999978
0
LINE
8
BLACK
6
CONTINUOUS
10
-9.8934249999999988
20
-60.2865079999999978
11
-9.6077099999999991
21
-60.2865079999999978
0
LINE
8
BLACK
6
CONTINUOUS
10
-9.6077099999999991
20
-60.2865079999999978
11
-9.4172339999999988
21
-60.3817459999999997
0
LINE
8
BLACK
6
CONTINUOUS
10
-9.4172339999999988
20
-60.3817459999999997
11
-9.3219960000000004
21
-60.5722229999999939
0
LINE
8
BLACK
6
CONTINUOUS
10
-9.3219960000000004
20
-60.5722229999999939
11
-9.3219960000000004
21
-61.6198419999999984
0
LINE
8
BLACK
6
CONTINUOUS
10
-9.3219960000000004
20
-60.5722229999999939
11
-9.2267580000000002
21
-60.3817459999999997
0
LINE
8
BLACK
6
CONTINUOUS
10
-9.2267580000000002
20
-60.3817459999999997
11
-9.0362819999999999
21
-60.2865079999999978
0
LINE
8
BLACK
6
CONTINUOUS
10
-9.0362819999999999
20
-60.2865079999999978
11
-8.7505679999999995
21
-60.2865079999999978
0
LINE
8
BLACK
6
CONTINUOUS
10
-8.7505679999999995
20
-60.2865079999999978
11
-8.5600909999999999
21
-60.3817459999999997
0
LINE
8
BLACK
6
CONTINUOUS
10
-8.5600909999999999
20
-60.3817459999999997
11
-8.4648529999999997
21
-60.5722229999999939
0
LINE
8
BLACK
6
CONTINUOUS
10
-8.4648529999999997
20
-60.5722229999999939
11
-8.4648529999999997
21
-61.6198419999999984
0
LINE
8
BLACK
6
CONTINUOUS
10
-4.5600909999999999
20
-59.5246039999999965
11
-6.2743759999999993
21
-62.0960319999999939
0
LINE
8
BLACK
6
CONTINUOUS
10
-1.9886619999999999
20
-59.6198419999999984
11
-1.7981849999999999
21
-59.6198419999999984
0
LINE
8
BLACK
6
CONTINUOUS
10
-1.7981849999999999
20
-59.6198419999999984
11
-1.6077089999999998
21
-59.7150800000000004
0
LINE
8
BLACK
6
CONTINUOUS
10
-1.6077089999999998
20
-59.7150800000000004
11
-1.5124709999999999
21
-59.8103179999999952
0
LINE
8
BLACK
6
CONTINUOUS
10
-1.5124709999999999
20
-59.8103179999999952
11
-1.417233
21
-60.0007939999999991
0
LINE
8
BLACK
6
CONTINUOUS
10
-1.417233
20
-60.0007939999999991
11
-1.321995
21
-60.3817459999999997
0
LINE
8
BLACK
6
CONTINUOUS
10
-1.321995
20
-60.3817459999999997
11
-1.321995
21
-60.8579369999999997
0
LINE
8
BLACK
6
CONTINUOUS
10
-1.321995
20
-60.8579369999999997
11
-1.417233
21
-61.2388890000000004
0
LINE
8
BLACK
6
CONTINUOUS
10
-1.417233
20
-61.2388890000000004
11
-1.5124709999999999
21
-61.4293649999999971
0
LINE
8
BLACK
6
CONTINUOUS
10
-1.5124709999999999
20
-61.4293649999999971
11
-1.6077089999999998
21
-61.5246039999999965
0
LINE
8
BLACK
6
CONTINUOUS
10
-1.6077089999999998
20
-61.5246039999999965
11
-1.7981849999999999
21
-61.6198419999999984
0
LINE
8
BLACK
6
CONTINUOUS
10
-1.7981849999999999
20
-61.6198419999999984
11
-1.9886619999999999
21
-61.6198419999999984
0
LINE
8
BLACK
6
CONTINUOUS
10
-1.9886619999999999
20
-61.6198419999999984
11
-2.179138
21
-61.5246039999999965
0
LINE
8
BLACK
6
CONTINUOUS
10
-2.179138
20
-61.5246039999999965
11
-2.2743759999999997
21
-61.4293649999999971
0
LINE
8
BLACK
6
CONTINUOUS
10
-2.2743759999999997
20
-61.4293649999999971
11
-2.3696139999999999
21
-61.2388890000000004
0
LINE
8
BLACK
6
CONTINUOUS
10
-2.3696139999999999
20
-61.2388890000000004
11
-2.464852
21
-60.8579369999999997
0
LINE
8
BLACK
6
CONTINUOUS
10
-2.464852
20
-60.8579369999999997
11
-2.464852
21
-60.3817459999999997
0
LINE
8
BLACK
6
CONTINUOUS
10
-2.464852
20
-60.3817459999999997
11
-2.3696139999999999
21
-60.0007939999999991
0
LINE
8
BLACK
6
CONTINUOUS
10
-2.3696139999999999
20
-60.0007939999999991
11
-2.2743759999999997
21
-59.8103179999999952
0
LINE
8
BLACK
6
CONTINUOUS
10
-2.2743759999999997
20
-59.8103179999999952
11
-2.179138
21
-59.7150800000000004
0
LINE
8
BLACK
6
CONTINUOUS
10
-2.179138
20
-59.7150800000000004
11
-1.9886619999999999
21
-59.6198419999999984
0
LINE
8
BLACK
6
CONTINUOUS
10
-0.464852
20
-61.4293649999999971
11
-0.369614
21
-61.5246039999999965
0
LINE
8
BLACK
6
CONTINUOUS
10
-0.369614
20
-61.5246039999999965
11
-0.464852
21
-61.6198419999999984
0
LINE
8
BLACK
6
CONTINUOUS
10
-0.464852
20
-61.6198419999999984
11
-0.56009
21
-61.5246039999999965
0
LINE
8
BLACK
6
CONTINUOUS
10
-0.56009
20
-61.5246039999999965
11
-0.464852
21
-61.4293649999999971
0
LINE
8
BLACK
6
CONTINUOUS
10
-0.464852
20
-61.4293649999999971
11
-0.464852
21
-61.6198419999999984
0
LINE
8
BLACK
6
CONTINUOUS
10
0.8684799999999999
20
-59.6198419999999984
11
1.0589569999999999
21
-59.6198419999999984
0
LINE
8
BLACK
6
CONTINUOUS
10
1.0589569999999999
20
-59.6198419999999984
11
1.249433
21
-59.7150800000000004
0
LINE
8
BLACK
6
CONTINUOUS
10
1.249433
20
-59.7150800000000004
11
1.3446709999999999
21
-59.8103179999999952
0
LINE
8
BLACK
6
CONTINUOUS
10
1.3446709999999999
20
-59.8103179999999952
11
1.4399089999999999
21
-60.0007939999999991
0
LINE
8
BLACK
6
CONTINUOUS
10
1.4399089999999999
20
-60.0007939999999991
11
1.535147
21
-60.3817459999999997
0
LINE
8
BLACK
6
CONTINUOUS
10
1.535147
20
-60.3817459999999997
11
1.535147
21
-60.8579369999999997
0
LINE
8
BLACK
6
CONTINUOUS
10
1.535147
20
-60.8579369999999997
11
1.4399089999999999
21
-61.2388890000000004
0
LINE
8
BLACK
6
CONTINUOUS
10
1.4399089999999999
20
-61.2388890000000004
11
1.3446709999999999
21
-61.4293649999999971
0
LINE
8
BLACK
6
CONTINUOUS
10
1.3446709999999999
20
-61.4293649999999971
11
1.249433
21
-61.5246039999999965
0
LINE
8
BLACK
6
CONTINUOUS
10
1.249433
20
-61.5246039999999965
11
1.0589569999999999
21
-61.6198419999999984
0
LINE
8
BLACK
6
CONTINUOUS
10
1.0589569999999999
20
-61.6198419999999984
11
0.8684799999999999
21
-61.6198419999999984
0
LINE
8
BLACK
6
CONTINUOUS
10
0.8684799999999999
20
-61.6198419999999984
11
0.6780039999999999
21
-61.5246039999999965
0
LINE
8
BLACK
6
CONTINUOUS
10
0.6780039999999999
20
-61.5246039999999965
11
0.582766
21
-61.4293649999999971
0
LINE
8
BLACK
6
CONTINUOUS
10
0.582766
20
-61.4293649999999971
11
0.487528
21
-61.2388890000000004
0
LINE
8
BLACK
6
CONTINUOUS
10
0.487528
20
-61.2388890000000004
11
0.39229
21
-60.8579369999999997
0
LINE
8
BLACK
6
CONTINUOUS
10
0.39229
20
-60.8579369999999997
11
0.39229
21
-60.3817459999999997
0
LINE
8
BLACK
6
CONTINUOUS
10
0.39229
20
-60.3817459999999997
11
0.487528
21
-60.0007939999999991
0
LINE
8
BLACK
6
CONTINUOUS
10
0.487528
20
-60.0007939999999991
11
0.582766
21
-59.8103179999999952
0
LINE
8
BLACK
6
CONTINUOUS
10
0.582766
20
-59.8103179999999952
11
0.6780039999999999
21
-59.7150800000000004
0
LINE
8
BLACK
6
CONTINUOUS
10
0.6780039999999999
20
-59.7150800000000004
11
0.8684799999999999
21
-59.6198419999999984
0
LINE
8
BLACK
6
CONTINUOUS
10
3.2494329999999998
20
-60.2865079999999978
11
3.2494329999999998
21
-61.6198419999999984
0
LINE
8
BLACK
6
CONTINUOUS
10
2.7732419999999998
20
-59.5246039999999965
11
2.2970519999999999
21
-60.9531749999999946
0
LINE
8
BLACK
6
CONTINUOUS
10
2.2970519999999999
20
-60.9531749999999946
11
3.5351469999999998
21
-60.9531749999999946
0
LINE
8
BLACK
6
CONTINUOUS
10
4.1065759999999996
20
-59.6198419999999984
11
5.4399090000000001
21
-59.6198419999999984
0
LINE
8
BLACK
6
CONTINUOUS
10
5.4399090000000001
20
-59.6198419999999984
11
4.5827659999999995
21
-61.6198419999999984
0
LINE
8
BLACK
6
CONTINUOUS
10
6.1065759999999996
20
-59.8103179999999952
11
6.2018139999999997
21
-59.7150800000000004
0
LINE
8
BLACK
6
CONTINUOUS
10
6.2018139999999997
20
-59.7150800000000004
11
6.39229
21
-59.6198419999999984
0
LINE
8
BLACK
6
CONTINUOUS
10
6.39229
20
-59.6198419999999984
11
6.8684810000000001
21
-59.6198419999999984
0
LINE
8
BLACK
6
CONTINUOUS
10
6.8684810000000001
20
-59.6198419999999984
11
7.0589569999999995
21
-59.7150800000000004
0
LINE
8
BLACK
6
CONTINUOUS
10
7.0589569999999995
20
-59.7150800000000004
11
7.1541949999999996
21
-59.8103179999999952
0
LINE
8
BLACK
6
CONTINUOUS
10
7.1541949999999996
20
-59.8103179999999952
11
7.2494329999999998
21
-60.0007939999999991
0
LINE
8
BLACK
6
CONTINUOUS
10
7.2494329999999998
20
-60.0007939999999991
11
7.2494329999999998
21
-60.1912699999999958
0
LINE
8
BLACK
6
CONTINUOUS
10
7.2494329999999998
20
-60.1912699999999958
11
7.1541949999999996
21
-60.4769839999999945
0
LINE
8
BLACK
6
CONTINUOUS
10
7.1541949999999996
20
-60.4769839999999945
11
6.0113379999999994
21
-61.6198419999999984
0
LINE
8
BLACK
6
CONTINUOUS
10
6.0113379999999994
20
-61.6198419999999984
11
7.2494329999999998
21
-61.6198419999999984
0
LINE
8
BLACK
6
CONTINUOUS
10
8.0113380000000003
20
-59.6198419999999984
11
8.0113380000000003
21
-60.0007939999999991
0
LINE
8
BLACK
6
CONTINUOUS
10
8.773242999999999
20
-59.6198419999999984
11
8.773242999999999
21
-60.0007939999999991
0
LINE
8
BLACK
6
CONTINUOUS
10
11.7256249999999991
20
-62.3817459999999997
11
11.6303859999999997
21
-62.2865079999999978
0
LINE
8
BLACK
6
CONTINUOUS
10
11.6303859999999997
20
-62.2865079999999978
11
11.4399099999999994
21
-62.0007939999999991
0
LINE
8
BLACK
6
CONTINUOUS
10
11.4399099999999994
20
-62.0007939999999991
11
11.3446719999999992
21
-61.8103179999999952
0
LINE
8
BLACK
6
CONTINUOUS
10
11.3446719999999992
20
-61.8103179999999952
11
11.249433999999999
21
-61.5246039999999965
0
LINE
8
BLACK
6
CONTINUOUS
10
11.249433999999999
20
-61.5246039999999965
11
11.1541959999999989
21
-61.0484129999999965
0
LINE
8
BLACK
6
CONTINUOUS
10
11.1541959999999989
20
-61.0484129999999965
11
11.1541959999999989
21
-60.6674609999999959
0
LINE
8
BLACK
6
CONTINUOUS
10
11.1541959999999989
20
-60.6674609999999959
11
11.249433999999999
21
-60.1912699999999958
0
LINE
8
BLACK
6
CONTINUOUS
10
11.249433999999999
20
-60.1912699999999958
11
11.3446719999999992
21
-59.9055559999999971
0
LINE
8
BLACK
6
CONTINUOUS
10
11.3446719999999992
20
-59.9055559999999971
11
11.4399099999999994
21
-59.7150800000000004
0
LINE
8
BLACK
6
CONTINUOUS
10
11.4399099999999994
20
-59.7150800000000004
11
11.6303859999999997
21
-59.4293649999999971
0
LINE
8
BLACK
6
CONTINUOUS
10
11.6303859999999997
20
-59.4293649999999971
11
11.7256249999999991
21
-59.3341269999999952
0
LINE
8
BLACK
6
CONTINUOUS
10
12.3922910000000002
20
-59.8103179999999952
11
12.4875289999999985
21
-59.7150800000000004
0
LINE
8
BLACK
6
CONTINUOUS
10
12.4875289999999985
20
-59.7150800000000004
11
12.6780049999999989
21
-59.6198419999999984
0
LINE
8
BLACK
6
CONTINUOUS
10
12.6780049999999989
20
-59.6198419999999984
11
13.1541959999999989
21
-59.6198419999999984
0
LINE
8
BLACK
6
CONTINUOUS
10
13.1541959999999989
20
-59.6198419999999984
11
13.3446719999999992
21
-59.7150800000000004
0
LINE
8
BLACK
6
CONTINUOUS
10
13.3446719999999992
20
-59.7150800000000004
11
13.4399099999999994
21
-59.8103179999999952
0
LINE
8
BLACK
6
CONTINUOUS
10
13.4399099999999994
20
-59.8103179999999952
11
13.5351479999999995
21
-60.0007939999999991
0
LINE
8
BLACK
6
CONTINUOUS
10
13.5351479999999995
20
-60.0007939999999991
11
13.5351479999999995
21
-60.1912699999999958
0
LINE
8
BLACK
6
CONTINUOUS
10
13.5351479999999995
20
-60.1912699999999958
11
13.4399099999999994
21
-60.4769839999999945
0
LINE
8
BLACK
6
CONTINUOUS
10
13.4399099999999994
20
-60.4769839999999945
11
12.297053
21
-61.6198419999999984
0
LINE
8
BLACK
6
CONTINUOUS
10
12.297053
20
-61.6198419999999984
11
13.5351479999999995
21
-61.6198419999999984
0
LINE
8
BLACK
6
CONTINUOUS
10
15.9161009999999994
20
-61.6198419999999984
11
15.9161009999999994
21
-59.6198419999999984
0
LINE
8
BLACK
6
CONTINUOUS
10
16.7732439999999983
20
-61.6198419999999984
11
16.7732439999999983
21
-60.5722229999999939
0
LINE
8
BLACK
6
CONTINUOUS
10
16.7732439999999983
20
-60.5722229999999939
11
16.6780059999999999
21
-60.3817459999999997
0
LINE
8
BLACK
6
CONTINUOUS
10
16.6780059999999999
20
-60.3817459999999997
11
16.4875299999999996
21
-60.2865079999999978
0
LINE
8
BLACK
6
CONTINUOUS
10
16.4875299999999996
20
-60.2865079999999978
11
16.2018149999999999
21
-60.2865079999999978
0
LINE
8
BLACK
6
CONTINUOUS
10
16.2018149999999999
20
-60.2865079999999978
11
16.0113389999999995
21
-60.3817459999999997
0
LINE
8
BLACK
6
CONTINUOUS
10
16.0113389999999995
20
-60.3817459999999997
11
15.9161009999999994
21
-60.4769839999999945
0
LINE
8
BLACK
6
CONTINUOUS
10
18.0113389999999995
20
-61.6198419999999984
11
17.8208629999999992
21
-61.5246039999999965
0
LINE
8
BLACK
6
CONTINUOUS
10
17.8208629999999992
20
-61.5246039999999965
11
17.7256250000000009
21
-61.4293649999999971
0
LINE
8
BLACK
6
CONTINUOUS
10
17.7256250000000009
20
-61.4293649999999971
11
17.6303869999999989
21
-61.2388890000000004
0
LINE
8
BLACK
6
CONTINUOUS
10
17.6303869999999989
20
-61.2388890000000004
11
17.6303869999999989
21
-60.6674609999999959
0
LINE
8
BLACK
6
CONTINUOUS
10
17.6303869999999989
20
-60.6674609999999959
11
17.7256250000000009
21
-60.4769839999999945
0
LINE
8
BLACK
6
CONTINUOUS
10
17.7256250000000009
20
-60.4769839999999945
11
17.8208629999999992
21
-60.3817459999999997
0
LINE
8
BLACK
6
CONTINUOUS
10
17.8208629999999992
20
-60.3817459999999997
11
18.0113389999999995
21
-60.2865079999999978
0
LINE
8
BLACK
6
CONTINUOUS
10
18.0113389999999995
20
-60.2865079999999978
11
18.2970539999999993
21
-60.2865079999999978
0
LINE
8
BLACK
6
CONTINUOUS
10
18.2970539999999993
20
-60.2865079999999978
11
18.4875299999999996
21
-60.3817459999999997
0
LINE
8
BLACK
6
CONTINUOUS
10
18.4875299999999996
20
-60.3817459999999997
11
18.582767999999998
21
-60.4769839999999945
0
LINE
8
BLACK
6
CONTINUOUS
10
18.582767999999998
20
-60.4769839999999945
11
18.6780059999999999
21
-60.6674609999999959
0
LINE
8
BLACK
6
CONTINUOUS
10
18.6780059999999999
20
-60.6674609999999959
11
18.6780059999999999
21
-61.2388890000000004
0
LINE
8
BLACK
6
CONTINUOUS
10
18.6780059999999999
20
-61.2388890000000004
11
18.582767999999998
21
-61.4293649999999971
0
LINE
8
BLACK
6
CONTINUOUS
10
18.582767999999998
20
-61.4293649999999971
11
18.4875299999999996
21
-61.5246039999999965
0
LINE
8
BLACK
6
CONTINUOUS
10
18.4875299999999996
20
-61.5246039999999965
11
18.2970539999999993
21
-61.6198419999999984
0
LINE
8
BLACK
6
CONTINUOUS
10
18.2970539999999993
20
-61.6198419999999984
11
18.0113389999999995
21
-61.6198419999999984
0
LINE
8
BLACK
6
CONTINUOUS
10
19.8208629999999992
20
-61.6198419999999984
11
19.6303869999999989
21
-61.5246039999999965
0
LINE
8
BLACK
6
CONTINUOUS
10
19.6303869999999989
20
-61.5246039999999965
11
19.5351490000000005
21
-61.3341269999999952
0
LINE
8
BLACK
6
CONTINUOUS
10
19.5351490000000005
20
-61.3341269999999952
11
19.5351490000000005
21
-59.6198419999999984
0
LINE
8
BLACK
6
CONTINUOUS
10
21.3446730000000002
20
-61.5246039999999965
11
21.1541969999999999
21
-61.6198419999999984
0
LINE
8
BLACK
6
CONTINUOUS
10
21.1541969999999999
20
-61.6198419999999984
11
20.7732439999999983
21
-61.6198419999999984
0
LINE
8
BLACK
6
CONTINUOUS
10
20.7732439999999983
20
-61.6198419999999984
11
20.582767999999998
21
-61.5246039999999965
0
LINE
8
BLACK
6
CONTINUOUS
10
20.582767999999998
20
-61.5246039999999965
11
20.4875299999999996
21
-61.3341269999999952
0
LINE
8
BLACK
6
CONTINUOUS
10
20.4875299999999996
20
-61.3341269999999952
11
20.4875299999999996
21
-60.5722229999999939
0
LINE
8
BLACK
6
CONTINUOUS
10
20.4875299999999996
20
-60.5722229999999939
11
20.582767999999998
21
-60.3817459999999997
0
LINE
8
BLACK
6
CONTINUOUS
10
20.582767999999998
20
-60.3817459999999997
11
20.7732439999999983
21
-60.2865079999999978
0
LINE
8
BLACK
6
CONTINUOUS
10
20.7732439999999983
20
-60.2865079999999978
11
21.1541969999999999
21
-60.2865079999999978
0
LINE
8
BLACK
6
CONTINUOUS
10
21.1541969999999999
20
-60.2865079999999978
11
21.3446730000000002
21
-60.3817459999999997
0
LINE
8
BLACK
6
CONTINUOUS
10
21.3446730000000002
20
-60.3817459999999997
11
21.4399109999999986
21
-60.5722229999999939
0
LINE
8
BLACK
6
CONTINUOUS
10
21.4399109999999986
20
-60.5722229999999939
11
21.4399109999999986
21
-60.7626989999999978
0
LINE
8
BLACK
6
CONTINUOUS
10
21.4399109999999986
20
-60.7626989999999978
11
20.4875299999999996
21
-60.9531749999999946
0
LINE
8
BLACK
6
CONTINUOUS
10
22.2018159999999973
20
-61.5246039999999965
11
22.3922919999999976
21
-61.6198419999999984
0
LINE
8
BLACK
6
CONTINUOUS
10
22.3922919999999976
20
-61.6198419999999984
11
22.7732439999999983
21
-61.6198419999999984
0
LINE
8
BLACK
6
CONTINUOUS
10
22.7732439999999983
20
-61.6198419999999984
11
22.9637209999999996
21
-61.5246039999999965
0
LINE
8
BLACK
6
CONTINUOUS
10
22.9637209999999996
20
-61.5246039999999965
11
23.058958999999998
21
-61.3341269999999952
0
LINE
8
BLACK
6
CONTINUOUS
10
23.058958999999998
20
-61.3341269999999952
11
23.058958999999998
21
-61.2388890000000004
0
LINE
8
BLACK
6
CONTINUOUS
10
23.058958999999998
20
-61.2388890000000004
11
22.9637209999999996
21
-61.0484129999999965
0
LINE
8
BLACK
6
CONTINUOUS
10
22.9637209999999996
20
-61.0484129999999965
11
22.7732439999999983
21
-60.9531749999999946
0
LINE
8
BLACK
6
CONTINUOUS
10
22.7732439999999983
20
-60.9531749999999946
11
22.4875299999999996
21
-60.9531749999999946
0
LINE
8
BLACK
6
CONTINUOUS
10
22.4875299999999996
20
-60.9531749999999946
11
22.2970539999999993
21
-60.8579369999999997
0
LINE
8
BLACK
6
CONTINUOUS
10
22.2970539999999993
20
-60.8579369999999997
11
22.2018159999999973
21
-60.6674609999999959
0
LINE
8
BLACK
6
CONTINUOUS
10
22.2018159999999973
20
-60.6674609999999959
11
22.2018159999999973
21
-60.5722229999999939
0
LINE
8
BLACK
6
CONTINUOUS
10
22.2018159999999973
20
-60.5722229999999939
11
22.2970539999999993
21
-60.3817459999999997
0
LINE
8
BLACK
6
CONTINUOUS
10
22.2970539999999993
20
-60.3817459999999997
11
22.4875299999999996
21
-60.2865079999999978
0
LINE
8
BLACK
6
CONTINUOUS
10
22.4875299999999996
20
-60.2865079999999978
11
22.7732439999999983
21
-60.2865079999999978
0
LINE
8
BLACK
6
CONTINUOUS
10
22.7732439999999983
20
-60.2865079999999978
11
22.9637209999999996
21
-60.3817459999999997
0
LINE
8
BLACK
6
CONTINUOUS
10
23.7256259999999983
20
-62.3817459999999997
11
23.8208640000000003
21
-62.2865079999999978
0
LINE
8
BLACK
6
CONTINUOUS
10
23.8208640000000003
20
-62.2865079999999978
11
24.0113400000000006
21
-62.0007939999999991
0
LINE
8
BLACK
6
CONTINUOUS
10
24.0113400000000006
20
-62.0007939999999991
11
24.106577999999999
21
-61.8103179999999952
0
LINE
8
BLACK
6
CONTINUOUS
10
24.106577999999999
20
-61.8103179999999952
11
24.2018159999999973
21
-61.5246039999999965
0
LINE
8
BLACK
6
CONTINUOUS
10
24.2018159999999973
20
-61.5246039999999965
11
24.2970539999999993
21
-61.0484129999999965
0
LINE
8
BLACK
6
CONTINUOUS
10
24.2970539999999993
20
-61.0484129999999965
11
24.2970539999999993
21
-60.6674609999999959
0
LINE
8
BLACK
6
CONTINUOUS
10
24.2970539999999993
20
-60.6674609999999959
11
24.2018159999999973
21
-60.1912699999999958
0
LINE
8
BLACK
6
CONTINUOUS
10
24.2018159999999973
20
-60.1912699999999958
11
24.106577999999999
21
-59.9055559999999971
0
LINE
8
BLACK
6
CONTINUOUS
10
24.106577999999999
20
-59.9055559999999971
11
24.0113400000000006
21
-59.7150800000000004
0
LINE
8
BLACK
6
CONTINUOUS
10
24.0113400000000006
20
-59.7150800000000004
11
23.8208640000000003
21
-59.4293649999999971
0
LINE
8
BLACK
6
CONTINUOUS
10
23.8208640000000003
20
-59.4293649999999971
11
23.7256259999999983
21
-59.3341269999999952
0
LINE
8
BLACK
6
CONTINUOUS
10
-24.3178899999999985
20
-64.052117999999993
11
-24.3178899999999985
21
-62.6378899999999987
0
LINE
8
BLACK
6
CONTINUOUS
10
-24.3178899999999985
20
-62.6378899999999987
11
-25.7321179999999998
21
-62.6378899999999987
0
LINE
8
BLACK
6
CONTINUOUS
10
-25.7321179999999998
20
-62.6378899999999987
11
-25.7321179999999998
21
-64.052117999999993
0
LINE
8
BLACK
6
CONTINUOUS
10
-25.7321179999999998
20
-64.052117999999993
11
-24.3178899999999985
21
-64.052117999999993
0
LINE
8
BLACK
6
CONTINUOUS
10
-21.6077109999999983
20
-62.259841999999999
11
-20.3696160000000006
21
-62.259841999999999
0
LINE
8
BLACK
6
CONTINUOUS
10
-20.3696160000000006
20
-62.259841999999999
11
-21.0362829999999974
21
-63.0217460000000003
0
LINE
8
BLACK
6
CONTINUOUS
10
-21.0362829999999974
20
-63.0217460000000003
11
-20.7505679999999977
21
-63.0217460000000003
0
LINE
8
BLACK
6
CONTINUOUS
10
-20.7505679999999977
20
-63.0217460000000003
11
-20.5600919999999974
21
-63.1169839999999951
0
LINE
8
BLACK
6
CONTINUOUS
10
-20.5600919999999974
20
-63.1169839999999951
11
-20.464853999999999
21
-63.2122229999999945
0
LINE
8
BLACK
6
CONTINUOUS
10
-20.464853999999999
20
-63.2122229999999945
11
-20.3696160000000006
21
-63.4026989999999984
0
LINE
8
BLACK
6
CONTINUOUS
10
-20.3696160000000006
20
-63.4026989999999984
11
-20.3696160000000006
21
-63.8788889999999938
0
LINE
8
BLACK
6
CONTINUOUS
10
-20.3696160000000006
20
-63.8788889999999938
11
-20.464853999999999
21
-64.0693649999999906
0
LINE
8
BLACK
6
CONTINUOUS
10
-20.464853999999999
20
-64.0693649999999906
11
-20.5600919999999974
21
-64.1646039999999971
0
LINE
8
BLACK
6
CONTINUOUS
10
-20.5600919999999974
20
-64.1646039999999971
11
-20.7505679999999977
21
-64.2598419999999919
0
LINE
8
BLACK
6
CONTINUOUS
10
-20.7505679999999977
20
-64.2598419999999919
11
-21.3219969999999996
21
-64.2598419999999919
0
LINE
8
BLACK
6
CONTINUOUS
10
-21.3219969999999996
20
-64.2598419999999919
11
-21.512473
21
-64.1646039999999971
0
LINE
8
BLACK
6
CONTINUOUS
10
-21.512473
20
-64.1646039999999971
11
-21.6077109999999983
21
-64.0693649999999906
0
LINE
8
BLACK
6
CONTINUOUS
10
-19.512473
20
-64.0693649999999906
11
-19.417234999999998
21
-64.1646039999999971
0
LINE
8
BLACK
6
CONTINUOUS
10
-19.417234999999998
20
-64.1646039999999971
11
-19.512473
21
-64.2598419999999919
0
LINE
8
BLACK
6
CONTINUOUS
10
-19.512473
20
-64.2598419999999919
11
-19.6077109999999983
21
-64.1646039999999971
0
LINE
8
BLACK
6
CONTINUOUS
10
-19.6077109999999983
20
-64.1646039999999971
11
-19.512473
21
-64.0693649999999906
0
LINE
8
BLACK
6
CONTINUOUS
10
-19.512473
20
-64.0693649999999906
11
-19.512473
21
-64.2598419999999919
0
LINE
8
BLACK
6
CONTINUOUS
10
-18.6553299999999993
20
-62.4503179999999958
11
-18.5600920000000009
21
-62.3550799999999938
0
LINE
8
BLACK
6
CONTINUOUS
10
-18.5600920000000009
20
-62.3550799999999938
11
-18.3696160000000006
21
-62.259841999999999
0
LINE
8
BLACK
6
CONTINUOUS
10
-18.3696160000000006
20
-62.259841999999999
11
-17.8934250000000006
21
-62.259841999999999
0
LINE
8
BLACK
6
CONTINUOUS
10
-17.8934250000000006
20
-62.259841999999999
11
-17.7029490000000003
21
-62.3550799999999938
0
LINE
8
BLACK
6
CONTINUOUS
10
-17.7029490000000003
20
-62.3550799999999938
11
-17.6077109999999983
21
-62.4503179999999958
0
LINE
8
BLACK
6
CONTINUOUS
10
-17.6077109999999983
20
-62.4503179999999958
11
-17.512473
21
-62.6407939999999996
0
LINE
8
BLACK
6
CONTINUOUS
10
-17.512473
20
-62.6407939999999996
11
-17.512473
21
-62.8312699999999964
0
LINE
8
BLACK
6
CONTINUOUS
10
-17.512473
20
-62.8312699999999964
11
-17.6077109999999983
21
-63.1169839999999951
0
LINE
8
BLACK
6
CONTINUOUS
10
-17.6077109999999983
20
-63.1169839999999951
11
-18.7505679999999977
21
-64.2598419999999919
0
LINE
8
BLACK
6
CONTINUOUS
10
-18.7505679999999977
20
-64.2598419999999919
11
-17.512473
21
-64.2598419999999919
0
LINE
8
BLACK
6
CONTINUOUS
10
-16.2743779999999987
20
-62.259841999999999
11
-16.0839010000000009
21
-62.259841999999999
0
LINE
8
BLACK
6
CONTINUOUS
10
-16.0839010000000009
20
-62.259841999999999
11
-15.8934249999999988
21
-62.3550799999999938
0
LINE
8
BLACK
6
CONTINUOUS
10
-15.8934249999999988
20
-62.3550799999999938
11
-15.7981869999999986
21
-62.4503179999999958
0
LINE
8
BLACK
6
CONTINUOUS
10
-15.7981869999999986
20
-62.4503179999999958
11
-15.7029489999999985
21
-62.6407939999999996
0
LINE
8
BLACK
6
CONTINUOUS
10
-15.7029489999999985
20
-62.6407939999999996
11
-15.6077110000000001
21
-63.0217460000000003
0
LINE
8
BLACK
6
CONTINUOUS
10
-15.6077110000000001
20
-63.0217460000000003
11
-15.6077110000000001
21
-63.4979370000000003
0
LINE
8
BLACK
6
CONTINUOUS
10
-15.6077110000000001
20
-63.4979370000000003
11
-15.7029489999999985
21
-63.8788889999999938
0
LINE
8
BLACK
6
CONTINUOUS
10
-15.7029489999999985
20
-63.8788889999999938
11
-15.7981869999999986
21
-64.0693649999999906
0
LINE
8
BLACK
6
CONTINUOUS
10
-15.7981869999999986
20
-64.0693649999999906
11
-15.8934249999999988
21
-64.1646039999999971
0
LINE
8
BLACK
6
CONTINUOUS
10
-15.8934249999999988
20
-64.1646039999999971
11
-16.0839010000000009
21
-64.2598419999999919
0
LINE
8
BLACK
6
CONTINUOUS
10
-16.0839010000000009
20
-64.2598419999999919
11
-16.2743779999999987
21
-64.2598419999999919
0
LINE
8
BLACK
6
CONTINUOUS
10
-16.2743779999999987
20
-64.2598419999999919
11
-16.464853999999999
21
-64.1646039999999971
0
LINE
8
BLACK
6
CONTINUOUS
10
-16.464853999999999
20
-64.1646039999999971
11
-16.5600920000000009
21
-64.0693649999999906
0
LINE
8
BLACK
6
CONTINUOUS
10
-16.5600920000000009
20
-64.0693649999999906
11
-16.6553299999999993
21
-63.8788889999999938
0
LINE
8
BLACK
6
CONTINUOUS
10
-16.6553299999999993
20
-63.8788889999999938
11
-16.7505679999999977
21
-63.4979370000000003
0
LINE
8
BLACK
6
CONTINUOUS
10
-16.7505679999999977
20
-63.4979370000000003
11
-16.7505679999999977
21
-63.0217460000000003
0
LINE
8
BLACK
6
CONTINUOUS
10
-16.7505679999999977
20
-63.0217460000000003
11
-16.6553299999999993
21
-62.6407939999999996
0
LINE
8
BLACK
6
CONTINUOUS
10
-16.6553299999999993
20
-62.6407939999999996
11
-16.5600920000000009
21
-62.4503179999999958
0
LINE
8
BLACK
6
CONTINUOUS
10
-16.5600920000000009
20
-62.4503179999999958
11
-16.464853999999999
21
-62.3550799999999938
0
LINE
8
BLACK
6
CONTINUOUS
10
-16.464853999999999
20
-62.3550799999999938
11
-16.2743779999999987
21
-62.259841999999999
0
LINE
8
BLACK
6
CONTINUOUS
10
-14.3696159999999988
20
-62.259841999999999
11
-14.1791389999999993
21
-62.259841999999999
0
LINE
8
BLACK
6
CONTINUOUS
10
-14.1791389999999993
20
-62.259841999999999
11
-13.988662999999999
21
-62.3550799999999938
0
LINE
8
BLACK
6
CONTINUOUS
10
-13.988662999999999
20
-62.3550799999999938
11
-13.8934249999999988
21
-62.4503179999999958
0
LINE
8
BLACK
6
CONTINUOUS
10
-13.8934249999999988
20
-62.4503179999999958
11
-13.7981869999999986
21
-62.6407939999999996
0
LINE
8
BLACK
6
CONTINUOUS
10
-13.7981869999999986
20
-62.6407939999999996
11
-13.7029490000000003
21
-63.0217460000000003
0
LINE
8
BLACK
6
CONTINUOUS
10
-13.7029490000000003
20
-63.0217460000000003
11
-13.7029490000000003
21
-63.4979370000000003
0
LINE
8
BLACK
6
CONTINUOUS
10
-13.7029490000000003
20
-63.4979370000000003
11
-13.7981869999999986
21
-63.8788889999999938
0
LINE
8
BLACK
6
CONTINUOUS
10
-13.7981869999999986
20
-63.8788889999999938
11
-13.8934249999999988
21
-64.0693649999999906
0
LINE
8
BLACK
6
CONTINUOUS
10
-13.8934249999999988
20
-64.0693649999999906
11
-13.988662999999999
21
-64.1646039999999971
0
LINE
8
BLACK
6
CONTINUOUS
10
-13.988662999999999
20
-64.1646039999999971
11
-14.1791389999999993
21
-64.2598419999999919
0
LINE
8
BLACK
6
CONTINUOUS
10
-14.1791389999999993
20
-64.2598419999999919
11
-14.3696159999999988
21
-64.2598419999999919
0
LINE
8
BLACK
6
CONTINUOUS
10
-14.3696159999999988
20
-64.2598419999999919
11
-14.5600919999999991
21
-64.1646039999999971
0
LINE
8
BLACK
6
CONTINUOUS
10
-14.5600919999999991
20
-64.1646039999999971
11
-14.6553299999999993
21
-64.0693649999999906
0
LINE
8
BLACK
6
CONTINUOUS
10
-14.6553299999999993
20
-64.0693649999999906
11
-14.7505679999999995
21
-63.8788889999999938
0
LINE
8
BLACK
6
CONTINUOUS
10
-14.7505679999999995
20
-63.8788889999999938
11
-14.8458059999999996
21
-63.4979370000000003
0
LINE
8
BLACK
6
CONTINUOUS
10
-14.8458059999999996
20
-63.4979370000000003
11
-14.8458059999999996
21
-63.0217460000000003
0
LINE
8
BLACK
6
CONTINUOUS
10
-14.8458059999999996
20
-63.0217460000000003
11
-14.7505679999999995
21
-62.6407939999999996
0
LINE
8
BLACK
6
CONTINUOUS
10
-14.7505679999999995
20
-62.6407939999999996
11
-14.6553299999999993
21
-62.4503179999999958
0
LINE
8
BLACK
6
CONTINUOUS
10
-14.6553299999999993
20
-62.4503179999999958
11
-14.5600919999999991
21
-62.3550799999999938
0
LINE
8
BLACK
6
CONTINUOUS
10
-14.5600919999999991
20
-62.3550799999999938
11
-14.3696159999999988
21
-62.259841999999999
0
LINE
8
BLACK
6
CONTINUOUS
10
-12.8458059999999996
20
-64.2598419999999919
11
-12.8458059999999996
21
-62.9265079999999983
0
LINE
8
BLACK
6
CONTINUOUS
10
-12.8458059999999996
20
-63.1169839999999951
11
-12.7505679999999995
21
-63.0217460000000003
0
LINE
8
BLACK
6
CONTINUOUS
10
-12.7505679999999995
20
-63.0217460000000003
11
-12.5600919999999991
21
-62.9265079999999983
0
LINE
8
BLACK
6
CONTINUOUS
10
-12.5600919999999991
20
-62.9265079999999983
11
-12.2743769999999994
21
-62.9265079999999983
0
LINE
8
BLACK
6
CONTINUOUS
10
-12.2743769999999994
20
-62.9265079999999983
11
-12.0839009999999991
21
-63.0217460000000003
0
LINE
8
BLACK
6
CONTINUOUS
10
-12.0839009999999991
20
-63.0217460000000003
11
-11.988662999999999
21
-63.2122229999999945
0
LINE
8
BLACK
6
CONTINUOUS
10
-11.988662999999999
20
-63.2122229999999945
11
-11.988662999999999
21
-64.2598419999999919
0
LINE
8
BLACK
6
CONTINUOUS
10
-11.988662999999999
20
-63.2122229999999945
11
-11.8934249999999988
21
-63.0217460000000003
0
LINE
8
BLACK
6
CONTINUOUS
10
-11.8934249999999988
20
-63.0217460000000003
11
-11.7029490000000003
21
-62.9265079999999983
0
LINE
8
BLACK
6
CONTINUOUS
10
-11.7029490000000003
20
-62.9265079999999983
11
-11.4172349999999998
21
-62.9265079999999983
0
LINE
8
BLACK
6
CONTINUOUS
10
-11.4172349999999998
20
-62.9265079999999983
11
-11.2267580000000002
21
-63.0217460000000003
0
LINE
8
BLACK
6
CONTINUOUS
10
-11.2267580000000002
20
-63.0217460000000003
11
-11.1315200000000001
21
-63.2122229999999945
0
LINE
8
BLACK
6
CONTINUOUS
10
-11.1315200000000001
20
-63.2122229999999945
11
-11.1315200000000001
21
-64.2598419999999919
0
LINE
8
BLACK
6
CONTINUOUS
10
-10.1791389999999993
20
-64.2598419999999919
11
-10.1791389999999993
21
-62.9265079999999983
0
LINE
8
BLACK
6
CONTINUOUS
10
-10.1791389999999993
20
-63.1169839999999951
11
-10.0839009999999991
21
-63.0217460000000003
0
LINE
8
BLACK
6
CONTINUOUS
10
-10.0839009999999991
20
-63.0217460000000003
11
-9.8934249999999988
21
-62.9265079999999983
0
LINE
8
BLACK
6
CONTINUOUS
10
-9.8934249999999988
20
-62.9265079999999983
11
-9.6077099999999991
21
-62.9265079999999983
0
LINE
8
BLACK
6
CONTINUOUS
10
-9.6077099999999991
20
-62.9265079999999983
11
-9.4172339999999988
21
-63.0217460000000003
0
LINE
8
BLACK
6
CONTINUOUS
10
-9.4172339999999988
20
-63.0217460000000003
11
-9.3219960000000004
21
-63.2122229999999945
0
LINE
8
BLACK
6
CONTINUOUS
10
-9.3219960000000004
20
-63.2122229999999945
11
-9.3219960000000004
21
-64.2598419999999919
0
LINE
8
BLACK
6
CONTINUOUS
10
-9.3219960000000004
20
-63.2122229999999945
11
-9.2267580000000002
21
-63.0217460000000003
0
LINE
8
BLACK
6
CONTINUOUS
10
-9.2267580000000002
20
-63.0217460000000003
11
-9.0362819999999999
21
-62.9265079999999983
0
LINE
8
BLACK
6
CONTINUOUS
10
-9.0362819999999999
20
-62.9265079999999983
11
-8.7505679999999995
21
-62.9265079999999983
0
LINE
8
BLACK
6
CONTINUOUS
10
-8.7505679999999995
20
-62.9265079999999983
11
-8.5600909999999999
21
-63.0217460000000003
0
LINE
8
BLACK
6
CONTINUOUS
10
-8.5600909999999999
20
-63.0217460000000003
11
-8.4648529999999997
21
-63.2122229999999945
0
LINE
8
BLACK
6
CONTINUOUS
10
-8.4648529999999997
20
-63.2122229999999945
11
-8.4648529999999997
21
-64.2598419999999919
0
LINE
8
BLACK
6
CONTINUOUS
10
-4.5600909999999999
20
-62.1646039999999971
11
-6.2743759999999993
21
-64.7360319999999945
0
LINE
8
BLACK
6
CONTINUOUS
10
-1.9886619999999999
20
-62.259841999999999
11
-1.7981849999999999
21
-62.259841999999999
0
LINE
8
BLACK
6
CONTINUOUS
10
-1.7981849999999999
20
-62.259841999999999
11
-1.6077089999999998
21
-62.3550799999999938
0
LINE
8
BLACK
6
CONTINUOUS
10
-1.6077089999999998
20
-62.3550799999999938
11
-1.5124709999999999
21
-62.4503179999999958
0
LINE
8
BLACK
6
CONTINUOUS
10
-1.5124709999999999
20
-62.4503179999999958
11
-1.417233
21
-62.6407939999999996
0
LINE
8
BLACK
6
CONTINUOUS
10
-1.417233
20
-62.6407939999999996
11
-1.321995
21
-63.0217460000000003
0
LINE
8
BLACK
6
CONTINUOUS
10
-1.321995
20
-63.0217460000000003
11
-1.321995
21
-63.4979370000000003
0
LINE
8
BLACK
6
CONTINUOUS
10
-1.321995
20
-63.4979370000000003
11
-1.417233
21
-63.8788889999999938
0
LINE
8
BLACK
6
CONTINUOUS
10
-1.417233
20
-63.8788889999999938
11
-1.5124709999999999
21
-64.0693649999999906
0
LINE
8
BLACK
6
CONTINUOUS
10
-1.5124709999999999
20
-64.0693649999999906
11
-1.6077089999999998
21
-64.1646039999999971
0
LINE
8
BLACK
6
CONTINUOUS
10
-1.6077089999999998
20
-64.1646039999999971
11
-1.7981849999999999
21
-64.2598419999999919
0
LINE
8
BLACK
6
CONTINUOUS
10
-1.7981849999999999
20
-64.2598419999999919
11
-1.9886619999999999
21
-64.2598419999999919
0
LINE
8
BLACK
6
CONTINUOUS
10
-1.9886619999999999
20
-64.2598419999999919
11
-2.179138
21
-64.1646039999999971
0
LINE
8
BLACK
6
CONTINUOUS
10
-2.179138
20
-64.1646039999999971
11
-2.2743759999999997
21
-64.0693649999999906
0
LINE
8
BLACK
6
CONTINUOUS
10
-2.2743759999999997
20
-64.0693649999999906
11
-2.3696139999999999
21
-63.8788889999999938
0
LINE
8
BLACK
6
CONTINUOUS
10
-2.3696139999999999
20
-63.8788889999999938
11
-2.464852
21
-63.4979370000000003
0
LINE
8
BLACK
6
CONTINUOUS
10
-2.464852
20
-63.4979370000000003
11
-2.464852
21
-63.0217460000000003
0
LINE
8
BLACK
6
CONTINUOUS
10
-2.464852
20
-63.0217460000000003
11
-2.3696139999999999
21
-62.6407939999999996
0
LINE
8
BLACK
6
CONTINUOUS
10
-2.3696139999999999
20
-62.6407939999999996
11
-2.2743759999999997
21
-62.4503179999999958
0
LINE
8
BLACK
6
CONTINUOUS
10
-2.2743759999999997
20
-62.4503179999999958
11
-2.179138
21
-62.3550799999999938
0
LINE
8
BLACK
6
CONTINUOUS
10
-2.179138
20
-62.3550799999999938
11
-1.9886619999999999
21
-62.259841999999999
0
LINE
8
BLACK
6
CONTINUOUS
10
-0.464852
20
-64.0693649999999906
11
-0.369614
21
-64.1646039999999971
0
LINE
8
BLACK
6
CONTINUOUS
10
-0.369614
20
-64.1646039999999971
11
-0.464852
21
-64.2598419999999919
0
LINE
8
BLACK
6
CONTINUOUS
10
-0.464852
20
-64.2598419999999919
11
-0.56009
21
-64.1646039999999971
0
LINE
8
BLACK
6
CONTINUOUS
10
-0.56009
20
-64.1646039999999971
11
-0.464852
21
-64.0693649999999906
0
LINE
8
BLACK
6
CONTINUOUS
10
-0.464852
20
-64.0693649999999906
11
-0.464852
21
-64.2598419999999919
0
LINE
8
BLACK
6
CONTINUOUS
10
1.535147
20
-64.2598419999999919
11
0.39229
21
-64.2598419999999919
0
LINE
8
BLACK
6
CONTINUOUS
10
0.963718
20
-64.2598419999999919
11
0.963718
21
-62.259841999999999
0
LINE
8
BLACK
6
CONTINUOUS
10
0.963718
20
-62.259841999999999
11
0.773242
21
-62.5455559999999977
0
LINE
8
BLACK
6
CONTINUOUS
10
0.773242
20
-62.5455559999999977
11
0.582766
21
-62.7360319999999945
0
LINE
8
BLACK
6
CONTINUOUS
10
0.582766
20
-62.7360319999999945
11
0.39229
21
-62.8312699999999964
0
LINE
8
BLACK
6
CONTINUOUS
10
2.2970519999999999
20
-62.4503179999999958
11
2.39229
21
-62.3550799999999938
0
LINE
8
BLACK
6
CONTINUOUS
10
2.39229
20
-62.3550799999999938
11
2.5827659999999999
21
-62.259841999999999
0
LINE
8
BLACK
6
CONTINUOUS
10
2.5827659999999999
20
-62.259841999999999
11
3.0589569999999999
21
-62.259841999999999
0
LINE
8
BLACK
6
CONTINUOUS
10
3.0589569999999999
20
-62.259841999999999
11
3.2494329999999998
21
-62.3550799999999938
0
LINE
8
BLACK
6
CONTINUOUS
10
3.2494329999999998
20
-62.3550799999999938
11
3.3446709999999999
21
-62.4503179999999958
0
LINE
8
BLACK
6
CONTINUOUS
10
3.3446709999999999
20
-62.4503179999999958
11
3.4399089999999997
21
-62.6407939999999996
0
LINE
8
BLACK
6
CONTINUOUS
10
3.4399089999999997
20
-62.6407939999999996
11
3.4399089999999997
21
-62.8312699999999964
0
LINE
8
BLACK
6
CONTINUOUS
10
3.4399089999999997
20
-62.8312699999999964
11
3.3446709999999999
21
-63.1169839999999951
0
LINE
8
BLACK
6
CONTINUOUS
10
3.3446709999999999
20
-63.1169839999999951
11
2.2018139999999997
21
-64.2598419999999919
0
LINE
8
BLACK
6
CONTINUOUS
10
2.2018139999999997
20
-64.2598419999999919
11
3.4399089999999997
21
-64.2598419999999919
0
LINE
8
BLACK
6
CONTINUOUS
10
5.1541949999999996
20
-62.259841999999999
11
4.7732419999999998
21
-62.259841999999999
0
LINE
8
BLACK
6
CONTINUOUS
10
4.7732419999999998
20
-62.259841999999999
11
4.5827659999999995
21
-62.3550799999999938
0
LINE
8
BLACK
6
CONTINUOUS
10
4.5827659999999995
20
-62.3550799999999938
11
4.4875280000000002
21
-62.4503179999999958
0
LINE
8
BLACK
6
CONTINUOUS
10
4.4875280000000002
20
-62.4503179999999958
11
4.2970519999999999
21
-62.7360319999999945
0
LINE
8
BLACK
6
CONTINUOUS
10
4.2970519999999999
20
-62.7360319999999945
11
4.2018139999999997
21
-63.1169839999999951
0
LINE
8
BLACK
6
CONTINUOUS
10
4.2018139999999997
20
-63.1169839999999951
11
4.2018139999999997
21
-63.8788889999999938
0
LINE
8
BLACK
6
CONTINUOUS
10
4.2018139999999997
20
-63.8788889999999938
11
4.2970519999999999
21
-64.0693649999999906
0
LINE
8
BLACK
6
CONTINUOUS
10
4.2970519999999999
20
-64.0693649999999906
11
4.39229
21
-64.1646039999999971
0
LINE
8
BLACK
6
CONTINUOUS
10
4.39229
20
-64.1646039999999971
11
4.5827659999999995
21
-64.2598419999999919
0
LINE
8
BLACK
6
CONTINUOUS
10
4.5827659999999995
20
-64.2598419999999919
11
4.9637190000000002
21
-64.2598419999999919
0
LINE
8
BLACK
6
CONTINUOUS
10
4.9637190000000002
20
-64.2598419999999919
11
5.1541949999999996
21
-64.1646039999999971
0
LINE
8
BLACK
6
CONTINUOUS
10
5.1541949999999996
20
-64.1646039999999971
11
5.2494329999999998
21
-64.0693649999999906
0
LINE
8
BLACK
6
CONTINUOUS
10
5.2494329999999998
20
-64.0693649999999906
11
5.3446709999999999
21
-63.8788889999999938
0
LINE
8
BLACK
6
CONTINUOUS
10
5.3446709999999999
20
-63.8788889999999938
11
5.3446709999999999
21
-63.4026989999999984
0
LINE
8
BLACK
6
CONTINUOUS
10
5.3446709999999999
20
-63.4026989999999984
11
5.2494329999999998
21
-63.2122229999999945
0
LINE
8
BLACK
6
CONTINUOUS
10
5.2494329999999998
20
-63.2122229999999945
11
5.1541949999999996
21
-63.1169839999999951
0
LINE
8
BLACK
6
CONTINUOUS
10
5.1541949999999996
20
-63.1169839999999951
11
4.9637190000000002
21
-63.0217460000000003
0
LINE
8
BLACK
6
CONTINUOUS
10
4.9637190000000002
20
-63.0217460000000003
11
4.5827659999999995
21
-63.0217460000000003
0
LINE
8
BLACK
6
CONTINUOUS
10
4.5827659999999995
20
-63.0217460000000003
11
4.39229
21
-63.1169839999999951
0
LINE
8
BLACK
6
CONTINUOUS
10
4.39229
20
-63.1169839999999951
11
4.2970519999999999
21
-63.2122229999999945
0
LINE
8
BLACK
6
CONTINUOUS
10
4.2970519999999999
20
-63.2122229999999945
11
4.2018139999999997
21
-63.4026989999999984
0
LINE
8
BLACK
6
CONTINUOUS
10
6.5827659999999995
20
-62.259841999999999
11
6.7732429999999999
21
-62.259841999999999
0
LINE
8
BLACK
6
CONTINUOUS
10
6.7732429999999999
20
-62.259841999999999
11
6.9637189999999993
21
-62.3550799999999938
0
LINE
8
BLACK
6
CONTINUOUS
10
6.9637189999999993
20
-62.3550799999999938
11
7.0589569999999995
21
-62.4503179999999958
0
LINE
8
BLACK
6
CONTINUOUS
10
7.0589569999999995
20
-62.4503179999999958
11
7.1541949999999996
21
-62.6407939999999996
0
LINE
8
BLACK
6
CONTINUOUS
10
7.1541949999999996
20
-62.6407939999999996
11
7.2494329999999998
21
-63.0217460000000003
0
LINE
8
BLACK
6
CONTINUOUS
10
7.2494329999999998
20
-63.0217460000000003
11
7.2494329999999998
21
-63.4979370000000003
0
LINE
8
BLACK
6
CONTINUOUS
10
7.2494329999999998
20
-63.4979370000000003
11
7.1541949999999996
21
-63.8788889999999938
0
LINE
8
BLACK
6
CONTINUOUS
10
7.1541949999999996
20
-63.8788889999999938
11
7.0589569999999995
21
-64.0693649999999906
0
LINE
8
BLACK
6
CONTINUOUS
10
7.0589569999999995
20
-64.0693649999999906
11
6.9637189999999993
21
-64.1646039999999971
0
LINE
8
BLACK
6
CONTINUOUS
10
6.9637189999999993
20
-64.1646039999999971
11
6.7732429999999999
21
-64.2598419999999919
0
LINE
8
BLACK
6
CONTINUOUS
10
6.7732429999999999
20
-64.2598419999999919
11
6.5827659999999995
21
-64.2598419999999919
0
LINE
8
BLACK
6
CONTINUOUS
10
6.5827659999999995
20
-64.2598419999999919
11
6.39229
21
-64.1646039999999971
0
LINE
8
BLACK
6
CONTINUOUS
10
6.39229
20
-64.1646039999999971
11
6.2970519999999999
21
-64.0693649999999906
0
LINE
8
BLACK
6
CONTINUOUS
10
6.2970519999999999
20
-64.0693649999999906
11
6.2018139999999997
21
-63.8788889999999938
0
LINE
8
BLACK
6
CONTINUOUS
10
6.2018139999999997
20
-63.8788889999999938
11
6.1065759999999996
21
-63.4979370000000003
0
LINE
8
BLACK
6
CONTINUOUS
10
6.1065759999999996
20
-63.4979370000000003
11
6.1065759999999996
21
-63.0217460000000003
0
LINE
8
BLACK
6
CONTINUOUS
10
6.1065759999999996
20
-63.0217460000000003
11
6.2018139999999997
21
-62.6407939999999996
0
LINE
8
BLACK
6
CONTINUOUS
10
6.2018139999999997
20
-62.6407939999999996
11
6.2970519999999999
21
-62.4503179999999958
0
LINE
8
BLACK
6
CONTINUOUS
10
6.2970519999999999
20
-62.4503179999999958
11
6.39229
21
-62.3550799999999938
0
LINE
8
BLACK
6
CONTINUOUS
10
6.39229
20
-62.3550799999999938
11
6.5827659999999995
21
-62.259841999999999
0
LINE
8
BLACK
6
CONTINUOUS
10
8.0113380000000003
20
-62.259841999999999
11
8.0113380000000003
21
-62.6407939999999996
0
LINE
8
BLACK
6
CONTINUOUS
10
8.773242999999999
20
-62.259841999999999
11
8.773242999999999
21
-62.6407939999999996
0
LINE
8
BLACK
6
CONTINUOUS
10
11.7256249999999991
20
-65.0217459999999932
11
11.6303859999999997
21
-64.9265079999999983
0
LINE
8
BLACK
6
CONTINUOUS
10
11.6303859999999997
20
-64.9265079999999983
11
11.4399099999999994
21
-64.6407939999999996
0
LINE
8
BLACK
6
CONTINUOUS
10
11.4399099999999994
20
-64.6407939999999996
11
11.3446719999999992
21
-64.4503179999999958
0
LINE
8
BLACK
6
CONTINUOUS
10
11.3446719999999992
20
-64.4503179999999958
11
11.249433999999999
21
-64.1646039999999971
0
LINE
8
BLACK
6
CONTINUOUS
10
11.249433999999999
20
-64.1646039999999971
11
11.1541959999999989
21
-63.6884129999999971
0
LINE
8
BLACK
6
CONTINUOUS
10
11.1541959999999989
20
-63.6884129999999971
11
11.1541959999999989
21
-63.3074609999999964
0
LINE
8
BLACK
6
CONTINUOUS
10
11.1541959999999989
20
-63.3074609999999964
11
11.249433999999999
21
-62.8312699999999964
0
LINE
8
BLACK
6
CONTINUOUS
10
11.249433999999999
20
-62.8312699999999964
11
11.3446719999999992
21
-62.5455559999999977
0
LINE
8
BLACK
6
CONTINUOUS
10
11.3446719999999992
20
-62.5455559999999977
11
11.4399099999999994
21
-62.3550799999999938
0
LINE
8
BLACK
6
CONTINUOUS
10
11.4399099999999994
20
-62.3550799999999938
11
11.6303859999999997
21
-62.0693649999999977
0
LINE
8
BLACK
6
CONTINUOUS
10
11.6303859999999997
20
-62.0693649999999977
11
11.7256249999999991
21
-61.9741269999999957
0
LINE
8
BLACK
6
CONTINUOUS
10
13.3446719999999992
20
-62.9265079999999983
11
13.3446719999999992
21
-64.2598419999999919
0
LINE
8
BLACK
6
CONTINUOUS
10
12.8684809999999992
20
-62.1646039999999971
11
12.3922910000000002
21
-63.5931749999999951
0
LINE
8
BLACK
6
CONTINUOUS
10
12.3922910000000002
20
-63.5931749999999951
11
13.6303859999999997
21
-63.5931749999999951
0
LINE
8
BLACK
6
CONTINUOUS
10
15.9161009999999994
20
-64.2598419999999919
11
15.9161009999999994
21
-62.259841999999999
0
LINE
8
BLACK
6
CONTINUOUS
10
16.7732439999999983
20
-64.2598419999999919
11
16.7732439999999983
21
-63.2122229999999945
0
LINE
8
BLACK
6
CONTINUOUS
10
16.7732439999999983
20
-63.2122229999999945
11
16.6780059999999999
21
-63.0217460000000003
0
LINE
8
BLACK
6
CONTINUOUS
10
16.6780059999999999
20
-63.0217460000000003
11
16.4875299999999996
21
-62.9265079999999983
0
LINE
8
BLACK
6
CONTINUOUS
10
16.4875299999999996
20
-62.9265079999999983
11
16.2018149999999999
21
-62.9265079999999983
0
LINE
8
BLACK
6
CONTINUOUS
10
16.2018149999999999
20
-62.9265079999999983
11
16.0113389999999995
21
-63.0217460000000003
0
LINE
8
BLACK
6
CONTINUOUS
10
16.0113389999999995
20
-63.0217460000000003
11
15.9161009999999994
21
-63.1169839999999951
0
LINE
8
BLACK
6
CONTINUOUS
10
18.0113389999999995
20
-64.2598419999999919
11
17.8208629999999992
21
-64.1646039999999971
0
LINE
8
BLACK
6
CONTINUOUS
10
17.8208629999999992
20
-64.1646039999999971
11
17.7256250000000009
21
-64.0693649999999906
0
LINE
8
BLACK
6
CONTINUOUS
10
17.7256250000000009
20
-64.0693649999999906
11
17.6303869999999989
21
-63.8788889999999938
0
LINE
8
BLACK
6
CONTINUOUS
10
17.6303869999999989
20
-63.8788889999999938
11
17.6303869999999989
21
-63.3074609999999964
0
LINE
8
BLACK
6
CONTINUOUS
10
17.6303869999999989
20
-63.3074609999999964
11
17.7256250000000009
21
-63.1169839999999951
0
LINE
8
BLACK
6
CONTINUOUS
10
17.7256250000000009
20
-63.1169839999999951
11
17.8208629999999992
21
-63.0217460000000003
0
LINE
8
BLACK
6
CONTINUOUS
10
17.8208629999999992
20
-63.0217460000000003
11
18.0113389999999995
21
-62.9265079999999983
0
LINE
8
BLACK
6
CONTINUOUS
10
18.0113389999999995
20
-62.9265079999999983
11
18.2970539999999993
21
-62.9265079999999983
0
LINE
8
BLACK
6
CONTINUOUS
10
18.2970539999999993
20
-62.9265079999999983
11
18.4875299999999996
21
-63.0217460000000003
0
LINE
8
BLACK
6
CONTINUOUS
10
18.4875299999999996
20
-63.0217460000000003
11
18.582767999999998
21
-63.1169839999999951
0
LINE
8
BLACK
6
CONTINUOUS
10
18.582767999999998
20
-63.1169839999999951
11
18.6780059999999999
21
-63.3074609999999964
0
LINE
8
BLACK
6
CONTINUOUS
10
18.6780059999999999
20
-63.3074609999999964
11
18.6780059999999999
21
-63.8788889999999938
0
LINE
8
BLACK
6
CONTINUOUS
10
18.6780059999999999
20
-63.8788889999999938
11
18.582767999999998
21
-64.0693649999999906
0
LINE
8
BLACK
6
CONTINUOUS
10
18.582767999999998
20
-64.0693649999999906
11
18.4875299999999996
21
-64.1646039999999971
0
LINE
8
BLACK
6
CONTINUOUS
10
18.4875299999999996
20
-64.1646039999999971
11
18.2970539999999993
21
-64.2598419999999919
0
LINE
8
BLACK
6
CONTINUOUS
10
18.2970539999999993
20
-64.2598419999999919
11
18.0113389999999995
21
-64.2598419999999919
0
LINE
8
BLACK
6
CONTINUOUS
10
19.8208629999999992
20
-64.2598419999999919
11
19.6303869999999989
21
-64.1646039999999971
0
LINE
8
BLACK
6
CONTINUOUS
10
19.6303869999999989
20
-64.1646039999999971
11
19.5351490000000005
21
-63.9741269999999957
0
LINE
8
BLACK
6
CONTINUOUS
10
19.5351490000000005
20
-63.9741269999999957
11
19.5351490000000005
21
-62.259841999999999
0
LINE
8
BLACK
6
CONTINUOUS
10
21.3446730000000002
20
-64.1646039999999971
11
21.1541969999999999
21
-64.2598419999999919
0
LINE
8
BLACK
6
CONTINUOUS
10
21.1541969999999999
20
-64.2598419999999919
11
20.7732439999999983
21
-64.2598419999999919
0
LINE
8
BLACK
6
CONTINUOUS
10
20.7732439999999983
20
-64.2598419999999919
11
20.582767999999998
21
-64.1646039999999971
0
LINE
8
BLACK
6
CONTINUOUS
10
20.582767999999998
20
-64.1646039999999971
11
20.4875299999999996
21
-63.9741269999999957
0
LINE
8
BLACK
6
CONTINUOUS
10
20.4875299999999996
20
-63.9741269999999957
11
20.4875299999999996
21
-63.2122229999999945
0
LINE
8
BLACK
6
CONTINUOUS
10
20.4875299999999996
20
-63.2122229999999945
11
20.582767999999998
21
-63.0217460000000003
0
LINE
8
BLACK
6
CONTINUOUS
10
20.582767999999998
20
-63.0217460000000003
11
20.7732439999999983
21
-62.9265079999999983
0
LINE
8
BLACK
6
CONTINUOUS
10
20.7732439999999983
20
-62.9265079999999983
11
21.1541969999999999
21
-62.9265079999999983
0
LINE
8
BLACK
6
CONTINUOUS
10
21.1541969999999999
20
-62.9265079999999983
11
21.3446730000000002
21
-63.0217460000000003
0
LINE
8
BLACK
6
CONTINUOUS
10
21.3446730000000002
20
-63.0217460000000003
11
21.4399109999999986
21
-63.2122229999999945
0
LINE
8
BLACK
6
CONTINUOUS
10
21.4399109999999986
20
-63.2122229999999945
11
21.4399109999999986
21
-63.4026989999999984
0
LINE
8
BLACK
6
CONTINUOUS
10
21.4399109999999986
20
-63.4026989999999984
11
20.4875299999999996
21
-63.5931749999999951
0
LINE
8
BLACK
6
CONTINUOUS
10
22.2018159999999973
20
-64.1646039999999971
11
22.3922919999999976
21
-64.2598419999999919
0
LINE
8
BLACK
6
CONTINUOUS
10
22.3922919999999976
20
-64.2598419999999919
11
22.7732439999999983
21
-64.2598419999999919
0
LINE
8
BLACK
6
CONTINUOUS
10
22.7732439999999983
20
-64.2598419999999919
11
22.9637209999999996
21
-64.1646039999999971
0
LINE
8
BLACK
6
CONTINUOUS
10
22.9637209999999996
20
-64.1646039999999971
11
23.058958999999998
21
-63.9741269999999957
0
LINE
8
BLACK
6
CONTINUOUS
10
23.058958999999998
20
-63.9741269999999957
11
23.058958999999998
21
-63.8788889999999938
0
LINE
8
BLACK
6
CONTINUOUS
10
23.058958999999998
20
-63.8788889999999938
11
22.9637209999999996
21
-63.6884129999999971
0
LINE
8
BLACK
6
CONTINUOUS
10
22.9637209999999996
20
-63.6884129999999971
11
22.7732439999999983
21
-63.5931749999999951
0
LINE
8
BLACK
6
CONTINUOUS
10
22.7732439999999983
20
-63.5931749999999951
11
22.4875299999999996
21
-63.5931749999999951
0
LINE
8
BLACK
6
CONTINUOUS
10
22.4875299999999996
20
-63.5931749999999951
11
22.2970539999999993
21
-63.4979370000000003
0
LINE
8
BLACK
6
CONTINUOUS
10
22.2970539999999993
20
-63.4979370000000003
11
22.2018159999999973
21
-63.3074609999999964
0
LINE
8
BLACK
6
CONTINUOUS
10
22.2018159999999973
20
-63.3074609999999964
11
22.2018159999999973
21
-63.2122229999999945
0
LINE
8
BLACK
6
CONTINUOUS
10
22.2018159999999973
20
-63.2122229999999945
11
22.2970539999999993
21
-63.0217460000000003
0
LINE
8
BLACK
6
CONTINUOUS
10
22.2970539999999993
20
-63.0217460000000003
11
22.4875299999999996
21
-62.9265079999999983
0
LINE
8
BLACK
6
CONTINUOUS
10
22.4875299999999996
20
-62.9265079999999983
11
22.7732439999999983
21
-62.9265079999999983
0
LINE
8
BLACK
6
CONTINUOUS
10
22.7732439999999983
20
-62.9265079999999983
11
22.9637209999999996
21
-63.0217460000000003
0
LINE
8
BLACK
6
CONTINUOUS
10
23.7256259999999983
20
-65.0217459999999932
11
23.8208640000000003
21
-64.9265079999999983
0
LINE
8
BLACK
6
CONTINUOUS
10
23.8208640000000003
20
-64.9265079999999983
11
24.0113400000000006
21
-64.6407939999999996
0
LINE
8
BLACK
6
CONTINUOUS
10
24.0113400000000006
20
-64.6407939999999996
11
24.106577999999999
21
-64.4503179999999958
0
LINE
8
BLACK
6
CONTINUOUS
10
24.106577999999999
20
-64.4503179999999958
11
24.2018159999999973
21
-64.1646039999999971
0
LINE
8
BLACK
6
CONTINUOUS
10
24.2018159999999973
20
-64.1646039999999971
11
24.2970539999999993
21
-63.6884129999999971
0
LINE
8
BLACK
6
CONTINUOUS
10
24.2970539999999993
20
-63.6884129999999971
11
24.2970539999999993
21
-63.3074609999999964
0
LINE
8
BLACK
6
CONTINUOUS
10
24.2970539999999993
20
-63.3074609999999964
11
24.2018159999999973
21
-62.8312699999999964
0
LINE
8
BLACK
6
CONTINUOUS
10
24.2018159999999973
20
-62.8312699999999964
11
24.106577999999999
21
-62.5455559999999977
0
LINE
8
BLACK
6
CONTINUOUS
10
24.106577999999999
20
-62.5455559999999977
11
24.0113400000000006
21
-62.3550799999999938
0
LINE
8
BLACK
6
CONTINUOUS
10
24.0113400000000006
20
-62.3550799999999938
11
23.8208640000000003
21
-62.0693649999999977
0
LINE
8
BLACK
6
CONTINUOUS
10
23.8208640000000003
20
-62.0693649999999977
11
23.7256259999999983
21
-61.9741269999999957
  0
ENDSEC
  0
EOF
