  0
SECTION
  2
HEADER
  9
$ANGBASE
  50
0.0
  9
$ANGDIR
  70
1
  9
$MEASUREMENT
  70
1
  0
ENDSEC
  0
SECTION
  2
TABLES
  0
TABLE
  2
LTYPE
  70
4
  0
LTYPE
  5
40F
  2
CONTINUOUS
  70
0
  3
Solid line
  72
65
  73
0
  40
0.0
  0
LTYPE
  5
410
  2
DASHDOT
 70
0
  3
Dash Dot ____ _ ____ _
 72
65
 73
4
 40
2.0
 49
1.25
 49
-0.25
 49
0.25
 49
-0.25
  0
LTYPE
  5
411
  2
DASHED
 70
0
  3
Dashed __ __ __ __ __
 72
65
 73
2
 40
0.75
 49
0.5
 49
-0.25
  0
LTYPE
  5
43B
  2
DOTTED
 70
0
  3
Dotted .  .  .  .
 72
65
 73
2
 40
0.2
 49
0.0
 49
-0.2
  0
ENDTAB
  0
TABLE
  2
STYLE
  70
4
  0
STYLE
  2
KICAD
  70
0
  40
0
  41
1
  42
1
  50
0
  71
0
  3
isocp.shx
  0
STYLE
  2
KICADB
  70
0
  40
0
  41
1
  42
1
  50
0
  71
0
  3
isocp.shx
  0
STYLE
  2
KICADI
  70
0
  40
0
  41
1
  42
1
  50
15
  71
0
  3
isocp.shx
  0
STYLE
  2
KICADBI
  70
0
  40
0
  41
1
  42
1
  50
15
  71
0
  3
isocp.shx
  0
ENDTAB
  0
TABLE
  2
LAYER
  70
1
  0
LAYER
  2
BLACK
  70
0
  62
7
  6
CONTINUOUS
  0
ENDTAB
  0
ENDSEC
  0
SECTION
  2
ENTITIES
0
LINE
8
BLACK
6
CONTINUOUS
10
-18.9172370000000001
20
0.
11
-18.5
21
1.
0
ARC
8
BLACK
10
-24.999998999999999
20
0.
40
6.0827619999999998
50
-80.53768708
51
-0.00000000
0
ARC
8
BLACK
10
25.
20
-50.
40
6.0827625302982193
50
99.46232221
51
170.53767779
0
LINE
8
BLACK
6
CONTINUOUS
10
24.
20
-44.
11
24.
21
-6.
0
LINE
8
BLACK
6
CONTINUOUS
10
-24.
20
-6.
11
-24.0000040000000006
21
-44.
0
LINE
8
BLACK
6
CONTINUOUS
10
-19.
20
-49.
11
19.
21
-49.000003999999997
0
LINE
8
BLACK
6
CONTINUOUS
10
18.5
20
1.
11
18.9172370000000001
21
0.
0
ARC
8
BLACK
10
-24.9999979999999979
20
-49.9999979999999979
40
6.082760228712619
50
9.46230672
51
80.53769328
0
LINE
8
BLACK
6
CONTINUOUS
10
-18.5
20
1.
11
18.5
21
1.
0
ARC
8
BLACK
10
25.
20
0.
40
6.0827625302982193
50
-180.00000000
51
-99.46232221
0
LINE
8
BLACK
6
CONTINUOUS
10
-21.417234999999998
20
-52.1398419999999945
11
-21.417234999999998
21
-50.1398419999999945
0
LINE
8
BLACK
6
CONTINUOUS
10
-21.417234999999998
20
-50.1398419999999945
11
-20.941044999999999
21
-50.1398419999999945
0
LINE
8
BLACK
6
CONTINUOUS
10
-20.941044999999999
20
-50.1398419999999945
11
-20.6553299999999993
21
-50.2350799999999964
0
LINE
8
BLACK
6
CONTINUOUS
10
-20.6553299999999993
20
-50.2350799999999964
11
-20.464853999999999
21
-50.4255560000000003
0
LINE
8
BLACK
6
CONTINUOUS
10
-20.464853999999999
20
-50.4255560000000003
11
-20.3696160000000006
21
-50.616031999999997
0
LINE
8
BLACK
6
CONTINUOUS
10
-20.3696160000000006
20
-50.616031999999997
11
-20.2743779999999987
21
-50.9969839999999976
0
LINE
8
BLACK
6
CONTINUOUS
10
-20.2743779999999987
20
-50.9969839999999976
11
-20.2743779999999987
21
-51.2826990000000009
0
LINE
8
BLACK
6
CONTINUOUS
10
-20.2743779999999987
20
-51.2826990000000009
11
-20.3696160000000006
21
-51.6636509999999944
0
LINE
8
BLACK
6
CONTINUOUS
10
-20.3696160000000006
20
-51.6636509999999944
11
-20.464853999999999
21
-51.8541269999999983
0
LINE
8
BLACK
6
CONTINUOUS
10
-20.464853999999999
20
-51.8541269999999983
11
-20.6553299999999993
21
-52.0446039999999996
0
LINE
8
BLACK
6
CONTINUOUS
10
-20.6553299999999993
20
-52.0446039999999996
11
-20.941044999999999
21
-52.1398419999999945
0
LINE
8
BLACK
6
CONTINUOUS
10
-20.941044999999999
20
-52.1398419999999945
11
-21.417234999999998
21
-52.1398419999999945
0
LINE
8
BLACK
6
CONTINUOUS
10
-19.417234999999998
20
-52.1398419999999945
11
-19.417234999999998
21
-50.8065080000000009
0
LINE
8
BLACK
6
CONTINUOUS
10
-19.417234999999998
20
-51.187460999999999
11
-19.3219969999999996
21
-50.9969839999999976
0
LINE
8
BLACK
6
CONTINUOUS
10
-19.3219969999999996
20
-50.9969839999999976
11
-19.2267589999999977
21
-50.9017459999999957
0
LINE
8
BLACK
6
CONTINUOUS
10
-19.2267589999999977
20
-50.9017459999999957
11
-19.0362829999999974
21
-50.8065080000000009
0
LINE
8
BLACK
6
CONTINUOUS
10
-19.0362829999999974
20
-50.8065080000000009
11
-18.8458059999999996
21
-50.8065080000000009
0
LINE
8
BLACK
6
CONTINUOUS
10
-18.1791400000000003
20
-52.1398419999999945
11
-18.1791400000000003
21
-50.8065080000000009
0
LINE
8
BLACK
6
CONTINUOUS
10
-18.1791400000000003
20
-50.1398419999999945
11
-18.2743779999999987
21
-50.2350799999999964
0
LINE
8
BLACK
6
CONTINUOUS
10
-18.2743779999999987
20
-50.2350799999999964
11
-18.1791400000000003
21
-50.3303179999999983
0
LINE
8
BLACK
6
CONTINUOUS
10
-18.1791400000000003
20
-50.3303179999999983
11
-18.0839019999999984
21
-50.2350799999999964
0
LINE
8
BLACK
6
CONTINUOUS
10
-18.0839019999999984
20
-50.2350799999999964
11
-18.1791400000000003
21
-50.1398419999999945
0
LINE
8
BLACK
6
CONTINUOUS
10
-18.1791400000000003
20
-50.1398419999999945
11
-18.1791400000000003
21
-50.3303179999999983
0
LINE
8
BLACK
6
CONTINUOUS
10
-16.941044999999999
20
-52.1398419999999945
11
-17.1315209999999993
21
-52.0446039999999996
0
LINE
8
BLACK
6
CONTINUOUS
10
-17.1315209999999993
20
-52.0446039999999996
11
-17.2267589999999977
21
-51.8541269999999983
0
LINE
8
BLACK
6
CONTINUOUS
10
-17.2267589999999977
20
-51.8541269999999983
11
-17.2267589999999977
21
-50.1398419999999945
0
LINE
8
BLACK
6
CONTINUOUS
10
-15.8934259999999998
20
-52.1398419999999945
11
-16.0839019999999984
21
-52.0446039999999996
0
LINE
8
BLACK
6
CONTINUOUS
10
-16.0839019999999984
20
-52.0446039999999996
11
-16.1791400000000003
21
-51.8541269999999983
0
LINE
8
BLACK
6
CONTINUOUS
10
-16.1791400000000003
20
-51.8541269999999983
11
-16.1791400000000003
21
-50.1398419999999945
0
LINE
8
BLACK
6
CONTINUOUS
10
-13.6077110000000001
20
-52.1398419999999945
11
-13.6077110000000001
21
-50.1398419999999945
0
LINE
8
BLACK
6
CONTINUOUS
10
-13.6077110000000001
20
-50.1398419999999945
11
-12.9410439999999998
21
-51.5684129999999996
0
LINE
8
BLACK
6
CONTINUOUS
10
-12.9410439999999998
20
-51.5684129999999996
11
-12.2743779999999987
21
-50.1398419999999945
0
LINE
8
BLACK
6
CONTINUOUS
10
-12.2743779999999987
20
-50.1398419999999945
11
-12.2743779999999987
21
-52.1398419999999945
0
LINE
8
BLACK
6
CONTINUOUS
10
-10.464853999999999
20
-52.1398419999999945
11
-10.464853999999999
21
-51.0922229999999971
0
LINE
8
BLACK
6
CONTINUOUS
10
-10.464853999999999
20
-51.0922229999999971
11
-10.5600919999999991
21
-50.9017459999999957
0
LINE
8
BLACK
6
CONTINUOUS
10
-10.5600919999999991
20
-50.9017459999999957
11
-10.7505679999999995
21
-50.8065080000000009
0
LINE
8
BLACK
6
CONTINUOUS
10
-10.7505679999999995
20
-50.8065080000000009
11
-11.1315209999999993
21
-50.8065080000000009
0
LINE
8
BLACK
6
CONTINUOUS
10
-11.1315209999999993
20
-50.8065080000000009
11
-11.3219969999999996
21
-50.9017459999999957
0
LINE
8
BLACK
6
CONTINUOUS
10
-10.464853999999999
20
-52.0446039999999996
11
-10.6553299999999993
21
-52.1398419999999945
0
LINE
8
BLACK
6
CONTINUOUS
10
-10.6553299999999993
20
-52.1398419999999945
11
-11.1315209999999993
21
-52.1398419999999945
0
LINE
8
BLACK
6
CONTINUOUS
10
-11.1315209999999993
20
-52.1398419999999945
11
-11.3219969999999996
21
-52.0446039999999996
0
LINE
8
BLACK
6
CONTINUOUS
10
-11.3219969999999996
20
-52.0446039999999996
11
-11.4172349999999998
21
-51.8541269999999983
0
LINE
8
BLACK
6
CONTINUOUS
10
-11.4172349999999998
20
-51.8541269999999983
11
-11.4172349999999998
21
-51.6636509999999944
0
LINE
8
BLACK
6
CONTINUOUS
10
-11.4172349999999998
20
-51.6636509999999944
11
-11.3219969999999996
21
-51.4731749999999977
0
LINE
8
BLACK
6
CONTINUOUS
10
-11.3219969999999996
20
-51.4731749999999977
11
-11.1315209999999993
21
-51.3779369999999957
0
LINE
8
BLACK
6
CONTINUOUS
10
-11.1315209999999993
20
-51.3779369999999957
11
-10.6553299999999993
21
-51.3779369999999957
0
LINE
8
BLACK
6
CONTINUOUS
10
-10.6553299999999993
20
-51.3779369999999957
11
-10.464853999999999
21
-51.2826990000000009
0
LINE
8
BLACK
6
CONTINUOUS
10
-9.512473
20
-50.8065080000000009
11
-9.512473
21
-52.8065080000000009
0
LINE
8
BLACK
6
CONTINUOUS
10
-9.512473
20
-50.9017459999999957
11
-9.3219969999999996
21
-50.8065080000000009
0
LINE
8
BLACK
6
CONTINUOUS
10
-9.3219969999999996
20
-50.8065080000000009
11
-8.9410439999999998
21
-50.8065080000000009
0
LINE
8
BLACK
6
CONTINUOUS
10
-8.9410439999999998
20
-50.8065080000000009
11
-8.7505679999999995
21
-50.9017459999999957
0
LINE
8
BLACK
6
CONTINUOUS
10
-8.7505679999999995
20
-50.9017459999999957
11
-8.6553299999999993
21
-50.9969839999999976
0
LINE
8
BLACK
6
CONTINUOUS
10
-8.6553299999999993
20
-50.9969839999999976
11
-8.5600919999999991
21
-51.187460999999999
0
LINE
8
BLACK
6
CONTINUOUS
10
-8.5600919999999991
20
-51.187460999999999
11
-8.5600919999999991
21
-51.7588889999999964
0
LINE
8
BLACK
6
CONTINUOUS
10
-8.5600919999999991
20
-51.7588889999999964
11
-8.6553299999999993
21
-51.9493650000000002
0
LINE
8
BLACK
6
CONTINUOUS
10
-8.6553299999999993
20
-51.9493650000000002
11
-8.7505679999999995
21
-52.0446039999999996
0
LINE
8
BLACK
6
CONTINUOUS
10
-8.7505679999999995
20
-52.0446039999999996
11
-8.9410439999999998
21
-52.1398419999999945
0
LINE
8
BLACK
6
CONTINUOUS
10
-8.9410439999999998
20
-52.1398419999999945
11
-9.3219969999999996
21
-52.1398419999999945
0
LINE
8
BLACK
6
CONTINUOUS
10
-9.3219969999999996
20
-52.1398419999999945
11
-9.512473
21
-52.0446039999999996
0
LINE
8
BLACK
6
CONTINUOUS
10
-7.7029489999999994
20
-51.9493650000000002
11
-7.6077109999999992
21
-52.0446039999999996
0
LINE
8
BLACK
6
CONTINUOUS
10
-7.6077109999999992
20
-52.0446039999999996
11
-7.7029489999999994
21
-52.1398419999999945
0
LINE
8
BLACK
6
CONTINUOUS
10
-7.7029489999999994
20
-52.1398419999999945
11
-7.7981869999999995
21
-52.0446039999999996
0
LINE
8
BLACK
6
CONTINUOUS
10
-7.7981869999999995
20
-52.0446039999999996
11
-7.7029489999999994
21
-51.9493650000000002
0
LINE
8
BLACK
6
CONTINUOUS
10
-7.7029489999999994
20
-51.9493650000000002
11
-7.7029489999999994
21
-52.1398419999999945
0
LINE
8
BLACK
6
CONTINUOUS
10
-7.7029489999999994
20
-50.9017459999999957
11
-7.6077109999999992
21
-50.9969839999999976
0
LINE
8
BLACK
6
CONTINUOUS
10
-7.6077109999999992
20
-50.9969839999999976
11
-7.7029489999999994
21
-51.0922229999999971
0
LINE
8
BLACK
6
CONTINUOUS
10
-7.7029489999999994
20
-51.0922229999999971
11
-7.7981869999999995
21
-50.9969839999999976
0
LINE
8
BLACK
6
CONTINUOUS
10
-7.7981869999999995
20
-50.9969839999999976
11
-7.7029489999999994
21
-50.9017459999999957
0
LINE
8
BLACK
6
CONTINUOUS
10
-7.7029489999999994
20
-50.9017459999999957
11
-7.7029489999999994
21
-51.0922229999999971
  0
ENDSEC
  0
EOF
