G04 #@! TF.GenerationSoftware,KiCad,Pcbnew,9.0.4*
G04 #@! TF.CreationDate,2025-11-25T12:33:48-05:00*
G04 #@! TF.ProjectId,feederSlot,66656564-6572-4536-9c6f-742e6b696361,rev?*
G04 #@! TF.SameCoordinates,Original*
G04 #@! TF.FileFunction,Legend,Top*
G04 #@! TF.FilePolarity,Positive*
%FSLAX46Y46*%
G04 Gerber Fmt 4.6, Leading zero omitted, Abs format (unit mm)*
G04 Created by KiCad (PCBNEW 9.0.4) date 2025-11-25 12:33:48*
%MOMM*%
%LPD*%
G01*
G04 APERTURE LIST*
%ADD10C,0.100000*%
%ADD11C,0.150000*%
%ADD12C,0.120000*%
G04 APERTURE END LIST*
D10*
X33254821Y-26394360D02*
X33254821Y-26144360D01*
X32861964Y-26144360D02*
X33611964Y-26144360D01*
X33611964Y-26144360D02*
X33611964Y-26501503D01*
X32897679Y-27072931D02*
X32861964Y-27001503D01*
X32861964Y-27001503D02*
X32861964Y-26858646D01*
X32861964Y-26858646D02*
X32897679Y-26787217D01*
X32897679Y-26787217D02*
X32969107Y-26751503D01*
X32969107Y-26751503D02*
X33254821Y-26751503D01*
X33254821Y-26751503D02*
X33326250Y-26787217D01*
X33326250Y-26787217D02*
X33361964Y-26858646D01*
X33361964Y-26858646D02*
X33361964Y-27001503D01*
X33361964Y-27001503D02*
X33326250Y-27072931D01*
X33326250Y-27072931D02*
X33254821Y-27108646D01*
X33254821Y-27108646D02*
X33183393Y-27108646D01*
X33183393Y-27108646D02*
X33111964Y-26751503D01*
X32897679Y-27715788D02*
X32861964Y-27644360D01*
X32861964Y-27644360D02*
X32861964Y-27501503D01*
X32861964Y-27501503D02*
X32897679Y-27430074D01*
X32897679Y-27430074D02*
X32969107Y-27394360D01*
X32969107Y-27394360D02*
X33254821Y-27394360D01*
X33254821Y-27394360D02*
X33326250Y-27430074D01*
X33326250Y-27430074D02*
X33361964Y-27501503D01*
X33361964Y-27501503D02*
X33361964Y-27644360D01*
X33361964Y-27644360D02*
X33326250Y-27715788D01*
X33326250Y-27715788D02*
X33254821Y-27751503D01*
X33254821Y-27751503D02*
X33183393Y-27751503D01*
X33183393Y-27751503D02*
X33111964Y-27394360D01*
X32861964Y-28394360D02*
X33611964Y-28394360D01*
X32897679Y-28394360D02*
X32861964Y-28322931D01*
X32861964Y-28322931D02*
X32861964Y-28180074D01*
X32861964Y-28180074D02*
X32897679Y-28108645D01*
X32897679Y-28108645D02*
X32933393Y-28072931D01*
X32933393Y-28072931D02*
X33004821Y-28037217D01*
X33004821Y-28037217D02*
X33219107Y-28037217D01*
X33219107Y-28037217D02*
X33290536Y-28072931D01*
X33290536Y-28072931D02*
X33326250Y-28108645D01*
X33326250Y-28108645D02*
X33361964Y-28180074D01*
X33361964Y-28180074D02*
X33361964Y-28322931D01*
X33361964Y-28322931D02*
X33326250Y-28394360D01*
X32897679Y-29037216D02*
X32861964Y-28965788D01*
X32861964Y-28965788D02*
X32861964Y-28822931D01*
X32861964Y-28822931D02*
X32897679Y-28751502D01*
X32897679Y-28751502D02*
X32969107Y-28715788D01*
X32969107Y-28715788D02*
X33254821Y-28715788D01*
X33254821Y-28715788D02*
X33326250Y-28751502D01*
X33326250Y-28751502D02*
X33361964Y-28822931D01*
X33361964Y-28822931D02*
X33361964Y-28965788D01*
X33361964Y-28965788D02*
X33326250Y-29037216D01*
X33326250Y-29037216D02*
X33254821Y-29072931D01*
X33254821Y-29072931D02*
X33183393Y-29072931D01*
X33183393Y-29072931D02*
X33111964Y-28715788D01*
X32861964Y-29394359D02*
X33361964Y-29394359D01*
X33219107Y-29394359D02*
X33290536Y-29430073D01*
X33290536Y-29430073D02*
X33326250Y-29465788D01*
X33326250Y-29465788D02*
X33361964Y-29537216D01*
X33361964Y-29537216D02*
X33361964Y-29608645D01*
X32897679Y-30394360D02*
X32861964Y-30501503D01*
X32861964Y-30501503D02*
X32861964Y-30680074D01*
X32861964Y-30680074D02*
X32897679Y-30751503D01*
X32897679Y-30751503D02*
X32933393Y-30787217D01*
X32933393Y-30787217D02*
X33004821Y-30822931D01*
X33004821Y-30822931D02*
X33076250Y-30822931D01*
X33076250Y-30822931D02*
X33147679Y-30787217D01*
X33147679Y-30787217D02*
X33183393Y-30751503D01*
X33183393Y-30751503D02*
X33219107Y-30680074D01*
X33219107Y-30680074D02*
X33254821Y-30537217D01*
X33254821Y-30537217D02*
X33290536Y-30465788D01*
X33290536Y-30465788D02*
X33326250Y-30430074D01*
X33326250Y-30430074D02*
X33397679Y-30394360D01*
X33397679Y-30394360D02*
X33469107Y-30394360D01*
X33469107Y-30394360D02*
X33540536Y-30430074D01*
X33540536Y-30430074D02*
X33576250Y-30465788D01*
X33576250Y-30465788D02*
X33611964Y-30537217D01*
X33611964Y-30537217D02*
X33611964Y-30715788D01*
X33611964Y-30715788D02*
X33576250Y-30822931D01*
X32861964Y-31251503D02*
X32897679Y-31180074D01*
X32897679Y-31180074D02*
X32969107Y-31144360D01*
X32969107Y-31144360D02*
X33611964Y-31144360D01*
X32861964Y-31644360D02*
X32897679Y-31572931D01*
X32897679Y-31572931D02*
X32933393Y-31537217D01*
X32933393Y-31537217D02*
X33004821Y-31501503D01*
X33004821Y-31501503D02*
X33219107Y-31501503D01*
X33219107Y-31501503D02*
X33290536Y-31537217D01*
X33290536Y-31537217D02*
X33326250Y-31572931D01*
X33326250Y-31572931D02*
X33361964Y-31644360D01*
X33361964Y-31644360D02*
X33361964Y-31751503D01*
X33361964Y-31751503D02*
X33326250Y-31822931D01*
X33326250Y-31822931D02*
X33290536Y-31858646D01*
X33290536Y-31858646D02*
X33219107Y-31894360D01*
X33219107Y-31894360D02*
X33004821Y-31894360D01*
X33004821Y-31894360D02*
X32933393Y-31858646D01*
X32933393Y-31858646D02*
X32897679Y-31822931D01*
X32897679Y-31822931D02*
X32861964Y-31751503D01*
X32861964Y-31751503D02*
X32861964Y-31644360D01*
X33361964Y-32108645D02*
X33361964Y-32394359D01*
X33611964Y-32215788D02*
X32969107Y-32215788D01*
X32969107Y-32215788D02*
X32897679Y-32251502D01*
X32897679Y-32251502D02*
X32861964Y-32322931D01*
X32861964Y-32322931D02*
X32861964Y-32394359D01*
X31654506Y-26572931D02*
X32011649Y-26322931D01*
X31654506Y-26144360D02*
X32404506Y-26144360D01*
X32404506Y-26144360D02*
X32404506Y-26430074D01*
X32404506Y-26430074D02*
X32368792Y-26501503D01*
X32368792Y-26501503D02*
X32333078Y-26537217D01*
X32333078Y-26537217D02*
X32261649Y-26572931D01*
X32261649Y-26572931D02*
X32154506Y-26572931D01*
X32154506Y-26572931D02*
X32083078Y-26537217D01*
X32083078Y-26537217D02*
X32047363Y-26501503D01*
X32047363Y-26501503D02*
X32011649Y-26430074D01*
X32011649Y-26430074D02*
X32011649Y-26144360D01*
X32047363Y-26894360D02*
X32047363Y-27144360D01*
X31654506Y-27251503D02*
X31654506Y-26894360D01*
X31654506Y-26894360D02*
X32404506Y-26894360D01*
X32404506Y-26894360D02*
X32404506Y-27251503D01*
X32404506Y-27465788D02*
X31654506Y-27715788D01*
X31654506Y-27715788D02*
X32404506Y-27965788D01*
X32404506Y-28358645D02*
X32404506Y-28430074D01*
X32404506Y-28430074D02*
X32368792Y-28501502D01*
X32368792Y-28501502D02*
X32333078Y-28537217D01*
X32333078Y-28537217D02*
X32261649Y-28572931D01*
X32261649Y-28572931D02*
X32118792Y-28608645D01*
X32118792Y-28608645D02*
X31940221Y-28608645D01*
X31940221Y-28608645D02*
X31797363Y-28572931D01*
X31797363Y-28572931D02*
X31725935Y-28537217D01*
X31725935Y-28537217D02*
X31690221Y-28501502D01*
X31690221Y-28501502D02*
X31654506Y-28430074D01*
X31654506Y-28430074D02*
X31654506Y-28358645D01*
X31654506Y-28358645D02*
X31690221Y-28287217D01*
X31690221Y-28287217D02*
X31725935Y-28251502D01*
X31725935Y-28251502D02*
X31797363Y-28215788D01*
X31797363Y-28215788D02*
X31940221Y-28180074D01*
X31940221Y-28180074D02*
X32118792Y-28180074D01*
X32118792Y-28180074D02*
X32261649Y-28215788D01*
X32261649Y-28215788D02*
X32333078Y-28251502D01*
X32333078Y-28251502D02*
X32368792Y-28287217D01*
X32368792Y-28287217D02*
X32404506Y-28358645D01*
X32404506Y-29072931D02*
X32404506Y-29144360D01*
X32404506Y-29144360D02*
X32368792Y-29215788D01*
X32368792Y-29215788D02*
X32333078Y-29251503D01*
X32333078Y-29251503D02*
X32261649Y-29287217D01*
X32261649Y-29287217D02*
X32118792Y-29322931D01*
X32118792Y-29322931D02*
X31940221Y-29322931D01*
X31940221Y-29322931D02*
X31797363Y-29287217D01*
X31797363Y-29287217D02*
X31725935Y-29251503D01*
X31725935Y-29251503D02*
X31690221Y-29215788D01*
X31690221Y-29215788D02*
X31654506Y-29144360D01*
X31654506Y-29144360D02*
X31654506Y-29072931D01*
X31654506Y-29072931D02*
X31690221Y-29001503D01*
X31690221Y-29001503D02*
X31725935Y-28965788D01*
X31725935Y-28965788D02*
X31797363Y-28930074D01*
X31797363Y-28930074D02*
X31940221Y-28894360D01*
X31940221Y-28894360D02*
X32118792Y-28894360D01*
X32118792Y-28894360D02*
X32261649Y-28930074D01*
X32261649Y-28930074D02*
X32333078Y-28965788D01*
X32333078Y-28965788D02*
X32368792Y-29001503D01*
X32368792Y-29001503D02*
X32404506Y-29072931D01*
X31654506Y-29644360D02*
X32404506Y-29644360D01*
X32118792Y-29644360D02*
X32154506Y-29715789D01*
X32154506Y-29715789D02*
X32154506Y-29858646D01*
X32154506Y-29858646D02*
X32118792Y-29930074D01*
X32118792Y-29930074D02*
X32083078Y-29965789D01*
X32083078Y-29965789D02*
X32011649Y-30001503D01*
X32011649Y-30001503D02*
X31797363Y-30001503D01*
X31797363Y-30001503D02*
X31725935Y-29965789D01*
X31725935Y-29965789D02*
X31690221Y-29930074D01*
X31690221Y-29930074D02*
X31654506Y-29858646D01*
X31654506Y-29858646D02*
X31654506Y-29715789D01*
X31654506Y-29715789D02*
X31690221Y-29644360D01*
X32404506Y-30465788D02*
X32404506Y-30537217D01*
X32404506Y-30537217D02*
X32368792Y-30608645D01*
X32368792Y-30608645D02*
X32333078Y-30644360D01*
X32333078Y-30644360D02*
X32261649Y-30680074D01*
X32261649Y-30680074D02*
X32118792Y-30715788D01*
X32118792Y-30715788D02*
X31940221Y-30715788D01*
X31940221Y-30715788D02*
X31797363Y-30680074D01*
X31797363Y-30680074D02*
X31725935Y-30644360D01*
X31725935Y-30644360D02*
X31690221Y-30608645D01*
X31690221Y-30608645D02*
X31654506Y-30537217D01*
X31654506Y-30537217D02*
X31654506Y-30465788D01*
X31654506Y-30465788D02*
X31690221Y-30394360D01*
X31690221Y-30394360D02*
X31725935Y-30358645D01*
X31725935Y-30358645D02*
X31797363Y-30322931D01*
X31797363Y-30322931D02*
X31940221Y-30287217D01*
X31940221Y-30287217D02*
X32118792Y-30287217D01*
X32118792Y-30287217D02*
X32261649Y-30322931D01*
X32261649Y-30322931D02*
X32333078Y-30358645D01*
X32333078Y-30358645D02*
X32368792Y-30394360D01*
X32368792Y-30394360D02*
X32404506Y-30465788D01*
D11*
X24766666Y-53454819D02*
X24766666Y-54169104D01*
X24766666Y-54169104D02*
X24719047Y-54311961D01*
X24719047Y-54311961D02*
X24623809Y-54407200D01*
X24623809Y-54407200D02*
X24480952Y-54454819D01*
X24480952Y-54454819D02*
X24385714Y-54454819D01*
X25147619Y-53454819D02*
X25766666Y-53454819D01*
X25766666Y-53454819D02*
X25433333Y-53835771D01*
X25433333Y-53835771D02*
X25576190Y-53835771D01*
X25576190Y-53835771D02*
X25671428Y-53883390D01*
X25671428Y-53883390D02*
X25719047Y-53931009D01*
X25719047Y-53931009D02*
X25766666Y-54026247D01*
X25766666Y-54026247D02*
X25766666Y-54264342D01*
X25766666Y-54264342D02*
X25719047Y-54359580D01*
X25719047Y-54359580D02*
X25671428Y-54407200D01*
X25671428Y-54407200D02*
X25576190Y-54454819D01*
X25576190Y-54454819D02*
X25290476Y-54454819D01*
X25290476Y-54454819D02*
X25195238Y-54407200D01*
X25195238Y-54407200D02*
X25147619Y-54359580D01*
D10*
X22078571Y-28891764D02*
X22078571Y-29498907D01*
X22078571Y-29498907D02*
X22114285Y-29570335D01*
X22114285Y-29570335D02*
X22150000Y-29606050D01*
X22150000Y-29606050D02*
X22221428Y-29641764D01*
X22221428Y-29641764D02*
X22364285Y-29641764D01*
X22364285Y-29641764D02*
X22435714Y-29606050D01*
X22435714Y-29606050D02*
X22471428Y-29570335D01*
X22471428Y-29570335D02*
X22507142Y-29498907D01*
X22507142Y-29498907D02*
X22507142Y-28891764D01*
X23257142Y-29641764D02*
X22828571Y-29641764D01*
X23042856Y-29641764D02*
X23042856Y-28891764D01*
X23042856Y-28891764D02*
X22971428Y-28998907D01*
X22971428Y-28998907D02*
X22899999Y-29070335D01*
X22899999Y-29070335D02*
X22828571Y-29106050D01*
X30124999Y-31141764D02*
X29874999Y-30784621D01*
X29696428Y-31141764D02*
X29696428Y-30391764D01*
X29696428Y-30391764D02*
X29982142Y-30391764D01*
X29982142Y-30391764D02*
X30053571Y-30427478D01*
X30053571Y-30427478D02*
X30089285Y-30463192D01*
X30089285Y-30463192D02*
X30124999Y-30534621D01*
X30124999Y-30534621D02*
X30124999Y-30641764D01*
X30124999Y-30641764D02*
X30089285Y-30713192D01*
X30089285Y-30713192D02*
X30053571Y-30748907D01*
X30053571Y-30748907D02*
X29982142Y-30784621D01*
X29982142Y-30784621D02*
X29696428Y-30784621D01*
X30839285Y-31141764D02*
X30410714Y-31141764D01*
X30624999Y-31141764D02*
X30624999Y-30391764D01*
X30624999Y-30391764D02*
X30553571Y-30498907D01*
X30553571Y-30498907D02*
X30482142Y-30570335D01*
X30482142Y-30570335D02*
X30410714Y-30606050D01*
D12*
X26540000Y-42915000D02*
X26540000Y-45240000D01*
X26540000Y-45240000D02*
X24149999Y-45240000D01*
X26540000Y-55085000D02*
X26540000Y-52760000D01*
X27390000Y-42915000D02*
X26540000Y-42915000D01*
X27390000Y-55085000D02*
X26540000Y-55085000D01*
X30910000Y-42915000D02*
X31760000Y-42915000D01*
X31760000Y-42915000D02*
X31760000Y-55085000D01*
X31760000Y-55085000D02*
X30910000Y-55085000D01*
X23540000Y-28075000D02*
X23540000Y-30525000D01*
X26575000Y-26375000D02*
X26900000Y-26375000D01*
X26760000Y-29300000D02*
X26760000Y-30525000D01*
X26900000Y-26375000D02*
X26900000Y-26712500D01*
X27865000Y-30927064D02*
X27865000Y-30472936D01*
X29335000Y-30927064D02*
X29335000Y-30472936D01*
M02*
