G04 #@! TF.GenerationSoftware,KiCad,Pcbnew,9.0.4*
G04 #@! TF.CreationDate,2025-11-25T12:33:49-05:00*
G04 #@! TF.ProjectId,feederSlot,66656564-6572-4536-9c6f-742e6b696361,rev?*
G04 #@! TF.SameCoordinates,Original*
G04 #@! TF.FileFunction,Soldermask,Bot*
G04 #@! TF.FilePolarity,Negative*
%FSLAX46Y46*%
G04 Gerber Fmt 4.6, Leading zero omitted, Abs format (unit mm)*
G04 Created by KiCad (PCBNEW 9.0.4) date 2025-11-25 12:33:49*
%MOMM*%
%LPD*%
G01*
G04 APERTURE LIST*
G04 APERTURE END LIST*
G36*
X25317730Y-35354089D02*
G01*
X25329536Y-35354089D01*
X25387663Y-35363295D01*
X25522042Y-35380986D01*
X25554837Y-35389773D01*
X25585418Y-35394617D01*
X25644229Y-35413726D01*
X25730611Y-35436872D01*
X25785724Y-35459700D01*
X25831810Y-35474675D01*
X25874987Y-35496674D01*
X25930099Y-35519503D01*
X26007539Y-35564213D01*
X26062645Y-35592291D01*
X26087697Y-35610492D01*
X26117096Y-35627466D01*
X26224651Y-35709995D01*
X26272239Y-35744570D01*
X26280579Y-35752910D01*
X26288401Y-35758912D01*
X26441087Y-35911598D01*
X26447088Y-35919419D01*
X26455430Y-35927761D01*
X26490008Y-35975354D01*
X26572533Y-36082903D01*
X26589505Y-36112299D01*
X26607709Y-36137355D01*
X26635789Y-36192466D01*
X26680496Y-36269900D01*
X26703321Y-36325006D01*
X26725325Y-36368190D01*
X26740301Y-36414282D01*
X26763127Y-36469388D01*
X26786269Y-36555757D01*
X26805383Y-36614582D01*
X26810227Y-36645169D01*
X26819013Y-36677957D01*
X26836703Y-36812327D01*
X26845911Y-36870464D01*
X26845911Y-36882269D01*
X26847197Y-36892038D01*
X26847197Y-37107961D01*
X26845911Y-37117729D01*
X26845911Y-37129536D01*
X26836702Y-37187677D01*
X26819013Y-37322042D01*
X26810228Y-37354827D01*
X26805383Y-37385418D01*
X26786268Y-37444246D01*
X26763127Y-37530611D01*
X26740302Y-37585713D01*
X26725325Y-37631810D01*
X26703319Y-37674997D01*
X26680496Y-37730099D01*
X26635793Y-37807525D01*
X26607709Y-37862645D01*
X26589502Y-37887704D01*
X26572533Y-37917096D01*
X26490022Y-38024627D01*
X26455430Y-38072239D01*
X26447085Y-38080583D01*
X26441087Y-38088401D01*
X26288401Y-38241087D01*
X26280583Y-38247085D01*
X26272239Y-38255430D01*
X26224627Y-38290022D01*
X26117096Y-38372533D01*
X26087704Y-38389502D01*
X26062645Y-38407709D01*
X26007525Y-38435793D01*
X25930099Y-38480496D01*
X25874997Y-38503319D01*
X25831810Y-38525325D01*
X25785713Y-38540302D01*
X25730611Y-38563127D01*
X25644246Y-38586268D01*
X25585418Y-38605383D01*
X25554827Y-38610228D01*
X25522042Y-38619013D01*
X25387677Y-38636702D01*
X25329536Y-38645911D01*
X25317729Y-38645911D01*
X25307961Y-38647197D01*
X25092039Y-38647197D01*
X25082271Y-38645911D01*
X25070464Y-38645911D01*
X25012324Y-38636702D01*
X24877957Y-38619013D01*
X24845169Y-38610227D01*
X24814582Y-38605383D01*
X24755757Y-38586269D01*
X24669388Y-38563127D01*
X24614282Y-38540301D01*
X24568190Y-38525325D01*
X24525006Y-38503321D01*
X24469900Y-38480496D01*
X24392466Y-38435789D01*
X24337355Y-38407709D01*
X24312299Y-38389505D01*
X24282903Y-38372533D01*
X24175354Y-38290008D01*
X24127761Y-38255430D01*
X24119419Y-38247088D01*
X24111598Y-38241087D01*
X23958912Y-38088401D01*
X23952910Y-38080579D01*
X23944570Y-38072239D01*
X23909995Y-38024651D01*
X23827466Y-37917096D01*
X23810492Y-37887697D01*
X23792291Y-37862645D01*
X23764213Y-37807539D01*
X23719503Y-37730099D01*
X23696674Y-37674987D01*
X23674675Y-37631810D01*
X23659700Y-37585724D01*
X23636872Y-37530611D01*
X23613726Y-37444229D01*
X23594617Y-37385418D01*
X23589773Y-37354837D01*
X23580986Y-37322042D01*
X23563295Y-37187663D01*
X23554089Y-37129536D01*
X23554089Y-37117729D01*
X23552803Y-37107961D01*
X23552803Y-36892038D01*
X23554089Y-36882269D01*
X23554089Y-36870464D01*
X23563294Y-36812341D01*
X23580986Y-36677957D01*
X23589773Y-36645160D01*
X23594617Y-36614582D01*
X23613724Y-36555775D01*
X23636872Y-36469388D01*
X23659702Y-36414271D01*
X23674675Y-36368190D01*
X23696672Y-36325016D01*
X23719503Y-36269900D01*
X23764217Y-36192451D01*
X23792291Y-36137355D01*
X23810489Y-36112306D01*
X23827466Y-36082903D01*
X23910009Y-35975329D01*
X23944570Y-35927761D01*
X23952906Y-35919424D01*
X23958912Y-35911598D01*
X24111598Y-35758912D01*
X24119424Y-35752906D01*
X24127761Y-35744570D01*
X24175329Y-35710009D01*
X24282903Y-35627466D01*
X24312306Y-35610489D01*
X24337355Y-35592291D01*
X24392451Y-35564217D01*
X24469900Y-35519503D01*
X24525016Y-35496672D01*
X24568190Y-35474675D01*
X24614271Y-35459702D01*
X24669388Y-35436872D01*
X24755775Y-35413724D01*
X24814582Y-35394617D01*
X24845160Y-35389773D01*
X24877957Y-35380986D01*
X25012338Y-35363295D01*
X25070464Y-35354089D01*
X25082270Y-35354089D01*
X25092039Y-35352803D01*
X25307961Y-35352803D01*
X25317730Y-35354089D01*
G37*
G36*
X33584461Y-36113809D02*
G01*
X33654377Y-36119312D01*
X33671356Y-36124244D01*
X33699652Y-36127643D01*
X33746100Y-36145959D01*
X33783619Y-36156860D01*
X33803387Y-36168550D01*
X33832912Y-36180194D01*
X33867764Y-36206623D01*
X33896893Y-36223850D01*
X33917011Y-36243968D01*
X33947052Y-36266749D01*
X33969832Y-36296789D01*
X33989950Y-36316907D01*
X34007175Y-36346033D01*
X34033607Y-36380889D01*
X34045250Y-36410415D01*
X34056940Y-36430181D01*
X34067838Y-36467693D01*
X34086158Y-36514149D01*
X34089556Y-36542448D01*
X34094488Y-36559423D01*
X34099988Y-36629318D01*
X34101114Y-36638687D01*
X34101114Y-37588687D01*
X34099988Y-37598058D01*
X34094488Y-37667950D01*
X34089556Y-37684923D01*
X34086158Y-37713225D01*
X34067837Y-37759683D01*
X34056940Y-37797192D01*
X34045252Y-37816955D01*
X34033607Y-37846485D01*
X34007172Y-37881343D01*
X33989950Y-37910466D01*
X33969835Y-37930580D01*
X33947052Y-37960625D01*
X33917007Y-37983408D01*
X33896893Y-38003523D01*
X33867770Y-38020745D01*
X33832912Y-38047180D01*
X33803382Y-38058825D01*
X33783619Y-38070513D01*
X33746110Y-38081410D01*
X33699652Y-38099731D01*
X33671350Y-38103129D01*
X33654377Y-38108061D01*
X33584484Y-38113561D01*
X33575114Y-38114687D01*
X31525114Y-38114687D01*
X31515744Y-38113561D01*
X31445850Y-38108061D01*
X31428875Y-38103129D01*
X31400576Y-38099731D01*
X31354120Y-38081411D01*
X31316608Y-38070513D01*
X31296842Y-38058823D01*
X31267316Y-38047180D01*
X31232460Y-38020748D01*
X31203334Y-38003523D01*
X31183216Y-37983405D01*
X31153176Y-37960625D01*
X31130395Y-37930584D01*
X31110277Y-37910466D01*
X31093050Y-37881337D01*
X31066621Y-37846485D01*
X31054977Y-37816960D01*
X31043287Y-37797192D01*
X31032386Y-37759673D01*
X31014070Y-37713225D01*
X31010671Y-37684929D01*
X31005739Y-37667950D01*
X31000236Y-37598032D01*
X30999114Y-37588687D01*
X30999114Y-36638687D01*
X31000236Y-36629341D01*
X31005739Y-36559423D01*
X31010672Y-36542442D01*
X31014070Y-36514149D01*
X31032385Y-36467703D01*
X31043287Y-36430181D01*
X31054979Y-36410410D01*
X31066621Y-36380889D01*
X31093047Y-36346039D01*
X31110277Y-36316907D01*
X31130399Y-36296784D01*
X31153176Y-36266749D01*
X31183211Y-36243972D01*
X31203334Y-36223850D01*
X31232466Y-36206620D01*
X31267316Y-36180194D01*
X31296837Y-36168552D01*
X31316608Y-36156860D01*
X31354130Y-36145958D01*
X31400576Y-36127643D01*
X31428869Y-36124245D01*
X31445850Y-36119312D01*
X31515770Y-36113809D01*
X31525114Y-36112687D01*
X33575114Y-36112687D01*
X33584461Y-36113809D01*
G37*
G36*
X33584461Y-33613809D02*
G01*
X33654377Y-33619312D01*
X33671356Y-33624244D01*
X33699652Y-33627643D01*
X33746100Y-33645959D01*
X33783619Y-33656860D01*
X33803387Y-33668550D01*
X33832912Y-33680194D01*
X33867764Y-33706623D01*
X33896893Y-33723850D01*
X33917011Y-33743968D01*
X33947052Y-33766749D01*
X33969832Y-33796789D01*
X33989950Y-33816907D01*
X34007175Y-33846033D01*
X34033607Y-33880889D01*
X34045250Y-33910415D01*
X34056940Y-33930181D01*
X34067838Y-33967693D01*
X34086158Y-34014149D01*
X34089556Y-34042448D01*
X34094488Y-34059423D01*
X34099988Y-34129318D01*
X34101114Y-34138687D01*
X34101114Y-35088687D01*
X34099988Y-35098058D01*
X34094488Y-35167950D01*
X34089556Y-35184923D01*
X34086158Y-35213225D01*
X34067837Y-35259683D01*
X34056940Y-35297192D01*
X34045252Y-35316955D01*
X34033607Y-35346485D01*
X34007172Y-35381343D01*
X33989950Y-35410466D01*
X33969835Y-35430580D01*
X33947052Y-35460625D01*
X33917007Y-35483408D01*
X33896893Y-35503523D01*
X33867770Y-35520745D01*
X33832912Y-35547180D01*
X33803382Y-35558825D01*
X33783619Y-35570513D01*
X33746110Y-35581410D01*
X33699652Y-35599731D01*
X33671350Y-35603129D01*
X33654377Y-35608061D01*
X33584484Y-35613561D01*
X33575114Y-35614687D01*
X31525114Y-35614687D01*
X31515744Y-35613561D01*
X31445850Y-35608061D01*
X31428875Y-35603129D01*
X31400576Y-35599731D01*
X31354120Y-35581411D01*
X31316608Y-35570513D01*
X31296842Y-35558823D01*
X31267316Y-35547180D01*
X31232460Y-35520748D01*
X31203334Y-35503523D01*
X31183216Y-35483405D01*
X31153176Y-35460625D01*
X31130395Y-35430584D01*
X31110277Y-35410466D01*
X31093050Y-35381337D01*
X31066621Y-35346485D01*
X31054977Y-35316960D01*
X31043287Y-35297192D01*
X31032386Y-35259673D01*
X31014070Y-35213225D01*
X31010671Y-35184929D01*
X31005739Y-35167950D01*
X31000236Y-35098032D01*
X30999114Y-35088687D01*
X30999114Y-34138687D01*
X31000236Y-34129341D01*
X31005739Y-34059423D01*
X31010672Y-34042442D01*
X31014070Y-34014149D01*
X31032385Y-33967703D01*
X31043287Y-33930181D01*
X31054979Y-33910410D01*
X31066621Y-33880889D01*
X31093047Y-33846039D01*
X31110277Y-33816907D01*
X31130399Y-33796784D01*
X31153176Y-33766749D01*
X31183211Y-33743972D01*
X31203334Y-33723850D01*
X31232466Y-33706620D01*
X31267316Y-33680194D01*
X31296837Y-33668552D01*
X31316608Y-33656860D01*
X31354130Y-33645958D01*
X31400576Y-33627643D01*
X31428869Y-33624245D01*
X31445850Y-33619312D01*
X31515770Y-33613809D01*
X31525114Y-33612687D01*
X33575114Y-33612687D01*
X33584461Y-33613809D01*
G37*
G36*
X33584461Y-31113809D02*
G01*
X33654377Y-31119312D01*
X33671356Y-31124244D01*
X33699652Y-31127643D01*
X33746100Y-31145959D01*
X33783619Y-31156860D01*
X33803387Y-31168550D01*
X33832912Y-31180194D01*
X33867764Y-31206623D01*
X33896893Y-31223850D01*
X33917011Y-31243968D01*
X33947052Y-31266749D01*
X33969832Y-31296789D01*
X33989950Y-31316907D01*
X34007175Y-31346033D01*
X34033607Y-31380889D01*
X34045250Y-31410415D01*
X34056940Y-31430181D01*
X34067838Y-31467693D01*
X34086158Y-31514149D01*
X34089556Y-31542448D01*
X34094488Y-31559423D01*
X34099988Y-31629318D01*
X34101114Y-31638687D01*
X34101114Y-32588687D01*
X34099988Y-32598058D01*
X34094488Y-32667950D01*
X34089556Y-32684923D01*
X34086158Y-32713225D01*
X34067837Y-32759683D01*
X34056940Y-32797192D01*
X34045252Y-32816955D01*
X34033607Y-32846485D01*
X34007172Y-32881343D01*
X33989950Y-32910466D01*
X33969835Y-32930580D01*
X33947052Y-32960625D01*
X33917007Y-32983408D01*
X33896893Y-33003523D01*
X33867770Y-33020745D01*
X33832912Y-33047180D01*
X33803382Y-33058825D01*
X33783619Y-33070513D01*
X33746110Y-33081410D01*
X33699652Y-33099731D01*
X33671350Y-33103129D01*
X33654377Y-33108061D01*
X33584484Y-33113561D01*
X33575114Y-33114687D01*
X31525114Y-33114687D01*
X31515744Y-33113561D01*
X31445850Y-33108061D01*
X31428875Y-33103129D01*
X31400576Y-33099731D01*
X31354120Y-33081411D01*
X31316608Y-33070513D01*
X31296842Y-33058823D01*
X31267316Y-33047180D01*
X31232460Y-33020748D01*
X31203334Y-33003523D01*
X31183216Y-32983405D01*
X31153176Y-32960625D01*
X31130395Y-32930584D01*
X31110277Y-32910466D01*
X31093050Y-32881337D01*
X31066621Y-32846485D01*
X31054977Y-32816960D01*
X31043287Y-32797192D01*
X31032386Y-32759673D01*
X31014070Y-32713225D01*
X31010671Y-32684929D01*
X31005739Y-32667950D01*
X31000236Y-32598032D01*
X30999114Y-32588687D01*
X30999114Y-31638687D01*
X31000236Y-31629341D01*
X31005739Y-31559423D01*
X31010672Y-31542442D01*
X31014070Y-31514149D01*
X31032385Y-31467703D01*
X31043287Y-31430181D01*
X31054979Y-31410410D01*
X31066621Y-31380889D01*
X31093047Y-31346039D01*
X31110277Y-31316907D01*
X31130399Y-31296784D01*
X31153176Y-31266749D01*
X31183211Y-31243972D01*
X31203334Y-31223850D01*
X31232466Y-31206620D01*
X31267316Y-31180194D01*
X31296837Y-31168552D01*
X31316608Y-31156860D01*
X31354130Y-31145958D01*
X31400576Y-31127643D01*
X31428869Y-31124245D01*
X31445850Y-31119312D01*
X31515770Y-31113809D01*
X31525114Y-31112687D01*
X33575114Y-31112687D01*
X33584461Y-31113809D01*
G37*
G36*
X33584461Y-28613809D02*
G01*
X33654377Y-28619312D01*
X33671356Y-28624244D01*
X33699652Y-28627643D01*
X33746100Y-28645959D01*
X33783619Y-28656860D01*
X33803387Y-28668550D01*
X33832912Y-28680194D01*
X33867764Y-28706623D01*
X33896893Y-28723850D01*
X33917011Y-28743968D01*
X33947052Y-28766749D01*
X33969832Y-28796789D01*
X33989950Y-28816907D01*
X34007175Y-28846033D01*
X34033607Y-28880889D01*
X34045250Y-28910415D01*
X34056940Y-28930181D01*
X34067838Y-28967693D01*
X34086158Y-29014149D01*
X34089556Y-29042448D01*
X34094488Y-29059423D01*
X34099988Y-29129318D01*
X34101114Y-29138687D01*
X34101114Y-30088687D01*
X34099988Y-30098058D01*
X34094488Y-30167950D01*
X34089556Y-30184923D01*
X34086158Y-30213225D01*
X34067837Y-30259683D01*
X34056940Y-30297192D01*
X34045252Y-30316955D01*
X34033607Y-30346485D01*
X34007172Y-30381343D01*
X33989950Y-30410466D01*
X33969835Y-30430580D01*
X33947052Y-30460625D01*
X33917007Y-30483408D01*
X33896893Y-30503523D01*
X33867770Y-30520745D01*
X33832912Y-30547180D01*
X33803382Y-30558825D01*
X33783619Y-30570513D01*
X33746110Y-30581410D01*
X33699652Y-30599731D01*
X33671350Y-30603129D01*
X33654377Y-30608061D01*
X33584484Y-30613561D01*
X33575114Y-30614687D01*
X31525114Y-30614687D01*
X31515744Y-30613561D01*
X31445850Y-30608061D01*
X31428875Y-30603129D01*
X31400576Y-30599731D01*
X31354120Y-30581411D01*
X31316608Y-30570513D01*
X31296842Y-30558823D01*
X31267316Y-30547180D01*
X31232460Y-30520748D01*
X31203334Y-30503523D01*
X31183216Y-30483405D01*
X31153176Y-30460625D01*
X31130395Y-30430584D01*
X31110277Y-30410466D01*
X31093050Y-30381337D01*
X31066621Y-30346485D01*
X31054977Y-30316960D01*
X31043287Y-30297192D01*
X31032386Y-30259673D01*
X31014070Y-30213225D01*
X31010671Y-30184929D01*
X31005739Y-30167950D01*
X31000236Y-30098032D01*
X30999114Y-30088687D01*
X30999114Y-29138687D01*
X31000236Y-29129341D01*
X31005739Y-29059423D01*
X31010672Y-29042442D01*
X31014070Y-29014149D01*
X31032385Y-28967703D01*
X31043287Y-28930181D01*
X31054979Y-28910410D01*
X31066621Y-28880889D01*
X31093047Y-28846039D01*
X31110277Y-28816907D01*
X31130399Y-28796784D01*
X31153176Y-28766749D01*
X31183211Y-28743972D01*
X31203334Y-28723850D01*
X31232466Y-28706620D01*
X31267316Y-28680194D01*
X31296837Y-28668552D01*
X31316608Y-28656860D01*
X31354130Y-28645958D01*
X31400576Y-28627643D01*
X31428869Y-28624245D01*
X31445850Y-28619312D01*
X31515770Y-28613809D01*
X31525114Y-28612687D01*
X33575114Y-28612687D01*
X33584461Y-28613809D01*
G37*
G36*
X33584461Y-26113809D02*
G01*
X33654377Y-26119312D01*
X33671356Y-26124244D01*
X33699652Y-26127643D01*
X33746100Y-26145959D01*
X33783619Y-26156860D01*
X33803387Y-26168550D01*
X33832912Y-26180194D01*
X33867764Y-26206623D01*
X33896893Y-26223850D01*
X33917011Y-26243968D01*
X33947052Y-26266749D01*
X33969832Y-26296789D01*
X33989950Y-26316907D01*
X34007175Y-26346033D01*
X34033607Y-26380889D01*
X34045250Y-26410415D01*
X34056940Y-26430181D01*
X34067838Y-26467693D01*
X34086158Y-26514149D01*
X34089556Y-26542448D01*
X34094488Y-26559423D01*
X34099988Y-26629318D01*
X34101114Y-26638687D01*
X34101114Y-27588687D01*
X34099988Y-27598058D01*
X34094488Y-27667950D01*
X34089556Y-27684923D01*
X34086158Y-27713225D01*
X34067837Y-27759683D01*
X34056940Y-27797192D01*
X34045252Y-27816955D01*
X34033607Y-27846485D01*
X34007172Y-27881343D01*
X33989950Y-27910466D01*
X33969835Y-27930580D01*
X33947052Y-27960625D01*
X33917007Y-27983408D01*
X33896893Y-28003523D01*
X33867770Y-28020745D01*
X33832912Y-28047180D01*
X33803382Y-28058825D01*
X33783619Y-28070513D01*
X33746110Y-28081410D01*
X33699652Y-28099731D01*
X33671350Y-28103129D01*
X33654377Y-28108061D01*
X33584484Y-28113561D01*
X33575114Y-28114687D01*
X31525114Y-28114687D01*
X31515744Y-28113561D01*
X31445850Y-28108061D01*
X31428875Y-28103129D01*
X31400576Y-28099731D01*
X31354120Y-28081411D01*
X31316608Y-28070513D01*
X31296842Y-28058823D01*
X31267316Y-28047180D01*
X31232460Y-28020748D01*
X31203334Y-28003523D01*
X31183216Y-27983405D01*
X31153176Y-27960625D01*
X31130395Y-27930584D01*
X31110277Y-27910466D01*
X31093050Y-27881337D01*
X31066621Y-27846485D01*
X31054977Y-27816960D01*
X31043287Y-27797192D01*
X31032386Y-27759673D01*
X31014070Y-27713225D01*
X31010671Y-27684929D01*
X31005739Y-27667950D01*
X31000236Y-27598032D01*
X30999114Y-27588687D01*
X30999114Y-26638687D01*
X31000236Y-26629341D01*
X31005739Y-26559423D01*
X31010672Y-26542442D01*
X31014070Y-26514149D01*
X31032385Y-26467703D01*
X31043287Y-26430181D01*
X31054979Y-26410410D01*
X31066621Y-26380889D01*
X31093047Y-26346039D01*
X31110277Y-26316907D01*
X31130399Y-26296784D01*
X31153176Y-26266749D01*
X31183211Y-26243972D01*
X31203334Y-26223850D01*
X31232466Y-26206620D01*
X31267316Y-26180194D01*
X31296837Y-26168552D01*
X31316608Y-26156860D01*
X31354130Y-26145958D01*
X31400576Y-26127643D01*
X31428869Y-26124245D01*
X31445850Y-26119312D01*
X31515770Y-26113809D01*
X31525114Y-26112687D01*
X33575114Y-26112687D01*
X33584461Y-26113809D01*
G37*
M02*
