  0
SECTION
  2
HEADER
  9
$ANGBASE
  50
0.0
  9
$ANGDIR
  70
1
  9
$MEASUREMENT
  70
1
  0
ENDSEC
  0
SECTION
  2
TABLES
  0
TABLE
  2
LTYPE
  70
4
  0
LTYPE
  5
40F
  2
CONTINUOUS
  70
0
  3
Solid line
  72
65
  73
0
  40
0.0
  0
LTYPE
  5
410
  2
DASHDOT
 70
0
  3
Dash Dot ____ _ ____ _
 72
65
 73
4
 40
2.0
 49
1.25
 49
-0.25
 49
0.25
 49
-0.25
  0
LTYPE
  5
411
  2
DASHED
 70
0
  3
Dashed __ __ __ __ __
 72
65
 73
2
 40
0.75
 49
0.5
 49
-0.25
  0
LTYPE
  5
43B
  2
DOTTED
 70
0
  3
Dotted .  .  .  .
 72
65
 73
2
 40
0.2
 49
0.0
 49
-0.2
  0
ENDTAB
  0
TABLE
  2
STYLE
  70
4
  0
STYLE
  2
KICAD
  70
0
  40
0
  41
1
  42
1
  50
0
  71
0
  3
isocp.shx
  0
STYLE
  2
KICADB
  70
0
  40
0
  41
1
  42
1
  50
0
  71
0
  3
isocp.shx
  0
STYLE
  2
KICADI
  70
0
  40
0
  41
1
  42
1
  50
15
  71
0
  3
isocp.shx
  0
STYLE
  2
KICADBI
  70
0
  40
0
  41
1
  42
1
  50
15
  71
0
  3
isocp.shx
  0
ENDTAB
  0
TABLE
  2
LAYER
  70
1
  0
LAYER
  2
BLACK
  70
0
  62
7
  6
CONTINUOUS
  0
ENDTAB
  0
ENDSEC
  0
SECTION
  2
ENTITIES
0
LINE
8
BLACK
6
CONTINUOUS
10
32.650113999999995
20
-40.6000000000000014
11
32.6499999999999986
21
-56.1999999999999957
0
LINE
8
BLACK
6
CONTINUOUS
10
34.650113999999995
20
-25.1136869999999988
11
34.650113999999995
21
-40.6000000000000014
0
LINE
8
BLACK
6
CONTINUOUS
10
29.6501139999999985
20
-25.1136869999999988
11
21.2501139999999999
21
-25.1136869999999988
0
LINE
8
BLACK
6
CONTINUOUS
10
32.650113999999995
20
-40.6000000000000014
11
34.650113999999995
21
-40.6000000000000014
0
LINE
8
BLACK
6
CONTINUOUS
10
29.6501139999999985
20
-25.1136869999999988
11
34.650113999999995
21
-25.1136869999999988
0
LINE
8
BLACK
6
CONTINUOUS
10
21.25
20
-56.1999999999999957
11
21.2501139999999999
21
-25.1136869999999988
0
LINE
8
BLACK
6
CONTINUOUS
10
32.6499999999999986
20
-56.1999999999999957
11
21.25
21
-56.1999999999999957
0
LINE
8
BLACK
6
CONTINUOUS
10
30.
20
-26.8999999999999986
11
30.3999999999999986
21
-27.2999999999999972
0
LINE
8
BLACK
6
CONTINUOUS
10
30.3999999999999986
20
-26.8999999999999986
11
30.
21
-27.2999999999999972
0
LINE
8
BLACK
6
CONTINUOUS
10
30.
20
-29.3999999999999986
11
30.3999999999999986
21
-29.7999999999999972
0
LINE
8
BLACK
6
CONTINUOUS
10
30.3999999999999986
20
-29.3999999999999986
11
30.
21
-29.7999999999999972
0
LINE
8
BLACK
6
CONTINUOUS
10
30.
20
-31.8999999999999986
11
30.3999999999999986
21
-32.2999999999999972
0
LINE
8
BLACK
6
CONTINUOUS
10
30.3999999999999986
20
-31.8999999999999986
11
30.
21
-32.2999999999999972
0
LINE
8
BLACK
6
CONTINUOUS
10
30.
20
-34.0499999999999972
11
30.3999999999999986
21
-34.4499999999999957
0
LINE
8
BLACK
6
CONTINUOUS
10
30.3999999999999986
20
-34.0499999999999972
11
30.
21
-34.4499999999999957
0
LINE
8
BLACK
6
CONTINUOUS
10
30.
20
-35.1999999999999957
11
30.3999999999999986
21
-35.6000000000000014
0
LINE
8
BLACK
6
CONTINUOUS
10
30.3999999999999986
20
-35.1999999999999957
11
30.
21
-35.6000000000000014
0
LINE
8
BLACK
6
CONTINUOUS
10
30.
20
-36.3999999999999986
11
30.3999999999999986
21
-36.7999999999999972
0
LINE
8
BLACK
6
CONTINUOUS
10
30.3999999999999986
20
-36.3999999999999986
11
30.
21
-36.7999999999999972
0
LINE
8
BLACK
6
CONTINUOUS
10
30.6499999999999986
20
-38.7999999999999972
11
31.0499999999999972
21
-39.1999999999999957
0
LINE
8
BLACK
6
CONTINUOUS
10
31.0499999999999972
20
-38.7999999999999972
11
30.6499999999999986
21
-39.1999999999999957
0
LINE
8
BLACK
6
CONTINUOUS
10
31.8499999999999979
20
-38.7999999999999972
11
32.25
21
-39.1999999999999957
0
LINE
8
BLACK
6
CONTINUOUS
10
32.25
20
-38.7999999999999972
11
31.8499999999999979
21
-39.1999999999999957
0
LINE
8
BLACK
6
CONTINUOUS
10
33.1499999999999986
20
-38.7999999999999972
11
33.5499999999999972
21
-39.1999999999999957
0
LINE
8
BLACK
6
CONTINUOUS
10
33.5499999999999972
20
-38.7999999999999972
11
33.1499999999999986
21
-39.1999999999999957
0
LINE
8
BLACK
6
CONTINUOUS
10
23.832767999999998
20
-59.3398380000000003
11
23.832767999999998
21
-57.3398380000000003
0
LINE
8
BLACK
6
CONTINUOUS
10
23.832767999999998
20
-57.3398380000000003
11
24.3089580000000005
21
-57.3398380000000003
0
LINE
8
BLACK
6
CONTINUOUS
10
24.3089580000000005
20
-57.3398380000000003
11
24.5946730000000002
21
-57.4350759999999951
0
LINE
8
BLACK
6
CONTINUOUS
10
24.5946730000000002
20
-57.4350759999999951
11
24.7851490000000005
21
-57.625551999999999
0
LINE
8
BLACK
6
CONTINUOUS
10
24.7851490000000005
20
-57.625551999999999
11
24.8803869999999989
21
-57.8160279999999958
0
LINE
8
BLACK
6
CONTINUOUS
10
24.8803869999999989
20
-57.8160279999999958
11
24.9756249999999973
21
-58.1969799999999964
0
LINE
8
BLACK
6
CONTINUOUS
10
24.9756249999999973
20
-58.1969799999999964
11
24.9756249999999973
21
-58.4826949999999997
0
LINE
8
BLACK
6
CONTINUOUS
10
24.9756249999999973
20
-58.4826949999999997
11
24.8803869999999989
21
-58.8636470000000003
0
LINE
8
BLACK
6
CONTINUOUS
10
24.8803869999999989
20
-58.8636470000000003
11
24.7851490000000005
21
-59.054122999999997
0
LINE
8
BLACK
6
CONTINUOUS
10
24.7851490000000005
20
-59.054122999999997
11
24.5946730000000002
21
-59.2445999999999984
0
LINE
8
BLACK
6
CONTINUOUS
10
24.5946730000000002
20
-59.2445999999999984
11
24.3089580000000005
21
-59.3398380000000003
0
LINE
8
BLACK
6
CONTINUOUS
10
24.3089580000000005
20
-59.3398380000000003
11
23.832767999999998
21
-59.3398380000000003
0
LINE
8
BLACK
6
CONTINUOUS
10
25.832767999999998
20
-59.3398380000000003
11
25.832767999999998
21
-58.0065039999999996
0
LINE
8
BLACK
6
CONTINUOUS
10
25.832767999999998
20
-58.3874569999999977
11
25.9280059999999999
21
-58.1969799999999964
0
LINE
8
BLACK
6
CONTINUOUS
10
25.9280059999999999
20
-58.1969799999999964
11
26.0232439999999983
21
-58.1017419999999944
0
LINE
8
BLACK
6
CONTINUOUS
10
26.0232439999999983
20
-58.1017419999999944
11
26.2137199999999986
21
-58.0065039999999996
0
LINE
8
BLACK
6
CONTINUOUS
10
26.2137199999999986
20
-58.0065039999999996
11
26.4041969999999999
21
-58.0065039999999996
0
LINE
8
BLACK
6
CONTINUOUS
10
27.0708629999999992
20
-59.3398380000000003
11
27.0708629999999992
21
-58.0065039999999996
0
LINE
8
BLACK
6
CONTINUOUS
10
27.0708629999999992
20
-57.3398380000000003
11
26.9756249999999973
21
-57.4350759999999951
0
LINE
8
BLACK
6
CONTINUOUS
10
26.9756249999999973
20
-57.4350759999999951
11
27.0708629999999992
21
-57.5303139999999971
0
LINE
8
BLACK
6
CONTINUOUS
10
27.0708629999999992
20
-57.5303139999999971
11
27.1661009999999976
21
-57.4350759999999951
0
LINE
8
BLACK
6
CONTINUOUS
10
27.1661009999999976
20
-57.4350759999999951
11
27.0708629999999992
21
-57.3398380000000003
0
LINE
8
BLACK
6
CONTINUOUS
10
27.0708629999999992
20
-57.3398380000000003
11
27.0708629999999992
21
-57.5303139999999971
0
LINE
8
BLACK
6
CONTINUOUS
10
28.308957999999997
20
-59.3398380000000003
11
28.1184820000000002
21
-59.2445999999999984
0
LINE
8
BLACK
6
CONTINUOUS
10
28.1184820000000002
20
-59.2445999999999984
11
28.0232439999999983
21
-59.054122999999997
0
LINE
8
BLACK
6
CONTINUOUS
10
28.0232439999999983
20
-59.054122999999997
11
28.0232439999999983
21
-57.3398380000000003
0
LINE
8
BLACK
6
CONTINUOUS
10
29.3565769999999979
20
-59.3398380000000003
11
29.1661009999999976
21
-59.2445999999999984
0
LINE
8
BLACK
6
CONTINUOUS
10
29.1661009999999976
20
-59.2445999999999984
11
29.0708629999999992
21
-59.054122999999997
0
LINE
8
BLACK
6
CONTINUOUS
10
29.0708629999999992
20
-59.054122999999997
11
29.0708629999999992
21
-57.3398380000000003
0
LINE
8
BLACK
6
CONTINUOUS
10
31.6422919999999976
20
-59.3398380000000003
11
31.6422919999999976
21
-57.3398380000000003
0
LINE
8
BLACK
6
CONTINUOUS
10
31.6422919999999976
20
-57.3398380000000003
11
32.3089590000000015
21
-58.7684089999999983
0
LINE
8
BLACK
6
CONTINUOUS
10
32.3089590000000015
20
-58.7684089999999983
11
32.9756250000000009
21
-57.3398380000000003
0
LINE
8
BLACK
6
CONTINUOUS
10
32.9756250000000009
20
-57.3398380000000003
11
32.9756250000000009
21
-59.3398380000000003
0
LINE
8
BLACK
6
CONTINUOUS
10
34.785148999999997
20
-59.3398380000000003
11
34.785148999999997
21
-58.2922189999999958
0
LINE
8
BLACK
6
CONTINUOUS
10
34.785148999999997
20
-58.2922189999999958
11
34.6899109999999951
21
-58.1017419999999944
0
LINE
8
BLACK
6
CONTINUOUS
10
34.6899109999999951
20
-58.1017419999999944
11
34.4994349999999983
21
-58.0065039999999996
0
LINE
8
BLACK
6
CONTINUOUS
10
34.4994349999999983
20
-58.0065039999999996
11
34.1184820000000002
21
-58.0065039999999996
0
LINE
8
BLACK
6
CONTINUOUS
10
34.1184820000000002
20
-58.0065039999999996
11
33.9280059999999963
21
-58.1017419999999944
0
LINE
8
BLACK
6
CONTINUOUS
10
34.785148999999997
20
-59.2445999999999984
11
34.5946730000000002
21
-59.3398380000000003
0
LINE
8
BLACK
6
CONTINUOUS
10
34.5946730000000002
20
-59.3398380000000003
11
34.1184820000000002
21
-59.3398380000000003
0
LINE
8
BLACK
6
CONTINUOUS
10
34.1184820000000002
20
-59.3398380000000003
11
33.9280059999999963
21
-59.2445999999999984
0
LINE
8
BLACK
6
CONTINUOUS
10
33.9280059999999963
20
-59.2445999999999984
11
33.8327680000000015
21
-59.054122999999997
0
LINE
8
BLACK
6
CONTINUOUS
10
33.8327680000000015
20
-59.054122999999997
11
33.8327680000000015
21
-58.8636470000000003
0
LINE
8
BLACK
6
CONTINUOUS
10
33.8327680000000015
20
-58.8636470000000003
11
33.9280059999999963
21
-58.6731709999999964
0
LINE
8
BLACK
6
CONTINUOUS
10
33.9280059999999963
20
-58.6731709999999964
11
34.1184820000000002
21
-58.5779329999999945
0
LINE
8
BLACK
6
CONTINUOUS
10
34.1184820000000002
20
-58.5779329999999945
11
34.5946730000000002
21
-58.5779329999999945
0
LINE
8
BLACK
6
CONTINUOUS
10
34.5946730000000002
20
-58.5779329999999945
11
34.785148999999997
21
-58.4826949999999997
0
LINE
8
BLACK
6
CONTINUOUS
10
35.7375299999999996
20
-58.0065039999999996
11
35.7375299999999996
21
-60.0065039999999996
0
LINE
8
BLACK
6
CONTINUOUS
10
35.7375299999999996
20
-58.1017419999999944
11
35.9280059999999963
21
-58.0065039999999996
0
LINE
8
BLACK
6
CONTINUOUS
10
35.9280059999999963
20
-58.0065039999999996
11
36.3089590000000015
21
-58.0065039999999996
0
LINE
8
BLACK
6
CONTINUOUS
10
36.3089590000000015
20
-58.0065039999999996
11
36.4994349999999983
21
-58.1017419999999944
0
LINE
8
BLACK
6
CONTINUOUS
10
36.4994349999999983
20
-58.1017419999999944
11
36.5946730000000002
21
-58.1969799999999964
0
LINE
8
BLACK
6
CONTINUOUS
10
36.5946730000000002
20
-58.1969799999999964
11
36.6899109999999951
21
-58.3874569999999977
0
LINE
8
BLACK
6
CONTINUOUS
10
36.6899109999999951
20
-58.3874569999999977
11
36.6899109999999951
21
-58.9588849999999951
0
LINE
8
BLACK
6
CONTINUOUS
10
36.6899109999999951
20
-58.9588849999999951
11
36.5946730000000002
21
-59.149360999999999
0
LINE
8
BLACK
6
CONTINUOUS
10
36.5946730000000002
20
-59.149360999999999
11
36.4994349999999983
21
-59.2445999999999984
0
LINE
8
BLACK
6
CONTINUOUS
10
36.4994349999999983
20
-59.2445999999999984
11
36.3089590000000015
21
-59.3398380000000003
0
LINE
8
BLACK
6
CONTINUOUS
10
36.3089590000000015
20
-59.3398380000000003
11
35.9280059999999963
21
-59.3398380000000003
0
LINE
8
BLACK
6
CONTINUOUS
10
35.9280059999999963
20
-59.3398380000000003
11
35.7375299999999996
21
-59.2445999999999984
0
LINE
8
BLACK
6
CONTINUOUS
10
37.5470539999999957
20
-59.149360999999999
11
37.6422919999999976
21
-59.2445999999999984
0
LINE
8
BLACK
6
CONTINUOUS
10
37.6422919999999976
20
-59.2445999999999984
11
37.5470539999999957
21
-59.3398380000000003
0
LINE
8
BLACK
6
CONTINUOUS
10
37.5470539999999957
20
-59.3398380000000003
11
37.4518160000000009
21
-59.2445999999999984
0
LINE
8
BLACK
6
CONTINUOUS
10
37.4518160000000009
20
-59.2445999999999984
11
37.5470539999999957
21
-59.149360999999999
0
LINE
8
BLACK
6
CONTINUOUS
10
37.5470539999999957
20
-59.149360999999999
11
37.5470539999999957
21
-59.3398380000000003
0
LINE
8
BLACK
6
CONTINUOUS
10
37.5470539999999957
20
-58.1017419999999944
11
37.6422919999999976
21
-58.1969799999999964
0
LINE
8
BLACK
6
CONTINUOUS
10
37.6422919999999976
20
-58.1969799999999964
11
37.5470539999999957
21
-58.2922189999999958
0
LINE
8
BLACK
6
CONTINUOUS
10
37.5470539999999957
20
-58.2922189999999958
11
37.4518160000000009
21
-58.1969799999999964
0
LINE
8
BLACK
6
CONTINUOUS
10
37.4518160000000009
20
-58.1969799999999964
11
37.5470539999999957
21
-58.1017419999999944
0
LINE
8
BLACK
6
CONTINUOUS
10
37.5470539999999957
20
-58.1017419999999944
11
37.5470539999999957
21
-58.2922189999999958
0
LINE
8
BLACK
6
CONTINUOUS
10
20.8249999999999993
20
-62.4249999999999972
11
21.2249999999999979
21
-62.8249999999999957
0
LINE
8
BLACK
6
CONTINUOUS
10
21.2249999999999979
20
-62.4249999999999972
11
20.8249999999999993
21
-62.8249999999999957
0
LINE
8
BLACK
6
CONTINUOUS
10
24.2137199999999986
20
-61.539837999999996
11
24.4041969999999999
21
-61.539837999999996
0
LINE
8
BLACK
6
CONTINUOUS
10
24.4041969999999999
20
-61.539837999999996
11
24.5946730000000002
21
-61.635075999999998
0
LINE
8
BLACK
6
CONTINUOUS
10
24.5946730000000002
20
-61.635075999999998
11
24.6899109999999986
21
-61.7303139999999999
0
LINE
8
BLACK
6
CONTINUOUS
10
24.6899109999999986
20
-61.7303139999999999
11
24.7851490000000005
21
-61.9207899999999967
0
LINE
8
BLACK
6
CONTINUOUS
10
24.7851490000000005
20
-61.9207899999999967
11
24.8803869999999989
21
-62.3017419999999973
0
LINE
8
BLACK
6
CONTINUOUS
10
24.8803869999999989
20
-62.3017419999999973
11
24.8803869999999989
21
-62.7779329999999973
0
LINE
8
BLACK
6
CONTINUOUS
10
24.8803869999999989
20
-62.7779329999999973
11
24.7851490000000005
21
-63.1588849999999979
0
LINE
8
BLACK
6
CONTINUOUS
10
24.7851490000000005
20
-63.1588849999999979
11
24.6899109999999986
21
-63.3493609999999947
0
LINE
8
BLACK
6
CONTINUOUS
10
24.6899109999999986
20
-63.3493609999999947
11
24.5946730000000002
21
-63.4445999999999941
0
LINE
8
BLACK
6
CONTINUOUS
10
24.5946730000000002
20
-63.4445999999999941
11
24.4041969999999999
21
-63.539837999999996
0
LINE
8
BLACK
6
CONTINUOUS
10
24.4041969999999999
20
-63.539837999999996
11
24.2137199999999986
21
-63.539837999999996
0
LINE
8
BLACK
6
CONTINUOUS
10
24.2137199999999986
20
-63.539837999999996
11
24.0232439999999983
21
-63.4445999999999941
0
LINE
8
BLACK
6
CONTINUOUS
10
24.0232439999999983
20
-63.4445999999999941
11
23.9280059999999999
21
-63.3493609999999947
0
LINE
8
BLACK
6
CONTINUOUS
10
23.9280059999999999
20
-63.3493609999999947
11
23.832767999999998
21
-63.1588849999999979
0
LINE
8
BLACK
6
CONTINUOUS
10
23.832767999999998
20
-63.1588849999999979
11
23.7375299999999996
21
-62.7779329999999973
0
LINE
8
BLACK
6
CONTINUOUS
10
23.7375299999999996
20
-62.7779329999999973
11
23.7375299999999996
21
-62.3017419999999973
0
LINE
8
BLACK
6
CONTINUOUS
10
23.7375299999999996
20
-62.3017419999999973
11
23.832767999999998
21
-61.9207899999999967
0
LINE
8
BLACK
6
CONTINUOUS
10
23.832767999999998
20
-61.9207899999999967
11
23.9280059999999999
21
-61.7303139999999999
0
LINE
8
BLACK
6
CONTINUOUS
10
23.9280059999999999
20
-61.7303139999999999
11
24.0232439999999983
21
-61.635075999999998
0
LINE
8
BLACK
6
CONTINUOUS
10
24.0232439999999983
20
-61.635075999999998
11
24.2137199999999986
21
-61.539837999999996
0
LINE
8
BLACK
6
CONTINUOUS
10
25.7375299999999996
20
-63.3493609999999947
11
25.832767999999998
21
-63.4445999999999941
0
LINE
8
BLACK
6
CONTINUOUS
10
25.832767999999998
20
-63.4445999999999941
11
25.7375299999999996
21
-63.539837999999996
0
LINE
8
BLACK
6
CONTINUOUS
10
25.7375299999999996
20
-63.539837999999996
11
25.6422919999999976
21
-63.4445999999999941
0
LINE
8
BLACK
6
CONTINUOUS
10
25.6422919999999976
20
-63.4445999999999941
11
25.7375299999999996
21
-63.3493609999999947
0
LINE
8
BLACK
6
CONTINUOUS
10
25.7375299999999996
20
-63.3493609999999947
11
25.7375299999999996
21
-63.539837999999996
0
LINE
8
BLACK
6
CONTINUOUS
10
27.5470539999999993
20
-62.2065039999999954
11
27.5470539999999993
21
-63.539837999999996
0
LINE
8
BLACK
6
CONTINUOUS
10
27.0708629999999992
20
-61.4445999999999941
11
26.5946730000000002
21
-62.8731709999999993
0
LINE
8
BLACK
6
CONTINUOUS
10
26.5946730000000002
20
-62.8731709999999993
11
27.832767999999998
21
-62.8731709999999993
0
LINE
8
BLACK
6
CONTINUOUS
10
28.9756249999999973
20
-61.539837999999996
11
29.1661019999999986
21
-61.539837999999996
0
LINE
8
BLACK
6
CONTINUOUS
10
29.1661019999999986
20
-61.539837999999996
11
29.356577999999999
21
-61.635075999999998
0
LINE
8
BLACK
6
CONTINUOUS
10
29.356577999999999
20
-61.635075999999998
11
29.4518159999999973
21
-61.7303139999999999
0
LINE
8
BLACK
6
CONTINUOUS
10
29.4518159999999973
20
-61.7303139999999999
11
29.5470539999999993
21
-61.9207899999999967
0
LINE
8
BLACK
6
CONTINUOUS
10
29.5470539999999993
20
-61.9207899999999967
11
29.6422919999999976
21
-62.3017419999999973
0
LINE
8
BLACK
6
CONTINUOUS
10
29.6422919999999976
20
-62.3017419999999973
11
29.6422919999999976
21
-62.7779329999999973
0
LINE
8
BLACK
6
CONTINUOUS
10
29.6422919999999976
20
-62.7779329999999973
11
29.5470539999999993
21
-63.1588849999999979
0
LINE
8
BLACK
6
CONTINUOUS
10
29.5470539999999993
20
-63.1588849999999979
11
29.4518159999999973
21
-63.3493609999999947
0
LINE
8
BLACK
6
CONTINUOUS
10
29.4518159999999973
20
-63.3493609999999947
11
29.356577999999999
21
-63.4445999999999941
0
LINE
8
BLACK
6
CONTINUOUS
10
29.356577999999999
20
-63.4445999999999941
11
29.1661019999999986
21
-63.539837999999996
0
LINE
8
BLACK
6
CONTINUOUS
10
29.1661019999999986
20
-63.539837999999996
11
28.9756249999999973
21
-63.539837999999996
0
LINE
8
BLACK
6
CONTINUOUS
10
28.9756249999999973
20
-63.539837999999996
11
28.785148999999997
21
-63.4445999999999941
0
LINE
8
BLACK
6
CONTINUOUS
10
28.785148999999997
20
-63.4445999999999941
11
28.6899109999999986
21
-63.3493609999999947
0
LINE
8
BLACK
6
CONTINUOUS
10
28.6899109999999986
20
-63.3493609999999947
11
28.5946730000000002
21
-63.1588849999999979
0
LINE
8
BLACK
6
CONTINUOUS
10
28.5946730000000002
20
-63.1588849999999979
11
28.4994349999999983
21
-62.7779329999999973
0
LINE
8
BLACK
6
CONTINUOUS
10
28.4994349999999983
20
-62.7779329999999973
11
28.4994349999999983
21
-62.3017419999999973
0
LINE
8
BLACK
6
CONTINUOUS
10
28.4994349999999983
20
-62.3017419999999973
11
28.5946730000000002
21
-61.9207899999999967
0
LINE
8
BLACK
6
CONTINUOUS
10
28.5946730000000002
20
-61.9207899999999967
11
28.6899109999999986
21
-61.7303139999999999
0
LINE
8
BLACK
6
CONTINUOUS
10
28.6899109999999986
20
-61.7303139999999999
11
28.785148999999997
21
-61.635075999999998
0
LINE
8
BLACK
6
CONTINUOUS
10
28.785148999999997
20
-61.635075999999998
11
28.9756249999999973
21
-61.539837999999996
0
LINE
8
BLACK
6
CONTINUOUS
10
30.8803869999999989
20
-61.539837999999996
11
31.0708640000000003
21
-61.539837999999996
0
LINE
8
BLACK
6
CONTINUOUS
10
31.0708640000000003
20
-61.539837999999996
11
31.261339999999997
21
-61.635075999999998
0
LINE
8
BLACK
6
CONTINUOUS
10
31.261339999999997
20
-61.635075999999998
11
31.356577999999999
21
-61.7303139999999999
0
LINE
8
BLACK
6
CONTINUOUS
10
31.356577999999999
20
-61.7303139999999999
11
31.4518159999999973
21
-61.9207899999999967
0
LINE
8
BLACK
6
CONTINUOUS
10
31.4518159999999973
20
-61.9207899999999967
11
31.5470539999999993
21
-62.3017419999999973
0
LINE
8
BLACK
6
CONTINUOUS
10
31.5470539999999993
20
-62.3017419999999973
11
31.5470539999999993
21
-62.7779329999999973
0
LINE
8
BLACK
6
CONTINUOUS
10
31.5470539999999993
20
-62.7779329999999973
11
31.4518159999999973
21
-63.1588849999999979
0
LINE
8
BLACK
6
CONTINUOUS
10
31.4518159999999973
20
-63.1588849999999979
11
31.356577999999999
21
-63.3493609999999947
0
LINE
8
BLACK
6
CONTINUOUS
10
31.356577999999999
20
-63.3493609999999947
11
31.261339999999997
21
-63.4445999999999941
0
LINE
8
BLACK
6
CONTINUOUS
10
31.261339999999997
20
-63.4445999999999941
11
31.0708640000000003
21
-63.539837999999996
0
LINE
8
BLACK
6
CONTINUOUS
10
31.0708640000000003
20
-63.539837999999996
11
30.8803869999999989
21
-63.539837999999996
0
LINE
8
BLACK
6
CONTINUOUS
10
30.8803869999999989
20
-63.539837999999996
11
30.6899109999999986
21
-63.4445999999999941
0
LINE
8
BLACK
6
CONTINUOUS
10
30.6899109999999986
20
-63.4445999999999941
11
30.5946730000000002
21
-63.3493609999999947
0
LINE
8
BLACK
6
CONTINUOUS
10
30.5946730000000002
20
-63.3493609999999947
11
30.4994349999999983
21
-63.1588849999999979
0
LINE
8
BLACK
6
CONTINUOUS
10
30.4994349999999983
20
-63.1588849999999979
11
30.4041969999999999
21
-62.7779329999999973
0
LINE
8
BLACK
6
CONTINUOUS
10
30.4041969999999999
20
-62.7779329999999973
11
30.4041969999999999
21
-62.3017419999999973
0
LINE
8
BLACK
6
CONTINUOUS
10
30.4041969999999999
20
-62.3017419999999973
11
30.4994349999999983
21
-61.9207899999999967
0
LINE
8
BLACK
6
CONTINUOUS
10
30.4994349999999983
20
-61.9207899999999967
11
30.5946730000000002
21
-61.7303139999999999
0
LINE
8
BLACK
6
CONTINUOUS
10
30.5946730000000002
20
-61.7303139999999999
11
30.6899109999999986
21
-61.635075999999998
0
LINE
8
BLACK
6
CONTINUOUS
10
30.6899109999999986
20
-61.635075999999998
11
30.8803869999999989
21
-61.539837999999996
0
LINE
8
BLACK
6
CONTINUOUS
10
32.4041969999999964
20
-63.539837999999996
11
32.4041969999999964
21
-62.2065039999999954
0
LINE
8
BLACK
6
CONTINUOUS
10
32.4041969999999964
20
-62.3969799999999992
11
32.4994349999999983
21
-62.3017419999999973
0
LINE
8
BLACK
6
CONTINUOUS
10
32.4994349999999983
20
-62.3017419999999973
11
32.6899109999999951
21
-62.2065039999999954
0
LINE
8
BLACK
6
CONTINUOUS
10
32.6899109999999951
20
-62.2065039999999954
11
32.9756259999999983
21
-62.2065039999999954
0
LINE
8
BLACK
6
CONTINUOUS
10
32.9756259999999983
20
-62.2065039999999954
11
33.1661019999999951
21
-62.3017419999999973
0
LINE
8
BLACK
6
CONTINUOUS
10
33.1661019999999951
20
-62.3017419999999973
11
33.261339999999997
21
-62.4922189999999986
0
LINE
8
BLACK
6
CONTINUOUS
10
33.261339999999997
20
-62.4922189999999986
11
33.261339999999997
21
-63.539837999999996
0
LINE
8
BLACK
6
CONTINUOUS
10
33.261339999999997
20
-62.4922189999999986
11
33.356577999999999
21
-62.3017419999999973
0
LINE
8
BLACK
6
CONTINUOUS
10
33.356577999999999
20
-62.3017419999999973
11
33.5470539999999957
21
-62.2065039999999954
0
LINE
8
BLACK
6
CONTINUOUS
10
33.5470539999999957
20
-62.2065039999999954
11
33.8327680000000015
21
-62.2065039999999954
0
LINE
8
BLACK
6
CONTINUOUS
10
33.8327680000000015
20
-62.2065039999999954
11
34.0232449999999957
21
-62.3017419999999973
0
LINE
8
BLACK
6
CONTINUOUS
10
34.0232449999999957
20
-62.3017419999999973
11
34.1184829999999977
21
-62.4922189999999986
0
LINE
8
BLACK
6
CONTINUOUS
10
34.1184829999999977
20
-62.4922189999999986
11
34.1184829999999977
21
-63.539837999999996
0
LINE
8
BLACK
6
CONTINUOUS
10
35.0708640000000003
20
-63.539837999999996
11
35.0708640000000003
21
-62.2065039999999954
0
LINE
8
BLACK
6
CONTINUOUS
10
35.0708640000000003
20
-62.3969799999999992
11
35.1661019999999951
21
-62.3017419999999973
0
LINE
8
BLACK
6
CONTINUOUS
10
35.1661019999999951
20
-62.3017419999999973
11
35.356577999999999
21
-62.2065039999999954
0
LINE
8
BLACK
6
CONTINUOUS
10
35.356577999999999
20
-62.2065039999999954
11
35.6422929999999951
21
-62.2065039999999954
0
LINE
8
BLACK
6
CONTINUOUS
10
35.6422929999999951
20
-62.2065039999999954
11
35.832768999999999
21
-62.3017419999999973
0
LINE
8
BLACK
6
CONTINUOUS
10
35.832768999999999
20
-62.3017419999999973
11
35.9280070000000009
21
-62.4922189999999986
0
LINE
8
BLACK
6
CONTINUOUS
10
35.9280070000000009
20
-62.4922189999999986
11
35.9280070000000009
21
-63.539837999999996
0
LINE
8
BLACK
6
CONTINUOUS
10
35.9280070000000009
20
-62.4922189999999986
11
36.0232449999999957
21
-62.3017419999999973
0
LINE
8
BLACK
6
CONTINUOUS
10
36.0232449999999957
20
-62.3017419999999973
11
36.2137209999999996
21
-62.2065039999999954
0
LINE
8
BLACK
6
CONTINUOUS
10
36.2137209999999996
20
-62.2065039999999954
11
36.4994349999999983
21
-62.2065039999999954
0
LINE
8
BLACK
6
CONTINUOUS
10
36.4994349999999983
20
-62.2065039999999954
11
36.6899119999999996
21
-62.3017419999999973
0
LINE
8
BLACK
6
CONTINUOUS
10
36.6899119999999996
20
-62.3017419999999973
11
36.7851500000000016
21
-62.4922189999999986
0
LINE
8
BLACK
6
CONTINUOUS
10
36.7851500000000016
20
-62.4922189999999986
11
36.7851500000000016
21
-63.539837999999996
0
LINE
8
BLACK
6
CONTINUOUS
10
40.6899119999999996
20
-61.4445999999999941
11
38.9756269999999958
21
-64.0160279999999915
0
LINE
8
BLACK
6
CONTINUOUS
10
43.2613409999999945
20
-61.539837999999996
11
43.4518179999999958
21
-61.539837999999996
0
LINE
8
BLACK
6
CONTINUOUS
10
43.4518179999999958
20
-61.539837999999996
11
43.6422939999999997
21
-61.635075999999998
0
LINE
8
BLACK
6
CONTINUOUS
10
43.6422939999999997
20
-61.635075999999998
11
43.7375319999999945
21
-61.7303139999999999
0
LINE
8
BLACK
6
CONTINUOUS
10
43.7375319999999945
20
-61.7303139999999999
11
43.8327699999999965
21
-61.9207899999999967
0
LINE
8
BLACK
6
CONTINUOUS
10
43.8327699999999965
20
-61.9207899999999967
11
43.9280079999999984
21
-62.3017419999999973
0
LINE
8
BLACK
6
CONTINUOUS
10
43.9280079999999984
20
-62.3017419999999973
11
43.9280079999999984
21
-62.7779329999999973
0
LINE
8
BLACK
6
CONTINUOUS
10
43.9280079999999984
20
-62.7779329999999973
11
43.8327699999999965
21
-63.1588849999999979
0
LINE
8
BLACK
6
CONTINUOUS
10
43.8327699999999965
20
-63.1588849999999979
11
43.7375319999999945
21
-63.3493609999999947
0
LINE
8
BLACK
6
CONTINUOUS
10
43.7375319999999945
20
-63.3493609999999947
11
43.6422939999999997
21
-63.4445999999999941
0
LINE
8
BLACK
6
CONTINUOUS
10
43.6422939999999997
20
-63.4445999999999941
11
43.4518179999999958
21
-63.539837999999996
0
LINE
8
BLACK
6
CONTINUOUS
10
43.4518179999999958
20
-63.539837999999996
11
43.2613409999999945
21
-63.539837999999996
0
LINE
8
BLACK
6
CONTINUOUS
10
43.2613409999999945
20
-63.539837999999996
11
43.0708649999999977
21
-63.4445999999999941
0
LINE
8
BLACK
6
CONTINUOUS
10
43.0708649999999977
20
-63.4445999999999941
11
42.9756269999999958
21
-63.3493609999999947
0
LINE
8
BLACK
6
CONTINUOUS
10
42.9756269999999958
20
-63.3493609999999947
11
42.880389000000001
21
-63.1588849999999979
0
LINE
8
BLACK
6
CONTINUOUS
10
42.880389000000001
20
-63.1588849999999979
11
42.785150999999999
21
-62.7779329999999973
0
LINE
8
BLACK
6
CONTINUOUS
10
42.785150999999999
20
-62.7779329999999973
11
42.785150999999999
21
-62.3017419999999973
0
LINE
8
BLACK
6
CONTINUOUS
10
42.785150999999999
20
-62.3017419999999973
11
42.880389000000001
21
-61.9207899999999967
0
LINE
8
BLACK
6
CONTINUOUS
10
42.880389000000001
20
-61.9207899999999967
11
42.9756269999999958
21
-61.7303139999999999
0
LINE
8
BLACK
6
CONTINUOUS
10
42.9756269999999958
20
-61.7303139999999999
11
43.0708649999999977
21
-61.635075999999998
0
LINE
8
BLACK
6
CONTINUOUS
10
43.0708649999999977
20
-61.635075999999998
11
43.2613409999999945
21
-61.539837999999996
0
LINE
8
BLACK
6
CONTINUOUS
10
44.785150999999999
20
-63.3493609999999947
11
44.880389000000001
21
-63.4445999999999941
0
LINE
8
BLACK
6
CONTINUOUS
10
44.880389000000001
20
-63.4445999999999941
11
44.785150999999999
21
-63.539837999999996
0
LINE
8
BLACK
6
CONTINUOUS
10
44.785150999999999
20
-63.539837999999996
11
44.6899129999999971
21
-63.4445999999999941
0
LINE
8
BLACK
6
CONTINUOUS
10
44.6899129999999971
20
-63.4445999999999941
11
44.785150999999999
21
-63.3493609999999947
0
LINE
8
BLACK
6
CONTINUOUS
10
44.785150999999999
20
-63.3493609999999947
11
44.785150999999999
21
-63.539837999999996
0
LINE
8
BLACK
6
CONTINUOUS
10
46.1184839999999951
20
-61.539837999999996
11
46.3089609999999965
21
-61.539837999999996
0
LINE
8
BLACK
6
CONTINUOUS
10
46.3089609999999965
20
-61.539837999999996
11
46.4994370000000004
21
-61.635075999999998
0
LINE
8
BLACK
6
CONTINUOUS
10
46.4994370000000004
20
-61.635075999999998
11
46.5946749999999952
21
-61.7303139999999999
0
LINE
8
BLACK
6
CONTINUOUS
10
46.5946749999999952
20
-61.7303139999999999
11
46.6899129999999971
21
-61.9207899999999967
0
LINE
8
BLACK
6
CONTINUOUS
10
46.6899129999999971
20
-61.9207899999999967
11
46.785150999999999
21
-62.3017419999999973
0
LINE
8
BLACK
6
CONTINUOUS
10
46.785150999999999
20
-62.3017419999999973
11
46.785150999999999
21
-62.7779329999999973
0
LINE
8
BLACK
6
CONTINUOUS
10
46.785150999999999
20
-62.7779329999999973
11
46.6899129999999971
21
-63.1588849999999979
0
LINE
8
BLACK
6
CONTINUOUS
10
46.6899129999999971
20
-63.1588849999999979
11
46.5946749999999952
21
-63.3493609999999947
0
LINE
8
BLACK
6
CONTINUOUS
10
46.5946749999999952
20
-63.3493609999999947
11
46.4994370000000004
21
-63.4445999999999941
0
LINE
8
BLACK
6
CONTINUOUS
10
46.4994370000000004
20
-63.4445999999999941
11
46.3089609999999965
21
-63.539837999999996
0
LINE
8
BLACK
6
CONTINUOUS
10
46.3089609999999965
20
-63.539837999999996
11
46.1184839999999951
21
-63.539837999999996
0
LINE
8
BLACK
6
CONTINUOUS
10
46.1184839999999951
20
-63.539837999999996
11
45.9280079999999984
21
-63.4445999999999941
0
LINE
8
BLACK
6
CONTINUOUS
10
45.9280079999999984
20
-63.4445999999999941
11
45.8327699999999965
21
-63.3493609999999947
0
LINE
8
BLACK
6
CONTINUOUS
10
45.8327699999999965
20
-63.3493609999999947
11
45.7375319999999945
21
-63.1588849999999979
0
LINE
8
BLACK
6
CONTINUOUS
10
45.7375319999999945
20
-63.1588849999999979
11
45.6422939999999997
21
-62.7779329999999973
0
LINE
8
BLACK
6
CONTINUOUS
10
45.6422939999999997
20
-62.7779329999999973
11
45.6422939999999997
21
-62.3017419999999973
0
LINE
8
BLACK
6
CONTINUOUS
10
45.6422939999999997
20
-62.3017419999999973
11
45.7375319999999945
21
-61.9207899999999967
0
LINE
8
BLACK
6
CONTINUOUS
10
45.7375319999999945
20
-61.9207899999999967
11
45.8327699999999965
21
-61.7303139999999999
0
LINE
8
BLACK
6
CONTINUOUS
10
45.8327699999999965
20
-61.7303139999999999
11
45.9280079999999984
21
-61.635075999999998
0
LINE
8
BLACK
6
CONTINUOUS
10
45.9280079999999984
20
-61.635075999999998
11
46.1184839999999951
21
-61.539837999999996
0
LINE
8
BLACK
6
CONTINUOUS
10
48.6899129999999971
20
-63.539837999999996
11
47.5470559999999978
21
-63.539837999999996
0
LINE
8
BLACK
6
CONTINUOUS
10
48.1184839999999951
20
-63.539837999999996
11
48.1184839999999951
21
-61.539837999999996
0
LINE
8
BLACK
6
CONTINUOUS
10
48.1184839999999951
20
-61.539837999999996
11
47.9280079999999984
21
-61.8255519999999947
0
LINE
8
BLACK
6
CONTINUOUS
10
47.9280079999999984
20
-61.8255519999999947
11
47.7375319999999945
21
-62.0160279999999986
0
LINE
8
BLACK
6
CONTINUOUS
10
47.7375319999999945
20
-62.0160279999999986
11
47.5470559999999978
21
-62.1112660000000005
0
LINE
8
BLACK
6
CONTINUOUS
10
50.4994370000000004
20
-61.539837999999996
11
49.5470559999999978
21
-61.539837999999996
0
LINE
8
BLACK
6
CONTINUOUS
10
49.5470559999999978
20
-61.539837999999996
11
49.4518179999999958
21
-62.4922189999999986
0
LINE
8
BLACK
6
CONTINUOUS
10
49.4518179999999958
20
-62.4922189999999986
11
49.5470559999999978
21
-62.3969799999999992
0
LINE
8
BLACK
6
CONTINUOUS
10
49.5470559999999978
20
-62.3969799999999992
11
49.7375319999999945
21
-62.3017419999999973
0
LINE
8
BLACK
6
CONTINUOUS
10
49.7375319999999945
20
-62.3017419999999973
11
50.2137229999999946
21
-62.3017419999999973
0
LINE
8
BLACK
6
CONTINUOUS
10
50.2137229999999946
20
-62.3017419999999973
11
50.4041989999999984
21
-62.3969799999999992
0
LINE
8
BLACK
6
CONTINUOUS
10
50.4041989999999984
20
-62.3969799999999992
11
50.4994370000000004
21
-62.4922189999999986
0
LINE
8
BLACK
6
CONTINUOUS
10
50.4994370000000004
20
-62.4922189999999986
11
50.5946749999999952
21
-62.6826949999999954
0
LINE
8
BLACK
6
CONTINUOUS
10
50.5946749999999952
20
-62.6826949999999954
11
50.5946749999999952
21
-63.1588849999999979
0
LINE
8
BLACK
6
CONTINUOUS
10
50.5946749999999952
20
-63.1588849999999979
11
50.4994370000000004
21
-63.3493609999999947
0
LINE
8
BLACK
6
CONTINUOUS
10
50.4994370000000004
20
-63.3493609999999947
11
50.4041989999999984
21
-63.4445999999999941
0
LINE
8
BLACK
6
CONTINUOUS
10
50.4041989999999984
20
-63.4445999999999941
11
50.2137229999999946
21
-63.539837999999996
0
LINE
8
BLACK
6
CONTINUOUS
10
50.2137229999999946
20
-63.539837999999996
11
49.7375319999999945
21
-63.539837999999996
0
LINE
8
BLACK
6
CONTINUOUS
10
49.7375319999999945
20
-63.539837999999996
11
49.5470559999999978
21
-63.4445999999999941
0
LINE
8
BLACK
6
CONTINUOUS
10
49.5470559999999978
20
-63.4445999999999941
11
49.4518179999999958
21
-63.3493609999999947
0
LINE
8
BLACK
6
CONTINUOUS
10
51.2613419999999991
20
-61.539837999999996
11
52.5946749999999952
21
-61.539837999999996
0
LINE
8
BLACK
6
CONTINUOUS
10
52.5946749999999952
20
-61.539837999999996
11
51.7375319999999945
21
-63.539837999999996
0
LINE
8
BLACK
6
CONTINUOUS
10
53.2613419999999991
20
-61.539837999999996
11
53.2613419999999991
21
-61.9207899999999967
0
LINE
8
BLACK
6
CONTINUOUS
10
54.0232469999999978
20
-61.539837999999996
11
54.0232469999999978
21
-61.9207899999999967
0
LINE
8
BLACK
6
CONTINUOUS
10
56.9756289999999979
20
-64.3017419999999902
11
56.8803899999999985
21
-64.2065039999999954
0
LINE
8
BLACK
6
CONTINUOUS
10
56.8803899999999985
20
-64.2065039999999954
11
56.6899139999999946
21
-63.9207899999999967
0
LINE
8
BLACK
6
CONTINUOUS
10
56.6899139999999946
20
-63.9207899999999967
11
56.5946759999999998
21
-63.7303139999999999
0
LINE
8
BLACK
6
CONTINUOUS
10
56.5946759999999998
20
-63.7303139999999999
11
56.4994379999999978
21
-63.4445999999999941
0
LINE
8
BLACK
6
CONTINUOUS
10
56.4994379999999978
20
-63.4445999999999941
11
56.4041999999999959
21
-62.9684089999999941
0
LINE
8
BLACK
6
CONTINUOUS
10
56.4041999999999959
20
-62.9684089999999941
11
56.4041999999999959
21
-62.5874570000000006
0
LINE
8
BLACK
6
CONTINUOUS
10
56.4041999999999959
20
-62.5874570000000006
11
56.4994379999999978
21
-62.1112660000000005
0
LINE
8
BLACK
6
CONTINUOUS
10
56.4994379999999978
20
-62.1112660000000005
11
56.5946759999999998
21
-61.8255519999999947
0
LINE
8
BLACK
6
CONTINUOUS
10
56.5946759999999998
20
-61.8255519999999947
11
56.6899139999999946
21
-61.635075999999998
0
LINE
8
BLACK
6
CONTINUOUS
10
56.6899139999999946
20
-61.635075999999998
11
56.8803899999999985
21
-61.3493609999999947
0
LINE
8
BLACK
6
CONTINUOUS
10
56.8803899999999985
20
-61.3493609999999947
11
56.9756289999999979
21
-61.2541229999999999
0
LINE
8
BLACK
6
CONTINUOUS
10
57.8327709999999939
20
-63.539837999999996
11
58.2137229999999946
21
-63.539837999999996
0
LINE
8
BLACK
6
CONTINUOUS
10
58.2137229999999946
20
-63.539837999999996
11
58.4041999999999959
21
-63.4445999999999941
0
LINE
8
BLACK
6
CONTINUOUS
10
58.4041999999999959
20
-63.4445999999999941
11
58.4994379999999978
21
-63.3493609999999947
0
LINE
8
BLACK
6
CONTINUOUS
10
58.4994379999999978
20
-63.3493609999999947
11
58.6899139999999946
21
-63.063646999999996
0
LINE
8
BLACK
6
CONTINUOUS
10
58.6899139999999946
20
-63.063646999999996
11
58.7851519999999965
21
-62.6826949999999954
0
LINE
8
BLACK
6
CONTINUOUS
10
58.7851519999999965
20
-62.6826949999999954
11
58.7851519999999965
21
-61.9207899999999967
0
LINE
8
BLACK
6
CONTINUOUS
10
58.7851519999999965
20
-61.9207899999999967
11
58.6899139999999946
21
-61.7303139999999999
0
LINE
8
BLACK
6
CONTINUOUS
10
58.6899139999999946
20
-61.7303139999999999
11
58.5946759999999998
21
-61.635075999999998
0
LINE
8
BLACK
6
CONTINUOUS
10
58.5946759999999998
20
-61.635075999999998
11
58.4041999999999959
21
-61.539837999999996
0
LINE
8
BLACK
6
CONTINUOUS
10
58.4041999999999959
20
-61.539837999999996
11
58.0232469999999978
21
-61.539837999999996
0
LINE
8
BLACK
6
CONTINUOUS
10
58.0232469999999978
20
-61.539837999999996
11
57.8327709999999939
21
-61.635075999999998
0
LINE
8
BLACK
6
CONTINUOUS
10
57.8327709999999939
20
-61.635075999999998
11
57.7375329999999991
21
-61.7303139999999999
0
LINE
8
BLACK
6
CONTINUOUS
10
57.7375329999999991
20
-61.7303139999999999
11
57.6422949999999972
21
-61.9207899999999967
0
LINE
8
BLACK
6
CONTINUOUS
10
57.6422949999999972
20
-61.9207899999999967
11
57.6422949999999972
21
-62.3969799999999992
0
LINE
8
BLACK
6
CONTINUOUS
10
57.6422949999999972
20
-62.3969799999999992
11
57.7375329999999991
21
-62.5874570000000006
0
LINE
8
BLACK
6
CONTINUOUS
10
57.7375329999999991
20
-62.5874570000000006
11
57.8327709999999939
21
-62.6826949999999954
0
LINE
8
BLACK
6
CONTINUOUS
10
57.8327709999999939
20
-62.6826949999999954
11
58.0232469999999978
21
-62.7779329999999973
0
LINE
8
BLACK
6
CONTINUOUS
10
58.0232469999999978
20
-62.7779329999999973
11
58.4041999999999959
21
-62.7779329999999973
0
LINE
8
BLACK
6
CONTINUOUS
10
58.4041999999999959
20
-62.7779329999999973
11
58.5946759999999998
21
-62.6826949999999954
0
LINE
8
BLACK
6
CONTINUOUS
10
58.5946759999999998
20
-62.6826949999999954
11
58.6899139999999946
21
-62.5874570000000006
0
LINE
8
BLACK
6
CONTINUOUS
10
58.6899139999999946
20
-62.5874570000000006
11
58.7851519999999965
21
-62.3969799999999992
0
LINE
8
BLACK
6
CONTINUOUS
10
61.1661049999999946
20
-63.539837999999996
11
61.1661049999999946
21
-61.539837999999996
0
LINE
8
BLACK
6
CONTINUOUS
10
62.0232479999999953
20
-63.539837999999996
11
62.0232479999999953
21
-62.4922189999999986
0
LINE
8
BLACK
6
CONTINUOUS
10
62.0232479999999953
20
-62.4922189999999986
11
61.9280100000000004
21
-62.3017419999999973
0
LINE
8
BLACK
6
CONTINUOUS
10
61.9280100000000004
20
-62.3017419999999973
11
61.7375339999999966
21
-62.2065039999999954
0
LINE
8
BLACK
6
CONTINUOUS
10
61.7375339999999966
20
-62.2065039999999954
11
61.4518190000000004
21
-62.2065039999999954
0
LINE
8
BLACK
6
CONTINUOUS
10
61.4518190000000004
20
-62.2065039999999954
11
61.2613429999999966
21
-62.3017419999999973
0
LINE
8
BLACK
6
CONTINUOUS
10
61.2613429999999966
20
-62.3017419999999973
11
61.1661049999999946
21
-62.3969799999999992
0
LINE
8
BLACK
6
CONTINUOUS
10
63.2613429999999966
20
-63.539837999999996
11
63.0708669999999998
21
-63.4445999999999941
0
LINE
8
BLACK
6
CONTINUOUS
10
63.0708669999999998
20
-63.4445999999999941
11
62.9756289999999979
21
-63.3493609999999947
0
LINE
8
BLACK
6
CONTINUOUS
10
62.9756289999999979
20
-63.3493609999999947
11
62.8803909999999959
21
-63.1588849999999979
0
LINE
8
BLACK
6
CONTINUOUS
10
62.8803909999999959
20
-63.1588849999999979
11
62.8803909999999959
21
-62.5874570000000006
0
LINE
8
BLACK
6
CONTINUOUS
10
62.8803909999999959
20
-62.5874570000000006
11
62.9756289999999979
21
-62.3969799999999992
0
LINE
8
BLACK
6
CONTINUOUS
10
62.9756289999999979
20
-62.3969799999999992
11
63.0708669999999998
21
-62.3017419999999973
0
LINE
8
BLACK
6
CONTINUOUS
10
63.0708669999999998
20
-62.3017419999999973
11
63.2613429999999966
21
-62.2065039999999954
0
LINE
8
BLACK
6
CONTINUOUS
10
63.2613429999999966
20
-62.2065039999999954
11
63.5470579999999998
21
-62.2065039999999954
0
LINE
8
BLACK
6
CONTINUOUS
10
63.5470579999999998
20
-62.2065039999999954
11
63.7375339999999966
21
-62.3017419999999973
0
LINE
8
BLACK
6
CONTINUOUS
10
63.7375339999999966
20
-62.3017419999999973
11
63.8327719999999985
21
-62.3969799999999992
0
LINE
8
BLACK
6
CONTINUOUS
10
63.8327719999999985
20
-62.3969799999999992
11
63.9280100000000004
21
-62.5874570000000006
0
LINE
8
BLACK
6
CONTINUOUS
10
63.9280100000000004
20
-62.5874570000000006
11
63.9280100000000004
21
-63.1588849999999979
0
LINE
8
BLACK
6
CONTINUOUS
10
63.9280100000000004
20
-63.1588849999999979
11
63.8327719999999985
21
-63.3493609999999947
0
LINE
8
BLACK
6
CONTINUOUS
10
63.8327719999999985
20
-63.3493609999999947
11
63.7375339999999966
21
-63.4445999999999941
0
LINE
8
BLACK
6
CONTINUOUS
10
63.7375339999999966
20
-63.4445999999999941
11
63.5470579999999998
21
-63.539837999999996
0
LINE
8
BLACK
6
CONTINUOUS
10
63.5470579999999998
20
-63.539837999999996
11
63.2613429999999966
21
-63.539837999999996
0
LINE
8
BLACK
6
CONTINUOUS
10
65.0708669999999927
20
-63.539837999999996
11
64.880391000000003
21
-63.4445999999999941
0
LINE
8
BLACK
6
CONTINUOUS
10
64.880391000000003
20
-63.4445999999999941
11
64.785152999999994
21
-63.2541229999999999
0
LINE
8
BLACK
6
CONTINUOUS
10
64.785152999999994
20
-63.2541229999999999
11
64.785152999999994
21
-61.539837999999996
0
LINE
8
BLACK
6
CONTINUOUS
10
66.5946769999999901
20
-63.4445999999999941
11
66.4042010000000005
21
-63.539837999999996
0
LINE
8
BLACK
6
CONTINUOUS
10
66.4042010000000005
20
-63.539837999999996
11
66.0232479999999953
21
-63.539837999999996
0
LINE
8
BLACK
6
CONTINUOUS
10
66.0232479999999953
20
-63.539837999999996
11
65.8327719999999914
21
-63.4445999999999941
0
LINE
8
BLACK
6
CONTINUOUS
10
65.8327719999999914
20
-63.4445999999999941
11
65.7375339999999966
21
-63.2541229999999999
0
LINE
8
BLACK
6
CONTINUOUS
10
65.7375339999999966
20
-63.2541229999999999
11
65.7375339999999966
21
-62.4922189999999986
0
LINE
8
BLACK
6
CONTINUOUS
10
65.7375339999999966
20
-62.4922189999999986
11
65.8327719999999914
21
-62.3017419999999973
0
LINE
8
BLACK
6
CONTINUOUS
10
65.8327719999999914
20
-62.3017419999999973
11
66.0232479999999953
21
-62.2065039999999954
0
LINE
8
BLACK
6
CONTINUOUS
10
66.0232479999999953
20
-62.2065039999999954
11
66.4042010000000005
21
-62.2065039999999954
0
LINE
8
BLACK
6
CONTINUOUS
10
66.4042010000000005
20
-62.2065039999999954
11
66.5946769999999901
21
-62.3017419999999973
0
LINE
8
BLACK
6
CONTINUOUS
10
66.5946769999999901
20
-62.3017419999999973
11
66.6899149999999992
21
-62.4922189999999986
0
LINE
8
BLACK
6
CONTINUOUS
10
66.6899149999999992
20
-62.4922189999999986
11
66.6899149999999992
21
-62.6826949999999954
0
LINE
8
BLACK
6
CONTINUOUS
10
66.6899149999999992
20
-62.6826949999999954
11
65.7375339999999966
21
-62.8731709999999993
0
LINE
8
BLACK
6
CONTINUOUS
10
67.4518199999999979
20
-63.4445999999999941
11
67.6422960000000018
21
-63.539837999999996
0
LINE
8
BLACK
6
CONTINUOUS
10
67.6422960000000018
20
-63.539837999999996
11
68.0232479999999953
21
-63.539837999999996
0
LINE
8
BLACK
6
CONTINUOUS
10
68.0232479999999953
20
-63.539837999999996
11
68.2137249999999966
21
-63.4445999999999941
0
LINE
8
BLACK
6
CONTINUOUS
10
68.2137249999999966
20
-63.4445999999999941
11
68.3089629999999914
21
-63.2541229999999999
0
LINE
8
BLACK
6
CONTINUOUS
10
68.3089629999999914
20
-63.2541229999999999
11
68.3089629999999914
21
-63.1588849999999979
0
LINE
8
BLACK
6
CONTINUOUS
10
68.3089629999999914
20
-63.1588849999999979
11
68.2137249999999966
21
-62.9684089999999941
0
LINE
8
BLACK
6
CONTINUOUS
10
68.2137249999999966
20
-62.9684089999999941
11
68.0232479999999953
21
-62.8731709999999993
0
LINE
8
BLACK
6
CONTINUOUS
10
68.0232479999999953
20
-62.8731709999999993
11
67.7375339999999966
21
-62.8731709999999993
0
LINE
8
BLACK
6
CONTINUOUS
10
67.7375339999999966
20
-62.8731709999999993
11
67.5470579999999927
21
-62.7779329999999973
0
LINE
8
BLACK
6
CONTINUOUS
10
67.5470579999999927
20
-62.7779329999999973
11
67.4518199999999979
21
-62.5874570000000006
0
LINE
8
BLACK
6
CONTINUOUS
10
67.4518199999999979
20
-62.5874570000000006
11
67.4518199999999979
21
-62.4922189999999986
0
LINE
8
BLACK
6
CONTINUOUS
10
67.4518199999999979
20
-62.4922189999999986
11
67.5470579999999927
21
-62.3017419999999973
0
LINE
8
BLACK
6
CONTINUOUS
10
67.5470579999999927
20
-62.3017419999999973
11
67.7375339999999966
21
-62.2065039999999954
0
LINE
8
BLACK
6
CONTINUOUS
10
67.7375339999999966
20
-62.2065039999999954
11
68.0232479999999953
21
-62.2065039999999954
0
LINE
8
BLACK
6
CONTINUOUS
10
68.0232479999999953
20
-62.2065039999999954
11
68.2137249999999966
21
-62.3017419999999973
0
LINE
8
BLACK
6
CONTINUOUS
10
68.9756299999999953
20
-64.3017419999999902
11
69.0708679999999902
21
-64.2065039999999954
0
LINE
8
BLACK
6
CONTINUOUS
10
69.0708679999999902
20
-64.2065039999999954
11
69.261343999999994
21
-63.9207899999999967
0
LINE
8
BLACK
6
CONTINUOUS
10
69.261343999999994
20
-63.9207899999999967
11
69.3565820000000031
21
-63.7303139999999999
0
LINE
8
BLACK
6
CONTINUOUS
10
69.3565820000000031
20
-63.7303139999999999
11
69.4518199999999979
21
-63.4445999999999941
0
LINE
8
BLACK
6
CONTINUOUS
10
69.4518199999999979
20
-63.4445999999999941
11
69.5470579999999927
21
-62.9684089999999941
0
LINE
8
BLACK
6
CONTINUOUS
10
69.5470579999999927
20
-62.9684089999999941
11
69.5470579999999927
21
-62.5874570000000006
0
LINE
8
BLACK
6
CONTINUOUS
10
69.5470579999999927
20
-62.5874570000000006
11
69.4518199999999979
21
-62.1112660000000005
0
LINE
8
BLACK
6
CONTINUOUS
10
69.4518199999999979
20
-62.1112660000000005
11
69.3565820000000031
21
-61.8255519999999947
0
LINE
8
BLACK
6
CONTINUOUS
10
69.3565820000000031
20
-61.8255519999999947
11
69.261343999999994
21
-61.635075999999998
0
LINE
8
BLACK
6
CONTINUOUS
10
69.261343999999994
20
-61.635075999999998
11
69.0708679999999902
21
-61.3493609999999947
0
LINE
8
BLACK
6
CONTINUOUS
10
69.0708679999999902
20
-61.3493609999999947
11
68.9756299999999953
21
-61.2541229999999999
  0
ENDSEC
  0
EOF
