G04 #@! TF.GenerationSoftware,KiCad,Pcbnew,9.0.4*
G04 #@! TF.CreationDate,2025-11-25T12:33:48-05:00*
G04 #@! TF.ProjectId,feederSlot,66656564-6572-4536-9c6f-742e6b696361,rev?*
G04 #@! TF.SameCoordinates,Original*
G04 #@! TF.FileFunction,Copper,L1,Top*
G04 #@! TF.FilePolarity,Positive*
%FSLAX46Y46*%
G04 Gerber Fmt 4.6, Leading zero omitted, Abs format (unit mm)*
G04 Created by KiCad (PCBNEW 9.0.4) date 2025-11-25 12:33:48*
%MOMM*%
%LPD*%
G01*
G04 APERTURE LIST*
G04 Aperture macros list*
%AMRoundRect*
0 Rectangle with rounded corners*
0 $1 Rounding radius*
0 $2 $3 $4 $5 $6 $7 $8 $9 X,Y pos of 4 corners*
0 Add a 4 corners polygon primitive as box body*
4,1,4,$2,$3,$4,$5,$6,$7,$8,$9,$2,$3,0*
0 Add four circle primitives for the rounded corners*
1,1,$1+$1,$2,$3*
1,1,$1+$1,$4,$5*
1,1,$1+$1,$6,$7*
1,1,$1+$1,$8,$9*
0 Add four rect primitives between the rounded corners*
20,1,$1+$1,$2,$3,$4,$5,0*
20,1,$1+$1,$4,$5,$6,$7,0*
20,1,$1+$1,$6,$7,$8,$9,0*
20,1,$1+$1,$8,$9,$2,$3,0*%
%AMFreePoly0*
4,1,18,0.158779,0.555902,0.195106,0.505902,0.200000,0.475000,0.200000,0.200000,0.400000,0.200000,0.400000,-0.200000,-0.400000,-0.200000,-0.400000,0.025000,-1.200000,0.025000,-1.258779,0.044098,-1.295106,0.094098,-1.300000,0.125000,-1.300000,0.475000,-1.280902,0.533779,-1.230902,0.570106,-1.200000,0.575000,0.100000,0.575000,0.158779,0.555902,0.158779,0.555902,$1*%
%AMFreePoly1*
4,1,19,0.158779,0.280902,0.195106,0.230902,0.200000,0.200000,0.400000,0.200000,0.400000,-0.200000,0.200000,-0.200000,0.180902,-0.258779,0.130902,-0.295106,0.100000,-0.300000,-1.200000,-0.300000,-1.258779,-0.280902,-1.295106,-0.230902,-1.300000,-0.200000,-1.300000,0.200000,-1.280902,0.258779,-1.230902,0.295106,-1.200000,0.300000,0.100000,0.300000,0.158779,0.280902,0.158779,0.280902,
$1*%
%AMFreePoly2*
4,1,18,0.400000,-0.200000,0.200000,-0.200000,0.200000,-0.475000,0.180902,-0.533779,0.130902,-0.570106,0.100000,-0.575000,-1.200000,-0.575000,-1.258779,-0.555902,-1.295106,-0.505902,-1.300000,-0.475000,-1.300000,-0.125000,-1.280902,-0.066221,-1.230902,-0.029894,-1.200000,-0.025000,-0.400000,-0.025000,-0.400000,0.200000,0.400000,0.200000,0.400000,-0.200000,0.400000,-0.200000,$1*%
%AMFreePoly3*
4,1,18,0.400000,-0.025000,1.200000,-0.025000,1.258779,-0.044098,1.295106,-0.094098,1.300000,-0.125000,1.300000,-0.475000,1.280902,-0.533779,1.230902,-0.570106,1.200000,-0.575000,-0.100000,-0.575000,-0.158779,-0.555902,-0.195106,-0.505902,-0.200000,-0.475000,-0.200000,-0.200000,-0.400000,-0.200000,-0.400000,0.200000,0.400000,0.200000,0.400000,-0.025000,0.400000,-0.025000,$1*%
%AMFreePoly4*
4,1,19,1.258779,0.280902,1.295106,0.230902,1.300000,0.200000,1.300000,-0.200000,1.280902,-0.258779,1.230902,-0.295106,1.200000,-0.300000,-0.100000,-0.300000,-0.158779,-0.280902,-0.195106,-0.230902,-0.200000,-0.200000,-0.400000,-0.200000,-0.400000,0.200000,-0.200000,0.200000,-0.180902,0.258779,-0.130902,0.295106,-0.100000,0.300000,1.200000,0.300000,1.258779,0.280902,1.258779,0.280902,
$1*%
%AMFreePoly5*
4,1,18,1.258779,0.555902,1.295106,0.505902,1.300000,0.475000,1.300000,0.125000,1.280902,0.066221,1.230902,0.029894,1.200000,0.025000,0.400000,0.025000,0.400000,-0.200000,-0.400000,-0.200000,-0.400000,0.200000,-0.200000,0.200000,-0.200000,0.475000,-0.180902,0.533779,-0.130902,0.570106,-0.100000,0.575000,1.200000,0.575000,1.258779,0.555902,1.258779,0.555902,$1*%
G04 Aperture macros list end*
G04 #@! TA.AperFunction,EtchedComponent*
%ADD10C,0.200000*%
G04 #@! TD*
G04 #@! TA.AperFunction,SMDPad,CuDef*
%ADD11RoundRect,0.250000X-2.500000X0.250000X-2.500000X-0.250000X2.500000X-0.250000X2.500000X0.250000X0*%
G04 #@! TD*
G04 #@! TA.AperFunction,SMDPad,CuDef*
%ADD12RoundRect,0.250000X-1.250000X0.550000X-1.250000X-0.550000X1.250000X-0.550000X1.250000X0.550000X0*%
G04 #@! TD*
G04 #@! TA.AperFunction,SMDPad,CuDef*
%ADD13FreePoly0,270.000000*%
G04 #@! TD*
G04 #@! TA.AperFunction,SMDPad,CuDef*
%ADD14FreePoly1,270.000000*%
G04 #@! TD*
G04 #@! TA.AperFunction,SMDPad,CuDef*
%ADD15FreePoly2,270.000000*%
G04 #@! TD*
G04 #@! TA.AperFunction,SMDPad,CuDef*
%ADD16FreePoly3,270.000000*%
G04 #@! TD*
G04 #@! TA.AperFunction,SMDPad,CuDef*
%ADD17FreePoly4,270.000000*%
G04 #@! TD*
G04 #@! TA.AperFunction,SMDPad,CuDef*
%ADD18FreePoly5,270.000000*%
G04 #@! TD*
G04 #@! TA.AperFunction,SMDPad,CuDef*
%ADD19RoundRect,0.250000X0.450000X-0.262500X0.450000X0.262500X-0.450000X0.262500X-0.450000X-0.262500X0*%
G04 #@! TD*
G04 #@! TA.AperFunction,ViaPad*
%ADD20C,0.800000*%
G04 #@! TD*
G04 #@! TA.AperFunction,Conductor*
%ADD21C,0.250000*%
G04 #@! TD*
G04 #@! TA.AperFunction,Conductor*
%ADD22C,1.000000*%
G04 #@! TD*
G04 #@! TA.AperFunction,Conductor*
%ADD23C,0.200000*%
G04 #@! TD*
G04 APERTURE END LIST*
D10*
X24700000Y-28550000D02*
X24250000Y-28150000D01*
X25650000Y-28550000D02*
X24700000Y-28550000D01*
X26050000Y-28150000D02*
X25650000Y-28550000D01*
D11*
X26900000Y-46000000D03*
X26900000Y-48000000D03*
X26900000Y-50000000D03*
X26900000Y-52000000D03*
D12*
X29149999Y-43600000D03*
X29149999Y-54400000D03*
D13*
X26150000Y-27850000D03*
D14*
X25150000Y-27850000D03*
D15*
X24150000Y-27850000D03*
D16*
X24150000Y-30750000D03*
D17*
X25150000Y-30750000D03*
D18*
X26150000Y-30750000D03*
D19*
X28600000Y-31612500D03*
X28600000Y-29787500D03*
D20*
X30200000Y-36600000D03*
X30200000Y-34250000D03*
X30200000Y-35400000D03*
X30200000Y-27100000D03*
X30850000Y-39000000D03*
X33350000Y-39000000D03*
X32050000Y-39000000D03*
X30200000Y-29600000D03*
X30200000Y-32100000D03*
D21*
X25150000Y-27850000D02*
X25150000Y-26850000D01*
X30200000Y-27100000D02*
X28362500Y-27100000D01*
X27362500Y-26100000D02*
X28350000Y-27087500D01*
X25900000Y-26100000D02*
X27362500Y-26100000D01*
X28362500Y-27100000D02*
X28350000Y-27087500D01*
X25150000Y-26850000D02*
X25900000Y-26100000D01*
D22*
X32050000Y-39000000D02*
X31600000Y-39450000D01*
X31600000Y-46900000D02*
X30500000Y-48000000D01*
X30850000Y-39000000D02*
X32050000Y-39000000D01*
X30500000Y-48000000D02*
X26900000Y-48000000D01*
X31600000Y-39450000D02*
X31600000Y-46900000D01*
X33350000Y-39000000D02*
X30850000Y-39000000D01*
D23*
X22700000Y-44900000D02*
X22700000Y-50100000D01*
X30200000Y-29600000D02*
X30012500Y-29787500D01*
X27400000Y-30843750D02*
X27400000Y-33150000D01*
X30012500Y-29787500D02*
X28600000Y-29787500D01*
X27400000Y-33150000D02*
X29000000Y-34750000D01*
X22700000Y-50100000D02*
X24600000Y-52000000D01*
X28456250Y-29787500D02*
X27400000Y-30843750D01*
X28600000Y-29787500D02*
X28456250Y-29787500D01*
X29000000Y-34750000D02*
X29000000Y-38600000D01*
X29000000Y-38600000D02*
X22700000Y-44900000D01*
X24600000Y-52000000D02*
X26900000Y-52000000D01*
X28600000Y-32662500D02*
X29400000Y-33462500D01*
X28600000Y-32037500D02*
X28600000Y-31612500D01*
X29400000Y-38850000D02*
X23100000Y-45150000D01*
X29400000Y-33462500D02*
X29400000Y-38850000D01*
X23600000Y-50000000D02*
X26900000Y-50000000D01*
X28600000Y-31612500D02*
X28600000Y-32662500D01*
X23100000Y-49500000D02*
X23600000Y-50000000D01*
X29712500Y-31612500D02*
X29025000Y-31612500D01*
X23100000Y-45150000D02*
X23100000Y-49500000D01*
X30200000Y-32100000D02*
X29712500Y-31612500D01*
G04 #@! TA.AperFunction,Conductor*
G36*
X34567653Y-25158872D02*
G01*
X34613408Y-25211676D01*
X34624614Y-25263187D01*
X34624614Y-40450500D01*
X34604929Y-40517539D01*
X34552125Y-40563294D01*
X34500614Y-40574500D01*
X32639551Y-40574500D01*
X32624614Y-40589437D01*
X32624613Y-40589437D01*
X32624501Y-56050501D01*
X32604816Y-56117540D01*
X32552012Y-56163295D01*
X32500501Y-56174500D01*
X21399500Y-56174500D01*
X21332461Y-56154815D01*
X21286706Y-56102011D01*
X21275500Y-56050500D01*
X21275502Y-55500000D01*
X21275504Y-54993053D01*
X27349999Y-54993053D01*
X27360612Y-55081443D01*
X27416078Y-55222095D01*
X27507434Y-55342564D01*
X27627903Y-55433920D01*
X27768555Y-55489386D01*
X27856945Y-55500000D01*
X28895999Y-55500000D01*
X29403999Y-55500000D01*
X30443053Y-55500000D01*
X30531442Y-55489386D01*
X30672094Y-55433920D01*
X30792563Y-55342564D01*
X30883919Y-55222095D01*
X30939385Y-55081443D01*
X30949999Y-54993053D01*
X30949999Y-54654000D01*
X29403999Y-54654000D01*
X29403999Y-55500000D01*
X28895999Y-55500000D01*
X28895999Y-54654000D01*
X27349999Y-54654000D01*
X27349999Y-54993053D01*
X21275504Y-54993053D01*
X21275508Y-53806946D01*
X27349999Y-53806946D01*
X27349999Y-54146000D01*
X28895999Y-54146000D01*
X29403999Y-54146000D01*
X30949999Y-54146000D01*
X30949999Y-53806946D01*
X30939385Y-53718556D01*
X30883919Y-53577904D01*
X30792563Y-53457435D01*
X30672094Y-53366079D01*
X30531442Y-53310613D01*
X30443053Y-53300000D01*
X29403999Y-53300000D01*
X29403999Y-54146000D01*
X28895999Y-54146000D01*
X28895999Y-53300000D01*
X27856945Y-53300000D01*
X27768555Y-53310613D01*
X27627903Y-53366079D01*
X27507434Y-53457435D01*
X27416078Y-53577904D01*
X27360612Y-53718556D01*
X27349999Y-53806946D01*
X21275508Y-53806946D01*
X21275542Y-44860438D01*
X22399500Y-44860438D01*
X22399500Y-50139562D01*
X22409739Y-50177775D01*
X22419979Y-50215991D01*
X22419981Y-50215994D01*
X22456944Y-50280014D01*
X22456946Y-50280023D01*
X22456949Y-50280022D01*
X22459540Y-50284511D01*
X23913181Y-51738152D01*
X23946666Y-51799475D01*
X23949500Y-51825833D01*
X23949500Y-52304269D01*
X23952353Y-52334699D01*
X23952353Y-52334701D01*
X23997206Y-52462880D01*
X23997207Y-52462882D01*
X24077850Y-52572150D01*
X24187118Y-52652793D01*
X24229845Y-52667744D01*
X24315299Y-52697646D01*
X24345730Y-52700500D01*
X24345734Y-52700500D01*
X29454270Y-52700500D01*
X29484699Y-52697646D01*
X29484701Y-52697646D01*
X29548790Y-52675219D01*
X29612882Y-52652793D01*
X29722150Y-52572150D01*
X29802793Y-52462882D01*
X29825219Y-52398790D01*
X29847646Y-52334701D01*
X29847646Y-52334699D01*
X29850500Y-52304269D01*
X29850500Y-51695730D01*
X29847646Y-51665300D01*
X29847646Y-51665298D01*
X29802793Y-51537119D01*
X29802792Y-51537117D01*
X29722150Y-51427850D01*
X29612882Y-51347207D01*
X29612880Y-51347206D01*
X29484700Y-51302353D01*
X29454270Y-51299500D01*
X29454266Y-51299500D01*
X24375833Y-51299500D01*
X24308794Y-51279815D01*
X24288152Y-51263181D01*
X23537152Y-50512181D01*
X23503667Y-50450858D01*
X23508651Y-50381166D01*
X23550523Y-50325233D01*
X23615987Y-50300816D01*
X23624833Y-50300500D01*
X23639562Y-50300500D01*
X23852404Y-50300500D01*
X23919443Y-50320185D01*
X23965198Y-50372989D01*
X23969445Y-50383544D01*
X23993000Y-50450858D01*
X23997207Y-50462882D01*
X24077850Y-50572150D01*
X24187118Y-50652793D01*
X24229845Y-50667744D01*
X24315299Y-50697646D01*
X24345730Y-50700500D01*
X24345734Y-50700500D01*
X29454270Y-50700500D01*
X29484699Y-50697646D01*
X29484701Y-50697646D01*
X29548790Y-50675219D01*
X29612882Y-50652793D01*
X29722150Y-50572150D01*
X29802793Y-50462882D01*
X29825219Y-50398790D01*
X29847646Y-50334701D01*
X29847646Y-50334699D01*
X29850500Y-50304269D01*
X29850500Y-49695730D01*
X29847646Y-49665300D01*
X29847646Y-49665298D01*
X29802793Y-49537119D01*
X29802792Y-49537117D01*
X29722150Y-49427850D01*
X29612882Y-49347207D01*
X29612880Y-49347206D01*
X29484700Y-49302353D01*
X29454270Y-49299500D01*
X29454266Y-49299500D01*
X24345734Y-49299500D01*
X24345730Y-49299500D01*
X24315300Y-49302353D01*
X24315298Y-49302353D01*
X24187119Y-49347206D01*
X24187117Y-49347207D01*
X24077850Y-49427850D01*
X23997207Y-49537117D01*
X23969445Y-49616456D01*
X23955825Y-49635444D01*
X23946117Y-49656703D01*
X23935841Y-49663306D01*
X23928723Y-49673231D01*
X23906999Y-49681842D01*
X23887339Y-49694477D01*
X23868172Y-49697232D01*
X23863770Y-49698978D01*
X23852404Y-49699500D01*
X23775833Y-49699500D01*
X23708794Y-49679815D01*
X23688152Y-49663181D01*
X23436819Y-49411848D01*
X23403334Y-49350525D01*
X23400500Y-49324167D01*
X23400500Y-47695730D01*
X23949500Y-47695730D01*
X23949500Y-48304269D01*
X23952353Y-48334699D01*
X23952353Y-48334701D01*
X23997206Y-48462880D01*
X23997207Y-48462882D01*
X24077850Y-48572150D01*
X24187118Y-48652793D01*
X24229845Y-48667744D01*
X24315299Y-48697646D01*
X24345730Y-48700500D01*
X24345734Y-48700500D01*
X30568996Y-48700500D01*
X30660040Y-48682389D01*
X30704328Y-48673580D01*
X30768069Y-48647177D01*
X30831807Y-48620777D01*
X30831808Y-48620776D01*
X30831811Y-48620775D01*
X30946543Y-48544114D01*
X32144114Y-47346543D01*
X32220775Y-47231811D01*
X32273580Y-47104328D01*
X32300500Y-46968994D01*
X32300500Y-46831006D01*
X32300500Y-39824500D01*
X32320185Y-39757461D01*
X32372989Y-39711706D01*
X32424500Y-39700500D01*
X33418995Y-39700500D01*
X33510041Y-39682389D01*
X33554328Y-39673580D01*
X33681811Y-39620775D01*
X33796542Y-39544114D01*
X33894114Y-39446542D01*
X33970775Y-39331811D01*
X34023580Y-39204328D01*
X34050500Y-39068993D01*
X34050500Y-38931007D01*
X34050500Y-38931004D01*
X34023581Y-38795677D01*
X34023580Y-38795676D01*
X34023580Y-38795672D01*
X34007169Y-38756052D01*
X33970778Y-38668195D01*
X33970771Y-38668182D01*
X33894114Y-38553458D01*
X33894111Y-38553454D01*
X33796545Y-38455888D01*
X33796541Y-38455885D01*
X33681817Y-38379228D01*
X33681804Y-38379221D01*
X33554332Y-38326421D01*
X33554322Y-38326418D01*
X33418995Y-38299500D01*
X33418993Y-38299500D01*
X30781007Y-38299500D01*
X30781005Y-38299500D01*
X30645677Y-38326418D01*
X30645667Y-38326421D01*
X30518195Y-38379221D01*
X30518182Y-38379228D01*
X30403458Y-38455885D01*
X30403454Y-38455888D01*
X30305888Y-38553454D01*
X30305885Y-38553458D01*
X30229228Y-38668182D01*
X30229221Y-38668195D01*
X30176421Y-38795667D01*
X30176418Y-38795677D01*
X30149500Y-38931004D01*
X30149500Y-38931007D01*
X30149500Y-39068993D01*
X30149500Y-39068995D01*
X30149499Y-39068995D01*
X30176418Y-39204322D01*
X30176421Y-39204332D01*
X30229221Y-39331804D01*
X30229228Y-39331817D01*
X30305885Y-39446541D01*
X30305888Y-39446545D01*
X30403454Y-39544111D01*
X30403458Y-39544114D01*
X30518182Y-39620771D01*
X30518195Y-39620778D01*
X30645667Y-39673578D01*
X30645672Y-39673580D01*
X30645676Y-39673580D01*
X30645677Y-39673581D01*
X30781004Y-39700500D01*
X30787067Y-39701097D01*
X30786799Y-39703817D01*
X30842539Y-39720185D01*
X30888294Y-39772989D01*
X30899500Y-39824500D01*
X30899500Y-42488872D01*
X30879815Y-42555911D01*
X30827011Y-42601666D01*
X30757853Y-42611610D01*
X30700576Y-42587677D01*
X30672095Y-42566080D01*
X30531442Y-42510613D01*
X30443053Y-42500000D01*
X29403999Y-42500000D01*
X29403999Y-44700000D01*
X30443053Y-44700000D01*
X30531442Y-44689386D01*
X30672096Y-44633919D01*
X30700574Y-44612324D01*
X30765885Y-44587500D01*
X30834249Y-44601927D01*
X30883961Y-44651025D01*
X30899500Y-44711127D01*
X30899500Y-46558481D01*
X30879815Y-46625520D01*
X30863181Y-46646162D01*
X30246162Y-47263181D01*
X30184839Y-47296666D01*
X30158481Y-47299500D01*
X24345730Y-47299500D01*
X24315300Y-47302353D01*
X24315298Y-47302353D01*
X24187119Y-47347206D01*
X24187117Y-47347207D01*
X24077850Y-47427850D01*
X23997207Y-47537117D01*
X23997206Y-47537119D01*
X23952353Y-47665298D01*
X23952353Y-47665300D01*
X23949500Y-47695730D01*
X23400500Y-47695730D01*
X23400500Y-46293053D01*
X23850000Y-46293053D01*
X23860613Y-46381443D01*
X23916079Y-46522095D01*
X24007435Y-46642564D01*
X24127904Y-46733920D01*
X24268556Y-46789386D01*
X24356946Y-46800000D01*
X26646000Y-46800000D01*
X27154000Y-46800000D01*
X29443054Y-46800000D01*
X29531443Y-46789386D01*
X29672095Y-46733920D01*
X29792564Y-46642564D01*
X29883920Y-46522095D01*
X29939386Y-46381443D01*
X29950000Y-46293053D01*
X29950000Y-46254000D01*
X27154000Y-46254000D01*
X27154000Y-46800000D01*
X26646000Y-46800000D01*
X26646000Y-46254000D01*
X23850000Y-46254000D01*
X23850000Y-46293053D01*
X23400500Y-46293053D01*
X23400500Y-45706946D01*
X23850000Y-45706946D01*
X23850000Y-45746000D01*
X26646000Y-45746000D01*
X27154000Y-45746000D01*
X29950000Y-45746000D01*
X29950000Y-45706946D01*
X29939386Y-45618556D01*
X29883920Y-45477904D01*
X29792564Y-45357435D01*
X29672095Y-45266079D01*
X29531443Y-45210613D01*
X29443054Y-45200000D01*
X27154000Y-45200000D01*
X27154000Y-45746000D01*
X26646000Y-45746000D01*
X26646000Y-45200000D01*
X24356946Y-45200000D01*
X24268556Y-45210613D01*
X24127904Y-45266079D01*
X24007435Y-45357435D01*
X23916079Y-45477904D01*
X23860613Y-45618556D01*
X23850000Y-45706946D01*
X23400500Y-45706946D01*
X23400500Y-45325833D01*
X23420185Y-45258794D01*
X23436819Y-45238152D01*
X24481918Y-44193053D01*
X27349999Y-44193053D01*
X27360612Y-44281443D01*
X27416078Y-44422095D01*
X27507434Y-44542564D01*
X27627903Y-44633920D01*
X27768555Y-44689386D01*
X27856945Y-44700000D01*
X28895999Y-44700000D01*
X28895999Y-43854000D01*
X27349999Y-43854000D01*
X27349999Y-44193053D01*
X24481918Y-44193053D01*
X25668025Y-43006946D01*
X27349999Y-43006946D01*
X27349999Y-43346000D01*
X28895999Y-43346000D01*
X28895999Y-42500000D01*
X27856945Y-42500000D01*
X27768555Y-42510613D01*
X27627903Y-42566079D01*
X27507434Y-42657435D01*
X27416078Y-42777904D01*
X27360612Y-42918556D01*
X27349999Y-43006946D01*
X25668025Y-43006946D01*
X25759418Y-42915553D01*
X26186099Y-42488872D01*
X29640460Y-39034511D01*
X29658389Y-39003457D01*
X29680021Y-38965989D01*
X29700500Y-38889562D01*
X29700500Y-33422938D01*
X29680021Y-33346511D01*
X29680017Y-33346504D01*
X29640464Y-33277995D01*
X29640458Y-33277987D01*
X28936819Y-32574348D01*
X28922115Y-32547420D01*
X28905523Y-32521602D01*
X28904631Y-32515401D01*
X28903334Y-32513025D01*
X28900500Y-32486667D01*
X28900500Y-32449500D01*
X28920185Y-32382461D01*
X28972989Y-32336706D01*
X29024500Y-32325500D01*
X29104270Y-32325500D01*
X29134699Y-32322646D01*
X29134701Y-32322646D01*
X29198790Y-32300219D01*
X29262882Y-32277793D01*
X29372150Y-32197150D01*
X29389599Y-32173507D01*
X29445245Y-32131256D01*
X29514901Y-32125797D01*
X29576451Y-32158863D01*
X29609143Y-32215045D01*
X29638739Y-32325500D01*
X29640423Y-32331783D01*
X29640426Y-32331790D01*
X29719475Y-32468709D01*
X29719479Y-32468714D01*
X29719480Y-32468716D01*
X29831284Y-32580520D01*
X29831286Y-32580521D01*
X29831290Y-32580524D01*
X29968209Y-32659573D01*
X29968216Y-32659577D01*
X30120943Y-32700500D01*
X30120945Y-32700500D01*
X30279055Y-32700500D01*
X30279057Y-32700500D01*
X30431784Y-32659577D01*
X30568716Y-32580520D01*
X30680520Y-32468716D01*
X30759577Y-32331784D01*
X30800500Y-32179057D01*
X30800500Y-32020943D01*
X30759577Y-31868216D01*
X30759573Y-31868209D01*
X30680524Y-31731290D01*
X30680518Y-31731282D01*
X30568717Y-31619481D01*
X30568709Y-31619475D01*
X30431790Y-31540426D01*
X30431786Y-31540424D01*
X30431784Y-31540423D01*
X30279057Y-31499500D01*
X30120943Y-31499500D01*
X30120939Y-31499500D01*
X30114002Y-31501359D01*
X30044152Y-31499692D01*
X29994234Y-31469263D01*
X29897012Y-31372041D01*
X29897004Y-31372035D01*
X29828495Y-31332482D01*
X29828490Y-31332479D01*
X29803013Y-31325652D01*
X29752062Y-31312000D01*
X29752060Y-31312000D01*
X29601970Y-31312000D01*
X29534931Y-31292315D01*
X29489176Y-31239511D01*
X29484929Y-31228956D01*
X29469281Y-31184239D01*
X29452793Y-31137118D01*
X29372150Y-31027850D01*
X29262882Y-30947207D01*
X29262880Y-30947206D01*
X29134700Y-30902353D01*
X29104270Y-30899500D01*
X29104266Y-30899500D01*
X28095734Y-30899500D01*
X28077948Y-30901168D01*
X28050711Y-30895870D01*
X28023039Y-30893891D01*
X28016895Y-30889292D01*
X28009364Y-30887827D01*
X27989316Y-30868646D01*
X27967106Y-30852019D01*
X27964424Y-30844829D01*
X27958880Y-30839525D01*
X27952385Y-30812551D01*
X27942689Y-30786555D01*
X27944320Y-30779056D01*
X27942524Y-30771597D01*
X27951643Y-30745394D01*
X27957541Y-30718282D01*
X27964152Y-30709450D01*
X27965489Y-30705609D01*
X27978680Y-30690040D01*
X28131904Y-30536816D01*
X28193225Y-30503334D01*
X28219583Y-30500500D01*
X29104270Y-30500500D01*
X29134699Y-30497646D01*
X29134701Y-30497646D01*
X29198790Y-30475219D01*
X29262882Y-30452793D01*
X29372150Y-30372150D01*
X29452793Y-30262882D01*
X29474622Y-30200499D01*
X29484929Y-30171044D01*
X29498548Y-30152055D01*
X29508257Y-30130797D01*
X29518532Y-30124193D01*
X29525651Y-30114269D01*
X29547374Y-30105657D01*
X29567035Y-30093023D01*
X29586201Y-30090267D01*
X29590604Y-30088522D01*
X29601970Y-30088000D01*
X29811015Y-30088000D01*
X29873014Y-30104612D01*
X29968216Y-30159577D01*
X30120943Y-30200500D01*
X30120945Y-30200500D01*
X30279055Y-30200500D01*
X30279057Y-30200500D01*
X30431784Y-30159577D01*
X30568716Y-30080520D01*
X30680520Y-29968716D01*
X30759577Y-29831784D01*
X30800500Y-29679057D01*
X30800500Y-29520943D01*
X30759577Y-29368216D01*
X30757712Y-29364986D01*
X30680524Y-29231290D01*
X30680518Y-29231282D01*
X30568717Y-29119481D01*
X30568709Y-29119475D01*
X30431790Y-29040426D01*
X30431786Y-29040424D01*
X30431784Y-29040423D01*
X30279057Y-28999500D01*
X30120943Y-28999500D01*
X29968216Y-29040423D01*
X29968209Y-29040426D01*
X29831290Y-29119475D01*
X29831282Y-29119481D01*
X29719481Y-29231282D01*
X29719477Y-29231287D01*
X29670124Y-29316771D01*
X29619557Y-29364986D01*
X29550950Y-29378210D01*
X29486086Y-29352242D01*
X29458644Y-29319348D01*
X29458311Y-29319595D01*
X29454178Y-29313994D01*
X29453106Y-29312710D01*
X29452794Y-29312119D01*
X29436053Y-29289436D01*
X29372150Y-29202850D01*
X29262882Y-29122207D01*
X29262880Y-29122206D01*
X29134700Y-29077353D01*
X29104270Y-29074500D01*
X29104266Y-29074500D01*
X28095734Y-29074500D01*
X28095730Y-29074500D01*
X28065300Y-29077353D01*
X28065298Y-29077353D01*
X27937119Y-29122206D01*
X27937117Y-29122207D01*
X27827850Y-29202850D01*
X27747207Y-29312117D01*
X27747206Y-29312119D01*
X27702353Y-29440298D01*
X27702353Y-29440300D01*
X27699500Y-29470730D01*
X27699500Y-30067916D01*
X27679815Y-30134955D01*
X27663181Y-30155597D01*
X27216707Y-30602071D01*
X27216689Y-30602089D01*
X27215489Y-30603290D01*
X27159540Y-30659239D01*
X27154687Y-30667643D01*
X27144670Y-30678235D01*
X27126556Y-30688790D01*
X27111379Y-30703256D01*
X27096976Y-30706028D01*
X27084303Y-30713414D01*
X27063355Y-30712500D01*
X27042769Y-30716464D01*
X27029153Y-30711009D01*
X27014500Y-30710371D01*
X26997372Y-30698278D01*
X26977910Y-30690482D01*
X26969404Y-30678531D01*
X26957422Y-30670072D01*
X26949551Y-30650639D01*
X26937394Y-30633559D01*
X26932111Y-30612431D01*
X26927831Y-30585406D01*
X26927058Y-30580858D01*
X26891113Y-30496762D01*
X26859166Y-30452792D01*
X26852975Y-30444270D01*
X26852974Y-30444268D01*
X26852969Y-30444262D01*
X26828730Y-30416519D01*
X26828727Y-30416517D01*
X26828726Y-30416516D01*
X26750222Y-30369612D01*
X26750221Y-30369611D01*
X26750220Y-30369611D01*
X26734215Y-30364410D01*
X26688503Y-30349557D01*
X26626693Y-30339768D01*
X26563558Y-30309839D01*
X26534371Y-30271096D01*
X26510667Y-30221874D01*
X26510666Y-30221873D01*
X26439163Y-30164851D01*
X26350004Y-30144500D01*
X26350000Y-30144500D01*
X25950000Y-30144500D01*
X25949995Y-30144500D01*
X25904271Y-30149651D01*
X25821873Y-30189333D01*
X25764849Y-30260838D01*
X25758858Y-30273279D01*
X25712034Y-30325137D01*
X25644606Y-30343447D01*
X25577983Y-30322397D01*
X25535420Y-30273275D01*
X25534337Y-30271027D01*
X25510666Y-30221873D01*
X25439163Y-30164851D01*
X25350004Y-30144500D01*
X25350000Y-30144500D01*
X24950000Y-30144500D01*
X24949995Y-30144500D01*
X24904271Y-30149651D01*
X24821873Y-30189333D01*
X24764849Y-30260838D01*
X24758858Y-30273279D01*
X24712034Y-30325137D01*
X24644606Y-30343447D01*
X24577983Y-30322397D01*
X24535420Y-30273275D01*
X24534337Y-30271027D01*
X24510666Y-30221873D01*
X24439163Y-30164851D01*
X24350004Y-30144500D01*
X24350000Y-30144500D01*
X23950000Y-30144500D01*
X23949995Y-30144500D01*
X23904271Y-30149651D01*
X23821873Y-30189333D01*
X23764850Y-30260838D01*
X23759943Y-30271027D01*
X23713119Y-30322886D01*
X23657957Y-30340840D01*
X23642872Y-30342027D01*
X23642871Y-30342027D01*
X23633906Y-30343447D01*
X23610406Y-30347169D01*
X23610394Y-30347170D01*
X23610350Y-30347178D01*
X23605858Y-30347941D01*
X23605855Y-30347942D01*
X23521760Y-30383887D01*
X23469270Y-30422024D01*
X23469268Y-30422025D01*
X23441519Y-30446270D01*
X23441516Y-30446273D01*
X23394612Y-30524777D01*
X23374918Y-30585390D01*
X23374558Y-30586497D01*
X23364500Y-30650000D01*
X23364500Y-31950000D01*
X23367030Y-31982147D01*
X23372169Y-32014594D01*
X23372178Y-32014649D01*
X23372941Y-32019141D01*
X23372942Y-32019144D01*
X23408887Y-32103239D01*
X23447024Y-32155729D01*
X23447025Y-32155731D01*
X23447030Y-32155737D01*
X23447031Y-32155738D01*
X23471270Y-32183481D01*
X23549780Y-32230389D01*
X23611497Y-32250442D01*
X23675000Y-32260500D01*
X23675001Y-32260500D01*
X24024992Y-32260500D01*
X24025000Y-32260500D01*
X24057147Y-32257970D01*
X24089594Y-32252831D01*
X24094142Y-32252058D01*
X24178238Y-32216113D01*
X24230738Y-32177969D01*
X24258481Y-32153730D01*
X24305389Y-32075220D01*
X24325442Y-32013503D01*
X24335500Y-31950000D01*
X24335500Y-31457266D01*
X24340173Y-31441350D01*
X24339835Y-31424765D01*
X24349814Y-31408518D01*
X24355185Y-31390227D01*
X24368024Y-31378870D01*
X24376403Y-31365229D01*
X24405699Y-31345546D01*
X24461699Y-31318578D01*
X24530640Y-31307226D01*
X24594774Y-31334948D01*
X24633740Y-31392944D01*
X24639500Y-31430298D01*
X24639500Y-31950000D01*
X24642030Y-31982147D01*
X24647169Y-32014594D01*
X24647178Y-32014649D01*
X24647941Y-32019141D01*
X24647942Y-32019144D01*
X24683887Y-32103239D01*
X24722024Y-32155729D01*
X24722025Y-32155731D01*
X24722030Y-32155737D01*
X24722031Y-32155738D01*
X24746270Y-32183481D01*
X24824780Y-32230389D01*
X24886497Y-32250442D01*
X24950000Y-32260500D01*
X24950001Y-32260500D01*
X25349992Y-32260500D01*
X25350000Y-32260500D01*
X25382147Y-32257970D01*
X25414594Y-32252831D01*
X25419142Y-32252058D01*
X25503238Y-32216113D01*
X25555738Y-32177969D01*
X25583481Y-32153730D01*
X25630389Y-32075220D01*
X25650442Y-32013503D01*
X25660500Y-31950000D01*
X25660500Y-31432874D01*
X25680185Y-31365835D01*
X25732989Y-31320080D01*
X25802147Y-31310136D01*
X25834748Y-31319511D01*
X25849335Y-31325977D01*
X25860837Y-31335149D01*
X25879785Y-31339473D01*
X25890748Y-31344333D01*
X25908623Y-31359476D01*
X25929071Y-31370913D01*
X25934786Y-31381639D01*
X25944060Y-31389495D01*
X25950910Y-31411897D01*
X25961929Y-31432575D01*
X25964290Y-31455653D01*
X25964492Y-31456311D01*
X25964393Y-31456659D01*
X25964500Y-31457696D01*
X25964500Y-31950000D01*
X25967030Y-31982147D01*
X25972169Y-32014594D01*
X25972178Y-32014649D01*
X25972941Y-32019141D01*
X25972942Y-32019144D01*
X26008887Y-32103239D01*
X26047024Y-32155729D01*
X26047025Y-32155731D01*
X26047030Y-32155737D01*
X26047031Y-32155738D01*
X26071270Y-32183481D01*
X26149780Y-32230389D01*
X26211497Y-32250442D01*
X26275000Y-32260500D01*
X26275001Y-32260500D01*
X26624992Y-32260500D01*
X26625000Y-32260500D01*
X26657147Y-32257970D01*
X26689594Y-32252831D01*
X26694142Y-32252058D01*
X26778238Y-32216113D01*
X26830738Y-32177969D01*
X26858481Y-32153730D01*
X26869053Y-32136034D01*
X26920334Y-32088582D01*
X26989131Y-32076387D01*
X27053600Y-32103321D01*
X27093273Y-32160835D01*
X27099500Y-32199635D01*
X27099500Y-33189562D01*
X27108203Y-33222040D01*
X27119979Y-33265990D01*
X27119982Y-33265995D01*
X27159535Y-33334504D01*
X27159541Y-33334512D01*
X28663181Y-34838152D01*
X28696666Y-34899475D01*
X28699500Y-34925833D01*
X28699500Y-38424167D01*
X28679815Y-38491206D01*
X28663181Y-38511848D01*
X22459541Y-44715487D01*
X22459535Y-44715495D01*
X22419982Y-44784004D01*
X22419979Y-44784009D01*
X22406326Y-44834962D01*
X22399500Y-44860438D01*
X21275542Y-44860438D01*
X21275571Y-36878711D01*
X23349500Y-36878711D01*
X23349500Y-37121288D01*
X23381161Y-37361785D01*
X23443947Y-37596104D01*
X23536773Y-37820205D01*
X23536776Y-37820212D01*
X23658064Y-38030289D01*
X23658066Y-38030292D01*
X23658067Y-38030293D01*
X23805733Y-38222736D01*
X23805739Y-38222743D01*
X23977256Y-38394260D01*
X23977262Y-38394265D01*
X24169711Y-38541936D01*
X24379788Y-38663224D01*
X24603900Y-38756054D01*
X24838211Y-38818838D01*
X25018586Y-38842584D01*
X25078711Y-38850500D01*
X25078712Y-38850500D01*
X25321289Y-38850500D01*
X25369388Y-38844167D01*
X25561789Y-38818838D01*
X25796100Y-38756054D01*
X26020212Y-38663224D01*
X26230289Y-38541936D01*
X26422738Y-38394265D01*
X26594265Y-38222738D01*
X26741936Y-38030289D01*
X26863224Y-37820212D01*
X26956054Y-37596100D01*
X27018838Y-37361789D01*
X27050500Y-37121288D01*
X27050500Y-36878712D01*
X27018838Y-36638211D01*
X26956054Y-36403900D01*
X26863224Y-36179788D01*
X26741936Y-35969711D01*
X26594265Y-35777262D01*
X26594260Y-35777256D01*
X26422743Y-35605739D01*
X26422736Y-35605733D01*
X26230293Y-35458067D01*
X26230292Y-35458066D01*
X26230289Y-35458064D01*
X26020212Y-35336776D01*
X26020205Y-35336773D01*
X25796104Y-35243947D01*
X25561785Y-35181161D01*
X25321289Y-35149500D01*
X25321288Y-35149500D01*
X25078712Y-35149500D01*
X25078711Y-35149500D01*
X24838214Y-35181161D01*
X24603895Y-35243947D01*
X24379794Y-35336773D01*
X24379785Y-35336777D01*
X24169706Y-35458067D01*
X23977263Y-35605733D01*
X23977256Y-35605739D01*
X23805739Y-35777256D01*
X23805733Y-35777263D01*
X23658067Y-35969706D01*
X23536777Y-36179785D01*
X23536773Y-36179794D01*
X23443947Y-36403895D01*
X23381161Y-36638214D01*
X23349500Y-36878711D01*
X21275571Y-36878711D01*
X21275573Y-36403895D01*
X21275609Y-26650000D01*
X23364500Y-26650000D01*
X23364500Y-27950000D01*
X23367030Y-27982147D01*
X23372169Y-28014594D01*
X23372178Y-28014649D01*
X23372941Y-28019141D01*
X23372942Y-28019144D01*
X23408887Y-28103239D01*
X23447024Y-28155729D01*
X23447025Y-28155731D01*
X23447030Y-28155737D01*
X23447031Y-28155738D01*
X23471270Y-28183481D01*
X23549780Y-28230389D01*
X23597703Y-28245960D01*
X23611490Y-28250440D01*
X23611491Y-28250440D01*
X23611497Y-28250442D01*
X23673309Y-28260232D01*
X23736440Y-28290159D01*
X23765628Y-28328902D01*
X23789333Y-28378126D01*
X23789334Y-28378127D01*
X23860837Y-28435149D01*
X23936203Y-28452351D01*
X23949995Y-28455499D01*
X23950000Y-28455500D01*
X24094230Y-28455500D01*
X24161269Y-28475185D01*
X24176612Y-28486821D01*
X24493757Y-28768728D01*
X24515489Y-28790460D01*
X24523239Y-28794934D01*
X24529928Y-28800880D01*
X24554132Y-28813017D01*
X24560544Y-28816472D01*
X24584011Y-28830021D01*
X24590605Y-28831787D01*
X24592657Y-28832337D01*
X24600656Y-28836349D01*
X24630752Y-28842545D01*
X24660438Y-28850500D01*
X24660445Y-28850500D01*
X24668496Y-28851561D01*
X24668478Y-28851694D01*
X24670032Y-28851852D01*
X24670042Y-28851719D01*
X24678146Y-28852303D01*
X24678153Y-28852305D01*
X24705196Y-28850714D01*
X24712478Y-28850500D01*
X25689560Y-28850500D01*
X25689562Y-28850500D01*
X25765989Y-28830021D01*
X25834511Y-28790460D01*
X25890460Y-28734511D01*
X26290460Y-28334511D01*
X26306112Y-28307399D01*
X26356679Y-28259184D01*
X26425286Y-28245960D01*
X26490151Y-28271928D01*
X26530680Y-28328841D01*
X26537500Y-28369399D01*
X26537500Y-28484095D01*
X26575397Y-28455476D01*
X26603027Y-28410853D01*
X26655055Y-28364217D01*
X26689061Y-28353655D01*
X26705168Y-28351104D01*
X26735474Y-28344712D01*
X26735477Y-28344711D01*
X26836719Y-28296611D01*
X26889225Y-28258463D01*
X26946382Y-28204390D01*
X27000019Y-28105965D01*
X27000021Y-28105961D01*
X27020071Y-28044254D01*
X27020071Y-28044251D01*
X27035000Y-27949999D01*
X27035000Y-27600000D01*
X26537500Y-27600000D01*
X26537500Y-27930600D01*
X26517815Y-27997639D01*
X26465011Y-28043394D01*
X26395853Y-28053338D01*
X26332297Y-28024313D01*
X26326798Y-28019250D01*
X26314624Y-28007343D01*
X26290460Y-27965489D01*
X26234511Y-27909540D01*
X26185969Y-27881515D01*
X26174798Y-27870589D01*
X26165046Y-27853192D01*
X26151284Y-27838759D01*
X26146956Y-27820920D01*
X26140634Y-27809641D01*
X26141348Y-27797803D01*
X26137500Y-27781939D01*
X26137500Y-27524000D01*
X26157185Y-27456961D01*
X26209989Y-27411206D01*
X26261500Y-27400000D01*
X26337500Y-27400000D01*
X26337500Y-27324000D01*
X26357185Y-27256961D01*
X26409989Y-27211206D01*
X26461500Y-27200000D01*
X27035000Y-27200000D01*
X27035000Y-26650007D01*
X27034999Y-26649994D01*
X27031245Y-26602297D01*
X27025956Y-26568897D01*
X27028352Y-26550355D01*
X27025692Y-26531853D01*
X27032737Y-26516424D01*
X27034912Y-26499603D01*
X27046951Y-26485302D01*
X27054717Y-26468297D01*
X27068986Y-26459126D01*
X27079909Y-26446152D01*
X27097767Y-26440630D01*
X27113495Y-26430523D01*
X27145201Y-26425964D01*
X27146661Y-26425513D01*
X27148430Y-26425500D01*
X27176311Y-26425500D01*
X27243350Y-26445185D01*
X27263992Y-26461819D01*
X28102035Y-27299862D01*
X28162638Y-27360465D01*
X28162639Y-27360466D01*
X28162641Y-27360467D01*
X28236858Y-27403316D01*
X28236859Y-27403317D01*
X28236861Y-27403317D01*
X28236862Y-27403318D01*
X28319647Y-27425501D01*
X28319649Y-27425501D01*
X28412949Y-27425501D01*
X28412965Y-27425500D01*
X29625170Y-27425500D01*
X29692209Y-27445185D01*
X29712679Y-27464022D01*
X29713733Y-27462969D01*
X29719480Y-27468716D01*
X29831284Y-27580520D01*
X29831286Y-27580521D01*
X29831290Y-27580524D01*
X29968209Y-27659573D01*
X29968216Y-27659577D01*
X30120943Y-27700500D01*
X30120945Y-27700500D01*
X30279055Y-27700500D01*
X30279057Y-27700500D01*
X30431784Y-27659577D01*
X30568716Y-27580520D01*
X30680520Y-27468716D01*
X30759577Y-27331784D01*
X30800500Y-27179057D01*
X30800500Y-27020943D01*
X30759577Y-26868216D01*
X30684502Y-26738181D01*
X30680524Y-26731290D01*
X30680518Y-26731282D01*
X30568717Y-26619481D01*
X30568709Y-26619475D01*
X30431790Y-26540426D01*
X30431786Y-26540424D01*
X30431784Y-26540423D01*
X30279057Y-26499500D01*
X30120943Y-26499500D01*
X29968216Y-26540423D01*
X29968209Y-26540426D01*
X29831290Y-26619475D01*
X29831282Y-26619481D01*
X29713733Y-26737031D01*
X29711487Y-26734785D01*
X29667145Y-26767179D01*
X29625170Y-26774500D01*
X28548689Y-26774500D01*
X28481650Y-26754815D01*
X28461008Y-26738181D01*
X27562364Y-25839537D01*
X27562362Y-25839535D01*
X27525250Y-25818108D01*
X27488140Y-25796682D01*
X27446746Y-25785591D01*
X27405353Y-25774500D01*
X25942853Y-25774500D01*
X25857147Y-25774500D01*
X25774359Y-25796682D01*
X25700138Y-25839535D01*
X25700135Y-25839537D01*
X25236492Y-26303181D01*
X25175169Y-26336666D01*
X25148811Y-26339500D01*
X24949994Y-26339500D01*
X24917862Y-26342029D01*
X24917858Y-26342029D01*
X24917853Y-26342030D01*
X24885406Y-26347169D01*
X24885394Y-26347170D01*
X24885350Y-26347178D01*
X24880858Y-26347941D01*
X24880855Y-26347942D01*
X24796760Y-26383887D01*
X24744270Y-26422024D01*
X24744268Y-26422025D01*
X24716519Y-26446270D01*
X24716516Y-26446273D01*
X24669612Y-26524777D01*
X24649558Y-26586496D01*
X24639500Y-26650000D01*
X24639500Y-27167125D01*
X24619815Y-27234164D01*
X24567011Y-27279919D01*
X24497853Y-27289863D01*
X24465252Y-27280488D01*
X24450661Y-27274020D01*
X24439163Y-27264851D01*
X24420219Y-27260527D01*
X24409252Y-27255666D01*
X24391372Y-27240519D01*
X24370925Y-27229081D01*
X24365211Y-27218358D01*
X24355940Y-27210504D01*
X24349088Y-27188098D01*
X24338070Y-27167419D01*
X24335708Y-27144345D01*
X24335508Y-27143688D01*
X24335606Y-27143339D01*
X24335500Y-27142303D01*
X24335500Y-26650007D01*
X24335500Y-26650000D01*
X24332970Y-26617853D01*
X24327831Y-26585406D01*
X24327058Y-26580858D01*
X24291113Y-26496762D01*
X24263768Y-26459126D01*
X24252975Y-26444270D01*
X24252974Y-26444268D01*
X24252969Y-26444262D01*
X24228730Y-26416519D01*
X24228727Y-26416517D01*
X24228726Y-26416516D01*
X24150222Y-26369612D01*
X24150221Y-26369611D01*
X24150220Y-26369611D01*
X24088503Y-26349558D01*
X24025000Y-26339500D01*
X23675000Y-26339500D01*
X23674994Y-26339500D01*
X23642862Y-26342029D01*
X23642858Y-26342029D01*
X23642853Y-26342030D01*
X23610406Y-26347169D01*
X23610394Y-26347170D01*
X23610350Y-26347178D01*
X23605858Y-26347941D01*
X23605855Y-26347942D01*
X23521760Y-26383887D01*
X23469270Y-26422024D01*
X23469268Y-26422025D01*
X23441519Y-26446270D01*
X23441516Y-26446273D01*
X23394612Y-26524777D01*
X23374931Y-26585350D01*
X23374558Y-26586497D01*
X23364500Y-26650000D01*
X21275609Y-26650000D01*
X21275609Y-26645128D01*
X21275614Y-25263187D01*
X21295299Y-25196147D01*
X21348103Y-25150392D01*
X21399614Y-25139187D01*
X29639552Y-25139187D01*
X34500614Y-25139187D01*
X34567653Y-25158872D01*
G37*
G04 #@! TD.AperFunction*
M02*
